G04 #@! TF.FileFunction,Legend,Top*
%FSLAX46Y46*%
G04 Gerber Fmt 4.6, Leading zero omitted, Abs format (unit mm)*
G04 Created by KiCad (PCBNEW 4.0.6) date 11/03/17 07:40:39*
%MOMM*%
%LPD*%
G01*
G04 APERTURE LIST*
%ADD10C,0.100000*%
%ADD11C,0.300000*%
%ADD12C,0.250000*%
%ADD13C,0.381000*%
%ADD14C,0.200000*%
%ADD15C,0.150000*%
%ADD16C,0.304800*%
%ADD17C,2.398980*%
%ADD18R,2.398980X2.398980*%
%ADD19O,2.457400X2.152600*%
%ADD20C,2.152600*%
%ADD21C,1.390600*%
%ADD22C,2.051000*%
%ADD23C,2.900000*%
%ADD24C,4.387810*%
%ADD25C,2.101810*%
%ADD26R,2.152600X2.152600*%
%ADD27C,2.400000*%
%ADD28R,1.924000X1.924000*%
%ADD29C,1.924000*%
%ADD30R,0.900000X1.400000*%
%ADD31R,1.400000X1.400000*%
%ADD32C,1.400000*%
%ADD33C,0.900000*%
%ADD34C,8.400000*%
G04 APERTURE END LIST*
D10*
D11*
X60964286Y-52403571D02*
X60964286Y-50903571D01*
X60964286Y-51475000D02*
X61107143Y-51403571D01*
X61392857Y-51403571D01*
X61535714Y-51475000D01*
X61607143Y-51546429D01*
X61678572Y-51689286D01*
X61678572Y-52117857D01*
X61607143Y-52260714D01*
X61535714Y-52332143D01*
X61392857Y-52403571D01*
X61107143Y-52403571D01*
X60964286Y-52332143D01*
X62535715Y-52403571D02*
X62392857Y-52332143D01*
X62321429Y-52260714D01*
X62250000Y-52117857D01*
X62250000Y-51689286D01*
X62321429Y-51546429D01*
X62392857Y-51475000D01*
X62535715Y-51403571D01*
X62750000Y-51403571D01*
X62892857Y-51475000D01*
X62964286Y-51546429D01*
X63035715Y-51689286D01*
X63035715Y-52117857D01*
X62964286Y-52260714D01*
X62892857Y-52332143D01*
X62750000Y-52403571D01*
X62535715Y-52403571D01*
X63464286Y-51403571D02*
X64035715Y-51403571D01*
X63678572Y-50903571D02*
X63678572Y-52189286D01*
X63750000Y-52332143D01*
X63892858Y-52403571D01*
X64035715Y-52403571D01*
X64321429Y-51403571D02*
X64892858Y-51403571D01*
X64535715Y-50903571D02*
X64535715Y-52189286D01*
X64607143Y-52332143D01*
X64750001Y-52403571D01*
X64892858Y-52403571D01*
X65607144Y-52403571D02*
X65464286Y-52332143D01*
X65392858Y-52260714D01*
X65321429Y-52117857D01*
X65321429Y-51689286D01*
X65392858Y-51546429D01*
X65464286Y-51475000D01*
X65607144Y-51403571D01*
X65821429Y-51403571D01*
X65964286Y-51475000D01*
X66035715Y-51546429D01*
X66107144Y-51689286D01*
X66107144Y-52117857D01*
X66035715Y-52260714D01*
X65964286Y-52332143D01*
X65821429Y-52403571D01*
X65607144Y-52403571D01*
X66750001Y-52403571D02*
X66750001Y-51403571D01*
X66750001Y-51546429D02*
X66821429Y-51475000D01*
X66964287Y-51403571D01*
X67178572Y-51403571D01*
X67321429Y-51475000D01*
X67392858Y-51617857D01*
X67392858Y-52403571D01*
X67392858Y-51617857D02*
X67464287Y-51475000D01*
X67607144Y-51403571D01*
X67821429Y-51403571D01*
X67964287Y-51475000D01*
X68035715Y-51617857D01*
X68035715Y-52403571D01*
X64142857Y-53953571D02*
X64142857Y-54953571D01*
X63500000Y-53953571D02*
X63500000Y-54739286D01*
X63571428Y-54882143D01*
X63714286Y-54953571D01*
X63928571Y-54953571D01*
X64071428Y-54882143D01*
X64142857Y-54810714D01*
X64857143Y-53953571D02*
X64857143Y-55453571D01*
X64857143Y-54025000D02*
X65000000Y-53953571D01*
X65285714Y-53953571D01*
X65428571Y-54025000D01*
X65500000Y-54096429D01*
X65571429Y-54239286D01*
X65571429Y-54667857D01*
X65500000Y-54810714D01*
X65428571Y-54882143D01*
X65285714Y-54953571D01*
X65000000Y-54953571D01*
X64857143Y-54882143D01*
D12*
X127023810Y-61202381D02*
X127023810Y-60202381D01*
X127452381Y-60297619D02*
X127500000Y-60250000D01*
X127595238Y-60202381D01*
X127833334Y-60202381D01*
X127928572Y-60250000D01*
X127976191Y-60297619D01*
X128023810Y-60392857D01*
X128023810Y-60488095D01*
X127976191Y-60630952D01*
X127404762Y-61202381D01*
X128023810Y-61202381D01*
X129023810Y-61107143D02*
X128976191Y-61154762D01*
X128833334Y-61202381D01*
X128738096Y-61202381D01*
X128595238Y-61154762D01*
X128500000Y-61059524D01*
X128452381Y-60964286D01*
X128404762Y-60773810D01*
X128404762Y-60630952D01*
X128452381Y-60440476D01*
X128500000Y-60345238D01*
X128595238Y-60250000D01*
X128738096Y-60202381D01*
X128833334Y-60202381D01*
X128976191Y-60250000D01*
X129023810Y-60297619D01*
X127964285Y-45904762D02*
X127869047Y-45952381D01*
X127678570Y-45952381D01*
X127583332Y-45904762D01*
X127535713Y-45809524D01*
X127535713Y-45428571D01*
X127583332Y-45333333D01*
X127678570Y-45285714D01*
X127869047Y-45285714D01*
X127964285Y-45333333D01*
X128011904Y-45428571D01*
X128011904Y-45523810D01*
X127535713Y-45619048D01*
X128345237Y-45952381D02*
X128869047Y-45285714D01*
X128345237Y-45285714D02*
X128869047Y-45952381D01*
X129107142Y-45285714D02*
X129488094Y-45285714D01*
X129249999Y-44952381D02*
X129249999Y-45809524D01*
X129297618Y-45904762D01*
X129392856Y-45952381D01*
X129488094Y-45952381D01*
X129821428Y-45952381D02*
X129821428Y-45285714D01*
X129821428Y-45476190D02*
X129869047Y-45380952D01*
X129916666Y-45333333D01*
X130011904Y-45285714D01*
X130107143Y-45285714D01*
X130869048Y-45952381D02*
X130869048Y-45428571D01*
X130821429Y-45333333D01*
X130726191Y-45285714D01*
X130535714Y-45285714D01*
X130440476Y-45333333D01*
X130869048Y-45904762D02*
X130773810Y-45952381D01*
X130535714Y-45952381D01*
X130440476Y-45904762D01*
X130392857Y-45809524D01*
X130392857Y-45714286D01*
X130440476Y-45619048D01*
X130535714Y-45571429D01*
X130773810Y-45571429D01*
X130869048Y-45523810D01*
X132535715Y-45952381D02*
X132535715Y-44952381D01*
X132535715Y-45904762D02*
X132440477Y-45952381D01*
X132250000Y-45952381D01*
X132154762Y-45904762D01*
X132107143Y-45857143D01*
X132059524Y-45761905D01*
X132059524Y-45476190D01*
X132107143Y-45380952D01*
X132154762Y-45333333D01*
X132250000Y-45285714D01*
X132440477Y-45285714D01*
X132535715Y-45333333D01*
X133440477Y-45952381D02*
X133440477Y-45428571D01*
X133392858Y-45333333D01*
X133297620Y-45285714D01*
X133107143Y-45285714D01*
X133011905Y-45333333D01*
X133440477Y-45904762D02*
X133345239Y-45952381D01*
X133107143Y-45952381D01*
X133011905Y-45904762D01*
X132964286Y-45809524D01*
X132964286Y-45714286D01*
X133011905Y-45619048D01*
X133107143Y-45571429D01*
X133345239Y-45571429D01*
X133440477Y-45523810D01*
X133773810Y-45285714D02*
X134154762Y-45285714D01*
X133916667Y-44952381D02*
X133916667Y-45809524D01*
X133964286Y-45904762D01*
X134059524Y-45952381D01*
X134154762Y-45952381D01*
X134916668Y-45952381D02*
X134916668Y-45428571D01*
X134869049Y-45333333D01*
X134773811Y-45285714D01*
X134583334Y-45285714D01*
X134488096Y-45333333D01*
X134916668Y-45904762D02*
X134821430Y-45952381D01*
X134583334Y-45952381D01*
X134488096Y-45904762D01*
X134440477Y-45809524D01*
X134440477Y-45714286D01*
X134488096Y-45619048D01*
X134583334Y-45571429D01*
X134821430Y-45571429D01*
X134916668Y-45523810D01*
X127238096Y-52750000D02*
X127142858Y-52702381D01*
X127000001Y-52702381D01*
X126857143Y-52750000D01*
X126761905Y-52845238D01*
X126714286Y-52940476D01*
X126666667Y-53130952D01*
X126666667Y-53273810D01*
X126714286Y-53464286D01*
X126761905Y-53559524D01*
X126857143Y-53654762D01*
X127000001Y-53702381D01*
X127095239Y-53702381D01*
X127238096Y-53654762D01*
X127285715Y-53607143D01*
X127285715Y-53273810D01*
X127095239Y-53273810D01*
X127714286Y-53702381D02*
X127714286Y-52702381D01*
X128285715Y-53702381D01*
X128285715Y-52702381D01*
X128761905Y-53702381D02*
X128761905Y-52702381D01*
X129000000Y-52702381D01*
X129142858Y-52750000D01*
X129238096Y-52845238D01*
X129285715Y-52940476D01*
X129333334Y-53130952D01*
X129333334Y-53273810D01*
X129285715Y-53464286D01*
X129238096Y-53559524D01*
X129142858Y-53654762D01*
X129000000Y-53702381D01*
X128761905Y-53702381D01*
X126416667Y-48452381D02*
X126750000Y-49452381D01*
X127083334Y-48452381D01*
X127988096Y-49357143D02*
X127940477Y-49404762D01*
X127797620Y-49452381D01*
X127702382Y-49452381D01*
X127559524Y-49404762D01*
X127464286Y-49309524D01*
X127416667Y-49214286D01*
X127369048Y-49023810D01*
X127369048Y-48880952D01*
X127416667Y-48690476D01*
X127464286Y-48595238D01*
X127559524Y-48500000D01*
X127702382Y-48452381D01*
X127797620Y-48452381D01*
X127940477Y-48500000D01*
X127988096Y-48547619D01*
X128988096Y-49357143D02*
X128940477Y-49404762D01*
X128797620Y-49452381D01*
X128702382Y-49452381D01*
X128559524Y-49404762D01*
X128464286Y-49309524D01*
X128416667Y-49214286D01*
X128369048Y-49023810D01*
X128369048Y-48880952D01*
X128416667Y-48690476D01*
X128464286Y-48595238D01*
X128559524Y-48500000D01*
X128702382Y-48452381D01*
X128797620Y-48452381D01*
X128940477Y-48500000D01*
X128988096Y-48547619D01*
X133988096Y-52750000D02*
X133892858Y-52702381D01*
X133750001Y-52702381D01*
X133607143Y-52750000D01*
X133511905Y-52845238D01*
X133464286Y-52940476D01*
X133416667Y-53130952D01*
X133416667Y-53273810D01*
X133464286Y-53464286D01*
X133511905Y-53559524D01*
X133607143Y-53654762D01*
X133750001Y-53702381D01*
X133845239Y-53702381D01*
X133988096Y-53654762D01*
X134035715Y-53607143D01*
X134035715Y-53273810D01*
X133845239Y-53273810D01*
X134464286Y-53702381D02*
X134464286Y-52702381D01*
X135035715Y-53702381D01*
X135035715Y-52702381D01*
X135511905Y-53702381D02*
X135511905Y-52702381D01*
X135750000Y-52702381D01*
X135892858Y-52750000D01*
X135988096Y-52845238D01*
X136035715Y-52940476D01*
X136083334Y-53130952D01*
X136083334Y-53273810D01*
X136035715Y-53464286D01*
X135988096Y-53559524D01*
X135892858Y-53654762D01*
X135750000Y-53702381D01*
X135511905Y-53702381D01*
X133166667Y-48452381D02*
X133500000Y-49452381D01*
X133833334Y-48452381D01*
X134738096Y-49357143D02*
X134690477Y-49404762D01*
X134547620Y-49452381D01*
X134452382Y-49452381D01*
X134309524Y-49404762D01*
X134214286Y-49309524D01*
X134166667Y-49214286D01*
X134119048Y-49023810D01*
X134119048Y-48880952D01*
X134166667Y-48690476D01*
X134214286Y-48595238D01*
X134309524Y-48500000D01*
X134452382Y-48452381D01*
X134547620Y-48452381D01*
X134690477Y-48500000D01*
X134738096Y-48547619D01*
X135738096Y-49357143D02*
X135690477Y-49404762D01*
X135547620Y-49452381D01*
X135452382Y-49452381D01*
X135309524Y-49404762D01*
X135214286Y-49309524D01*
X135166667Y-49214286D01*
X135119048Y-49023810D01*
X135119048Y-48880952D01*
X135166667Y-48690476D01*
X135214286Y-48595238D01*
X135309524Y-48500000D01*
X135452382Y-48452381D01*
X135547620Y-48452381D01*
X135690477Y-48500000D01*
X135738096Y-48547619D01*
D13*
X136450600Y-32850000D02*
X136450600Y-44915000D01*
X136450600Y-44915000D02*
X126849400Y-44915000D01*
X126849400Y-44915000D02*
X126849400Y-32850000D01*
D14*
X120700000Y-57488000D02*
X123300000Y-57488000D01*
X123300000Y-57488000D02*
X123300000Y-59012000D01*
X123300000Y-59012000D02*
X120700000Y-59012000D01*
X120700000Y-59012000D02*
X120700000Y-57488000D01*
D15*
X58635877Y-94500000D02*
G75*
G03X58635877Y-94500000I-3635877J0D01*
G01*
X134985877Y-94550000D02*
G75*
G03X134985877Y-94550000I-3635877J0D01*
G01*
X134835877Y-56450000D02*
G75*
G03X134835877Y-56450000I-3635877J0D01*
G01*
X55485877Y-37300000D02*
G75*
G03X55485877Y-37300000I-3635877J0D01*
G01*
X134239841Y-106326946D02*
X133239841Y-106326946D01*
X133239841Y-106088851D01*
X133287460Y-105945993D01*
X133382698Y-105850755D01*
X133477936Y-105803136D01*
X133668412Y-105755517D01*
X133811270Y-105755517D01*
X134001746Y-105803136D01*
X134096984Y-105850755D01*
X134192222Y-105945993D01*
X134239841Y-106088851D01*
X134239841Y-106326946D01*
X133335079Y-105374565D02*
X133287460Y-105326946D01*
X133239841Y-105231708D01*
X133239841Y-104993612D01*
X133287460Y-104898374D01*
X133335079Y-104850755D01*
X133430317Y-104803136D01*
X133525555Y-104803136D01*
X133668412Y-104850755D01*
X134239841Y-105422184D01*
X134239841Y-104803136D01*
X133239841Y-104184089D02*
X133239841Y-104088850D01*
X133287460Y-103993612D01*
X133335079Y-103945993D01*
X133430317Y-103898374D01*
X133620793Y-103850755D01*
X133858889Y-103850755D01*
X134049365Y-103898374D01*
X134144603Y-103945993D01*
X134192222Y-103993612D01*
X134239841Y-104088850D01*
X134239841Y-104184089D01*
X134192222Y-104279327D01*
X134144603Y-104326946D01*
X134049365Y-104374565D01*
X133858889Y-104422184D01*
X133620793Y-104422184D01*
X133430317Y-104374565D01*
X133335079Y-104326946D01*
X133287460Y-104279327D01*
X133239841Y-104184089D01*
X77089841Y-104750755D02*
X76089841Y-104750755D01*
X76089841Y-104512660D01*
X76137460Y-104369802D01*
X76232698Y-104274564D01*
X76327936Y-104226945D01*
X76518412Y-104179326D01*
X76661270Y-104179326D01*
X76851746Y-104226945D01*
X76946984Y-104274564D01*
X77042222Y-104369802D01*
X77089841Y-104512660D01*
X77089841Y-104750755D01*
X76518412Y-103607898D02*
X76470793Y-103703136D01*
X76423174Y-103750755D01*
X76327936Y-103798374D01*
X76280317Y-103798374D01*
X76185079Y-103750755D01*
X76137460Y-103703136D01*
X76089841Y-103607898D01*
X76089841Y-103417421D01*
X76137460Y-103322183D01*
X76185079Y-103274564D01*
X76280317Y-103226945D01*
X76327936Y-103226945D01*
X76423174Y-103274564D01*
X76470793Y-103322183D01*
X76518412Y-103417421D01*
X76518412Y-103607898D01*
X76566031Y-103703136D01*
X76613650Y-103750755D01*
X76708889Y-103798374D01*
X76899365Y-103798374D01*
X76994603Y-103750755D01*
X77042222Y-103703136D01*
X77089841Y-103607898D01*
X77089841Y-103417421D01*
X77042222Y-103322183D01*
X76994603Y-103274564D01*
X76899365Y-103226945D01*
X76708889Y-103226945D01*
X76613650Y-103274564D01*
X76566031Y-103322183D01*
X76518412Y-103417421D01*
X96139841Y-104926946D02*
X95139841Y-104926946D01*
X95139841Y-104688851D01*
X95187460Y-104545993D01*
X95282698Y-104450755D01*
X95377936Y-104403136D01*
X95568412Y-104355517D01*
X95711270Y-104355517D01*
X95901746Y-104403136D01*
X95996984Y-104450755D01*
X96092222Y-104545993D01*
X96139841Y-104688851D01*
X96139841Y-104926946D01*
X96139841Y-103403136D02*
X96139841Y-103974565D01*
X96139841Y-103688851D02*
X95139841Y-103688851D01*
X95282698Y-103784089D01*
X95377936Y-103879327D01*
X95425555Y-103974565D01*
X95235079Y-103022184D02*
X95187460Y-102974565D01*
X95139841Y-102879327D01*
X95139841Y-102641231D01*
X95187460Y-102545993D01*
X95235079Y-102498374D01*
X95330317Y-102450755D01*
X95425555Y-102450755D01*
X95568412Y-102498374D01*
X96139841Y-103069803D01*
X96139841Y-102450755D01*
X115139841Y-105026946D02*
X114139841Y-105026946D01*
X114139841Y-104788851D01*
X114187460Y-104645993D01*
X114282698Y-104550755D01*
X114377936Y-104503136D01*
X114568412Y-104455517D01*
X114711270Y-104455517D01*
X114901746Y-104503136D01*
X114996984Y-104550755D01*
X115092222Y-104645993D01*
X115139841Y-104788851D01*
X115139841Y-105026946D01*
X115139841Y-103503136D02*
X115139841Y-104074565D01*
X115139841Y-103788851D02*
X114139841Y-103788851D01*
X114282698Y-103884089D01*
X114377936Y-103979327D01*
X114425555Y-104074565D01*
X114139841Y-102645993D02*
X114139841Y-102836470D01*
X114187460Y-102931708D01*
X114235079Y-102979327D01*
X114377936Y-103074565D01*
X114568412Y-103122184D01*
X114949365Y-103122184D01*
X115044603Y-103074565D01*
X115092222Y-103026946D01*
X115139841Y-102931708D01*
X115139841Y-102741231D01*
X115092222Y-102645993D01*
X115044603Y-102598374D01*
X114949365Y-102550755D01*
X114711270Y-102550755D01*
X114616031Y-102598374D01*
X114568412Y-102645993D01*
X114520793Y-102741231D01*
X114520793Y-102931708D01*
X114568412Y-103026946D01*
X114616031Y-103074565D01*
X114711270Y-103122184D01*
X119423054Y-97489841D02*
X119423054Y-96489841D01*
X119661149Y-96489841D01*
X119804007Y-96537460D01*
X119899245Y-96632698D01*
X119946864Y-96727936D01*
X119994483Y-96918412D01*
X119994483Y-97061270D01*
X119946864Y-97251746D01*
X119899245Y-97346984D01*
X119804007Y-97442222D01*
X119661149Y-97489841D01*
X119423054Y-97489841D01*
X120375435Y-96585079D02*
X120423054Y-96537460D01*
X120518292Y-96489841D01*
X120756388Y-96489841D01*
X120851626Y-96537460D01*
X120899245Y-96585079D01*
X120946864Y-96680317D01*
X120946864Y-96775555D01*
X120899245Y-96918412D01*
X120327816Y-97489841D01*
X120946864Y-97489841D01*
X121804007Y-96823174D02*
X121804007Y-97489841D01*
X121565911Y-96442222D02*
X121327816Y-97156508D01*
X121946864Y-97156508D01*
X139773054Y-78339841D02*
X139773054Y-77339841D01*
X140011149Y-77339841D01*
X140154007Y-77387460D01*
X140249245Y-77482698D01*
X140296864Y-77577936D01*
X140344483Y-77768412D01*
X140344483Y-77911270D01*
X140296864Y-78101746D01*
X140249245Y-78196984D01*
X140154007Y-78292222D01*
X140011149Y-78339841D01*
X139773054Y-78339841D01*
X140725435Y-77435079D02*
X140773054Y-77387460D01*
X140868292Y-77339841D01*
X141106388Y-77339841D01*
X141201626Y-77387460D01*
X141249245Y-77435079D01*
X141296864Y-77530317D01*
X141296864Y-77625555D01*
X141249245Y-77768412D01*
X140677816Y-78339841D01*
X141296864Y-78339841D01*
X141677816Y-77435079D02*
X141725435Y-77387460D01*
X141820673Y-77339841D01*
X142058769Y-77339841D01*
X142154007Y-77387460D01*
X142201626Y-77435079D01*
X142249245Y-77530317D01*
X142249245Y-77625555D01*
X142201626Y-77768412D01*
X141630197Y-78339841D01*
X142249245Y-78339841D01*
X141173054Y-97489841D02*
X141173054Y-96489841D01*
X141411149Y-96489841D01*
X141554007Y-96537460D01*
X141649245Y-96632698D01*
X141696864Y-96727936D01*
X141744483Y-96918412D01*
X141744483Y-97061270D01*
X141696864Y-97251746D01*
X141649245Y-97346984D01*
X141554007Y-97442222D01*
X141411149Y-97489841D01*
X141173054Y-97489841D01*
X142125435Y-96585079D02*
X142173054Y-96537460D01*
X142268292Y-96489841D01*
X142506388Y-96489841D01*
X142601626Y-96537460D01*
X142649245Y-96585079D01*
X142696864Y-96680317D01*
X142696864Y-96775555D01*
X142649245Y-96918412D01*
X142077816Y-97489841D01*
X142696864Y-97489841D01*
X143030197Y-96489841D02*
X143649245Y-96489841D01*
X143315911Y-96870793D01*
X143458769Y-96870793D01*
X143554007Y-96918412D01*
X143601626Y-96966031D01*
X143649245Y-97061270D01*
X143649245Y-97299365D01*
X143601626Y-97394603D01*
X143554007Y-97442222D01*
X143458769Y-97489841D01*
X143173054Y-97489841D01*
X143077816Y-97442222D01*
X143030197Y-97394603D01*
X115289841Y-86226946D02*
X114289841Y-86226946D01*
X114289841Y-85988851D01*
X114337460Y-85845993D01*
X114432698Y-85750755D01*
X114527936Y-85703136D01*
X114718412Y-85655517D01*
X114861270Y-85655517D01*
X115051746Y-85703136D01*
X115146984Y-85750755D01*
X115242222Y-85845993D01*
X115289841Y-85988851D01*
X115289841Y-86226946D01*
X115289841Y-84703136D02*
X115289841Y-85274565D01*
X115289841Y-84988851D02*
X114289841Y-84988851D01*
X114432698Y-85084089D01*
X114527936Y-85179327D01*
X114575555Y-85274565D01*
X114289841Y-83798374D02*
X114289841Y-84274565D01*
X114766031Y-84322184D01*
X114718412Y-84274565D01*
X114670793Y-84179327D01*
X114670793Y-83941231D01*
X114718412Y-83845993D01*
X114766031Y-83798374D01*
X114861270Y-83750755D01*
X115099365Y-83750755D01*
X115194603Y-83798374D01*
X115242222Y-83845993D01*
X115289841Y-83941231D01*
X115289841Y-84179327D01*
X115242222Y-84274565D01*
X115194603Y-84322184D01*
X96239841Y-86226946D02*
X95239841Y-86226946D01*
X95239841Y-85988851D01*
X95287460Y-85845993D01*
X95382698Y-85750755D01*
X95477936Y-85703136D01*
X95668412Y-85655517D01*
X95811270Y-85655517D01*
X96001746Y-85703136D01*
X96096984Y-85750755D01*
X96192222Y-85845993D01*
X96239841Y-85988851D01*
X96239841Y-86226946D01*
X96239841Y-84703136D02*
X96239841Y-85274565D01*
X96239841Y-84988851D02*
X95239841Y-84988851D01*
X95382698Y-85084089D01*
X95477936Y-85179327D01*
X95525555Y-85274565D01*
X96239841Y-83750755D02*
X96239841Y-84322184D01*
X96239841Y-84036470D02*
X95239841Y-84036470D01*
X95382698Y-84131708D01*
X95477936Y-84226946D01*
X95525555Y-84322184D01*
X77039841Y-85300755D02*
X76039841Y-85300755D01*
X76039841Y-85062660D01*
X76087460Y-84919802D01*
X76182698Y-84824564D01*
X76277936Y-84776945D01*
X76468412Y-84729326D01*
X76611270Y-84729326D01*
X76801746Y-84776945D01*
X76896984Y-84824564D01*
X76992222Y-84919802D01*
X77039841Y-85062660D01*
X77039841Y-85300755D01*
X76039841Y-84395993D02*
X76039841Y-83729326D01*
X77039841Y-84157898D01*
X43924565Y-73314921D02*
X43924565Y-72314921D01*
X44162660Y-72314921D01*
X44305518Y-72362540D01*
X44400756Y-72457778D01*
X44448375Y-72553016D01*
X44495994Y-72743492D01*
X44495994Y-72886350D01*
X44448375Y-73076826D01*
X44400756Y-73172064D01*
X44305518Y-73267302D01*
X44162660Y-73314921D01*
X43924565Y-73314921D01*
X44876946Y-72410159D02*
X44924565Y-72362540D01*
X45019803Y-72314921D01*
X45257899Y-72314921D01*
X45353137Y-72362540D01*
X45400756Y-72410159D01*
X45448375Y-72505397D01*
X45448375Y-72600635D01*
X45400756Y-72743492D01*
X44829327Y-73314921D01*
X45448375Y-73314921D01*
X57989841Y-105600755D02*
X56989841Y-105600755D01*
X56989841Y-105362660D01*
X57037460Y-105219802D01*
X57132698Y-105124564D01*
X57227936Y-105076945D01*
X57418412Y-105029326D01*
X57561270Y-105029326D01*
X57751746Y-105076945D01*
X57846984Y-105124564D01*
X57942222Y-105219802D01*
X57989841Y-105362660D01*
X57989841Y-105600755D01*
X57323174Y-104172183D02*
X57989841Y-104172183D01*
X56942222Y-104410279D02*
X57656508Y-104648374D01*
X57656508Y-104029326D01*
X64349245Y-78439841D02*
X64349245Y-77439841D01*
X64587340Y-77439841D01*
X64730198Y-77487460D01*
X64825436Y-77582698D01*
X64873055Y-77677936D01*
X64920674Y-77868412D01*
X64920674Y-78011270D01*
X64873055Y-78201746D01*
X64825436Y-78296984D01*
X64730198Y-78392222D01*
X64587340Y-78439841D01*
X64349245Y-78439841D01*
X65777817Y-77439841D02*
X65587340Y-77439841D01*
X65492102Y-77487460D01*
X65444483Y-77535079D01*
X65349245Y-77677936D01*
X65301626Y-77868412D01*
X65301626Y-78249365D01*
X65349245Y-78344603D01*
X65396864Y-78392222D01*
X65492102Y-78439841D01*
X65682579Y-78439841D01*
X65777817Y-78392222D01*
X65825436Y-78344603D01*
X65873055Y-78249365D01*
X65873055Y-78011270D01*
X65825436Y-77916031D01*
X65777817Y-77868412D01*
X65682579Y-77820793D01*
X65492102Y-77820793D01*
X65396864Y-77868412D01*
X65349245Y-77916031D01*
X65301626Y-78011270D01*
X96039841Y-66976946D02*
X95039841Y-66976946D01*
X95039841Y-66738851D01*
X95087460Y-66595993D01*
X95182698Y-66500755D01*
X95277936Y-66453136D01*
X95468412Y-66405517D01*
X95611270Y-66405517D01*
X95801746Y-66453136D01*
X95896984Y-66500755D01*
X95992222Y-66595993D01*
X96039841Y-66738851D01*
X96039841Y-66976946D01*
X96039841Y-65453136D02*
X96039841Y-66024565D01*
X96039841Y-65738851D02*
X95039841Y-65738851D01*
X95182698Y-65834089D01*
X95277936Y-65929327D01*
X95325555Y-66024565D01*
X95039841Y-64834089D02*
X95039841Y-64738850D01*
X95087460Y-64643612D01*
X95135079Y-64595993D01*
X95230317Y-64548374D01*
X95420793Y-64500755D01*
X95658889Y-64500755D01*
X95849365Y-64548374D01*
X95944603Y-64595993D01*
X95992222Y-64643612D01*
X96039841Y-64738850D01*
X96039841Y-64834089D01*
X95992222Y-64929327D01*
X95944603Y-64976946D01*
X95849365Y-65024565D01*
X95658889Y-65072184D01*
X95420793Y-65072184D01*
X95230317Y-65024565D01*
X95135079Y-64976946D01*
X95087460Y-64929327D01*
X95039841Y-64834089D01*
X115239841Y-67126946D02*
X114239841Y-67126946D01*
X114239841Y-66888851D01*
X114287460Y-66745993D01*
X114382698Y-66650755D01*
X114477936Y-66603136D01*
X114668412Y-66555517D01*
X114811270Y-66555517D01*
X115001746Y-66603136D01*
X115096984Y-66650755D01*
X115192222Y-66745993D01*
X115239841Y-66888851D01*
X115239841Y-67126946D01*
X115239841Y-65603136D02*
X115239841Y-66174565D01*
X115239841Y-65888851D02*
X114239841Y-65888851D01*
X114382698Y-65984089D01*
X114477936Y-66079327D01*
X114525555Y-66174565D01*
X114573174Y-64745993D02*
X115239841Y-64745993D01*
X114192222Y-64984089D02*
X114906508Y-65222184D01*
X114906508Y-64603136D01*
X134289841Y-67376946D02*
X133289841Y-67376946D01*
X133289841Y-67138851D01*
X133337460Y-66995993D01*
X133432698Y-66900755D01*
X133527936Y-66853136D01*
X133718412Y-66805517D01*
X133861270Y-66805517D01*
X134051746Y-66853136D01*
X134146984Y-66900755D01*
X134242222Y-66995993D01*
X134289841Y-67138851D01*
X134289841Y-67376946D01*
X134289841Y-65853136D02*
X134289841Y-66424565D01*
X134289841Y-66138851D02*
X133289841Y-66138851D01*
X133432698Y-66234089D01*
X133527936Y-66329327D01*
X133575555Y-66424565D01*
X133718412Y-65281708D02*
X133670793Y-65376946D01*
X133623174Y-65424565D01*
X133527936Y-65472184D01*
X133480317Y-65472184D01*
X133385079Y-65424565D01*
X133337460Y-65376946D01*
X133289841Y-65281708D01*
X133289841Y-65091231D01*
X133337460Y-64995993D01*
X133385079Y-64948374D01*
X133480317Y-64900755D01*
X133527936Y-64900755D01*
X133623174Y-64948374D01*
X133670793Y-64995993D01*
X133718412Y-65091231D01*
X133718412Y-65281708D01*
X133766031Y-65376946D01*
X133813650Y-65424565D01*
X133908889Y-65472184D01*
X134099365Y-65472184D01*
X134194603Y-65424565D01*
X134242222Y-65376946D01*
X134289841Y-65281708D01*
X134289841Y-65091231D01*
X134242222Y-64995993D01*
X134194603Y-64948374D01*
X134099365Y-64900755D01*
X133908889Y-64900755D01*
X133813650Y-64948374D01*
X133766031Y-64995993D01*
X133718412Y-65091231D01*
X140073054Y-59239841D02*
X140073054Y-58239841D01*
X140311149Y-58239841D01*
X140454007Y-58287460D01*
X140549245Y-58382698D01*
X140596864Y-58477936D01*
X140644483Y-58668412D01*
X140644483Y-58811270D01*
X140596864Y-59001746D01*
X140549245Y-59096984D01*
X140454007Y-59192222D01*
X140311149Y-59239841D01*
X140073054Y-59239841D01*
X141025435Y-58335079D02*
X141073054Y-58287460D01*
X141168292Y-58239841D01*
X141406388Y-58239841D01*
X141501626Y-58287460D01*
X141549245Y-58335079D01*
X141596864Y-58430317D01*
X141596864Y-58525555D01*
X141549245Y-58668412D01*
X140977816Y-59239841D01*
X141596864Y-59239841D01*
X142549245Y-59239841D02*
X141977816Y-59239841D01*
X142263530Y-59239841D02*
X142263530Y-58239841D01*
X142168292Y-58382698D01*
X142073054Y-58477936D01*
X141977816Y-58525555D01*
X120035714Y-54452381D02*
X120035714Y-53452381D01*
X120273809Y-53452381D01*
X120416667Y-53500000D01*
X120511905Y-53595238D01*
X120559524Y-53690476D01*
X120607143Y-53880952D01*
X120607143Y-54023810D01*
X120559524Y-54214286D01*
X120511905Y-54309524D01*
X120416667Y-54404762D01*
X120273809Y-54452381D01*
X120035714Y-54452381D01*
X121559524Y-54452381D02*
X120988095Y-54452381D01*
X121273809Y-54452381D02*
X121273809Y-53452381D01*
X121178571Y-53595238D01*
X121083333Y-53690476D01*
X120988095Y-53738095D01*
X121892857Y-53452381D02*
X122559524Y-53452381D01*
X122130952Y-54452381D01*
X115189841Y-48076946D02*
X114189841Y-48076946D01*
X114189841Y-47838851D01*
X114237460Y-47695993D01*
X114332698Y-47600755D01*
X114427936Y-47553136D01*
X114618412Y-47505517D01*
X114761270Y-47505517D01*
X114951746Y-47553136D01*
X115046984Y-47600755D01*
X115142222Y-47695993D01*
X115189841Y-47838851D01*
X115189841Y-48076946D01*
X115189841Y-46553136D02*
X115189841Y-47124565D01*
X115189841Y-46838851D02*
X114189841Y-46838851D01*
X114332698Y-46934089D01*
X114427936Y-47029327D01*
X114475555Y-47124565D01*
X114189841Y-46219803D02*
X114189841Y-45600755D01*
X114570793Y-45934089D01*
X114570793Y-45791231D01*
X114618412Y-45695993D01*
X114666031Y-45648374D01*
X114761270Y-45600755D01*
X114999365Y-45600755D01*
X115094603Y-45648374D01*
X115142222Y-45695993D01*
X115189841Y-45791231D01*
X115189841Y-46076946D01*
X115142222Y-46172184D01*
X115094603Y-46219803D01*
X96239841Y-47600755D02*
X95239841Y-47600755D01*
X95239841Y-47362660D01*
X95287460Y-47219802D01*
X95382698Y-47124564D01*
X95477936Y-47076945D01*
X95668412Y-47029326D01*
X95811270Y-47029326D01*
X96001746Y-47076945D01*
X96096984Y-47124564D01*
X96192222Y-47219802D01*
X96239841Y-47362660D01*
X96239841Y-47600755D01*
X96239841Y-46553136D02*
X96239841Y-46362660D01*
X96192222Y-46267421D01*
X96144603Y-46219802D01*
X96001746Y-46124564D01*
X95811270Y-46076945D01*
X95430317Y-46076945D01*
X95335079Y-46124564D01*
X95287460Y-46172183D01*
X95239841Y-46267421D01*
X95239841Y-46457898D01*
X95287460Y-46553136D01*
X95335079Y-46600755D01*
X95430317Y-46648374D01*
X95668412Y-46648374D01*
X95763650Y-46600755D01*
X95811270Y-46553136D01*
X95858889Y-46457898D01*
X95858889Y-46267421D01*
X95811270Y-46172183D01*
X95763650Y-46124564D01*
X95668412Y-46076945D01*
X82424565Y-54264921D02*
X82424565Y-53264921D01*
X82662660Y-53264921D01*
X82805518Y-53312540D01*
X82900756Y-53407778D01*
X82948375Y-53503016D01*
X82995994Y-53693492D01*
X82995994Y-53836350D01*
X82948375Y-54026826D01*
X82900756Y-54122064D01*
X82805518Y-54217302D01*
X82662660Y-54264921D01*
X82424565Y-54264921D01*
X83900756Y-53264921D02*
X83424565Y-53264921D01*
X83376946Y-53741111D01*
X83424565Y-53693492D01*
X83519803Y-53645873D01*
X83757899Y-53645873D01*
X83853137Y-53693492D01*
X83900756Y-53741111D01*
X83948375Y-53836350D01*
X83948375Y-54074445D01*
X83900756Y-54169683D01*
X83853137Y-54217302D01*
X83757899Y-54264921D01*
X83519803Y-54264921D01*
X83424565Y-54217302D01*
X83376946Y-54169683D01*
X44824565Y-54264921D02*
X44824565Y-53264921D01*
X45062660Y-53264921D01*
X45205518Y-53312540D01*
X45300756Y-53407778D01*
X45348375Y-53503016D01*
X45395994Y-53693492D01*
X45395994Y-53836350D01*
X45348375Y-54026826D01*
X45300756Y-54122064D01*
X45205518Y-54217302D01*
X45062660Y-54264921D01*
X44824565Y-54264921D01*
X46348375Y-54264921D02*
X45776946Y-54264921D01*
X46062660Y-54264921D02*
X46062660Y-53264921D01*
X45967422Y-53407778D01*
X45872184Y-53503016D01*
X45776946Y-53550635D01*
X58002381Y-84048095D02*
X57002381Y-84048095D01*
X57002381Y-83810000D01*
X57050000Y-83667142D01*
X57145238Y-83571904D01*
X57240476Y-83524285D01*
X57430952Y-83476666D01*
X57573810Y-83476666D01*
X57764286Y-83524285D01*
X57859524Y-83571904D01*
X57954762Y-83667142D01*
X58002381Y-83810000D01*
X58002381Y-84048095D01*
X57002381Y-83143333D02*
X57002381Y-82524285D01*
X57383333Y-82857619D01*
X57383333Y-82714761D01*
X57430952Y-82619523D01*
X57478571Y-82571904D01*
X57573810Y-82524285D01*
X57811905Y-82524285D01*
X57907143Y-82571904D01*
X57954762Y-82619523D01*
X58002381Y-82714761D01*
X58002381Y-83000476D01*
X57954762Y-83095714D01*
X57907143Y-83143333D01*
X134239841Y-83826946D02*
X133239841Y-83826946D01*
X133239841Y-83588851D01*
X133287460Y-83445993D01*
X133382698Y-83350755D01*
X133477936Y-83303136D01*
X133668412Y-83255517D01*
X133811270Y-83255517D01*
X134001746Y-83303136D01*
X134096984Y-83350755D01*
X134192222Y-83445993D01*
X134239841Y-83588851D01*
X134239841Y-83826946D01*
X134239841Y-82303136D02*
X134239841Y-82874565D01*
X134239841Y-82588851D02*
X133239841Y-82588851D01*
X133382698Y-82684089D01*
X133477936Y-82779327D01*
X133525555Y-82874565D01*
X134239841Y-81826946D02*
X134239841Y-81636470D01*
X134192222Y-81541231D01*
X134144603Y-81493612D01*
X134001746Y-81398374D01*
X133811270Y-81350755D01*
X133430317Y-81350755D01*
X133335079Y-81398374D01*
X133287460Y-81445993D01*
X133239841Y-81541231D01*
X133239841Y-81731708D01*
X133287460Y-81826946D01*
X133335079Y-81874565D01*
X133430317Y-81922184D01*
X133668412Y-81922184D01*
X133763650Y-81874565D01*
X133811270Y-81826946D01*
X133858889Y-81731708D01*
X133858889Y-81541231D01*
X133811270Y-81445993D01*
X133763650Y-81398374D01*
X133668412Y-81350755D01*
D16*
X129745000Y-37730429D02*
X129406334Y-37730429D01*
X129237000Y-37803000D01*
X129152334Y-37875571D01*
X128983000Y-38093286D01*
X128898334Y-38383571D01*
X128898334Y-38964143D01*
X128983000Y-39109286D01*
X129067667Y-39181857D01*
X129237000Y-39254429D01*
X129575667Y-39254429D01*
X129745000Y-39181857D01*
X129829667Y-39109286D01*
X129914334Y-38964143D01*
X129914334Y-38601286D01*
X129829667Y-38456143D01*
X129745000Y-38383571D01*
X129575667Y-38311000D01*
X129237000Y-38311000D01*
X129067667Y-38383571D01*
X128983000Y-38456143D01*
X128898334Y-38601286D01*
X130676333Y-39254429D02*
X130676333Y-37730429D01*
X131353667Y-37730429D01*
X131523000Y-37803000D01*
X131607667Y-37875571D01*
X131692333Y-38020714D01*
X131692333Y-38238429D01*
X131607667Y-38383571D01*
X131523000Y-38456143D01*
X131353667Y-38528714D01*
X130676333Y-38528714D01*
X132454333Y-39254429D02*
X132454333Y-37730429D01*
X133301000Y-39254429D02*
X133301000Y-37730429D01*
X134317000Y-39254429D01*
X134317000Y-37730429D01*
D15*
X130095238Y-43642381D02*
X130333333Y-44642381D01*
X130523810Y-43928095D01*
X130714286Y-44642381D01*
X130952381Y-43642381D01*
X131285714Y-43737619D02*
X131333333Y-43690000D01*
X131428571Y-43642381D01*
X131666667Y-43642381D01*
X131761905Y-43690000D01*
X131809524Y-43737619D01*
X131857143Y-43832857D01*
X131857143Y-43928095D01*
X131809524Y-44070952D01*
X131238095Y-44642381D01*
X131857143Y-44642381D01*
X139352381Y-51433333D02*
X140066667Y-51433333D01*
X140209524Y-51480953D01*
X140304762Y-51576191D01*
X140352381Y-51719048D01*
X140352381Y-51814286D01*
X140352381Y-50433333D02*
X140352381Y-51004762D01*
X140352381Y-50719048D02*
X139352381Y-50719048D01*
X139495238Y-50814286D01*
X139590476Y-50909524D01*
X139638095Y-51004762D01*
X127602381Y-51333333D02*
X128316667Y-51333333D01*
X128459524Y-51380953D01*
X128554762Y-51476191D01*
X128602381Y-51619048D01*
X128602381Y-51714286D01*
X127602381Y-50952381D02*
X127602381Y-50333333D01*
X127983333Y-50666667D01*
X127983333Y-50523809D01*
X128030952Y-50428571D01*
X128078571Y-50380952D01*
X128173810Y-50333333D01*
X128411905Y-50333333D01*
X128507143Y-50380952D01*
X128554762Y-50428571D01*
X128602381Y-50523809D01*
X128602381Y-50809524D01*
X128554762Y-50904762D01*
X128507143Y-50952381D01*
D10*
X121547620Y-56731590D02*
X121666667Y-57231590D01*
X121761905Y-56874448D01*
X121857143Y-57231590D01*
X121976191Y-56731590D01*
X122428572Y-57231590D02*
X122142858Y-57231590D01*
X122285715Y-57231590D02*
X122285715Y-56731590D01*
X122238096Y-56803019D01*
X122190477Y-56850638D01*
X122142858Y-56874448D01*
D15*
X54488095Y-90262381D02*
X54488095Y-91071905D01*
X54535714Y-91167143D01*
X54583333Y-91214762D01*
X54678571Y-91262381D01*
X54869048Y-91262381D01*
X54964286Y-91214762D01*
X55011905Y-91167143D01*
X55059524Y-91071905D01*
X55059524Y-90262381D01*
X55488095Y-90357619D02*
X55535714Y-90310000D01*
X55630952Y-90262381D01*
X55869048Y-90262381D01*
X55964286Y-90310000D01*
X56011905Y-90357619D01*
X56059524Y-90452857D01*
X56059524Y-90548095D01*
X56011905Y-90690952D01*
X55440476Y-91262381D01*
X56059524Y-91262381D01*
X130838095Y-90312381D02*
X130838095Y-91121905D01*
X130885714Y-91217143D01*
X130933333Y-91264762D01*
X131028571Y-91312381D01*
X131219048Y-91312381D01*
X131314286Y-91264762D01*
X131361905Y-91217143D01*
X131409524Y-91121905D01*
X131409524Y-90312381D01*
X131790476Y-90312381D02*
X132409524Y-90312381D01*
X132076190Y-90693333D01*
X132219048Y-90693333D01*
X132314286Y-90740952D01*
X132361905Y-90788571D01*
X132409524Y-90883810D01*
X132409524Y-91121905D01*
X132361905Y-91217143D01*
X132314286Y-91264762D01*
X132219048Y-91312381D01*
X131933333Y-91312381D01*
X131838095Y-91264762D01*
X131790476Y-91217143D01*
X130688095Y-52212381D02*
X130688095Y-53021905D01*
X130735714Y-53117143D01*
X130783333Y-53164762D01*
X130878571Y-53212381D01*
X131069048Y-53212381D01*
X131164286Y-53164762D01*
X131211905Y-53117143D01*
X131259524Y-53021905D01*
X131259524Y-52212381D01*
X132164286Y-52545714D02*
X132164286Y-53212381D01*
X131926190Y-52164762D02*
X131688095Y-52879048D01*
X132307143Y-52879048D01*
X51338095Y-33062381D02*
X51338095Y-33871905D01*
X51385714Y-33967143D01*
X51433333Y-34014762D01*
X51528571Y-34062381D01*
X51719048Y-34062381D01*
X51814286Y-34014762D01*
X51861905Y-33967143D01*
X51909524Y-33871905D01*
X51909524Y-33062381D01*
X52861905Y-33062381D02*
X52385714Y-33062381D01*
X52338095Y-33538571D01*
X52385714Y-33490952D01*
X52480952Y-33443333D01*
X52719048Y-33443333D01*
X52814286Y-33490952D01*
X52861905Y-33538571D01*
X52909524Y-33633810D01*
X52909524Y-33871905D01*
X52861905Y-33967143D01*
X52814286Y-34014762D01*
X52719048Y-34062381D01*
X52480952Y-34062381D01*
X52385714Y-34014762D01*
X52338095Y-33967143D01*
%LPC*%
D17*
X131247460Y-100340000D03*
D18*
X131247460Y-110500000D03*
D17*
X74097460Y-99240000D03*
D18*
X74097460Y-109400000D03*
D17*
X93147460Y-98940000D03*
D18*
X93147460Y-109100000D03*
D17*
X112147460Y-99040000D03*
D18*
X112147460Y-109200000D03*
D17*
X125410000Y-94497460D03*
D18*
X115250000Y-94497460D03*
D17*
X145760000Y-75347460D03*
D18*
X135600000Y-75347460D03*
D17*
X147160000Y-94497460D03*
D18*
X137000000Y-94497460D03*
D17*
X112297460Y-80240000D03*
D18*
X112297460Y-90400000D03*
D17*
X93247460Y-80240000D03*
D18*
X93247460Y-90400000D03*
D17*
X74047460Y-79790000D03*
D18*
X74047460Y-89950000D03*
D17*
X39890000Y-75402540D03*
D18*
X50050000Y-75402540D03*
D17*
X54997460Y-100090000D03*
D18*
X54997460Y-110250000D03*
D17*
X69860000Y-75447460D03*
D18*
X59700000Y-75447460D03*
D17*
X93047460Y-60990000D03*
D18*
X93047460Y-71150000D03*
D17*
X112247460Y-61140000D03*
D18*
X112247460Y-71300000D03*
D17*
X131250000Y-63000000D03*
D18*
X131297460Y-71550000D03*
D17*
X146060000Y-56247460D03*
D18*
X137500000Y-56250000D03*
D17*
X125000000Y-56250000D03*
D18*
X116750000Y-56297460D03*
D17*
X112197460Y-42090000D03*
D18*
X112197460Y-52250000D03*
D17*
X93247460Y-42090000D03*
D18*
X93247460Y-52250000D03*
D17*
X78390000Y-56352540D03*
D18*
X88550000Y-56352540D03*
D17*
X40790000Y-56352540D03*
D18*
X50950000Y-56352540D03*
D17*
X54997460Y-78590000D03*
D18*
X54997460Y-88750000D03*
D17*
X131247460Y-77840000D03*
D18*
X131247460Y-88000000D03*
D19*
X136298200Y-35745600D03*
D20*
X128043200Y-40749400D03*
X133250200Y-43848200D03*
D19*
X127001800Y-35745600D03*
D20*
X130049800Y-43848200D03*
X135256800Y-40749400D03*
D21*
X131650000Y-35745600D03*
X131650000Y-40749400D03*
D22*
X101480000Y-56300000D03*
X91320000Y-56300000D03*
X103970000Y-56300000D03*
X114130000Y-56300000D03*
D23*
X43000276Y-41770672D02*
X43039724Y-42349328D01*
X48690184Y-42849693D02*
X49499816Y-44310307D01*
D24*
X45500000Y-46850000D03*
D25*
X40420000Y-46850000D03*
X50580000Y-46850000D03*
D23*
X42500453Y-42850046D02*
X41689547Y-44309954D01*
X48039724Y-41770672D02*
X48000276Y-42349328D01*
X43050276Y-60870672D02*
X43089724Y-61449328D01*
X48740184Y-61949693D02*
X49549816Y-63410307D01*
D24*
X45550000Y-65950000D03*
D25*
X40470000Y-65950000D03*
X50630000Y-65950000D03*
D23*
X42550453Y-61950046D02*
X41739547Y-63409954D01*
X48089724Y-60870672D02*
X48050276Y-61449328D01*
X43000276Y-79920672D02*
X43039724Y-80499328D01*
X48690184Y-80999693D02*
X49499816Y-82460307D01*
D24*
X45500000Y-85000000D03*
D25*
X40420000Y-85000000D03*
X50580000Y-85000000D03*
D23*
X42500453Y-81000046D02*
X41689547Y-82459954D01*
X48039724Y-79920672D02*
X48000276Y-80499328D01*
X43000276Y-99070672D02*
X43039724Y-99649328D01*
X48690184Y-100149693D02*
X49499816Y-101610307D01*
D24*
X45500000Y-104150000D03*
D25*
X40420000Y-104150000D03*
X50580000Y-104150000D03*
D23*
X42500453Y-100150046D02*
X41689547Y-101609954D01*
X48039724Y-99070672D02*
X48000276Y-99649328D01*
X62050276Y-41770672D02*
X62089724Y-42349328D01*
X67740184Y-42849693D02*
X68549816Y-44310307D01*
D24*
X64550000Y-46850000D03*
D25*
X59470000Y-46850000D03*
X69630000Y-46850000D03*
D23*
X61550453Y-42850046D02*
X60739547Y-44309954D01*
X67089724Y-41770672D02*
X67050276Y-42349328D01*
X62050276Y-60820672D02*
X62089724Y-61399328D01*
X67740184Y-61899693D02*
X68549816Y-63360307D01*
D24*
X64550000Y-65900000D03*
D25*
X59470000Y-65900000D03*
X69630000Y-65900000D03*
D23*
X61550453Y-61900046D02*
X60739547Y-63359954D01*
X67089724Y-60820672D02*
X67050276Y-61399328D01*
X62050276Y-79870672D02*
X62089724Y-80449328D01*
X67740184Y-80949693D02*
X68549816Y-82410307D01*
D24*
X64550000Y-84950000D03*
D25*
X59470000Y-84950000D03*
X69630000Y-84950000D03*
D23*
X61550453Y-80950046D02*
X60739547Y-82409954D01*
X67089724Y-79870672D02*
X67050276Y-80449328D01*
X62050276Y-98920672D02*
X62089724Y-99499328D01*
X67740184Y-99999693D02*
X68549816Y-101460307D01*
D24*
X64550000Y-104000000D03*
D25*
X59470000Y-104000000D03*
X69630000Y-104000000D03*
D23*
X61550453Y-100000046D02*
X60739547Y-101459954D01*
X67089724Y-98920672D02*
X67050276Y-99499328D01*
X81100276Y-41770672D02*
X81139724Y-42349328D01*
X86790184Y-42849693D02*
X87599816Y-44310307D01*
D24*
X83600000Y-46850000D03*
D25*
X78520000Y-46850000D03*
X88680000Y-46850000D03*
D23*
X80600453Y-42850046D02*
X79789547Y-44309954D01*
X86139724Y-41770672D02*
X86100276Y-42349328D01*
X81100276Y-60820672D02*
X81139724Y-61399328D01*
X86790184Y-61899693D02*
X87599816Y-63360307D01*
D24*
X83600000Y-65900000D03*
D25*
X78520000Y-65900000D03*
X88680000Y-65900000D03*
D23*
X80600453Y-61900046D02*
X79789547Y-63359954D01*
X86139724Y-60820672D02*
X86100276Y-61399328D01*
X81100276Y-79870672D02*
X81139724Y-80449328D01*
X86790184Y-80949693D02*
X87599816Y-82410307D01*
D24*
X83600000Y-84950000D03*
D25*
X78520000Y-84950000D03*
X88680000Y-84950000D03*
D23*
X80600453Y-80950046D02*
X79789547Y-82409954D01*
X86139724Y-79870672D02*
X86100276Y-80449328D01*
X81100276Y-98920672D02*
X81139724Y-99499328D01*
X86790184Y-99999693D02*
X87599816Y-101460307D01*
D24*
X83600000Y-104000000D03*
D25*
X78520000Y-104000000D03*
X88680000Y-104000000D03*
D23*
X80600453Y-100000046D02*
X79789547Y-101459954D01*
X86139724Y-98920672D02*
X86100276Y-99499328D01*
X100150276Y-41770672D02*
X100189724Y-42349328D01*
X105840184Y-42849693D02*
X106649816Y-44310307D01*
D24*
X102650000Y-46850000D03*
D25*
X97570000Y-46850000D03*
X107730000Y-46850000D03*
D23*
X99650453Y-42850046D02*
X98839547Y-44309954D01*
X105189724Y-41770672D02*
X105150276Y-42349328D01*
X100150276Y-60820672D02*
X100189724Y-61399328D01*
X105840184Y-61899693D02*
X106649816Y-63360307D01*
D24*
X102650000Y-65900000D03*
D25*
X97570000Y-65900000D03*
X107730000Y-65900000D03*
D23*
X99650453Y-61900046D02*
X98839547Y-63359954D01*
X105189724Y-60820672D02*
X105150276Y-61399328D01*
X100150276Y-79870672D02*
X100189724Y-80449328D01*
X105840184Y-80949693D02*
X106649816Y-82410307D01*
D24*
X102650000Y-84950000D03*
D25*
X97570000Y-84950000D03*
X107730000Y-84950000D03*
D23*
X99650453Y-80950046D02*
X98839547Y-82409954D01*
X105189724Y-79870672D02*
X105150276Y-80449328D01*
X100150276Y-98920672D02*
X100189724Y-99499328D01*
X105840184Y-99999693D02*
X106649816Y-101460307D01*
D24*
X102650000Y-104000000D03*
D25*
X97570000Y-104000000D03*
X107730000Y-104000000D03*
D23*
X99650453Y-100000046D02*
X98839547Y-101459954D01*
X105189724Y-98920672D02*
X105150276Y-99499328D01*
X119200276Y-41770672D02*
X119239724Y-42349328D01*
X124890184Y-42849693D02*
X125699816Y-44310307D01*
D24*
X121700000Y-46850000D03*
D25*
X116620000Y-46850000D03*
X126780000Y-46850000D03*
D23*
X118700453Y-42850046D02*
X117889547Y-44309954D01*
X124239724Y-41770672D02*
X124200276Y-42349328D01*
X119200276Y-60820672D02*
X119239724Y-61399328D01*
X124890184Y-61899693D02*
X125699816Y-63360307D01*
D24*
X121700000Y-65900000D03*
D25*
X116620000Y-65900000D03*
X126780000Y-65900000D03*
D23*
X118700453Y-61900046D02*
X117889547Y-63359954D01*
X124239724Y-60820672D02*
X124200276Y-61399328D01*
X119200276Y-79870672D02*
X119239724Y-80449328D01*
X124890184Y-80949693D02*
X125699816Y-82410307D01*
D24*
X121700000Y-84950000D03*
D25*
X116620000Y-84950000D03*
X126780000Y-84950000D03*
D23*
X118700453Y-80950046D02*
X117889547Y-82409954D01*
X124239724Y-79870672D02*
X124200276Y-80449328D01*
X119200276Y-98920672D02*
X119239724Y-99499328D01*
X124890184Y-99999693D02*
X125699816Y-101460307D01*
D24*
X121700000Y-104000000D03*
D25*
X116620000Y-104000000D03*
X126780000Y-104000000D03*
D23*
X118700453Y-100000046D02*
X117889547Y-101459954D01*
X124239724Y-98920672D02*
X124200276Y-99499328D01*
X138250276Y-41770672D02*
X138289724Y-42349328D01*
X143940184Y-42849693D02*
X144749816Y-44310307D01*
D24*
X140750000Y-46850000D03*
D25*
X135670000Y-46850000D03*
X145830000Y-46850000D03*
D23*
X137750453Y-42850046D02*
X136939547Y-44309954D01*
X143289724Y-41770672D02*
X143250276Y-42349328D01*
X138250276Y-60820672D02*
X138289724Y-61399328D01*
X143940184Y-61899693D02*
X144749816Y-63360307D01*
D24*
X140750000Y-65900000D03*
D25*
X135670000Y-65900000D03*
X145830000Y-65900000D03*
D23*
X137750453Y-61900046D02*
X136939547Y-63359954D01*
X143289724Y-60820672D02*
X143250276Y-61399328D01*
X138250276Y-79870672D02*
X138289724Y-80449328D01*
X143940184Y-80949693D02*
X144749816Y-82410307D01*
D24*
X140750000Y-84950000D03*
D25*
X135670000Y-84950000D03*
X145830000Y-84950000D03*
D23*
X137750453Y-80950046D02*
X136939547Y-82409954D01*
X143289724Y-79870672D02*
X143250276Y-80449328D01*
X138250276Y-98920672D02*
X138289724Y-99499328D01*
X143940184Y-99999693D02*
X144749816Y-101460307D01*
D24*
X140750000Y-104000000D03*
D25*
X135670000Y-104000000D03*
X145830000Y-104000000D03*
D23*
X137750453Y-100000046D02*
X136939547Y-101459954D01*
X143289724Y-98920672D02*
X143250276Y-99499328D01*
D26*
X72170000Y-35780000D03*
D20*
X72170000Y-38320000D03*
X72170000Y-40860000D03*
X72170000Y-43400000D03*
X72170000Y-45940000D03*
X72170000Y-48480000D03*
X72170000Y-51020000D03*
X72170000Y-53560000D03*
X72170000Y-56100000D03*
X72170000Y-58640000D03*
X72170000Y-61180000D03*
X72170000Y-63720000D03*
X56930000Y-63720000D03*
X56930000Y-61180000D03*
X56930000Y-58640000D03*
X56930000Y-56100000D03*
X56930000Y-53560000D03*
X56930000Y-51020000D03*
X56930000Y-48480000D03*
X56930000Y-40860000D03*
X56930000Y-38320000D03*
X56930000Y-35780000D03*
X56930000Y-45940000D03*
X56930000Y-43400000D03*
D27*
X131000000Y-48000000D03*
D28*
X137400000Y-53100000D03*
X137400000Y-51100000D03*
X137400000Y-49100000D03*
X137400000Y-53100000D03*
X137400000Y-51100000D03*
X137400000Y-49100000D03*
D29*
X137410000Y-51110000D03*
X137390000Y-49100000D03*
X137410000Y-53110000D03*
D28*
X125650000Y-53000000D03*
X125650000Y-51000000D03*
X125650000Y-49000000D03*
X125650000Y-53000000D03*
X125650000Y-51000000D03*
X125650000Y-49000000D03*
D29*
X125660000Y-51010000D03*
X125640000Y-49000000D03*
X125660000Y-53010000D03*
D10*
G36*
X122058800Y-59058167D02*
X121276033Y-58275400D01*
X122058800Y-57492633D01*
X122841567Y-58275400D01*
X122058800Y-59058167D01*
X122058800Y-59058167D01*
G37*
G36*
X120718750Y-58975400D02*
X121218750Y-58075400D01*
X121618850Y-58075400D01*
X122118850Y-58975400D01*
X120718750Y-58975400D01*
X120718750Y-58975400D01*
G37*
G36*
X122118850Y-57575400D02*
X121618850Y-58475400D01*
X121218750Y-58475400D01*
X120718750Y-57575400D01*
X122118850Y-57575400D01*
X122118850Y-57575400D01*
G37*
D30*
X121168800Y-58275400D03*
D10*
G36*
X120718750Y-58975400D02*
X121218750Y-58075400D01*
X121618850Y-58075400D01*
X122118850Y-58975400D01*
X120718750Y-58975400D01*
X120718750Y-58975400D01*
G37*
D31*
X122560000Y-58260000D03*
D10*
G36*
X122058800Y-59058167D02*
X121276033Y-58275400D01*
X122058800Y-57492633D01*
X122841567Y-58275400D01*
X122058800Y-59058167D01*
X122058800Y-59058167D01*
G37*
G36*
X122118850Y-57575400D02*
X121618850Y-58475400D01*
X121218750Y-58475400D01*
X120718750Y-57575400D01*
X122118850Y-57575400D01*
X122118850Y-57575400D01*
G37*
D30*
X121168800Y-58275400D03*
D31*
X122560000Y-58270000D03*
D32*
X122520000Y-58270000D03*
D33*
X121180000Y-58290000D03*
D34*
X55000000Y-94500000D03*
X131350000Y-94550000D03*
X131200000Y-56450000D03*
X51850000Y-37300000D03*
M02*
