M48
;DRILL file {KiCad 4.0.6} date 11/03/17 07:52:08
;FORMAT={3:3/ absolute / metric / suppress leading zeros}
FMAT,2
METRIC,TZ
T1C0.991
T2C1.702
T3C3.988
%
G90
G05
M71
T1
X94820Y76014
X94820Y71011
T2
X3590Y64910
X3590Y26760
X3590Y7610
X3640Y45810
X13750Y64910
X13750Y26760
X13750Y7610
X13800Y45810
X22640Y64910
X22640Y45860
X22640Y26810
X22640Y7760
X32800Y64910
X32800Y45860
X32800Y26810
X32800Y7760
X41690Y64910
X41690Y45860
X41690Y26810
X41690Y7760
X51850Y64910
X51850Y45860
X51850Y26810
X51850Y7760
X60740Y64910
X60740Y45860
X60740Y26810
X60740Y7760
X70900Y64910
X70900Y45860
X70900Y26810
X70900Y7760
X79790Y64910
X79790Y45860
X79790Y26810
X79790Y7760
X89950Y64910
X89950Y45860
X89950Y26810
X89950Y7760
X98840Y64910
X98840Y45860
X98840Y26810
X98840Y7760
X109000Y64910
X109000Y45860
X109000Y26810
X109000Y7760
T3
X8670Y64910
X8670Y26760
X8670Y7610
X8720Y45810
X27720Y64910
X27720Y45860
X27720Y26810
X27720Y7760
X46770Y64910
X46770Y45860
X46770Y26810
X46770Y7760
X65820Y64910
X65820Y45860
X65820Y26810
X65820Y7760
X84870Y64910
X84870Y45860
X84870Y26810
X84870Y7760
X103920Y64910
X103920Y45860
X103920Y26810
X103920Y7760
T0
M30
