M48
;DRILL file {KiCad 4.0.6} date 11/03/17 07:52:08
;FORMAT={3:3/ absolute / metric / suppress leading zeros}
FMAT,2
METRIC,TZ
T1C0.150
T2C0.250
T3C0.400
T4C0.991
T5C1.000
T6C1.001
T7C1.092
T8C1.270
T9C1.500
T10C8.000
%
G90
G05
M71
T1
X84350Y53470
X85690Y53490
T2
X88810Y62760
X88830Y60750
X88830Y58750
X100560Y62660
X100580Y60650
X100580Y58650
T3
X51220Y62860
T4
X54490Y55460
X64650Y55460
X67140Y55460
X77300Y55460
T5
X94170Y63760
T6
X13220Y36357
X14120Y55407
X18167Y23010
X18167Y1510
X22870Y36313
X37217Y21810
X37267Y2360
X51720Y55407
X56217Y40610
X56317Y2660
X56417Y59510
X56417Y21360
X75317Y2560
X75367Y59510
X75417Y40460
X75467Y21360
X78420Y17263
X79920Y55463
X94417Y23760
X94417Y1260
X94467Y40210
X98770Y36413
X100170Y17263
X100670Y55510
T7
X20100Y75980
X20100Y73440
X20100Y70900
X20100Y68360
X20100Y65820
X20100Y63280
X20100Y60740
X20100Y58200
X20100Y55660
X20100Y53120
X20100Y50580
X20100Y48040
X35340Y75980
X35340Y73440
X35340Y70900
X35340Y68360
X35340Y65820
X35340Y63280
X35340Y60740
X35340Y58200
X35340Y55660
X35340Y53120
X35340Y50580
X35340Y48040
X91213Y71011
X93220Y67912
X96420Y67912
X98427Y71011
T8
X3060Y36357
X3960Y55407
X18167Y33170
X18167Y11670
X33030Y36313
X37217Y31970
X37267Y12520
X41560Y55407
X56217Y50770
X56317Y12820
X56417Y69670
X56417Y31520
X75317Y12720
X75367Y69670
X75417Y50620
X75467Y31520
X88170Y55510
X88580Y17263
X94417Y33920
X94417Y11420
X94420Y48760
X108930Y36413
X109230Y55513
X110330Y17263
T10
X15020Y74460
X18170Y17260
X94370Y55310
X94520Y17210
T7
X90324Y76014G85X90019Y76014
G05
X99621Y76014G85X99316Y76014
G05
T9
X5670Y68910G85X4860Y67450
G05
X5670Y30760G85X4860Y29300
G05
X5670Y11610G85X4860Y10150
G05
X5720Y49810G85X4910Y48350
G05
X6170Y69989G85X6210Y69411
G05
X6170Y31839G85X6210Y31261
G05
X6170Y12689G85X6210Y12111
G05
X6220Y50889G85X6260Y50311
G05
X11210Y69989G85X11170Y69411
G05
X11210Y31839G85X11170Y31261
G05
X11210Y12689G85X11170Y12111
G05
X11260Y50889G85X11220Y50311
G05
X11860Y68910G85X12670Y67450
G05
X11860Y30760G85X12670Y29300
G05
X11860Y11610G85X12670Y10150
G05
X11910Y49810G85X12720Y48350
G05
X24720Y68910G85X23910Y67450
G05
X24720Y49860G85X23910Y48400
G05
X24720Y30810G85X23910Y29350
G05
X24720Y11760G85X23910Y10300
G05
X25220Y69989G85X25260Y69411
G05
X25220Y50939G85X25260Y50361
G05
X25220Y31889G85X25260Y31311
G05
X25220Y12839G85X25260Y12261
G05
X30260Y69989G85X30220Y69411
G05
X30260Y50939G85X30220Y50361
G05
X30260Y31889G85X30220Y31311
G05
X30260Y12839G85X30220Y12261
G05
X30910Y68910G85X31720Y67450
G05
X30910Y49860G85X31720Y48400
G05
X30910Y30810G85X31720Y29350
G05
X30910Y11760G85X31720Y10300
G05
X43770Y68910G85X42960Y67450
G05
X43770Y49860G85X42960Y48400
G05
X43770Y30810G85X42960Y29350
G05
X43770Y11760G85X42960Y10300
G05
X44270Y69989G85X44310Y69411
G05
X44270Y50939G85X44310Y50361
G05
X44270Y31889G85X44310Y31311
G05
X44270Y12839G85X44310Y12261
G05
X49310Y69989G85X49270Y69411
G05
X49310Y50939G85X49270Y50361
G05
X49310Y31889G85X49270Y31311
G05
X49310Y12839G85X49270Y12261
G05
X49960Y68910G85X50770Y67450
G05
X49960Y49860G85X50770Y48400
G05
X49960Y30810G85X50770Y29350
G05
X49960Y11760G85X50770Y10300
G05
X62820Y68910G85X62010Y67450
G05
X62820Y49860G85X62010Y48400
G05
X62820Y30810G85X62010Y29350
G05
X62820Y11760G85X62010Y10300
G05
X63320Y69989G85X63360Y69411
G05
X63320Y50939G85X63360Y50361
G05
X63320Y31889G85X63360Y31311
G05
X63320Y12839G85X63360Y12261
G05
X68360Y69989G85X68320Y69411
G05
X68360Y50939G85X68320Y50361
G05
X68360Y31889G85X68320Y31311
G05
X68360Y12839G85X68320Y12261
G05
X69010Y68910G85X69820Y67450
G05
X69010Y49860G85X69820Y48400
G05
X69010Y30810G85X69820Y29350
G05
X69010Y11760G85X69820Y10300
G05
X81870Y68910G85X81060Y67450
G05
X81870Y49860G85X81060Y48400
G05
X81870Y30810G85X81060Y29350
G05
X81870Y11760G85X81060Y10300
G05
X82370Y69989G85X82410Y69411
G05
X82370Y50939G85X82410Y50361
G05
X82370Y31889G85X82410Y31311
G05
X82370Y12839G85X82410Y12261
G05
X87410Y69989G85X87370Y69411
G05
X87410Y50939G85X87370Y50361
G05
X87410Y31889G85X87370Y31311
G05
X87410Y12839G85X87370Y12261
G05
X88060Y68910G85X88870Y67450
G05
X88060Y49860G85X88870Y48400
G05
X88060Y30810G85X88870Y29350
G05
X88060Y11760G85X88870Y10300
G05
X100920Y68910G85X100110Y67450
G05
X100920Y49860G85X100110Y48400
G05
X100920Y30810G85X100110Y29350
G05
X100920Y11760G85X100110Y10300
G05
X101420Y69989G85X101460Y69411
G05
X101420Y50939G85X101460Y50361
G05
X101420Y31889G85X101460Y31311
G05
X101420Y12839G85X101460Y12261
G05
X106460Y69989G85X106420Y69411
G05
X106460Y50939G85X106420Y50361
G05
X106460Y31889G85X106420Y31311
G05
X106460Y12839G85X106420Y12261
G05
X107110Y68910G85X107920Y67450
G05
X107110Y49860G85X107920Y48400
G05
X107110Y30810G85X107920Y29350
G05
X107110Y11760G85X107920Y10300
G05
T0
M30
