M48
;DRILL file {KiCad 4.0.6} date 11/03/17 08:27:25
;FORMAT={3:3/ absolute / metric / suppress trailing zeros}
FMAT,2
METRIC,LZ
T1C0.991
T2C1.702
T3C3.988
%
G90
G05
M71
T1
X-01821Y076014
X-01821Y071011
T2
X-10944Y06491
X-10944Y02676
X-10944Y00761
X-10939Y04581
X-09928Y06491
X-09928Y02676
X-09928Y00761
X-09923Y04581
X-09039Y06491
X-09039Y04586
X-09039Y02681
X-09039Y00776
X-08023Y06491
X-08023Y04586
X-08023Y02681
X-08023Y00776
X-07134Y06491
X-07134Y04586
X-07134Y02681
X-07134Y00776
X-06118Y06491
X-06118Y04586
X-06118Y02681
X-06118Y00776
X-05229Y06491
X-05229Y04586
X-05229Y02681
X-05229Y00776
X-04213Y06491
X-04213Y04586
X-04213Y02681
X-04213Y00776
X-03324Y06491
X-03324Y04586
X-03324Y02681
X-03324Y00776
X-02308Y06491
X-02308Y04586
X-02308Y02681
X-02308Y00776
X-01419Y06491
X-01419Y04586
X-01419Y02681
X-01419Y00776
X-00403Y06491
X-00403Y04586
X-00403Y02681
X-00403Y00776
T3
X-10436Y06491
X-10436Y02676
X-10436Y00761
X-10431Y04581
X-08531Y06491
X-08531Y04586
X-08531Y02681
X-08531Y00776
X-06626Y06491
X-06626Y04586
X-06626Y02681
X-06626Y00776
X-04721Y06491
X-04721Y04586
X-04721Y02681
X-04721Y00776
X-02816Y06491
X-02816Y04586
X-02816Y02681
X-02816Y00776
X-00911Y06491
X-00911Y04586
X-00911Y02681
X-00911Y00776
T0
M30
