%TF.GenerationSoftware,KiCad,Pcbnew,4.0.6*%
%TF.CreationDate,2017-11-03T07:52:01+09:00*%
%TF.ProjectId,lets_split,6C6574735F73706C69742E6B69636164,rev?*%
%TF.FileFunction,Legend,Bot*%
%FSLAX46Y46*%
G04 Gerber Fmt 4.6, Leading zero omitted, Abs format (unit mm)*
G04 Created by KiCad (PCBNEW 4.0.6) date 11/03/17 07:52:01*
%MOMM*%
%LPD*%
G01*
G04 APERTURE LIST*
%ADD10C,0.100000*%
%ADD11C,0.300000*%
%ADD12C,0.250000*%
%ADD13C,0.381000*%
%ADD14C,0.304800*%
%ADD15C,0.150000*%
%ADD16C,0.203200*%
%ADD17C,0.457200*%
G04 APERTURE END LIST*
D10*
D11*
X108845238Y-77761905D02*
X111226191Y-77761905D01*
X111226191Y-72761905D01*
X107178572Y-75142857D02*
X105511905Y-75142857D01*
X104797619Y-77761905D02*
X107178572Y-77761905D01*
X107178572Y-72761905D01*
X104797619Y-72761905D01*
X103369048Y-72761905D02*
X100511905Y-72761905D01*
X101940476Y-77761905D02*
X101940476Y-72761905D01*
X98607143Y-72761905D02*
X99083333Y-73714286D01*
X96702381Y-77523810D02*
X95988095Y-77761905D01*
X94797619Y-77761905D01*
X94321429Y-77523810D01*
X94083333Y-77285714D01*
X93845238Y-76809524D01*
X93845238Y-76333333D01*
X94083333Y-75857143D01*
X94321429Y-75619048D01*
X94797619Y-75380952D01*
X95750000Y-75142857D01*
X96226191Y-74904762D01*
X96464286Y-74666667D01*
X96702381Y-74190476D01*
X96702381Y-73714286D01*
X96464286Y-73238095D01*
X96226191Y-73000000D01*
X95750000Y-72761905D01*
X94559524Y-72761905D01*
X93845238Y-73000000D01*
X88130952Y-77523810D02*
X87416666Y-77761905D01*
X86226190Y-77761905D01*
X85750000Y-77523810D01*
X85511904Y-77285714D01*
X85273809Y-76809524D01*
X85273809Y-76333333D01*
X85511904Y-75857143D01*
X85750000Y-75619048D01*
X86226190Y-75380952D01*
X87178571Y-75142857D01*
X87654762Y-74904762D01*
X87892857Y-74666667D01*
X88130952Y-74190476D01*
X88130952Y-73714286D01*
X87892857Y-73238095D01*
X87654762Y-73000000D01*
X87178571Y-72761905D01*
X85988095Y-72761905D01*
X85273809Y-73000000D01*
X83130952Y-77761905D02*
X83130952Y-72761905D01*
X81226190Y-72761905D01*
X80749999Y-73000000D01*
X80511904Y-73238095D01*
X80273809Y-73714286D01*
X80273809Y-74428571D01*
X80511904Y-74904762D01*
X80749999Y-75142857D01*
X81226190Y-75380952D01*
X83130952Y-75380952D01*
X75749999Y-77761905D02*
X78130952Y-77761905D01*
X78130952Y-72761905D01*
X74083333Y-77761905D02*
X74083333Y-72761905D01*
X72416667Y-72761905D02*
X69559524Y-72761905D01*
X70988095Y-77761905D02*
X70988095Y-72761905D01*
X74250000Y-95642857D02*
X74035714Y-95714286D01*
X73964286Y-95785714D01*
X73892857Y-95928571D01*
X73892857Y-96142857D01*
X73964286Y-96285714D01*
X74035714Y-96357143D01*
X74178572Y-96428571D01*
X74750000Y-96428571D01*
X74750000Y-94928571D01*
X74250000Y-94928571D01*
X74107143Y-95000000D01*
X74035714Y-95071429D01*
X73964286Y-95214286D01*
X73964286Y-95357143D01*
X74035714Y-95500000D01*
X74107143Y-95571429D01*
X74250000Y-95642857D01*
X74750000Y-95642857D01*
X73392857Y-95428571D02*
X73035714Y-96428571D01*
X72678572Y-95428571D02*
X73035714Y-96428571D01*
X73178572Y-96785714D01*
X73250000Y-96857143D01*
X73392857Y-96928571D01*
X71107143Y-94928571D02*
X70750000Y-96428571D01*
X70464286Y-95357143D01*
X70178572Y-96428571D01*
X69821429Y-94928571D01*
X69035714Y-96428571D02*
X69178572Y-96357143D01*
X69250000Y-96285714D01*
X69321429Y-96142857D01*
X69321429Y-95714286D01*
X69250000Y-95571429D01*
X69178572Y-95500000D01*
X69035714Y-95428571D01*
X68821429Y-95428571D01*
X68678572Y-95500000D01*
X68607143Y-95571429D01*
X68535714Y-95714286D01*
X68535714Y-96142857D01*
X68607143Y-96285714D01*
X68678572Y-96357143D01*
X68821429Y-96428571D01*
X69035714Y-96428571D01*
X67678571Y-96428571D02*
X67821429Y-96357143D01*
X67892857Y-96285714D01*
X67964286Y-96142857D01*
X67964286Y-95714286D01*
X67892857Y-95571429D01*
X67821429Y-95500000D01*
X67678571Y-95428571D01*
X67464286Y-95428571D01*
X67321429Y-95500000D01*
X67250000Y-95571429D01*
X67178571Y-95714286D01*
X67178571Y-96142857D01*
X67250000Y-96285714D01*
X67321429Y-96357143D01*
X67464286Y-96428571D01*
X67678571Y-96428571D01*
X66750000Y-95428571D02*
X66178571Y-95428571D01*
X66535714Y-94928571D02*
X66535714Y-96214286D01*
X66464286Y-96357143D01*
X66321428Y-96428571D01*
X66178571Y-96428571D01*
X65678571Y-95428571D02*
X65678571Y-96928571D01*
X65678571Y-95500000D02*
X65535714Y-95428571D01*
X65250000Y-95428571D01*
X65107143Y-95500000D01*
X65035714Y-95571429D01*
X64964285Y-95714286D01*
X64964285Y-96142857D01*
X65035714Y-96285714D01*
X65107143Y-96357143D01*
X65250000Y-96428571D01*
X65535714Y-96428571D01*
X65678571Y-96357143D01*
X63678571Y-96428571D02*
X63678571Y-95642857D01*
X63750000Y-95500000D01*
X63892857Y-95428571D01*
X64178571Y-95428571D01*
X64321428Y-95500000D01*
X63678571Y-96357143D02*
X63821428Y-96428571D01*
X64178571Y-96428571D01*
X64321428Y-96357143D01*
X64392857Y-96214286D01*
X64392857Y-96071429D01*
X64321428Y-95928571D01*
X64178571Y-95857143D01*
X63821428Y-95857143D01*
X63678571Y-95785714D01*
X63178571Y-95428571D02*
X62607142Y-95428571D01*
X62964285Y-94928571D02*
X62964285Y-96214286D01*
X62892857Y-96357143D01*
X62749999Y-96428571D01*
X62607142Y-96428571D01*
X61892856Y-96428571D02*
X62035714Y-96357143D01*
X62107142Y-96285714D01*
X62178571Y-96142857D01*
X62178571Y-95714286D01*
X62107142Y-95571429D01*
X62035714Y-95500000D01*
X61892856Y-95428571D01*
X61678571Y-95428571D01*
X61535714Y-95500000D01*
X61464285Y-95571429D01*
X61392856Y-95714286D01*
X61392856Y-96142857D01*
X61464285Y-96285714D01*
X61535714Y-96357143D01*
X61678571Y-96428571D01*
X61892856Y-96428571D01*
X60535713Y-96428571D02*
X60678571Y-96357143D01*
X60749999Y-96285714D01*
X60821428Y-96142857D01*
X60821428Y-95714286D01*
X60749999Y-95571429D01*
X60678571Y-95500000D01*
X60535713Y-95428571D01*
X60321428Y-95428571D01*
X60178571Y-95500000D01*
X60107142Y-95571429D01*
X60035713Y-95714286D01*
X60035713Y-96142857D01*
X60107142Y-96285714D01*
X60178571Y-96357143D01*
X60321428Y-96428571D01*
X60535713Y-96428571D01*
X59607142Y-95428571D02*
X59035713Y-95428571D01*
X59392856Y-94928571D02*
X59392856Y-96214286D01*
X59321428Y-96357143D01*
X59178570Y-96428571D01*
X59035713Y-96428571D01*
X66214286Y-51403571D02*
X65642857Y-51403571D01*
X66000000Y-50903571D02*
X66000000Y-52189286D01*
X65928572Y-52332143D01*
X65785714Y-52403571D01*
X65642857Y-52403571D01*
X64928571Y-52403571D02*
X65071429Y-52332143D01*
X65142857Y-52260714D01*
X65214286Y-52117857D01*
X65214286Y-51689286D01*
X65142857Y-51546429D01*
X65071429Y-51475000D01*
X64928571Y-51403571D01*
X64714286Y-51403571D01*
X64571429Y-51475000D01*
X64500000Y-51546429D01*
X64428571Y-51689286D01*
X64428571Y-52117857D01*
X64500000Y-52260714D01*
X64571429Y-52332143D01*
X64714286Y-52403571D01*
X64928571Y-52403571D01*
X63785714Y-51403571D02*
X63785714Y-52903571D01*
X63785714Y-51475000D02*
X63642857Y-51403571D01*
X63357143Y-51403571D01*
X63214286Y-51475000D01*
X63142857Y-51546429D01*
X63071428Y-51689286D01*
X63071428Y-52117857D01*
X63142857Y-52260714D01*
X63214286Y-52332143D01*
X63357143Y-52403571D01*
X63642857Y-52403571D01*
X63785714Y-52332143D01*
X64357143Y-53953571D02*
X64357143Y-54953571D01*
X65000000Y-53953571D02*
X65000000Y-54739286D01*
X64928572Y-54882143D01*
X64785714Y-54953571D01*
X64571429Y-54953571D01*
X64428572Y-54882143D01*
X64357143Y-54810714D01*
X63642857Y-53953571D02*
X63642857Y-55453571D01*
X63642857Y-54025000D02*
X63500000Y-53953571D01*
X63214286Y-53953571D01*
X63071429Y-54025000D01*
X63000000Y-54096429D01*
X62928571Y-54239286D01*
X62928571Y-54667857D01*
X63000000Y-54810714D01*
X63071429Y-54882143D01*
X63214286Y-54953571D01*
X63500000Y-54953571D01*
X63642857Y-54882143D01*
D12*
X128976190Y-61202381D02*
X128976190Y-60202381D01*
X128547619Y-60297619D02*
X128500000Y-60250000D01*
X128404762Y-60202381D01*
X128166666Y-60202381D01*
X128071428Y-60250000D01*
X128023809Y-60297619D01*
X127976190Y-60392857D01*
X127976190Y-60488095D01*
X128023809Y-60630952D01*
X128595238Y-61202381D01*
X127976190Y-61202381D01*
X126976190Y-61107143D02*
X127023809Y-61154762D01*
X127166666Y-61202381D01*
X127261904Y-61202381D01*
X127404762Y-61154762D01*
X127500000Y-61059524D01*
X127547619Y-60964286D01*
X127595238Y-60773810D01*
X127595238Y-60630952D01*
X127547619Y-60440476D01*
X127500000Y-60345238D01*
X127404762Y-60250000D01*
X127261904Y-60202381D01*
X127166666Y-60202381D01*
X127023809Y-60250000D01*
X126976190Y-60297619D01*
X134535715Y-45904762D02*
X134630953Y-45952381D01*
X134821430Y-45952381D01*
X134916668Y-45904762D01*
X134964287Y-45809524D01*
X134964287Y-45428571D01*
X134916668Y-45333333D01*
X134821430Y-45285714D01*
X134630953Y-45285714D01*
X134535715Y-45333333D01*
X134488096Y-45428571D01*
X134488096Y-45523810D01*
X134964287Y-45619048D01*
X134154763Y-45952381D02*
X133630953Y-45285714D01*
X134154763Y-45285714D02*
X133630953Y-45952381D01*
X133392858Y-45285714D02*
X133011906Y-45285714D01*
X133250001Y-44952381D02*
X133250001Y-45809524D01*
X133202382Y-45904762D01*
X133107144Y-45952381D01*
X133011906Y-45952381D01*
X132678572Y-45952381D02*
X132678572Y-45285714D01*
X132678572Y-45476190D02*
X132630953Y-45380952D01*
X132583334Y-45333333D01*
X132488096Y-45285714D01*
X132392857Y-45285714D01*
X131630952Y-45952381D02*
X131630952Y-45428571D01*
X131678571Y-45333333D01*
X131773809Y-45285714D01*
X131964286Y-45285714D01*
X132059524Y-45333333D01*
X131630952Y-45904762D02*
X131726190Y-45952381D01*
X131964286Y-45952381D01*
X132059524Y-45904762D01*
X132107143Y-45809524D01*
X132107143Y-45714286D01*
X132059524Y-45619048D01*
X131964286Y-45571429D01*
X131726190Y-45571429D01*
X131630952Y-45523810D01*
X129964285Y-45952381D02*
X129964285Y-44952381D01*
X129964285Y-45904762D02*
X130059523Y-45952381D01*
X130250000Y-45952381D01*
X130345238Y-45904762D01*
X130392857Y-45857143D01*
X130440476Y-45761905D01*
X130440476Y-45476190D01*
X130392857Y-45380952D01*
X130345238Y-45333333D01*
X130250000Y-45285714D01*
X130059523Y-45285714D01*
X129964285Y-45333333D01*
X129059523Y-45952381D02*
X129059523Y-45428571D01*
X129107142Y-45333333D01*
X129202380Y-45285714D01*
X129392857Y-45285714D01*
X129488095Y-45333333D01*
X129059523Y-45904762D02*
X129154761Y-45952381D01*
X129392857Y-45952381D01*
X129488095Y-45904762D01*
X129535714Y-45809524D01*
X129535714Y-45714286D01*
X129488095Y-45619048D01*
X129392857Y-45571429D01*
X129154761Y-45571429D01*
X129059523Y-45523810D01*
X128726190Y-45285714D02*
X128345238Y-45285714D01*
X128583333Y-44952381D02*
X128583333Y-45809524D01*
X128535714Y-45904762D01*
X128440476Y-45952381D01*
X128345238Y-45952381D01*
X127583332Y-45952381D02*
X127583332Y-45428571D01*
X127630951Y-45333333D01*
X127726189Y-45285714D01*
X127916666Y-45285714D01*
X128011904Y-45333333D01*
X127583332Y-45904762D02*
X127678570Y-45952381D01*
X127916666Y-45952381D01*
X128011904Y-45904762D01*
X128059523Y-45809524D01*
X128059523Y-45714286D01*
X128011904Y-45619048D01*
X127916666Y-45571429D01*
X127678570Y-45571429D01*
X127583332Y-45523810D01*
X128761904Y-52750000D02*
X128857142Y-52702381D01*
X128999999Y-52702381D01*
X129142857Y-52750000D01*
X129238095Y-52845238D01*
X129285714Y-52940476D01*
X129333333Y-53130952D01*
X129333333Y-53273810D01*
X129285714Y-53464286D01*
X129238095Y-53559524D01*
X129142857Y-53654762D01*
X128999999Y-53702381D01*
X128904761Y-53702381D01*
X128761904Y-53654762D01*
X128714285Y-53607143D01*
X128714285Y-53273810D01*
X128904761Y-53273810D01*
X128285714Y-53702381D02*
X128285714Y-52702381D01*
X127714285Y-53702381D01*
X127714285Y-52702381D01*
X127238095Y-53702381D02*
X127238095Y-52702381D01*
X127000000Y-52702381D01*
X126857142Y-52750000D01*
X126761904Y-52845238D01*
X126714285Y-52940476D01*
X126666666Y-53130952D01*
X126666666Y-53273810D01*
X126714285Y-53464286D01*
X126761904Y-53559524D01*
X126857142Y-53654762D01*
X127000000Y-53702381D01*
X127238095Y-53702381D01*
X129083333Y-48452381D02*
X128750000Y-49452381D01*
X128416666Y-48452381D01*
X127511904Y-49357143D02*
X127559523Y-49404762D01*
X127702380Y-49452381D01*
X127797618Y-49452381D01*
X127940476Y-49404762D01*
X128035714Y-49309524D01*
X128083333Y-49214286D01*
X128130952Y-49023810D01*
X128130952Y-48880952D01*
X128083333Y-48690476D01*
X128035714Y-48595238D01*
X127940476Y-48500000D01*
X127797618Y-48452381D01*
X127702380Y-48452381D01*
X127559523Y-48500000D01*
X127511904Y-48547619D01*
X126511904Y-49357143D02*
X126559523Y-49404762D01*
X126702380Y-49452381D01*
X126797618Y-49452381D01*
X126940476Y-49404762D01*
X127035714Y-49309524D01*
X127083333Y-49214286D01*
X127130952Y-49023810D01*
X127130952Y-48880952D01*
X127083333Y-48690476D01*
X127035714Y-48595238D01*
X126940476Y-48500000D01*
X126797618Y-48452381D01*
X126702380Y-48452381D01*
X126559523Y-48500000D01*
X126511904Y-48547619D01*
X135833333Y-48452381D02*
X135500000Y-49452381D01*
X135166666Y-48452381D01*
X134261904Y-49357143D02*
X134309523Y-49404762D01*
X134452380Y-49452381D01*
X134547618Y-49452381D01*
X134690476Y-49404762D01*
X134785714Y-49309524D01*
X134833333Y-49214286D01*
X134880952Y-49023810D01*
X134880952Y-48880952D01*
X134833333Y-48690476D01*
X134785714Y-48595238D01*
X134690476Y-48500000D01*
X134547618Y-48452381D01*
X134452380Y-48452381D01*
X134309523Y-48500000D01*
X134261904Y-48547619D01*
X133261904Y-49357143D02*
X133309523Y-49404762D01*
X133452380Y-49452381D01*
X133547618Y-49452381D01*
X133690476Y-49404762D01*
X133785714Y-49309524D01*
X133833333Y-49214286D01*
X133880952Y-49023810D01*
X133880952Y-48880952D01*
X133833333Y-48690476D01*
X133785714Y-48595238D01*
X133690476Y-48500000D01*
X133547618Y-48452381D01*
X133452380Y-48452381D01*
X133309523Y-48500000D01*
X133261904Y-48547619D01*
X135511904Y-52750000D02*
X135607142Y-52702381D01*
X135749999Y-52702381D01*
X135892857Y-52750000D01*
X135988095Y-52845238D01*
X136035714Y-52940476D01*
X136083333Y-53130952D01*
X136083333Y-53273810D01*
X136035714Y-53464286D01*
X135988095Y-53559524D01*
X135892857Y-53654762D01*
X135749999Y-53702381D01*
X135654761Y-53702381D01*
X135511904Y-53654762D01*
X135464285Y-53607143D01*
X135464285Y-53273810D01*
X135654761Y-53273810D01*
X135035714Y-53702381D02*
X135035714Y-52702381D01*
X134464285Y-53702381D01*
X134464285Y-52702381D01*
X133988095Y-53702381D02*
X133988095Y-52702381D01*
X133750000Y-52702381D01*
X133607142Y-52750000D01*
X133511904Y-52845238D01*
X133464285Y-52940476D01*
X133416666Y-53130952D01*
X133416666Y-53273810D01*
X133464285Y-53464286D01*
X133511904Y-53559524D01*
X133607142Y-53654762D01*
X133750000Y-53702381D01*
X133988095Y-53702381D01*
D13*
X136450600Y-32850000D02*
X136450600Y-44915000D01*
X136450600Y-44915000D02*
X126849400Y-44915000D01*
X126849400Y-44915000D02*
X126849400Y-32850000D01*
X99575000Y-55030000D02*
X93225000Y-55030000D01*
X93225000Y-55030000D02*
X93225000Y-57570000D01*
X93225000Y-57570000D02*
X99575000Y-57570000D01*
X99575000Y-57570000D02*
X99575000Y-55030000D01*
X91320000Y-56300000D02*
X93225000Y-56300000D01*
X101480000Y-56300000D02*
X99575000Y-56300000D01*
X105875000Y-57570000D02*
X112225000Y-57570000D01*
X112225000Y-57570000D02*
X112225000Y-55030000D01*
X112225000Y-55030000D02*
X105875000Y-55030000D01*
X105875000Y-55030000D02*
X105875000Y-57570000D01*
X114130000Y-56300000D02*
X112225000Y-56300000D01*
X103970000Y-56300000D02*
X105875000Y-56300000D01*
X55660000Y-34510000D02*
X73440000Y-34510000D01*
X73440000Y-34510000D02*
X73440000Y-64990000D01*
X73440000Y-64990000D02*
X55660000Y-64990000D01*
X55660000Y-64990000D02*
X55660000Y-34510000D01*
X70900000Y-34510000D02*
X70900000Y-37050000D01*
X70900000Y-37050000D02*
X73440000Y-37050000D01*
D14*
X124457714Y-69564857D02*
X124240000Y-69637429D01*
X123877143Y-69637429D01*
X123732000Y-69564857D01*
X123659429Y-69492286D01*
X123586857Y-69347143D01*
X123586857Y-69202000D01*
X123659429Y-69056857D01*
X123732000Y-68984286D01*
X123877143Y-68911714D01*
X124167429Y-68839143D01*
X124312571Y-68766571D01*
X124385143Y-68694000D01*
X124457714Y-68548857D01*
X124457714Y-68403714D01*
X124385143Y-68258571D01*
X124312571Y-68186000D01*
X124167429Y-68113429D01*
X123804571Y-68113429D01*
X123586857Y-68186000D01*
X123078857Y-68113429D02*
X122716000Y-69637429D01*
X122425714Y-68548857D01*
X122135428Y-69637429D01*
X121772571Y-68113429D01*
X120393714Y-69637429D02*
X121264571Y-69637429D01*
X120829143Y-69637429D02*
X120829143Y-68113429D01*
X120974286Y-68331143D01*
X121119428Y-68476286D01*
X121264571Y-68548857D01*
X119522857Y-68766571D02*
X119667999Y-68694000D01*
X119740571Y-68621429D01*
X119813142Y-68476286D01*
X119813142Y-68403714D01*
X119740571Y-68258571D01*
X119667999Y-68186000D01*
X119522857Y-68113429D01*
X119232571Y-68113429D01*
X119087428Y-68186000D01*
X119014857Y-68258571D01*
X118942285Y-68403714D01*
X118942285Y-68476286D01*
X119014857Y-68621429D01*
X119087428Y-68694000D01*
X119232571Y-68766571D01*
X119522857Y-68766571D01*
X119667999Y-68839143D01*
X119740571Y-68911714D01*
X119813142Y-69056857D01*
X119813142Y-69347143D01*
X119740571Y-69492286D01*
X119667999Y-69564857D01*
X119522857Y-69637429D01*
X119232571Y-69637429D01*
X119087428Y-69564857D01*
X119014857Y-69492286D01*
X118942285Y-69347143D01*
X118942285Y-69056857D01*
X119014857Y-68911714D01*
X119087428Y-68839143D01*
X119232571Y-68766571D01*
D15*
X134242381Y-103875714D02*
X133242381Y-103875714D01*
X133242381Y-104113809D01*
X133290000Y-104256667D01*
X133385238Y-104351905D01*
X133480476Y-104399524D01*
X133670952Y-104447143D01*
X133813810Y-104447143D01*
X134004286Y-104399524D01*
X134099524Y-104351905D01*
X134194762Y-104256667D01*
X134242381Y-104113809D01*
X134242381Y-103875714D01*
X133337619Y-104828095D02*
X133290000Y-104875714D01*
X133242381Y-104970952D01*
X133242381Y-105209048D01*
X133290000Y-105304286D01*
X133337619Y-105351905D01*
X133432857Y-105399524D01*
X133528095Y-105399524D01*
X133670952Y-105351905D01*
X134242381Y-104780476D01*
X134242381Y-105399524D01*
X133242381Y-106018571D02*
X133242381Y-106113810D01*
X133290000Y-106209048D01*
X133337619Y-106256667D01*
X133432857Y-106304286D01*
X133623333Y-106351905D01*
X133861429Y-106351905D01*
X134051905Y-106304286D01*
X134147143Y-106256667D01*
X134194762Y-106209048D01*
X134242381Y-106113810D01*
X134242381Y-106018571D01*
X134194762Y-105923333D01*
X134147143Y-105875714D01*
X134051905Y-105828095D01*
X133861429Y-105780476D01*
X133623333Y-105780476D01*
X133432857Y-105828095D01*
X133337619Y-105875714D01*
X133290000Y-105923333D01*
X133242381Y-106018571D01*
X77082381Y-103261905D02*
X76082381Y-103261905D01*
X76082381Y-103500000D01*
X76130000Y-103642858D01*
X76225238Y-103738096D01*
X76320476Y-103785715D01*
X76510952Y-103833334D01*
X76653810Y-103833334D01*
X76844286Y-103785715D01*
X76939524Y-103738096D01*
X77034762Y-103642858D01*
X77082381Y-103500000D01*
X77082381Y-103261905D01*
X76510952Y-104404762D02*
X76463333Y-104309524D01*
X76415714Y-104261905D01*
X76320476Y-104214286D01*
X76272857Y-104214286D01*
X76177619Y-104261905D01*
X76130000Y-104309524D01*
X76082381Y-104404762D01*
X76082381Y-104595239D01*
X76130000Y-104690477D01*
X76177619Y-104738096D01*
X76272857Y-104785715D01*
X76320476Y-104785715D01*
X76415714Y-104738096D01*
X76463333Y-104690477D01*
X76510952Y-104595239D01*
X76510952Y-104404762D01*
X76558571Y-104309524D01*
X76606190Y-104261905D01*
X76701429Y-104214286D01*
X76891905Y-104214286D01*
X76987143Y-104261905D01*
X77034762Y-104309524D01*
X77082381Y-104404762D01*
X77082381Y-104595239D01*
X77034762Y-104690477D01*
X76987143Y-104738096D01*
X76891905Y-104785715D01*
X76701429Y-104785715D01*
X76606190Y-104738096D01*
X76558571Y-104690477D01*
X76510952Y-104595239D01*
X96122381Y-102495714D02*
X95122381Y-102495714D01*
X95122381Y-102733809D01*
X95170000Y-102876667D01*
X95265238Y-102971905D01*
X95360476Y-103019524D01*
X95550952Y-103067143D01*
X95693810Y-103067143D01*
X95884286Y-103019524D01*
X95979524Y-102971905D01*
X96074762Y-102876667D01*
X96122381Y-102733809D01*
X96122381Y-102495714D01*
X96122381Y-104019524D02*
X96122381Y-103448095D01*
X96122381Y-103733809D02*
X95122381Y-103733809D01*
X95265238Y-103638571D01*
X95360476Y-103543333D01*
X95408095Y-103448095D01*
X95217619Y-104400476D02*
X95170000Y-104448095D01*
X95122381Y-104543333D01*
X95122381Y-104781429D01*
X95170000Y-104876667D01*
X95217619Y-104924286D01*
X95312857Y-104971905D01*
X95408095Y-104971905D01*
X95550952Y-104924286D01*
X96122381Y-104352857D01*
X96122381Y-104971905D01*
X115112381Y-102575714D02*
X114112381Y-102575714D01*
X114112381Y-102813809D01*
X114160000Y-102956667D01*
X114255238Y-103051905D01*
X114350476Y-103099524D01*
X114540952Y-103147143D01*
X114683810Y-103147143D01*
X114874286Y-103099524D01*
X114969524Y-103051905D01*
X115064762Y-102956667D01*
X115112381Y-102813809D01*
X115112381Y-102575714D01*
X115112381Y-104099524D02*
X115112381Y-103528095D01*
X115112381Y-103813809D02*
X114112381Y-103813809D01*
X114255238Y-103718571D01*
X114350476Y-103623333D01*
X114398095Y-103528095D01*
X114112381Y-104956667D02*
X114112381Y-104766190D01*
X114160000Y-104670952D01*
X114207619Y-104623333D01*
X114350476Y-104528095D01*
X114540952Y-104480476D01*
X114921905Y-104480476D01*
X115017143Y-104528095D01*
X115064762Y-104575714D01*
X115112381Y-104670952D01*
X115112381Y-104861429D01*
X115064762Y-104956667D01*
X115017143Y-105004286D01*
X114921905Y-105051905D01*
X114683810Y-105051905D01*
X114588571Y-105004286D01*
X114540952Y-104956667D01*
X114493333Y-104861429D01*
X114493333Y-104670952D01*
X114540952Y-104575714D01*
X114588571Y-104528095D01*
X114683810Y-104480476D01*
X121854286Y-97482381D02*
X121854286Y-96482381D01*
X121616191Y-96482381D01*
X121473333Y-96530000D01*
X121378095Y-96625238D01*
X121330476Y-96720476D01*
X121282857Y-96910952D01*
X121282857Y-97053810D01*
X121330476Y-97244286D01*
X121378095Y-97339524D01*
X121473333Y-97434762D01*
X121616191Y-97482381D01*
X121854286Y-97482381D01*
X120901905Y-96577619D02*
X120854286Y-96530000D01*
X120759048Y-96482381D01*
X120520952Y-96482381D01*
X120425714Y-96530000D01*
X120378095Y-96577619D01*
X120330476Y-96672857D01*
X120330476Y-96768095D01*
X120378095Y-96910952D01*
X120949524Y-97482381D01*
X120330476Y-97482381D01*
X119473333Y-96815714D02*
X119473333Y-97482381D01*
X119711429Y-96434762D02*
X119949524Y-97149048D01*
X119330476Y-97149048D01*
X142244286Y-78342381D02*
X142244286Y-77342381D01*
X142006191Y-77342381D01*
X141863333Y-77390000D01*
X141768095Y-77485238D01*
X141720476Y-77580476D01*
X141672857Y-77770952D01*
X141672857Y-77913810D01*
X141720476Y-78104286D01*
X141768095Y-78199524D01*
X141863333Y-78294762D01*
X142006191Y-78342381D01*
X142244286Y-78342381D01*
X141291905Y-77437619D02*
X141244286Y-77390000D01*
X141149048Y-77342381D01*
X140910952Y-77342381D01*
X140815714Y-77390000D01*
X140768095Y-77437619D01*
X140720476Y-77532857D01*
X140720476Y-77628095D01*
X140768095Y-77770952D01*
X141339524Y-78342381D01*
X140720476Y-78342381D01*
X140339524Y-77437619D02*
X140291905Y-77390000D01*
X140196667Y-77342381D01*
X139958571Y-77342381D01*
X139863333Y-77390000D01*
X139815714Y-77437619D01*
X139768095Y-77532857D01*
X139768095Y-77628095D01*
X139815714Y-77770952D01*
X140387143Y-78342381D01*
X139768095Y-78342381D01*
X143614286Y-97492381D02*
X143614286Y-96492381D01*
X143376191Y-96492381D01*
X143233333Y-96540000D01*
X143138095Y-96635238D01*
X143090476Y-96730476D01*
X143042857Y-96920952D01*
X143042857Y-97063810D01*
X143090476Y-97254286D01*
X143138095Y-97349524D01*
X143233333Y-97444762D01*
X143376191Y-97492381D01*
X143614286Y-97492381D01*
X142661905Y-96587619D02*
X142614286Y-96540000D01*
X142519048Y-96492381D01*
X142280952Y-96492381D01*
X142185714Y-96540000D01*
X142138095Y-96587619D01*
X142090476Y-96682857D01*
X142090476Y-96778095D01*
X142138095Y-96920952D01*
X142709524Y-97492381D01*
X142090476Y-97492381D01*
X141757143Y-96492381D02*
X141138095Y-96492381D01*
X141471429Y-96873333D01*
X141328571Y-96873333D01*
X141233333Y-96920952D01*
X141185714Y-96968571D01*
X141138095Y-97063810D01*
X141138095Y-97301905D01*
X141185714Y-97397143D01*
X141233333Y-97444762D01*
X141328571Y-97492381D01*
X141614286Y-97492381D01*
X141709524Y-97444762D01*
X141757143Y-97397143D01*
X115282381Y-83785714D02*
X114282381Y-83785714D01*
X114282381Y-84023809D01*
X114330000Y-84166667D01*
X114425238Y-84261905D01*
X114520476Y-84309524D01*
X114710952Y-84357143D01*
X114853810Y-84357143D01*
X115044286Y-84309524D01*
X115139524Y-84261905D01*
X115234762Y-84166667D01*
X115282381Y-84023809D01*
X115282381Y-83785714D01*
X115282381Y-85309524D02*
X115282381Y-84738095D01*
X115282381Y-85023809D02*
X114282381Y-85023809D01*
X114425238Y-84928571D01*
X114520476Y-84833333D01*
X114568095Y-84738095D01*
X114282381Y-86214286D02*
X114282381Y-85738095D01*
X114758571Y-85690476D01*
X114710952Y-85738095D01*
X114663333Y-85833333D01*
X114663333Y-86071429D01*
X114710952Y-86166667D01*
X114758571Y-86214286D01*
X114853810Y-86261905D01*
X115091905Y-86261905D01*
X115187143Y-86214286D01*
X115234762Y-86166667D01*
X115282381Y-86071429D01*
X115282381Y-85833333D01*
X115234762Y-85738095D01*
X115187143Y-85690476D01*
X96172381Y-83845714D02*
X95172381Y-83845714D01*
X95172381Y-84083809D01*
X95220000Y-84226667D01*
X95315238Y-84321905D01*
X95410476Y-84369524D01*
X95600952Y-84417143D01*
X95743810Y-84417143D01*
X95934286Y-84369524D01*
X96029524Y-84321905D01*
X96124762Y-84226667D01*
X96172381Y-84083809D01*
X96172381Y-83845714D01*
X96172381Y-85369524D02*
X96172381Y-84798095D01*
X96172381Y-85083809D02*
X95172381Y-85083809D01*
X95315238Y-84988571D01*
X95410476Y-84893333D01*
X95458095Y-84798095D01*
X96172381Y-86321905D02*
X96172381Y-85750476D01*
X96172381Y-86036190D02*
X95172381Y-86036190D01*
X95315238Y-85940952D01*
X95410476Y-85845714D01*
X95458095Y-85750476D01*
X77032381Y-83811905D02*
X76032381Y-83811905D01*
X76032381Y-84050000D01*
X76080000Y-84192858D01*
X76175238Y-84288096D01*
X76270476Y-84335715D01*
X76460952Y-84383334D01*
X76603810Y-84383334D01*
X76794286Y-84335715D01*
X76889524Y-84288096D01*
X76984762Y-84192858D01*
X77032381Y-84050000D01*
X77032381Y-83811905D01*
X76032381Y-84716667D02*
X76032381Y-85383334D01*
X77032381Y-84954762D01*
X45378095Y-73372381D02*
X45378095Y-72372381D01*
X45140000Y-72372381D01*
X44997142Y-72420000D01*
X44901904Y-72515238D01*
X44854285Y-72610476D01*
X44806666Y-72800952D01*
X44806666Y-72943810D01*
X44854285Y-73134286D01*
X44901904Y-73229524D01*
X44997142Y-73324762D01*
X45140000Y-73372381D01*
X45378095Y-73372381D01*
X44425714Y-72467619D02*
X44378095Y-72420000D01*
X44282857Y-72372381D01*
X44044761Y-72372381D01*
X43949523Y-72420000D01*
X43901904Y-72467619D01*
X43854285Y-72562857D01*
X43854285Y-72658095D01*
X43901904Y-72800952D01*
X44473333Y-73372381D01*
X43854285Y-73372381D01*
X57992381Y-104131905D02*
X56992381Y-104131905D01*
X56992381Y-104370000D01*
X57040000Y-104512858D01*
X57135238Y-104608096D01*
X57230476Y-104655715D01*
X57420952Y-104703334D01*
X57563810Y-104703334D01*
X57754286Y-104655715D01*
X57849524Y-104608096D01*
X57944762Y-104512858D01*
X57992381Y-104370000D01*
X57992381Y-104131905D01*
X57325714Y-105560477D02*
X57992381Y-105560477D01*
X56944762Y-105322381D02*
X57659048Y-105084286D01*
X57659048Y-105703334D01*
X65858095Y-78372381D02*
X65858095Y-77372381D01*
X65620000Y-77372381D01*
X65477142Y-77420000D01*
X65381904Y-77515238D01*
X65334285Y-77610476D01*
X65286666Y-77800952D01*
X65286666Y-77943810D01*
X65334285Y-78134286D01*
X65381904Y-78229524D01*
X65477142Y-78324762D01*
X65620000Y-78372381D01*
X65858095Y-78372381D01*
X64429523Y-77372381D02*
X64620000Y-77372381D01*
X64715238Y-77420000D01*
X64762857Y-77467619D01*
X64858095Y-77610476D01*
X64905714Y-77800952D01*
X64905714Y-78181905D01*
X64858095Y-78277143D01*
X64810476Y-78324762D01*
X64715238Y-78372381D01*
X64524761Y-78372381D01*
X64429523Y-78324762D01*
X64381904Y-78277143D01*
X64334285Y-78181905D01*
X64334285Y-77943810D01*
X64381904Y-77848571D01*
X64429523Y-77800952D01*
X64524761Y-77753333D01*
X64715238Y-77753333D01*
X64810476Y-77800952D01*
X64858095Y-77848571D01*
X64905714Y-77943810D01*
X96002381Y-64535714D02*
X95002381Y-64535714D01*
X95002381Y-64773809D01*
X95050000Y-64916667D01*
X95145238Y-65011905D01*
X95240476Y-65059524D01*
X95430952Y-65107143D01*
X95573810Y-65107143D01*
X95764286Y-65059524D01*
X95859524Y-65011905D01*
X95954762Y-64916667D01*
X96002381Y-64773809D01*
X96002381Y-64535714D01*
X96002381Y-66059524D02*
X96002381Y-65488095D01*
X96002381Y-65773809D02*
X95002381Y-65773809D01*
X95145238Y-65678571D01*
X95240476Y-65583333D01*
X95288095Y-65488095D01*
X95002381Y-66678571D02*
X95002381Y-66773810D01*
X95050000Y-66869048D01*
X95097619Y-66916667D01*
X95192857Y-66964286D01*
X95383333Y-67011905D01*
X95621429Y-67011905D01*
X95811905Y-66964286D01*
X95907143Y-66916667D01*
X95954762Y-66869048D01*
X96002381Y-66773810D01*
X96002381Y-66678571D01*
X95954762Y-66583333D01*
X95907143Y-66535714D01*
X95811905Y-66488095D01*
X95621429Y-66440476D01*
X95383333Y-66440476D01*
X95192857Y-66488095D01*
X95097619Y-66535714D01*
X95050000Y-66583333D01*
X95002381Y-66678571D01*
X115212381Y-64705714D02*
X114212381Y-64705714D01*
X114212381Y-64943809D01*
X114260000Y-65086667D01*
X114355238Y-65181905D01*
X114450476Y-65229524D01*
X114640952Y-65277143D01*
X114783810Y-65277143D01*
X114974286Y-65229524D01*
X115069524Y-65181905D01*
X115164762Y-65086667D01*
X115212381Y-64943809D01*
X115212381Y-64705714D01*
X115212381Y-66229524D02*
X115212381Y-65658095D01*
X115212381Y-65943809D02*
X114212381Y-65943809D01*
X114355238Y-65848571D01*
X114450476Y-65753333D01*
X114498095Y-65658095D01*
X114545714Y-67086667D02*
X115212381Y-67086667D01*
X114164762Y-66848571D02*
X114879048Y-66610476D01*
X114879048Y-67229524D01*
X134232381Y-64895714D02*
X133232381Y-64895714D01*
X133232381Y-65133809D01*
X133280000Y-65276667D01*
X133375238Y-65371905D01*
X133470476Y-65419524D01*
X133660952Y-65467143D01*
X133803810Y-65467143D01*
X133994286Y-65419524D01*
X134089524Y-65371905D01*
X134184762Y-65276667D01*
X134232381Y-65133809D01*
X134232381Y-64895714D01*
X134232381Y-66419524D02*
X134232381Y-65848095D01*
X134232381Y-66133809D02*
X133232381Y-66133809D01*
X133375238Y-66038571D01*
X133470476Y-65943333D01*
X133518095Y-65848095D01*
X133660952Y-66990952D02*
X133613333Y-66895714D01*
X133565714Y-66848095D01*
X133470476Y-66800476D01*
X133422857Y-66800476D01*
X133327619Y-66848095D01*
X133280000Y-66895714D01*
X133232381Y-66990952D01*
X133232381Y-67181429D01*
X133280000Y-67276667D01*
X133327619Y-67324286D01*
X133422857Y-67371905D01*
X133470476Y-67371905D01*
X133565714Y-67324286D01*
X133613333Y-67276667D01*
X133660952Y-67181429D01*
X133660952Y-66990952D01*
X133708571Y-66895714D01*
X133756190Y-66848095D01*
X133851429Y-66800476D01*
X134041905Y-66800476D01*
X134137143Y-66848095D01*
X134184762Y-66895714D01*
X134232381Y-66990952D01*
X134232381Y-67181429D01*
X134184762Y-67276667D01*
X134137143Y-67324286D01*
X134041905Y-67371905D01*
X133851429Y-67371905D01*
X133756190Y-67324286D01*
X133708571Y-67276667D01*
X133660952Y-67181429D01*
X142624286Y-59192381D02*
X142624286Y-58192381D01*
X142386191Y-58192381D01*
X142243333Y-58240000D01*
X142148095Y-58335238D01*
X142100476Y-58430476D01*
X142052857Y-58620952D01*
X142052857Y-58763810D01*
X142100476Y-58954286D01*
X142148095Y-59049524D01*
X142243333Y-59144762D01*
X142386191Y-59192381D01*
X142624286Y-59192381D01*
X141671905Y-58287619D02*
X141624286Y-58240000D01*
X141529048Y-58192381D01*
X141290952Y-58192381D01*
X141195714Y-58240000D01*
X141148095Y-58287619D01*
X141100476Y-58382857D01*
X141100476Y-58478095D01*
X141148095Y-58620952D01*
X141719524Y-59192381D01*
X141100476Y-59192381D01*
X140148095Y-59192381D02*
X140719524Y-59192381D01*
X140433810Y-59192381D02*
X140433810Y-58192381D01*
X140529048Y-58335238D01*
X140624286Y-58430476D01*
X140719524Y-58478095D01*
X122334286Y-54402381D02*
X122334286Y-53402381D01*
X122096191Y-53402381D01*
X121953333Y-53450000D01*
X121858095Y-53545238D01*
X121810476Y-53640476D01*
X121762857Y-53830952D01*
X121762857Y-53973810D01*
X121810476Y-54164286D01*
X121858095Y-54259524D01*
X121953333Y-54354762D01*
X122096191Y-54402381D01*
X122334286Y-54402381D01*
X120810476Y-54402381D02*
X121381905Y-54402381D01*
X121096191Y-54402381D02*
X121096191Y-53402381D01*
X121191429Y-53545238D01*
X121286667Y-53640476D01*
X121381905Y-53688095D01*
X120477143Y-53402381D02*
X119810476Y-53402381D01*
X120239048Y-54402381D01*
X115112381Y-45645714D02*
X114112381Y-45645714D01*
X114112381Y-45883809D01*
X114160000Y-46026667D01*
X114255238Y-46121905D01*
X114350476Y-46169524D01*
X114540952Y-46217143D01*
X114683810Y-46217143D01*
X114874286Y-46169524D01*
X114969524Y-46121905D01*
X115064762Y-46026667D01*
X115112381Y-45883809D01*
X115112381Y-45645714D01*
X115112381Y-47169524D02*
X115112381Y-46598095D01*
X115112381Y-46883809D02*
X114112381Y-46883809D01*
X114255238Y-46788571D01*
X114350476Y-46693333D01*
X114398095Y-46598095D01*
X114112381Y-47502857D02*
X114112381Y-48121905D01*
X114493333Y-47788571D01*
X114493333Y-47931429D01*
X114540952Y-48026667D01*
X114588571Y-48074286D01*
X114683810Y-48121905D01*
X114921905Y-48121905D01*
X115017143Y-48074286D01*
X115064762Y-48026667D01*
X115112381Y-47931429D01*
X115112381Y-47645714D01*
X115064762Y-47550476D01*
X115017143Y-47502857D01*
X96242381Y-46121905D02*
X95242381Y-46121905D01*
X95242381Y-46360000D01*
X95290000Y-46502858D01*
X95385238Y-46598096D01*
X95480476Y-46645715D01*
X95670952Y-46693334D01*
X95813810Y-46693334D01*
X96004286Y-46645715D01*
X96099524Y-46598096D01*
X96194762Y-46502858D01*
X96242381Y-46360000D01*
X96242381Y-46121905D01*
X96242381Y-47169524D02*
X96242381Y-47360000D01*
X96194762Y-47455239D01*
X96147143Y-47502858D01*
X96004286Y-47598096D01*
X95813810Y-47645715D01*
X95432857Y-47645715D01*
X95337619Y-47598096D01*
X95290000Y-47550477D01*
X95242381Y-47455239D01*
X95242381Y-47264762D01*
X95290000Y-47169524D01*
X95337619Y-47121905D01*
X95432857Y-47074286D01*
X95670952Y-47074286D01*
X95766190Y-47121905D01*
X95813810Y-47169524D01*
X95861429Y-47264762D01*
X95861429Y-47455239D01*
X95813810Y-47550477D01*
X95766190Y-47598096D01*
X95670952Y-47645715D01*
X83888095Y-54272381D02*
X83888095Y-53272381D01*
X83650000Y-53272381D01*
X83507142Y-53320000D01*
X83411904Y-53415238D01*
X83364285Y-53510476D01*
X83316666Y-53700952D01*
X83316666Y-53843810D01*
X83364285Y-54034286D01*
X83411904Y-54129524D01*
X83507142Y-54224762D01*
X83650000Y-54272381D01*
X83888095Y-54272381D01*
X82411904Y-53272381D02*
X82888095Y-53272381D01*
X82935714Y-53748571D01*
X82888095Y-53700952D01*
X82792857Y-53653333D01*
X82554761Y-53653333D01*
X82459523Y-53700952D01*
X82411904Y-53748571D01*
X82364285Y-53843810D01*
X82364285Y-54081905D01*
X82411904Y-54177143D01*
X82459523Y-54224762D01*
X82554761Y-54272381D01*
X82792857Y-54272381D01*
X82888095Y-54224762D01*
X82935714Y-54177143D01*
X46338095Y-54262381D02*
X46338095Y-53262381D01*
X46100000Y-53262381D01*
X45957142Y-53310000D01*
X45861904Y-53405238D01*
X45814285Y-53500476D01*
X45766666Y-53690952D01*
X45766666Y-53833810D01*
X45814285Y-54024286D01*
X45861904Y-54119524D01*
X45957142Y-54214762D01*
X46100000Y-54262381D01*
X46338095Y-54262381D01*
X44814285Y-54262381D02*
X45385714Y-54262381D01*
X45100000Y-54262381D02*
X45100000Y-53262381D01*
X45195238Y-53405238D01*
X45290476Y-53500476D01*
X45385714Y-53548095D01*
X57922381Y-82561905D02*
X56922381Y-82561905D01*
X56922381Y-82800000D01*
X56970000Y-82942858D01*
X57065238Y-83038096D01*
X57160476Y-83085715D01*
X57350952Y-83133334D01*
X57493810Y-83133334D01*
X57684286Y-83085715D01*
X57779524Y-83038096D01*
X57874762Y-82942858D01*
X57922381Y-82800000D01*
X57922381Y-82561905D01*
X56922381Y-83466667D02*
X56922381Y-84085715D01*
X57303333Y-83752381D01*
X57303333Y-83895239D01*
X57350952Y-83990477D01*
X57398571Y-84038096D01*
X57493810Y-84085715D01*
X57731905Y-84085715D01*
X57827143Y-84038096D01*
X57874762Y-83990477D01*
X57922381Y-83895239D01*
X57922381Y-83609524D01*
X57874762Y-83514286D01*
X57827143Y-83466667D01*
D14*
X135883333Y-37730429D02*
X134782666Y-37730429D01*
X135375333Y-38311000D01*
X135121333Y-38311000D01*
X134952000Y-38383571D01*
X134867333Y-38456143D01*
X134782666Y-38601286D01*
X134782666Y-38964143D01*
X134867333Y-39109286D01*
X134952000Y-39181857D01*
X135121333Y-39254429D01*
X135629333Y-39254429D01*
X135798666Y-39181857D01*
X135883333Y-39109286D01*
X134020667Y-39109286D02*
X133936000Y-39181857D01*
X134020667Y-39254429D01*
X134105333Y-39181857D01*
X134020667Y-39109286D01*
X134020667Y-39254429D01*
X132327333Y-37730429D02*
X133174000Y-37730429D01*
X133258666Y-38456143D01*
X133174000Y-38383571D01*
X133004666Y-38311000D01*
X132581333Y-38311000D01*
X132412000Y-38383571D01*
X132327333Y-38456143D01*
X132242666Y-38601286D01*
X132242666Y-38964143D01*
X132327333Y-39109286D01*
X132412000Y-39181857D01*
X132581333Y-39254429D01*
X133004666Y-39254429D01*
X133174000Y-39181857D01*
X133258666Y-39109286D01*
X131480667Y-39254429D02*
X131480667Y-38238429D01*
X131480667Y-38383571D02*
X131396000Y-38311000D01*
X131226667Y-38238429D01*
X130972667Y-38238429D01*
X130803333Y-38311000D01*
X130718667Y-38456143D01*
X130718667Y-39254429D01*
X130718667Y-38456143D02*
X130634000Y-38311000D01*
X130464667Y-38238429D01*
X130210667Y-38238429D01*
X130041333Y-38311000D01*
X129956667Y-38456143D01*
X129956667Y-39254429D01*
X129110000Y-39254429D02*
X129110000Y-38238429D01*
X129110000Y-38383571D02*
X129025333Y-38311000D01*
X128856000Y-38238429D01*
X128602000Y-38238429D01*
X128432666Y-38311000D01*
X128348000Y-38456143D01*
X128348000Y-39254429D01*
X128348000Y-38456143D02*
X128263333Y-38311000D01*
X128094000Y-38238429D01*
X127840000Y-38238429D01*
X127670666Y-38311000D01*
X127586000Y-38456143D01*
X127586000Y-39254429D01*
D16*
X96085524Y-56874524D02*
X96424190Y-56269762D01*
X96666095Y-56874524D02*
X96666095Y-55604524D01*
X96279048Y-55604524D01*
X96182286Y-55665000D01*
X96133905Y-55725476D01*
X96085524Y-55846429D01*
X96085524Y-56027857D01*
X96133905Y-56148810D01*
X96182286Y-56209286D01*
X96279048Y-56269762D01*
X96666095Y-56269762D01*
X108735524Y-56874524D02*
X109074190Y-56269762D01*
X109316095Y-56874524D02*
X109316095Y-55604524D01*
X108929048Y-55604524D01*
X108832286Y-55665000D01*
X108783905Y-55725476D01*
X108735524Y-55846429D01*
X108735524Y-56027857D01*
X108783905Y-56148810D01*
X108832286Y-56209286D01*
X108929048Y-56269762D01*
X109316095Y-56269762D01*
D14*
D17*
M02*
