%TF.GenerationSoftware,KiCad,Pcbnew,4.0.6*%
%TF.CreationDate,2017-11-03T08:26:54+09:00*%
%TF.ProjectId,lets_split,6C6574735F73706C69742E6B69636164,rev?*%
%TF.FileFunction,Copper,L1,Top,Signal*%
%FSLAX46Y46*%
G04 Gerber Fmt 4.6, Leading zero omitted, Abs format (unit mm)*
G04 Created by KiCad (PCBNEW 4.0.6) date 11/03/17 08:26:54*
%MOMM*%
%LPD*%
G01*
G04 APERTURE LIST*
%ADD10C,0.100000*%
%ADD11C,2.500000*%
%ADD12C,3.987810*%
%ADD13C,1.701810*%
%ADD14C,1.998980*%
%ADD15R,1.998980X1.998980*%
%ADD16O,2.057400X1.752600*%
%ADD17C,1.752600*%
%ADD18C,1.651000*%
%ADD19R,1.752600X1.752600*%
%ADD20C,2.000000*%
%ADD21R,1.524000X1.524000*%
%ADD22C,1.524000*%
%ADD23R,0.500000X1.000000*%
%ADD24R,1.000000X1.000000*%
%ADD25C,1.000000*%
%ADD26C,0.500000*%
%ADD27C,8.000000*%
%ADD28C,0.600000*%
%ADD29C,0.250000*%
%ADD30C,0.254000*%
G04 APERTURE END LIST*
D10*
D11*
X-30659724Y50939328D02*
X-30620276Y50360672D01*
X-24969816Y49860307D02*
X-24160184Y48399693D01*
D12*
X-28160000Y45860000D03*
D13*
X-33240000Y45860000D03*
X-23080000Y45860000D03*
D11*
X-31159547Y49859954D02*
X-31970453Y48400046D01*
X-25620276Y50939328D02*
X-25659724Y50360672D01*
D14*
X-18612540Y11420000D03*
D15*
X-18612540Y1260000D03*
D14*
X-75762540Y12520000D03*
D15*
X-75762540Y2360000D03*
D14*
X-56712540Y12820000D03*
D15*
X-56712540Y2660000D03*
D14*
X-37712540Y12720000D03*
D15*
X-37712540Y2560000D03*
D14*
X-24450000Y17262540D03*
D15*
X-34610000Y17262540D03*
D14*
X-4100000Y36412540D03*
D15*
X-14260000Y36412540D03*
D14*
X-2700000Y17262540D03*
D15*
X-12860000Y17262540D03*
D14*
X-37562540Y31520000D03*
D15*
X-37562540Y21360000D03*
D14*
X-56612540Y31520000D03*
D15*
X-56612540Y21360000D03*
D14*
X-75812540Y31970000D03*
D15*
X-75812540Y21810000D03*
D14*
X-109970000Y36357460D03*
D15*
X-99810000Y36357460D03*
D14*
X-94862540Y11670000D03*
D15*
X-94862540Y1510000D03*
D14*
X-80000000Y36312540D03*
D15*
X-90160000Y36312540D03*
D14*
X-56812540Y50770000D03*
D15*
X-56812540Y40610000D03*
D14*
X-37612540Y50620000D03*
D15*
X-37612540Y40460000D03*
D14*
X-18610000Y48760000D03*
D15*
X-18562540Y40210000D03*
D14*
X-3800000Y55512540D03*
D15*
X-12360000Y55510000D03*
D14*
X-24860000Y55510000D03*
D15*
X-33110000Y55462540D03*
D14*
X-37662540Y69670000D03*
D15*
X-37662540Y59510000D03*
D14*
X-56612540Y69670000D03*
D15*
X-56612540Y59510000D03*
D14*
X-71470000Y55407460D03*
D15*
X-61310000Y55407460D03*
D14*
X-109070000Y55407460D03*
D15*
X-98910000Y55407460D03*
D14*
X-94862540Y33170000D03*
D15*
X-94862540Y23010000D03*
D14*
X-18612540Y33920000D03*
D15*
X-18612540Y23760000D03*
D16*
X-13561800Y76014400D03*
D17*
X-21816800Y71010600D03*
X-16609800Y67911800D03*
D16*
X-22858200Y76014400D03*
D17*
X-19810200Y67911800D03*
X-14603200Y71010600D03*
D18*
X-48380000Y55460000D03*
X-58540000Y55460000D03*
X-45890000Y55460000D03*
X-35730000Y55460000D03*
D11*
X-106859724Y69989328D02*
X-106820276Y69410672D01*
X-101169816Y68910307D02*
X-100360184Y67449693D01*
D12*
X-104360000Y64910000D03*
D13*
X-109440000Y64910000D03*
X-99280000Y64910000D03*
D11*
X-107359547Y68909954D02*
X-108170453Y67450046D01*
X-101820276Y69989328D02*
X-101859724Y69410672D01*
X-106809724Y50889328D02*
X-106770276Y50310672D01*
X-101119816Y49810307D02*
X-100310184Y48349693D01*
D12*
X-104310000Y45810000D03*
D13*
X-109390000Y45810000D03*
X-99230000Y45810000D03*
D11*
X-107309547Y49809954D02*
X-108120453Y48350046D01*
X-101770276Y50889328D02*
X-101809724Y50310672D01*
X-106859724Y31839328D02*
X-106820276Y31260672D01*
X-101169816Y30760307D02*
X-100360184Y29299693D01*
D12*
X-104360000Y26760000D03*
D13*
X-109440000Y26760000D03*
X-99280000Y26760000D03*
D11*
X-107359547Y30759954D02*
X-108170453Y29300046D01*
X-101820276Y31839328D02*
X-101859724Y31260672D01*
X-106859724Y12689328D02*
X-106820276Y12110672D01*
X-101169816Y11610307D02*
X-100360184Y10149693D01*
D12*
X-104360000Y7610000D03*
D13*
X-109440000Y7610000D03*
X-99280000Y7610000D03*
D11*
X-107359547Y11609954D02*
X-108170453Y10150046D01*
X-101820276Y12689328D02*
X-101859724Y12110672D01*
X-87809724Y69989328D02*
X-87770276Y69410672D01*
X-82119816Y68910307D02*
X-81310184Y67449693D01*
D12*
X-85310000Y64910000D03*
D13*
X-90390000Y64910000D03*
X-80230000Y64910000D03*
D11*
X-88309547Y68909954D02*
X-89120453Y67450046D01*
X-82770276Y69989328D02*
X-82809724Y69410672D01*
X-87809724Y50939328D02*
X-87770276Y50360672D01*
X-82119816Y49860307D02*
X-81310184Y48399693D01*
D12*
X-85310000Y45860000D03*
D13*
X-90390000Y45860000D03*
X-80230000Y45860000D03*
D11*
X-88309547Y49859954D02*
X-89120453Y48400046D01*
X-82770276Y50939328D02*
X-82809724Y50360672D01*
X-87809724Y31889328D02*
X-87770276Y31310672D01*
X-82119816Y30810307D02*
X-81310184Y29349693D01*
D12*
X-85310000Y26810000D03*
D13*
X-90390000Y26810000D03*
X-80230000Y26810000D03*
D11*
X-88309547Y30809954D02*
X-89120453Y29350046D01*
X-82770276Y31889328D02*
X-82809724Y31310672D01*
X-87809724Y12839328D02*
X-87770276Y12260672D01*
X-82119816Y11760307D02*
X-81310184Y10299693D01*
D12*
X-85310000Y7760000D03*
D13*
X-90390000Y7760000D03*
X-80230000Y7760000D03*
D11*
X-88309547Y11759954D02*
X-89120453Y10300046D01*
X-82770276Y12839328D02*
X-82809724Y12260672D01*
X-68759724Y69989328D02*
X-68720276Y69410672D01*
X-63069816Y68910307D02*
X-62260184Y67449693D01*
D12*
X-66260000Y64910000D03*
D13*
X-71340000Y64910000D03*
X-61180000Y64910000D03*
D11*
X-69259547Y68909954D02*
X-70070453Y67450046D01*
X-63720276Y69989328D02*
X-63759724Y69410672D01*
X-68759724Y50939328D02*
X-68720276Y50360672D01*
X-63069816Y49860307D02*
X-62260184Y48399693D01*
D12*
X-66260000Y45860000D03*
D13*
X-71340000Y45860000D03*
X-61180000Y45860000D03*
D11*
X-69259547Y49859954D02*
X-70070453Y48400046D01*
X-63720276Y50939328D02*
X-63759724Y50360672D01*
X-68759724Y31889328D02*
X-68720276Y31310672D01*
X-63069816Y30810307D02*
X-62260184Y29349693D01*
D12*
X-66260000Y26810000D03*
D13*
X-71340000Y26810000D03*
X-61180000Y26810000D03*
D11*
X-69259547Y30809954D02*
X-70070453Y29350046D01*
X-63720276Y31889328D02*
X-63759724Y31310672D01*
X-68759724Y12839328D02*
X-68720276Y12260672D01*
X-63069816Y11760307D02*
X-62260184Y10299693D01*
D12*
X-66260000Y7760000D03*
D13*
X-71340000Y7760000D03*
X-61180000Y7760000D03*
D11*
X-69259547Y11759954D02*
X-70070453Y10300046D01*
X-63720276Y12839328D02*
X-63759724Y12260672D01*
X-49709724Y69989328D02*
X-49670276Y69410672D01*
X-44019816Y68910307D02*
X-43210184Y67449693D01*
D12*
X-47210000Y64910000D03*
D13*
X-52290000Y64910000D03*
X-42130000Y64910000D03*
D11*
X-50209547Y68909954D02*
X-51020453Y67450046D01*
X-44670276Y69989328D02*
X-44709724Y69410672D01*
X-49709724Y50939328D02*
X-49670276Y50360672D01*
X-44019816Y49860307D02*
X-43210184Y48399693D01*
D12*
X-47210000Y45860000D03*
D13*
X-52290000Y45860000D03*
X-42130000Y45860000D03*
D11*
X-50209547Y49859954D02*
X-51020453Y48400046D01*
X-44670276Y50939328D02*
X-44709724Y50360672D01*
X-49709724Y31889328D02*
X-49670276Y31310672D01*
X-44019816Y30810307D02*
X-43210184Y29349693D01*
D12*
X-47210000Y26810000D03*
D13*
X-52290000Y26810000D03*
X-42130000Y26810000D03*
D11*
X-50209547Y30809954D02*
X-51020453Y29350046D01*
X-44670276Y31889328D02*
X-44709724Y31310672D01*
X-49709724Y12839328D02*
X-49670276Y12260672D01*
X-44019816Y11760307D02*
X-43210184Y10299693D01*
D12*
X-47210000Y7760000D03*
D13*
X-52290000Y7760000D03*
X-42130000Y7760000D03*
D11*
X-50209547Y11759954D02*
X-51020453Y10300046D01*
X-44670276Y12839328D02*
X-44709724Y12260672D01*
X-30659724Y69989328D02*
X-30620276Y69410672D01*
X-24969816Y68910307D02*
X-24160184Y67449693D01*
D12*
X-28160000Y64910000D03*
D13*
X-33240000Y64910000D03*
X-23080000Y64910000D03*
D11*
X-31159547Y68909954D02*
X-31970453Y67450046D01*
X-25620276Y69989328D02*
X-25659724Y69410672D01*
X-30659724Y31889328D02*
X-30620276Y31310672D01*
X-24969816Y30810307D02*
X-24160184Y29349693D01*
D12*
X-28160000Y26810000D03*
D13*
X-33240000Y26810000D03*
X-23080000Y26810000D03*
D11*
X-31159547Y30809954D02*
X-31970453Y29350046D01*
X-25620276Y31889328D02*
X-25659724Y31310672D01*
X-30659724Y12839328D02*
X-30620276Y12260672D01*
X-24969816Y11760307D02*
X-24160184Y10299693D01*
D12*
X-28160000Y7760000D03*
D13*
X-33240000Y7760000D03*
X-23080000Y7760000D03*
D11*
X-31159547Y11759954D02*
X-31970453Y10300046D01*
X-25620276Y12839328D02*
X-25659724Y12260672D01*
X-11609724Y69989328D02*
X-11570276Y69410672D01*
X-5919816Y68910307D02*
X-5110184Y67449693D01*
D12*
X-9110000Y64910000D03*
D13*
X-14190000Y64910000D03*
X-4030000Y64910000D03*
D11*
X-12109547Y68909954D02*
X-12920453Y67450046D01*
X-6570276Y69989328D02*
X-6609724Y69410672D01*
X-11609724Y50939328D02*
X-11570276Y50360672D01*
X-5919816Y49860307D02*
X-5110184Y48399693D01*
D12*
X-9110000Y45860000D03*
D13*
X-14190000Y45860000D03*
X-4030000Y45860000D03*
D11*
X-12109547Y49859954D02*
X-12920453Y48400046D01*
X-6570276Y50939328D02*
X-6609724Y50360672D01*
X-11609724Y31889328D02*
X-11570276Y31310672D01*
X-5919816Y30810307D02*
X-5110184Y29349693D01*
D12*
X-9110000Y26810000D03*
D13*
X-14190000Y26810000D03*
X-4030000Y26810000D03*
D11*
X-12109547Y30809954D02*
X-12920453Y29350046D01*
X-6570276Y31889328D02*
X-6609724Y31310672D01*
X-11609724Y12839328D02*
X-11570276Y12260672D01*
X-5919816Y11760307D02*
X-5110184Y10299693D01*
D12*
X-9110000Y7760000D03*
D13*
X-14190000Y7760000D03*
X-4030000Y7760000D03*
D11*
X-12109547Y11759954D02*
X-12920453Y10300046D01*
X-6570276Y12839328D02*
X-6609724Y12260672D01*
D19*
X-77690000Y75980000D03*
D17*
X-77690000Y73440000D03*
X-77690000Y70900000D03*
X-77690000Y68360000D03*
X-77690000Y65820000D03*
X-77690000Y63280000D03*
X-77690000Y60740000D03*
X-77690000Y58200000D03*
X-77690000Y55660000D03*
X-77690000Y53120000D03*
X-77690000Y50580000D03*
X-77690000Y48040000D03*
X-92930000Y48040000D03*
X-92930000Y50580000D03*
X-92930000Y53120000D03*
X-92930000Y55660000D03*
X-92930000Y58200000D03*
X-92930000Y60740000D03*
X-92930000Y63280000D03*
X-92930000Y70900000D03*
X-92930000Y73440000D03*
X-92930000Y75980000D03*
X-92930000Y65820000D03*
X-92930000Y68360000D03*
D20*
X-18860000Y63760000D03*
D21*
X-12460000Y58660000D03*
X-12460000Y60660000D03*
X-12460000Y62660000D03*
D22*
X-12450000Y60650000D03*
X-12470000Y62660000D03*
X-12450000Y58650000D03*
D21*
X-24210000Y58760000D03*
X-24210000Y60760000D03*
X-24210000Y62760000D03*
D22*
X-24200000Y60750000D03*
X-24220000Y62760000D03*
X-24200000Y58750000D03*
D10*
G36*
X-27801200Y52984676D02*
X-28301124Y53484600D01*
X-27801200Y53984524D01*
X-27301276Y53484600D01*
X-27801200Y52984676D01*
X-27801200Y52984676D01*
G37*
G36*
X-28941250Y52984600D02*
X-28441250Y53484600D01*
X-28441150Y53484600D01*
X-27941150Y52984600D01*
X-28941250Y52984600D01*
X-28941250Y52984600D01*
G37*
G36*
X-27941150Y53984600D02*
X-28441150Y53484600D01*
X-28441250Y53484600D01*
X-28941250Y53984600D01*
X-27941150Y53984600D01*
X-27941150Y53984600D01*
G37*
D23*
X-28691200Y53484600D03*
D24*
X-27300000Y53500000D03*
D25*
X-27340000Y53490000D03*
D26*
X-28680000Y53470000D03*
D27*
X-94860000Y17260000D03*
X-18510000Y17210000D03*
X-18660000Y55310000D03*
X-98010000Y74460000D03*
D28*
X-61810000Y62860000D03*
D29*
X-20360000Y53760000D02*
X-20360000Y53810000D01*
X-20360000Y53810000D02*
X-20510000Y53960000D01*
X-13960000Y57860000D02*
X-13960000Y57110000D01*
X-28657460Y55462540D02*
X-26860000Y57260000D01*
X-26860000Y57260000D02*
X-23110000Y57260000D01*
X-23110000Y57260000D02*
X-20360000Y60010000D01*
X-20360000Y60010000D02*
X-16110000Y60010000D01*
X-16110000Y60010000D02*
X-13960000Y57860000D01*
X-33110000Y55462540D02*
X-28657460Y55462540D01*
X-13960000Y57110000D02*
X-12360000Y55510000D01*
X-56612540Y59510000D02*
X-37662540Y59510000D01*
X-61310000Y55407460D02*
X-60715080Y55407460D01*
X-60715080Y55407460D02*
X-56612540Y59510000D01*
X-92930000Y55660000D02*
X-80110000Y55660000D01*
X-63007460Y53710000D02*
X-61310000Y55407460D01*
X-72260000Y53710000D02*
X-63007460Y53710000D01*
X-75510000Y56960000D02*
X-72260000Y53710000D01*
X-78810000Y56960000D02*
X-75510000Y56960000D01*
X-80110000Y55660000D02*
X-78810000Y56960000D01*
X-100715000Y49080000D02*
X-100715000Y45612460D01*
X-100715000Y45612460D02*
X-109970000Y36357460D01*
X-56812540Y40610000D02*
X-37762540Y40610000D01*
X-37762540Y40610000D02*
X-37362540Y40210000D01*
X-37362540Y40210000D02*
X-18057460Y40210000D01*
X-18057460Y40210000D02*
X-14260000Y36412540D01*
X-90160000Y36312540D02*
X-86507460Y36312540D01*
X-82210000Y40610000D02*
X-56812540Y40610000D01*
X-86507460Y36312540D02*
X-82210000Y40610000D01*
X-92930000Y53120000D02*
X-93000000Y53120000D01*
X-93000000Y53120000D02*
X-96760000Y49360000D01*
X-96760000Y49360000D02*
X-96760000Y39407460D01*
X-96760000Y39407460D02*
X-99810000Y36357460D01*
X-99810000Y36357460D02*
X-90204920Y36357460D01*
X-90204920Y36357460D02*
X-90160000Y36312540D01*
X-18612540Y23760000D02*
X-35162540Y23760000D01*
X-35162540Y23760000D02*
X-37562540Y21360000D01*
X-12860000Y17262540D02*
X-12860000Y18007460D01*
X-12860000Y18007460D02*
X-18612540Y23760000D01*
X-94862540Y23010000D02*
X-87360000Y23010000D01*
X-86160000Y21810000D02*
X-75812540Y21810000D01*
X-87360000Y23010000D02*
X-86160000Y21810000D01*
X-37412540Y21510000D02*
X-37562540Y21360000D01*
X-37562540Y21360000D02*
X-75362540Y21360000D01*
X-75362540Y21360000D02*
X-75862540Y21860000D01*
X-18612540Y1260000D02*
X-34110000Y1260000D01*
X-35410000Y2560000D02*
X-37712540Y2560000D01*
X-34110000Y1260000D02*
X-35410000Y2560000D01*
X-94862540Y1510000D02*
X-76612540Y1510000D01*
X-76612540Y1510000D02*
X-75762540Y2360000D01*
X-56712540Y2660000D02*
X-75462540Y2660000D01*
X-75462540Y2660000D02*
X-75762540Y2360000D01*
X-37712540Y2560000D02*
X-56612540Y2560000D01*
X-56612540Y2560000D02*
X-56712540Y2660000D01*
X-37662540Y2510000D02*
X-37712540Y2560000D01*
X-18612540Y11420000D02*
X-24175000Y11420000D01*
X-24175000Y11420000D02*
X-24565000Y11030000D01*
X-25520000Y12670000D02*
X-25640000Y12550000D01*
X-25640000Y12550000D02*
X-24565000Y11030000D01*
X-12460000Y58660000D02*
X-10510000Y58660000D01*
X-10510000Y58660000D02*
X-10360000Y58510000D01*
X-24210000Y58760000D02*
X-22610000Y58760000D01*
X-14810000Y61010000D02*
X-12460000Y58660000D01*
X-20360000Y61010000D02*
X-14810000Y61010000D01*
X-22610000Y58760000D02*
X-20360000Y61010000D01*
X-24210000Y62760000D02*
X-22110000Y62760000D01*
X-13360000Y61760000D02*
X-12460000Y62660000D01*
X-21110000Y61760000D02*
X-13360000Y61760000D01*
X-22110000Y62760000D02*
X-21110000Y61760000D01*
X-35730000Y55460000D02*
X-35730000Y55640000D01*
X-35730000Y55640000D02*
X-29610000Y61760000D01*
X-29610000Y61760000D02*
X-25210000Y61760000D01*
X-25210000Y61760000D02*
X-24210000Y62760000D01*
X-86410000Y62010000D02*
X-90610000Y62010000D01*
X-91880000Y63280000D02*
X-92930000Y63280000D01*
X-90610000Y62010000D02*
X-91880000Y63280000D01*
X-22766200Y71960000D02*
X-21816800Y71010600D01*
X-32410000Y71960000D02*
X-22766200Y71960000D01*
X-42360000Y62010000D02*
X-32410000Y71960000D01*
X-86510000Y62010000D02*
X-86410000Y62010000D01*
X-86410000Y62010000D02*
X-42360000Y62010000D01*
X-21816800Y71010600D02*
X-21760600Y71010600D01*
X-21760600Y71010600D02*
X-20510000Y69760000D01*
X-20510000Y69760000D02*
X-15853800Y69760000D01*
X-15853800Y69760000D02*
X-14603200Y71010600D01*
X-58540000Y55460000D02*
X-57560000Y55460000D01*
X-27300000Y54450000D02*
X-27300000Y53500000D01*
X-27610000Y54760000D02*
X-27300000Y54450000D01*
X-29860000Y54760000D02*
X-27610000Y54760000D01*
X-31110000Y53510000D02*
X-29860000Y54760000D01*
X-55610000Y53510000D02*
X-31110000Y53510000D01*
X-57560000Y55460000D02*
X-55610000Y53510000D01*
X-92930000Y65820000D02*
X-92930000Y65380000D01*
X-92930000Y65380000D02*
X-90060000Y62510000D01*
X-90060000Y62510000D02*
X-80860000Y62510000D01*
X-80860000Y62510000D02*
X-78860000Y64510000D01*
X-78860000Y64510000D02*
X-73760000Y64510000D01*
X-73760000Y64510000D02*
X-72010000Y62760000D01*
X-72010000Y62760000D02*
X-68210000Y62760000D01*
X-68210000Y62760000D02*
X-67910002Y62460002D01*
X-67910002Y62460002D02*
X-62209998Y62460002D01*
X-62209998Y62460002D02*
X-61810000Y62860000D01*
X-77690000Y60740000D02*
X-90440000Y60740000D01*
X-107765000Y63815000D02*
X-107765000Y68180000D01*
X-105960000Y62010000D02*
X-107765000Y63815000D01*
X-91710000Y62010000D02*
X-105960000Y62010000D01*
X-90440000Y60740000D02*
X-91710000Y62010000D01*
X-77690000Y53120000D02*
X-75070000Y53120000D01*
X-51850000Y52810000D02*
X-49690000Y50650000D01*
X-74760000Y52810000D02*
X-51850000Y52810000D01*
X-75070000Y53120000D02*
X-74760000Y52810000D01*
X-77690000Y50580000D02*
X-75280000Y50580000D01*
X-32470000Y50650000D02*
X-30640000Y50650000D01*
X-40010000Y43110000D02*
X-32470000Y50650000D01*
X-70960000Y43110000D02*
X-40010000Y43110000D01*
X-73410000Y45560000D02*
X-70960000Y43110000D01*
X-73410000Y48710000D02*
X-73410000Y45560000D01*
X-75280000Y50580000D02*
X-73410000Y48710000D01*
X-77690000Y48040000D02*
X-77690000Y45740000D01*
X-12515000Y44305000D02*
X-12515000Y49130000D01*
X-14660000Y42160000D02*
X-12515000Y44305000D01*
X-74110000Y42160000D02*
X-14660000Y42160000D01*
X-77690000Y45740000D02*
X-74110000Y42160000D01*
D30*
G36*
X-69862046Y72757954D02*
X-69631705Y72604046D01*
X-69360000Y72549999D01*
X-69359995Y72550000D01*
X-32868681Y72550000D01*
X-32947401Y72497401D01*
X-36028270Y69416532D01*
X-36027766Y69993694D01*
X-36276078Y70594655D01*
X-36735467Y71054846D01*
X-37335993Y71304206D01*
X-37986234Y71304774D01*
X-38587195Y71056462D01*
X-39047386Y70597073D01*
X-39296746Y69996547D01*
X-39297314Y69346306D01*
X-39049002Y68745345D01*
X-38589613Y68285154D01*
X-37989087Y68035794D01*
X-37409514Y68035288D01*
X-40644189Y64800613D01*
X-40643837Y65204268D01*
X-40869576Y65750598D01*
X-41287203Y66168955D01*
X-41660547Y66323981D01*
X-41372371Y66883511D01*
X-41311466Y67616475D01*
X-41535691Y68316953D01*
X-42396993Y69870781D01*
X-42851803Y70408025D01*
X-42880833Y70633078D01*
X-43246909Y71270992D01*
X-43829238Y71720257D01*
X-44539166Y71912476D01*
X-45268613Y71818386D01*
X-45906528Y71452309D01*
X-46355793Y70869980D01*
X-46548012Y70160052D01*
X-46593258Y69496370D01*
X-46499167Y68766923D01*
X-46133091Y68129008D01*
X-45550762Y67679743D01*
X-45482713Y67661318D01*
X-44833007Y66489219D01*
X-44357789Y65927869D01*
X-43703924Y65591108D01*
X-43464360Y65571202D01*
X-43615647Y65206862D01*
X-43616163Y64615732D01*
X-43390424Y64069402D01*
X-42972797Y63651045D01*
X-42426862Y63424353D01*
X-42020803Y63423999D01*
X-42674802Y62770000D01*
X-45632658Y62770000D01*
X-44982623Y63418901D01*
X-44581553Y64384784D01*
X-44580640Y65430627D01*
X-44980024Y66397209D01*
X-45718901Y67137377D01*
X-46684784Y67538447D01*
X-47730627Y67539360D01*
X-48697209Y67139976D01*
X-49437377Y66401099D01*
X-49838447Y65435216D01*
X-49839360Y64389373D01*
X-49439976Y63422791D01*
X-48788324Y62770000D01*
X-60875078Y62770000D01*
X-60874838Y63045167D01*
X-61016883Y63388943D01*
X-61051861Y63423982D01*
X-60885732Y63423837D01*
X-60339402Y63649576D01*
X-59921045Y64067203D01*
X-59694353Y64613138D01*
X-59694351Y64615732D01*
X-53776163Y64615732D01*
X-53550424Y64069402D01*
X-53132797Y63651045D01*
X-52586862Y63424353D01*
X-51995732Y63423837D01*
X-51449402Y63649576D01*
X-51031045Y64067203D01*
X-50804353Y64613138D01*
X-50803837Y65204268D01*
X-50949342Y65556418D01*
X-50528333Y65591032D01*
X-49874175Y65927223D01*
X-49398468Y66488158D01*
X-48667138Y67804803D01*
X-48246909Y68129008D01*
X-47880833Y68766922D01*
X-47786742Y69496369D01*
X-47831988Y70160052D01*
X-48024207Y70869980D01*
X-48473472Y71452309D01*
X-49111387Y71818385D01*
X-49840834Y71912476D01*
X-50550762Y71720257D01*
X-51133091Y71270992D01*
X-51499167Y70633077D01*
X-51555351Y70197504D01*
X-51831533Y69871842D01*
X-52694188Y68318766D01*
X-52919024Y67618484D01*
X-52858758Y66885467D01*
X-52603258Y66388317D01*
X-53130598Y66170424D01*
X-53548955Y65752797D01*
X-53775647Y65206862D01*
X-53776163Y64615732D01*
X-59694351Y64615732D01*
X-59693837Y65204268D01*
X-59919576Y65750598D01*
X-60337203Y66168955D01*
X-60710547Y66323981D01*
X-60422371Y66883511D01*
X-60361466Y67616475D01*
X-60585691Y68316953D01*
X-61156271Y69346306D01*
X-58247314Y69346306D01*
X-57999002Y68745345D01*
X-57539613Y68285154D01*
X-56939087Y68035794D01*
X-56288846Y68035226D01*
X-55687885Y68283538D01*
X-55227694Y68742927D01*
X-54978334Y69343453D01*
X-54977766Y69993694D01*
X-55226078Y70594655D01*
X-55685467Y71054846D01*
X-56285993Y71304206D01*
X-56936234Y71304774D01*
X-57537195Y71056462D01*
X-57997386Y70597073D01*
X-58246746Y69996547D01*
X-58247314Y69346306D01*
X-61156271Y69346306D01*
X-61446993Y69870781D01*
X-61901803Y70408025D01*
X-61930833Y70633078D01*
X-62296909Y71270992D01*
X-62879238Y71720257D01*
X-63589166Y71912476D01*
X-64318613Y71818386D01*
X-64956528Y71452309D01*
X-65405793Y70869980D01*
X-65598012Y70160052D01*
X-65643258Y69496370D01*
X-65549167Y68766923D01*
X-65183091Y68129008D01*
X-64600762Y67679743D01*
X-64532713Y67661318D01*
X-63883007Y66489219D01*
X-63407789Y65927869D01*
X-62753924Y65591108D01*
X-62514360Y65571202D01*
X-62665647Y65206862D01*
X-62666163Y64615732D01*
X-62440424Y64069402D01*
X-62116582Y63744994D01*
X-62338943Y63653117D01*
X-62602192Y63390327D01*
X-62672917Y63220002D01*
X-64231870Y63220002D01*
X-64032623Y63418901D01*
X-63631553Y64384784D01*
X-63630640Y65430627D01*
X-64030024Y66397209D01*
X-64768901Y67137377D01*
X-65734784Y67538447D01*
X-66780627Y67539360D01*
X-67747209Y67139976D01*
X-68487377Y66401099D01*
X-68888447Y65435216D01*
X-68889360Y64389373D01*
X-68530142Y63520000D01*
X-70813000Y63520000D01*
X-70499402Y63649576D01*
X-70081045Y64067203D01*
X-69854353Y64613138D01*
X-69853837Y65204268D01*
X-69999342Y65556418D01*
X-69578333Y65591032D01*
X-68924175Y65927223D01*
X-68448468Y66488158D01*
X-67717138Y67804803D01*
X-67296909Y68129008D01*
X-66930833Y68766922D01*
X-66836742Y69496369D01*
X-66881988Y70160052D01*
X-67074207Y70869980D01*
X-67523472Y71452309D01*
X-68161387Y71818385D01*
X-68890834Y71912476D01*
X-69600762Y71720257D01*
X-70183091Y71270992D01*
X-70549167Y70633077D01*
X-70605351Y70197504D01*
X-70881533Y69871842D01*
X-71744188Y68318766D01*
X-71969024Y67618484D01*
X-71908758Y66885467D01*
X-71653258Y66388317D01*
X-72180598Y66170424D01*
X-72598955Y65752797D01*
X-72825647Y65206862D01*
X-72826132Y64650934D01*
X-73222599Y65047401D01*
X-73469161Y65212148D01*
X-73760000Y65270000D01*
X-76281969Y65270000D01*
X-76178963Y65518065D01*
X-76178438Y66119297D01*
X-76408035Y66674964D01*
X-76822698Y67090351D01*
X-76409529Y67502800D01*
X-76178963Y68058065D01*
X-76178438Y68659297D01*
X-76408035Y69214964D01*
X-76822698Y69630351D01*
X-76409529Y70042800D01*
X-76178963Y70598065D01*
X-76178438Y71199297D01*
X-76408035Y71754964D01*
X-76832800Y72180471D01*
X-76866592Y72194503D01*
X-76806604Y72376999D01*
X-77690000Y73260395D01*
X-78573396Y72376999D01*
X-78513553Y72194944D01*
X-78544964Y72181965D01*
X-78970471Y71757200D01*
X-79201037Y71201935D01*
X-79201562Y70600703D01*
X-78971965Y70045036D01*
X-78557302Y69629649D01*
X-78970471Y69217200D01*
X-79201037Y68661935D01*
X-79201562Y68060703D01*
X-78971965Y67505036D01*
X-78557302Y67089649D01*
X-78970471Y66677200D01*
X-79201037Y66121935D01*
X-79201159Y65982585D01*
X-79387203Y66168955D01*
X-79760547Y66323981D01*
X-79472371Y66883511D01*
X-79411466Y67616475D01*
X-79635691Y68316953D01*
X-80496993Y69870781D01*
X-80951803Y70408025D01*
X-80980833Y70633078D01*
X-81346909Y71270992D01*
X-81929238Y71720257D01*
X-82639166Y71912476D01*
X-83368613Y71818386D01*
X-84006528Y71452309D01*
X-84455793Y70869980D01*
X-84648012Y70160052D01*
X-84693258Y69496370D01*
X-84599167Y68766923D01*
X-84233091Y68129008D01*
X-83650762Y67679743D01*
X-83582713Y67661318D01*
X-82933007Y66489219D01*
X-82457789Y65927869D01*
X-81803924Y65591108D01*
X-81564360Y65571202D01*
X-81715647Y65206862D01*
X-81716163Y64615732D01*
X-81490424Y64069402D01*
X-81072797Y63651045D01*
X-80875629Y63569173D01*
X-81174802Y63270000D01*
X-83231784Y63270000D01*
X-83082623Y63418901D01*
X-82681553Y64384784D01*
X-82680640Y65430627D01*
X-83080024Y66397209D01*
X-83818901Y67137377D01*
X-84784784Y67538447D01*
X-85830627Y67539360D01*
X-86797209Y67139976D01*
X-87537377Y66401099D01*
X-87938447Y65435216D01*
X-87939360Y64389373D01*
X-87539976Y63422791D01*
X-87387451Y63270000D01*
X-89745198Y63270000D01*
X-89956546Y63481348D01*
X-89549402Y63649576D01*
X-89131045Y64067203D01*
X-88904353Y64613138D01*
X-88903837Y65204268D01*
X-89049342Y65556418D01*
X-88628333Y65591032D01*
X-87974175Y65927223D01*
X-87498468Y66488158D01*
X-86767138Y67804803D01*
X-86346909Y68129008D01*
X-85980833Y68766922D01*
X-85886742Y69496369D01*
X-85931988Y70160052D01*
X-86124207Y70869980D01*
X-86573472Y71452309D01*
X-87211387Y71818385D01*
X-87940834Y71912476D01*
X-88650762Y71720257D01*
X-89233091Y71270992D01*
X-89599167Y70633077D01*
X-89655351Y70197504D01*
X-89931533Y69871842D01*
X-90794188Y68318766D01*
X-91019024Y67618484D01*
X-90958758Y66885467D01*
X-90703258Y66388317D01*
X-91230598Y66170424D01*
X-91418557Y65982793D01*
X-91418438Y66119297D01*
X-91648035Y66674964D01*
X-92072800Y67100471D01*
X-92106592Y67114503D01*
X-92046604Y67296999D01*
X-92930000Y68180395D01*
X-93813396Y67296999D01*
X-93753553Y67114944D01*
X-93784964Y67101965D01*
X-94210471Y66677200D01*
X-94441037Y66121935D01*
X-94441562Y65520703D01*
X-94211965Y64965036D01*
X-93797302Y64549649D01*
X-94210471Y64137200D01*
X-94441037Y63581935D01*
X-94441562Y62980703D01*
X-94354501Y62770000D01*
X-102782658Y62770000D01*
X-102132623Y63418901D01*
X-101731553Y64384784D01*
X-101730640Y65430627D01*
X-102130024Y66397209D01*
X-102868901Y67137377D01*
X-103834784Y67538447D01*
X-104880627Y67539360D01*
X-105847209Y67139976D01*
X-106587377Y66401099D01*
X-106988447Y65435216D01*
X-106989360Y64389373D01*
X-106795574Y63920376D01*
X-107005000Y64129802D01*
X-107005000Y65949833D01*
X-106548468Y66488158D01*
X-105817138Y67804803D01*
X-105396909Y68129008D01*
X-105030833Y68766922D01*
X-104936742Y69496369D01*
X-104981988Y70160052D01*
X-105174207Y70869980D01*
X-105623472Y71452309D01*
X-106261387Y71818385D01*
X-106990834Y71912476D01*
X-107700762Y71720257D01*
X-108283091Y71270992D01*
X-108649167Y70633077D01*
X-108705351Y70197504D01*
X-108981533Y69871842D01*
X-109844188Y68318766D01*
X-110069024Y67618484D01*
X-110008758Y66885467D01*
X-109753258Y66388317D01*
X-110280598Y66170424D01*
X-110698955Y65752797D01*
X-110925647Y65206862D01*
X-110926163Y64615732D01*
X-110700424Y64069402D01*
X-110282797Y63651045D01*
X-109736862Y63424353D01*
X-109145732Y63423837D01*
X-108599402Y63649576D01*
X-108509872Y63738949D01*
X-108467148Y63524161D01*
X-108302401Y63277599D01*
X-106497401Y61472599D01*
X-106250840Y61307852D01*
X-106219253Y61301569D01*
X-105960000Y61250000D01*
X-94354641Y61250000D01*
X-94441037Y61041935D01*
X-94441562Y60440703D01*
X-94211965Y59885036D01*
X-93797302Y59469649D01*
X-94210471Y59057200D01*
X-94441037Y58501935D01*
X-94441562Y57900703D01*
X-94211965Y57345036D01*
X-93797302Y56929649D01*
X-94210471Y56517200D01*
X-94441037Y55961935D01*
X-94441562Y55360703D01*
X-94211965Y54805036D01*
X-93797302Y54389649D01*
X-94210471Y53977200D01*
X-94441037Y53421935D01*
X-94441562Y52820703D01*
X-94421837Y52772965D01*
X-97297401Y49897401D01*
X-97462148Y49650839D01*
X-97520000Y49360000D01*
X-97520000Y39722262D01*
X-99237872Y38004390D01*
X-100809490Y38004390D01*
X-101044807Y37960112D01*
X-101260931Y37821040D01*
X-101405921Y37608840D01*
X-101456930Y37356950D01*
X-101456930Y35357970D01*
X-101412652Y35122653D01*
X-101273580Y34906529D01*
X-101061380Y34761539D01*
X-100809490Y34710530D01*
X-98810510Y34710530D01*
X-98575193Y34754808D01*
X-98359069Y34893880D01*
X-98214079Y35106080D01*
X-98163070Y35357970D01*
X-98163070Y35597460D01*
X-91806930Y35597460D01*
X-91806930Y35313050D01*
X-91762652Y35077733D01*
X-91623580Y34861609D01*
X-91411380Y34716619D01*
X-91159490Y34665610D01*
X-89160510Y34665610D01*
X-88925193Y34709888D01*
X-88709069Y34848960D01*
X-88564079Y35061160D01*
X-88513070Y35313050D01*
X-88513070Y35552540D01*
X-86507460Y35552540D01*
X-86216621Y35610392D01*
X-85970059Y35775139D01*
X-85756352Y35988846D01*
X-81634774Y35988846D01*
X-81386462Y35387885D01*
X-80927073Y34927694D01*
X-80326547Y34678334D01*
X-79676306Y34677766D01*
X-79075345Y34926078D01*
X-78615154Y35385467D01*
X-78365794Y35985993D01*
X-78365226Y36636234D01*
X-78613538Y37237195D01*
X-79072927Y37697386D01*
X-79673453Y37946746D01*
X-80323694Y37947314D01*
X-80924655Y37699002D01*
X-81384846Y37239613D01*
X-81634206Y36639087D01*
X-81634774Y35988846D01*
X-85756352Y35988846D01*
X-81895198Y39850000D01*
X-58459470Y39850000D01*
X-58459470Y39610510D01*
X-58415192Y39375193D01*
X-58276120Y39159069D01*
X-58063920Y39014079D01*
X-57812030Y38963070D01*
X-55813050Y38963070D01*
X-55577733Y39007348D01*
X-55361609Y39146420D01*
X-55216619Y39358620D01*
X-55165610Y39610510D01*
X-55165610Y39850000D01*
X-39259470Y39850000D01*
X-39259470Y39460510D01*
X-39215192Y39225193D01*
X-39076120Y39009069D01*
X-38863920Y38864079D01*
X-38612030Y38813070D01*
X-36613050Y38813070D01*
X-36377733Y38857348D01*
X-36161609Y38996420D01*
X-36016619Y39208620D01*
X-35967738Y39450000D01*
X-20209470Y39450000D01*
X-20209470Y39210510D01*
X-20165192Y38975193D01*
X-20026120Y38759069D01*
X-19813920Y38614079D01*
X-19562030Y38563070D01*
X-17563050Y38563070D01*
X-17497640Y38575378D01*
X-15906930Y36984668D01*
X-15906930Y35413050D01*
X-15862652Y35177733D01*
X-15723580Y34961609D01*
X-15511380Y34816619D01*
X-15259490Y34765610D01*
X-13260510Y34765610D01*
X-13025193Y34809888D01*
X-12809069Y34948960D01*
X-12664079Y35161160D01*
X-12613070Y35413050D01*
X-12613070Y36088846D01*
X-5734774Y36088846D01*
X-5486462Y35487885D01*
X-5027073Y35027694D01*
X-4426547Y34778334D01*
X-3776306Y34777766D01*
X-3175345Y35026078D01*
X-2715154Y35485467D01*
X-2465794Y36085993D01*
X-2465226Y36736234D01*
X-2713538Y37337195D01*
X-3172927Y37797386D01*
X-3773453Y38046746D01*
X-4423694Y38047314D01*
X-5024655Y37799002D01*
X-5484846Y37339613D01*
X-5734206Y36739087D01*
X-5734774Y36088846D01*
X-12613070Y36088846D01*
X-12613070Y37412030D01*
X-12657348Y37647347D01*
X-12796420Y37863471D01*
X-13008620Y38008461D01*
X-13260510Y38059470D01*
X-14832128Y38059470D01*
X-16915610Y40142952D01*
X-16915610Y41209490D01*
X-16951457Y41400000D01*
X-14660000Y41400000D01*
X-14369161Y41457852D01*
X-14122599Y41622599D01*
X-11977599Y43767599D01*
X-11812852Y44014161D01*
X-11755000Y44305000D01*
X-11755000Y45339373D01*
X-11739360Y45339373D01*
X-11339976Y44372791D01*
X-10601099Y43632623D01*
X-9635216Y43231553D01*
X-8589373Y43230640D01*
X-7622791Y43630024D01*
X-6882623Y44368901D01*
X-6481553Y45334784D01*
X-6480640Y46380627D01*
X-6880024Y47347209D01*
X-7618901Y48087377D01*
X-8584784Y48488447D01*
X-9630627Y48489360D01*
X-10597209Y48089976D01*
X-11337377Y47351099D01*
X-11738447Y46385216D01*
X-11739360Y45339373D01*
X-11755000Y45339373D01*
X-11755000Y46899833D01*
X-11298468Y47438158D01*
X-10567138Y48754803D01*
X-10146909Y49079008D01*
X-9780833Y49716922D01*
X-9686742Y50446369D01*
X-9686742Y50446370D01*
X-8493258Y50446370D01*
X-8399167Y49716923D01*
X-8033091Y49079008D01*
X-7450762Y48629743D01*
X-7382713Y48611318D01*
X-6733007Y47439219D01*
X-6257789Y46877869D01*
X-5603924Y46541108D01*
X-5364360Y46521202D01*
X-5515647Y46156862D01*
X-5516163Y45565732D01*
X-5290424Y45019402D01*
X-4872797Y44601045D01*
X-4326862Y44374353D01*
X-3735732Y44373837D01*
X-3189402Y44599576D01*
X-2771045Y45017203D01*
X-2544353Y45563138D01*
X-2543837Y46154268D01*
X-2769576Y46700598D01*
X-3187203Y47118955D01*
X-3560547Y47273981D01*
X-3272371Y47833511D01*
X-3211466Y48566475D01*
X-3435691Y49266953D01*
X-4296993Y50820781D01*
X-4751803Y51358025D01*
X-4780833Y51583078D01*
X-5146909Y52220992D01*
X-5729238Y52670257D01*
X-6439166Y52862476D01*
X-7168613Y52768386D01*
X-7806528Y52402309D01*
X-8255793Y51819980D01*
X-8448012Y51110052D01*
X-8493258Y50446370D01*
X-9686742Y50446370D01*
X-9731988Y51110052D01*
X-9924207Y51819980D01*
X-10373472Y52402309D01*
X-11011387Y52768385D01*
X-11740834Y52862476D01*
X-12450762Y52670257D01*
X-13033091Y52220992D01*
X-13399167Y51583077D01*
X-13455351Y51147504D01*
X-13731533Y50821842D01*
X-14594188Y49268766D01*
X-14819024Y48568484D01*
X-14758758Y47835467D01*
X-14503258Y47338317D01*
X-15030598Y47120424D01*
X-15448955Y46702797D01*
X-15675647Y46156862D01*
X-15676163Y45565732D01*
X-15450424Y45019402D01*
X-15032797Y44601045D01*
X-14486862Y44374353D01*
X-13895732Y44373837D01*
X-13349402Y44599576D01*
X-13275000Y44673848D01*
X-13275000Y44619802D01*
X-14974802Y42920000D01*
X-39125198Y42920000D01*
X-33839220Y48205978D01*
X-33808758Y47835467D01*
X-33553258Y47338317D01*
X-34080598Y47120424D01*
X-34498955Y46702797D01*
X-34725647Y46156862D01*
X-34726163Y45565732D01*
X-34500424Y45019402D01*
X-34082797Y44601045D01*
X-33536862Y44374353D01*
X-32945732Y44373837D01*
X-32399402Y44599576D01*
X-31981045Y45017203D01*
X-31847269Y45339373D01*
X-30789360Y45339373D01*
X-30389976Y44372791D01*
X-29651099Y43632623D01*
X-28685216Y43231553D01*
X-27639373Y43230640D01*
X-26672791Y43630024D01*
X-25932623Y44368901D01*
X-25531553Y45334784D01*
X-25530640Y46380627D01*
X-25930024Y47347209D01*
X-26668901Y48087377D01*
X-27634784Y48488447D01*
X-28680627Y48489360D01*
X-29647209Y48089976D01*
X-30387377Y47351099D01*
X-30788447Y46385216D01*
X-30789360Y45339373D01*
X-31847269Y45339373D01*
X-31754353Y45563138D01*
X-31753837Y46154268D01*
X-31899342Y46506418D01*
X-31478333Y46541032D01*
X-30824175Y46877223D01*
X-30348468Y47438158D01*
X-29617138Y48754803D01*
X-29196909Y49079008D01*
X-28830833Y49716922D01*
X-28736742Y50446369D01*
X-28781988Y51110052D01*
X-28974207Y51819980D01*
X-29423472Y52402309D01*
X-30061387Y52768385D01*
X-30746055Y52856700D01*
X-30572599Y52972599D01*
X-29588640Y53956558D01*
X-29588640Y52984600D01*
X-29545021Y52752787D01*
X-29544412Y52749283D01*
X-29405340Y52533159D01*
X-29193140Y52388169D01*
X-28941250Y52337160D01*
X-27941150Y52337160D01*
X-27869390Y52350150D01*
X-27810144Y52337298D01*
X-27729033Y52352560D01*
X-26894909Y52352560D01*
X-27305793Y51819980D01*
X-27498012Y51110052D01*
X-27543258Y50446370D01*
X-27449167Y49716923D01*
X-27083091Y49079008D01*
X-26500762Y48629743D01*
X-26432713Y48611318D01*
X-25783007Y47439219D01*
X-25307789Y46877869D01*
X-24653924Y46541108D01*
X-24414360Y46521202D01*
X-24565647Y46156862D01*
X-24566163Y45565732D01*
X-24340424Y45019402D01*
X-23922797Y44601045D01*
X-23376862Y44374353D01*
X-22785732Y44373837D01*
X-22239402Y44599576D01*
X-21821045Y45017203D01*
X-21594353Y45563138D01*
X-21593837Y46154268D01*
X-21819576Y46700598D01*
X-22237203Y47118955D01*
X-22610547Y47273981D01*
X-22322371Y47833511D01*
X-22272283Y48436306D01*
X-20244774Y48436306D01*
X-19996462Y47835345D01*
X-19537073Y47375154D01*
X-18936547Y47125794D01*
X-18286306Y47125226D01*
X-17685345Y47373538D01*
X-17225154Y47832927D01*
X-16975794Y48433453D01*
X-16975226Y49083694D01*
X-17223538Y49684655D01*
X-17682927Y50144846D01*
X-18283453Y50394206D01*
X-18933694Y50394774D01*
X-19534655Y50146462D01*
X-19994846Y49687073D01*
X-20244206Y49086547D01*
X-20244774Y48436306D01*
X-22272283Y48436306D01*
X-22261466Y48566475D01*
X-22485691Y49266953D01*
X-23346993Y50820781D01*
X-23801803Y51358025D01*
X-23830833Y51583078D01*
X-24196909Y52220992D01*
X-24779238Y52670257D01*
X-25489166Y52862476D01*
X-26198949Y52770922D01*
X-26152560Y53000000D01*
X-26152560Y54000000D01*
X-26196838Y54235317D01*
X-26335910Y54451441D01*
X-26548110Y54596431D01*
X-26570009Y54600866D01*
X-26576555Y54633774D01*
X-26597852Y54740840D01*
X-26762599Y54987401D01*
X-27072599Y55297401D01*
X-27319161Y55462148D01*
X-27539268Y55505930D01*
X-26545198Y56500000D01*
X-26181809Y56500000D01*
X-26244846Y56437073D01*
X-26494206Y55836547D01*
X-26494774Y55186306D01*
X-26246462Y54585345D01*
X-25787073Y54125154D01*
X-25186547Y53875794D01*
X-24536306Y53875226D01*
X-23935345Y54123538D01*
X-23475154Y54582927D01*
X-23295258Y55016164D01*
X-23295803Y54392086D01*
X-22591653Y52687913D01*
X-21288945Y51382929D01*
X-19586003Y50675806D01*
X-17742086Y50674197D01*
X-16037913Y51378347D01*
X-14732929Y52681055D01*
X-14025806Y54383997D01*
X-14024309Y56099507D01*
X-14006930Y56082128D01*
X-14006930Y54510510D01*
X-13962652Y54275193D01*
X-13823580Y54059069D01*
X-13611380Y53914079D01*
X-13359490Y53863070D01*
X-11360510Y53863070D01*
X-11125193Y53907348D01*
X-10909069Y54046420D01*
X-10764079Y54258620D01*
X-10713070Y54510510D01*
X-10713070Y55188846D01*
X-5434774Y55188846D01*
X-5186462Y54587885D01*
X-4727073Y54127694D01*
X-4126547Y53878334D01*
X-3476306Y53877766D01*
X-2875345Y54126078D01*
X-2415154Y54585467D01*
X-2165794Y55185993D01*
X-2165226Y55836234D01*
X-2413538Y56437195D01*
X-2872927Y56897386D01*
X-3473453Y57146746D01*
X-4123694Y57147314D01*
X-4724655Y56899002D01*
X-5184846Y56439613D01*
X-5434206Y55839087D01*
X-5434774Y55188846D01*
X-10713070Y55188846D01*
X-10713070Y56509490D01*
X-10757348Y56744807D01*
X-10896420Y56960931D01*
X-11108620Y57105921D01*
X-11360510Y57156930D01*
X-12932128Y57156930D01*
X-13038198Y57263000D01*
X-12745750Y57263000D01*
X-12738918Y57269832D01*
X-12657698Y57240856D01*
X-12176206Y57264956D01*
X-12174250Y57263000D01*
X-11571690Y57263000D01*
X-11338301Y57359673D01*
X-11159673Y57538302D01*
X-11063000Y57771691D01*
X-11063000Y58374250D01*
X-11064573Y58375823D01*
X-11040856Y58442302D01*
X-11065909Y58942841D01*
X-11063000Y58945750D01*
X-11063000Y59548309D01*
X-11102778Y59644341D01*
X-11101569Y59646110D01*
X-11050560Y59898000D01*
X-11050560Y61422000D01*
X-11094838Y61657317D01*
X-11098232Y61662591D01*
X-11050560Y61898000D01*
X-11050560Y63132869D01*
X-10601099Y62682623D01*
X-9635216Y62281553D01*
X-8589373Y62280640D01*
X-7622791Y62680024D01*
X-6882623Y63418901D01*
X-6481553Y64384784D01*
X-6480640Y65430627D01*
X-6880024Y66397209D01*
X-7618901Y67137377D01*
X-8584784Y67538447D01*
X-9630627Y67539360D01*
X-10597209Y67139976D01*
X-11337377Y66401099D01*
X-11738447Y65435216D01*
X-11739360Y64389373D01*
X-11598872Y64049366D01*
X-11698000Y64069440D01*
X-12930116Y64069440D01*
X-12704353Y64613138D01*
X-12703837Y65204268D01*
X-12849342Y65556418D01*
X-12428333Y65591032D01*
X-11774175Y65927223D01*
X-11298468Y66488158D01*
X-10567138Y67804803D01*
X-10146909Y68129008D01*
X-9780833Y68766922D01*
X-9686742Y69496369D01*
X-9686742Y69496370D01*
X-8493258Y69496370D01*
X-8399167Y68766923D01*
X-8033091Y68129008D01*
X-7450762Y67679743D01*
X-7382713Y67661318D01*
X-6733007Y66489219D01*
X-6257789Y65927869D01*
X-5603924Y65591108D01*
X-5364360Y65571202D01*
X-5515647Y65206862D01*
X-5516163Y64615732D01*
X-5290424Y64069402D01*
X-4872797Y63651045D01*
X-4326862Y63424353D01*
X-3735732Y63423837D01*
X-3189402Y63649576D01*
X-2771045Y64067203D01*
X-2544353Y64613138D01*
X-2543837Y65204268D01*
X-2769576Y65750598D01*
X-3187203Y66168955D01*
X-3560547Y66323981D01*
X-3272371Y66883511D01*
X-3211466Y67616475D01*
X-3435691Y68316953D01*
X-4296993Y69870781D01*
X-4751803Y70408025D01*
X-4780833Y70633078D01*
X-5146909Y71270992D01*
X-5729238Y71720257D01*
X-6439166Y71912476D01*
X-7168613Y71818386D01*
X-7806528Y71452309D01*
X-8255793Y70869980D01*
X-8448012Y70160052D01*
X-8493258Y69496370D01*
X-9686742Y69496370D01*
X-9731988Y70160052D01*
X-9924207Y70869980D01*
X-10373472Y71452309D01*
X-11011387Y71818385D01*
X-11740834Y71912476D01*
X-12450762Y71720257D01*
X-13033091Y71270992D01*
X-13091761Y71168755D01*
X-13091638Y71309897D01*
X-13321235Y71865564D01*
X-13746000Y72291071D01*
X-14301265Y72521637D01*
X-14902497Y72522162D01*
X-15458164Y72292565D01*
X-15883671Y71867800D01*
X-16114237Y71312535D01*
X-16114762Y70711303D01*
X-16074570Y70614032D01*
X-16168602Y70520000D01*
X-17189844Y70520000D01*
X-17079897Y70784783D01*
X-17079504Y71234444D01*
X-17251219Y71650027D01*
X-17568900Y71968263D01*
X-17984183Y72140703D01*
X-18433844Y72141096D01*
X-18849427Y71969381D01*
X-19167663Y71651700D01*
X-19340103Y71236417D01*
X-19340496Y70786756D01*
X-19230275Y70520000D01*
X-20195198Y70520000D01*
X-20328678Y70653480D01*
X-20305763Y70708665D01*
X-20305238Y71309897D01*
X-20534835Y71865564D01*
X-20959600Y72291071D01*
X-21514865Y72521637D01*
X-22116097Y72522162D01*
X-22213368Y72481970D01*
X-22228799Y72497401D01*
X-22475361Y72662148D01*
X-22766200Y72720000D01*
X-27914757Y72720000D01*
X-27857954Y72757954D01*
X-24542820Y76073088D01*
X-24554494Y76014400D01*
X-24439453Y75436051D01*
X-24111844Y74945750D01*
X-23621543Y74618141D01*
X-23043194Y74503100D01*
X-22673206Y74503100D01*
X-22094857Y74618141D01*
X-21604556Y74945750D01*
X-21276947Y75436051D01*
X-21161906Y76014400D01*
X-21276947Y76592749D01*
X-21415428Y76800000D01*
X-19022911Y76800000D01*
X-19167663Y76655500D01*
X-19340103Y76240217D01*
X-19340496Y75790556D01*
X-19168781Y75374973D01*
X-18851100Y75056737D01*
X-18435817Y74884297D01*
X-17986156Y74883904D01*
X-17570573Y75055619D01*
X-17252337Y75373300D01*
X-17079897Y75788583D01*
X-17079504Y76238244D01*
X-17251219Y76653827D01*
X-17397137Y76800000D01*
X-15004572Y76800000D01*
X-15143053Y76592749D01*
X-15258094Y76014400D01*
X-15143053Y75436051D01*
X-14815444Y74945750D01*
X-14325143Y74618141D01*
X-13746794Y74503100D01*
X-13376806Y74503100D01*
X-12798457Y74618141D01*
X-12308156Y74945750D01*
X-11980547Y75436051D01*
X-11865506Y76014400D01*
X-11980547Y76592749D01*
X-12048420Y76694328D01*
X-7612046Y72257954D01*
X-7381705Y72104046D01*
X-7110000Y72050000D01*
X-1570000Y72050000D01*
X-1570000Y18444105D01*
X-1772927Y18647386D01*
X-2373453Y18896746D01*
X-3023694Y18897314D01*
X-3624655Y18649002D01*
X-4084846Y18189613D01*
X-4334206Y17589087D01*
X-4334774Y16938846D01*
X-4086462Y16337885D01*
X-3627073Y15877694D01*
X-3026547Y15628334D01*
X-2376306Y15627766D01*
X-1775345Y15876078D01*
X-1570000Y16081065D01*
X-1570000Y470000D01*
X-16965610Y470000D01*
X-16965610Y2259490D01*
X-17009888Y2494807D01*
X-17148960Y2710931D01*
X-17361160Y2855921D01*
X-17613050Y2906930D01*
X-19612030Y2906930D01*
X-19847347Y2862652D01*
X-20063471Y2723580D01*
X-20208461Y2511380D01*
X-20259470Y2259490D01*
X-20259470Y2020000D01*
X-33795198Y2020000D01*
X-34872599Y3097401D01*
X-35119161Y3262148D01*
X-35410000Y3320000D01*
X-36065610Y3320000D01*
X-36065610Y3559490D01*
X-36109888Y3794807D01*
X-36248960Y4010931D01*
X-36461160Y4155921D01*
X-36713050Y4206930D01*
X-38712030Y4206930D01*
X-38947347Y4162652D01*
X-39163471Y4023580D01*
X-39308461Y3811380D01*
X-39359470Y3559490D01*
X-39359470Y3320000D01*
X-55065610Y3320000D01*
X-55065610Y3659490D01*
X-55109888Y3894807D01*
X-55248960Y4110931D01*
X-55461160Y4255921D01*
X-55713050Y4306930D01*
X-57712030Y4306930D01*
X-57947347Y4262652D01*
X-58163471Y4123580D01*
X-58308461Y3911380D01*
X-58359470Y3659490D01*
X-58359470Y3420000D01*
X-74126996Y3420000D01*
X-74159888Y3594807D01*
X-74298960Y3810931D01*
X-74511160Y3955921D01*
X-74763050Y4006930D01*
X-76762030Y4006930D01*
X-76997347Y3962652D01*
X-77213471Y3823580D01*
X-77358461Y3611380D01*
X-77409470Y3359490D01*
X-77409470Y2270000D01*
X-93215610Y2270000D01*
X-93215610Y2509490D01*
X-93259888Y2744807D01*
X-93398960Y2960931D01*
X-93611160Y3105921D01*
X-93863050Y3156930D01*
X-95862030Y3156930D01*
X-96097347Y3112652D01*
X-96313471Y2973580D01*
X-96458461Y2761380D01*
X-96509470Y2509490D01*
X-96509470Y510510D01*
X-96501848Y470000D01*
X-112150000Y470000D01*
X-112150000Y7315732D01*
X-110926163Y7315732D01*
X-110700424Y6769402D01*
X-110282797Y6351045D01*
X-109736862Y6124353D01*
X-109145732Y6123837D01*
X-108599402Y6349576D01*
X-108181045Y6767203D01*
X-108047269Y7089373D01*
X-106989360Y7089373D01*
X-106589976Y6122791D01*
X-105851099Y5382623D01*
X-104885216Y4981553D01*
X-103839373Y4980640D01*
X-102872791Y5380024D01*
X-102132623Y6118901D01*
X-101731553Y7084784D01*
X-101730640Y8130627D01*
X-102130024Y9097209D01*
X-102868901Y9837377D01*
X-103834784Y10238447D01*
X-104880627Y10239360D01*
X-105847209Y9839976D01*
X-106587377Y9101099D01*
X-106988447Y8135216D01*
X-106989360Y7089373D01*
X-108047269Y7089373D01*
X-107954353Y7313138D01*
X-107953837Y7904268D01*
X-108099342Y8256418D01*
X-107678333Y8291032D01*
X-107024175Y8627223D01*
X-106548468Y9188158D01*
X-105817138Y10504803D01*
X-105396909Y10829008D01*
X-105030833Y11466922D01*
X-104936742Y12196369D01*
X-104936742Y12196370D01*
X-103743258Y12196370D01*
X-103649167Y11466923D01*
X-103283091Y10829008D01*
X-102700762Y10379743D01*
X-102632713Y10361318D01*
X-101983007Y9189219D01*
X-101507789Y8627869D01*
X-100853924Y8291108D01*
X-100614360Y8271202D01*
X-100765647Y7906862D01*
X-100766163Y7315732D01*
X-100540424Y6769402D01*
X-100122797Y6351045D01*
X-99576862Y6124353D01*
X-98985732Y6123837D01*
X-98439402Y6349576D01*
X-98021045Y6767203D01*
X-97794353Y7313138D01*
X-97794220Y7465732D01*
X-91876163Y7465732D01*
X-91650424Y6919402D01*
X-91232797Y6501045D01*
X-90686862Y6274353D01*
X-90095732Y6273837D01*
X-89549402Y6499576D01*
X-89131045Y6917203D01*
X-88997269Y7239373D01*
X-87939360Y7239373D01*
X-87539976Y6272791D01*
X-86801099Y5532623D01*
X-85835216Y5131553D01*
X-84789373Y5130640D01*
X-83822791Y5530024D01*
X-83082623Y6268901D01*
X-82681553Y7234784D01*
X-82680640Y8280627D01*
X-83080024Y9247209D01*
X-83818901Y9987377D01*
X-84784784Y10388447D01*
X-85830627Y10389360D01*
X-86797209Y9989976D01*
X-87537377Y9251099D01*
X-87938447Y8285216D01*
X-87939360Y7239373D01*
X-88997269Y7239373D01*
X-88904353Y7463138D01*
X-88903837Y8054268D01*
X-89049342Y8406418D01*
X-88628333Y8441032D01*
X-87974175Y8777223D01*
X-87498468Y9338158D01*
X-86767138Y10654803D01*
X-86346909Y10979008D01*
X-85980833Y11616922D01*
X-85886742Y12346369D01*
X-85886742Y12346370D01*
X-84693258Y12346370D01*
X-84599167Y11616923D01*
X-84233091Y10979008D01*
X-83650762Y10529743D01*
X-83582713Y10511318D01*
X-82933007Y9339219D01*
X-82457789Y8777869D01*
X-81803924Y8441108D01*
X-81564360Y8421202D01*
X-81715647Y8056862D01*
X-81716163Y7465732D01*
X-81490424Y6919402D01*
X-81072797Y6501045D01*
X-80526862Y6274353D01*
X-79935732Y6273837D01*
X-79389402Y6499576D01*
X-78971045Y6917203D01*
X-78744353Y7463138D01*
X-78744351Y7465732D01*
X-72826163Y7465732D01*
X-72600424Y6919402D01*
X-72182797Y6501045D01*
X-71636862Y6274353D01*
X-71045732Y6273837D01*
X-70499402Y6499576D01*
X-70081045Y6917203D01*
X-69947269Y7239373D01*
X-68889360Y7239373D01*
X-68489976Y6272791D01*
X-67751099Y5532623D01*
X-66785216Y5131553D01*
X-65739373Y5130640D01*
X-64772791Y5530024D01*
X-64032623Y6268901D01*
X-63631553Y7234784D01*
X-63630640Y8280627D01*
X-64030024Y9247209D01*
X-64768901Y9987377D01*
X-65734784Y10388447D01*
X-66780627Y10389360D01*
X-67747209Y9989976D01*
X-68487377Y9251099D01*
X-68888447Y8285216D01*
X-68889360Y7239373D01*
X-69947269Y7239373D01*
X-69854353Y7463138D01*
X-69853837Y8054268D01*
X-69999342Y8406418D01*
X-69578333Y8441032D01*
X-68924175Y8777223D01*
X-68448468Y9338158D01*
X-67717138Y10654803D01*
X-67296909Y10979008D01*
X-66930833Y11616922D01*
X-66836742Y12346369D01*
X-66836742Y12346370D01*
X-65643258Y12346370D01*
X-65549167Y11616923D01*
X-65183091Y10979008D01*
X-64600762Y10529743D01*
X-64532713Y10511318D01*
X-63883007Y9339219D01*
X-63407789Y8777869D01*
X-62753924Y8441108D01*
X-62514360Y8421202D01*
X-62665647Y8056862D01*
X-62666163Y7465732D01*
X-62440424Y6919402D01*
X-62022797Y6501045D01*
X-61476862Y6274353D01*
X-60885732Y6273837D01*
X-60339402Y6499576D01*
X-59921045Y6917203D01*
X-59694353Y7463138D01*
X-59694351Y7465732D01*
X-53776163Y7465732D01*
X-53550424Y6919402D01*
X-53132797Y6501045D01*
X-52586862Y6274353D01*
X-51995732Y6273837D01*
X-51449402Y6499576D01*
X-51031045Y6917203D01*
X-50897269Y7239373D01*
X-49839360Y7239373D01*
X-49439976Y6272791D01*
X-48701099Y5532623D01*
X-47735216Y5131553D01*
X-46689373Y5130640D01*
X-45722791Y5530024D01*
X-44982623Y6268901D01*
X-44581553Y7234784D01*
X-44580640Y8280627D01*
X-44980024Y9247209D01*
X-45718901Y9987377D01*
X-46684784Y10388447D01*
X-47730627Y10389360D01*
X-48697209Y9989976D01*
X-49437377Y9251099D01*
X-49838447Y8285216D01*
X-49839360Y7239373D01*
X-50897269Y7239373D01*
X-50804353Y7463138D01*
X-50803837Y8054268D01*
X-50949342Y8406418D01*
X-50528333Y8441032D01*
X-49874175Y8777223D01*
X-49398468Y9338158D01*
X-48667138Y10654803D01*
X-48246909Y10979008D01*
X-47880833Y11616922D01*
X-47786742Y12346369D01*
X-47786742Y12346370D01*
X-46593258Y12346370D01*
X-46499167Y11616923D01*
X-46133091Y10979008D01*
X-45550762Y10529743D01*
X-45482713Y10511318D01*
X-44833007Y9339219D01*
X-44357789Y8777869D01*
X-43703924Y8441108D01*
X-43464360Y8421202D01*
X-43615647Y8056862D01*
X-43616163Y7465732D01*
X-43390424Y6919402D01*
X-42972797Y6501045D01*
X-42426862Y6274353D01*
X-41835732Y6273837D01*
X-41289402Y6499576D01*
X-40871045Y6917203D01*
X-40644353Y7463138D01*
X-40644351Y7465732D01*
X-34726163Y7465732D01*
X-34500424Y6919402D01*
X-34082797Y6501045D01*
X-33536862Y6274353D01*
X-32945732Y6273837D01*
X-32399402Y6499576D01*
X-31981045Y6917203D01*
X-31847269Y7239373D01*
X-30789360Y7239373D01*
X-30389976Y6272791D01*
X-29651099Y5532623D01*
X-28685216Y5131553D01*
X-27639373Y5130640D01*
X-26672791Y5530024D01*
X-25932623Y6268901D01*
X-25531553Y7234784D01*
X-25530640Y8280627D01*
X-25930024Y9247209D01*
X-26668901Y9987377D01*
X-27634784Y10388447D01*
X-28680627Y10389360D01*
X-29647209Y9989976D01*
X-30387377Y9251099D01*
X-30788447Y8285216D01*
X-30789360Y7239373D01*
X-31847269Y7239373D01*
X-31754353Y7463138D01*
X-31753837Y8054268D01*
X-31899342Y8406418D01*
X-31478333Y8441032D01*
X-30824175Y8777223D01*
X-30348468Y9338158D01*
X-29617138Y10654803D01*
X-29196909Y10979008D01*
X-28830833Y11616922D01*
X-28736742Y12346369D01*
X-28781988Y13010052D01*
X-28974207Y13719980D01*
X-29423472Y14302309D01*
X-30061387Y14668385D01*
X-30790834Y14762476D01*
X-31500762Y14570257D01*
X-32083091Y14120992D01*
X-32449167Y13483077D01*
X-32505351Y13047504D01*
X-32781533Y12721842D01*
X-33644188Y11168766D01*
X-33869024Y10468484D01*
X-33808758Y9735467D01*
X-33553258Y9238317D01*
X-34080598Y9020424D01*
X-34498955Y8602797D01*
X-34725647Y8056862D01*
X-34726163Y7465732D01*
X-40644351Y7465732D01*
X-40643837Y8054268D01*
X-40869576Y8600598D01*
X-41287203Y9018955D01*
X-41660547Y9173981D01*
X-41372371Y9733511D01*
X-41311466Y10466475D01*
X-41535691Y11166953D01*
X-42217133Y12396306D01*
X-39347314Y12396306D01*
X-39099002Y11795345D01*
X-38639613Y11335154D01*
X-38039087Y11085794D01*
X-37388846Y11085226D01*
X-36787885Y11333538D01*
X-36327694Y11792927D01*
X-36078334Y12393453D01*
X-36077766Y13043694D01*
X-36326078Y13644655D01*
X-36785467Y14104846D01*
X-37385993Y14354206D01*
X-38036234Y14354774D01*
X-38637195Y14106462D01*
X-39097386Y13647073D01*
X-39346746Y13046547D01*
X-39347314Y12396306D01*
X-42217133Y12396306D01*
X-42396993Y12720781D01*
X-42851803Y13258025D01*
X-42880833Y13483078D01*
X-43246909Y14120992D01*
X-43829238Y14570257D01*
X-44539166Y14762476D01*
X-45268613Y14668386D01*
X-45906528Y14302309D01*
X-46355793Y13719980D01*
X-46548012Y13010052D01*
X-46593258Y12346370D01*
X-47786742Y12346370D01*
X-47831988Y13010052D01*
X-48024207Y13719980D01*
X-48473472Y14302309D01*
X-49111387Y14668385D01*
X-49840834Y14762476D01*
X-50550762Y14570257D01*
X-51133091Y14120992D01*
X-51499167Y13483077D01*
X-51555351Y13047504D01*
X-51831533Y12721842D01*
X-52694188Y11168766D01*
X-52919024Y10468484D01*
X-52858758Y9735467D01*
X-52603258Y9238317D01*
X-53130598Y9020424D01*
X-53548955Y8602797D01*
X-53775647Y8056862D01*
X-53776163Y7465732D01*
X-59694351Y7465732D01*
X-59693837Y8054268D01*
X-59919576Y8600598D01*
X-60337203Y9018955D01*
X-60710547Y9173981D01*
X-60422371Y9733511D01*
X-60361466Y10466475D01*
X-60585691Y11166953D01*
X-61322564Y12496306D01*
X-58347314Y12496306D01*
X-58099002Y11895345D01*
X-57639613Y11435154D01*
X-57039087Y11185794D01*
X-56388846Y11185226D01*
X-55787885Y11433538D01*
X-55327694Y11892927D01*
X-55078334Y12493453D01*
X-55077766Y13143694D01*
X-55326078Y13744655D01*
X-55785467Y14204846D01*
X-56385993Y14454206D01*
X-57036234Y14454774D01*
X-57637195Y14206462D01*
X-58097386Y13747073D01*
X-58346746Y13146547D01*
X-58347314Y12496306D01*
X-61322564Y12496306D01*
X-61446993Y12720781D01*
X-61901803Y13258025D01*
X-61930833Y13483078D01*
X-62296909Y14120992D01*
X-62879238Y14570257D01*
X-63589166Y14762476D01*
X-64318613Y14668386D01*
X-64956528Y14302309D01*
X-65405793Y13719980D01*
X-65598012Y13010052D01*
X-65643258Y12346370D01*
X-66836742Y12346370D01*
X-66881988Y13010052D01*
X-67074207Y13719980D01*
X-67523472Y14302309D01*
X-68161387Y14668385D01*
X-68890834Y14762476D01*
X-69600762Y14570257D01*
X-70183091Y14120992D01*
X-70549167Y13483077D01*
X-70605351Y13047504D01*
X-70881533Y12721842D01*
X-71744188Y11168766D01*
X-71969024Y10468484D01*
X-71908758Y9735467D01*
X-71653258Y9238317D01*
X-72180598Y9020424D01*
X-72598955Y8602797D01*
X-72825647Y8056862D01*
X-72826163Y7465732D01*
X-78744351Y7465732D01*
X-78743837Y8054268D01*
X-78969576Y8600598D01*
X-79387203Y9018955D01*
X-79760547Y9173981D01*
X-79472371Y9733511D01*
X-79411466Y10466475D01*
X-79635691Y11166953D01*
X-80206271Y12196306D01*
X-77397314Y12196306D01*
X-77149002Y11595345D01*
X-76689613Y11135154D01*
X-76089087Y10885794D01*
X-75438846Y10885226D01*
X-74837885Y11133538D01*
X-74377694Y11592927D01*
X-74128334Y12193453D01*
X-74127766Y12843694D01*
X-74376078Y13444655D01*
X-74835467Y13904846D01*
X-75435993Y14154206D01*
X-76086234Y14154774D01*
X-76687195Y13906462D01*
X-77147386Y13447073D01*
X-77396746Y12846547D01*
X-77397314Y12196306D01*
X-80206271Y12196306D01*
X-80496993Y12720781D01*
X-80951803Y13258025D01*
X-80980833Y13483078D01*
X-81346909Y14120992D01*
X-81929238Y14570257D01*
X-82639166Y14762476D01*
X-83368613Y14668386D01*
X-84006528Y14302309D01*
X-84455793Y13719980D01*
X-84648012Y13010052D01*
X-84693258Y12346370D01*
X-85886742Y12346370D01*
X-85931988Y13010052D01*
X-86124207Y13719980D01*
X-86573472Y14302309D01*
X-87211387Y14668385D01*
X-87940834Y14762476D01*
X-88650762Y14570257D01*
X-89233091Y14120992D01*
X-89599167Y13483077D01*
X-89655351Y13047504D01*
X-89931533Y12721842D01*
X-90794188Y11168766D01*
X-91019024Y10468484D01*
X-90958758Y9735467D01*
X-90703258Y9238317D01*
X-91230598Y9020424D01*
X-91648955Y8602797D01*
X-91875647Y8056862D01*
X-91876163Y7465732D01*
X-97794220Y7465732D01*
X-97793837Y7904268D01*
X-98019576Y8450598D01*
X-98437203Y8868955D01*
X-98810547Y9023981D01*
X-98522371Y9583511D01*
X-98461466Y10316475D01*
X-98685691Y11016953D01*
X-99546993Y12570781D01*
X-100001803Y13108025D01*
X-100030833Y13333078D01*
X-100396909Y13970992D01*
X-100979238Y14420257D01*
X-101689166Y14612476D01*
X-102418613Y14518386D01*
X-103056528Y14152309D01*
X-103505793Y13569980D01*
X-103698012Y12860052D01*
X-103743258Y12196370D01*
X-104936742Y12196370D01*
X-104981988Y12860052D01*
X-105174207Y13569980D01*
X-105623472Y14152309D01*
X-106261387Y14518385D01*
X-106990834Y14612476D01*
X-107700762Y14420257D01*
X-108283091Y13970992D01*
X-108649167Y13333077D01*
X-108705351Y12897504D01*
X-108981533Y12571842D01*
X-109844188Y11018766D01*
X-110069024Y10318484D01*
X-110008758Y9585467D01*
X-109753258Y9088317D01*
X-110280598Y8870424D01*
X-110698955Y8452797D01*
X-110925647Y7906862D01*
X-110926163Y7315732D01*
X-112150000Y7315732D01*
X-112150000Y16342086D01*
X-99495803Y16342086D01*
X-98791653Y14637913D01*
X-97488945Y13332929D01*
X-96091520Y12752668D01*
X-96247386Y12597073D01*
X-96496746Y11996547D01*
X-96497314Y11346306D01*
X-96249002Y10745345D01*
X-95789613Y10285154D01*
X-95189087Y10035794D01*
X-94538846Y10035226D01*
X-93937885Y10283538D01*
X-93477694Y10742927D01*
X-93228334Y11343453D01*
X-93227766Y11993694D01*
X-93476078Y12594655D01*
X-93633041Y12751892D01*
X-92237913Y13328347D01*
X-90932929Y14631055D01*
X-90225806Y16333997D01*
X-90224197Y18177914D01*
X-90258953Y18262030D01*
X-36256930Y18262030D01*
X-36256930Y16263050D01*
X-36212652Y16027733D01*
X-36073580Y15811609D01*
X-35861380Y15666619D01*
X-35609490Y15615610D01*
X-33610510Y15615610D01*
X-33375193Y15659888D01*
X-33159069Y15798960D01*
X-33014079Y16011160D01*
X-32963070Y16263050D01*
X-32963070Y18262030D01*
X-33007348Y18497347D01*
X-33146420Y18713471D01*
X-33358620Y18858461D01*
X-33610510Y18909470D01*
X-35609490Y18909470D01*
X-35844807Y18865192D01*
X-36060931Y18726120D01*
X-36205921Y18513920D01*
X-36256930Y18262030D01*
X-90258953Y18262030D01*
X-90928347Y19882087D01*
X-92231055Y21187071D01*
X-93341958Y21648358D01*
X-93266619Y21758620D01*
X-93215610Y22010510D01*
X-93215610Y22250000D01*
X-87674802Y22250000D01*
X-86697401Y21272599D01*
X-86450840Y21107852D01*
X-86160000Y21050000D01*
X-77459470Y21050000D01*
X-77459470Y20810510D01*
X-77415192Y20575193D01*
X-77276120Y20359069D01*
X-77063920Y20214079D01*
X-76812030Y20163070D01*
X-74813050Y20163070D01*
X-74577733Y20207348D01*
X-74361609Y20346420D01*
X-74216619Y20558620D01*
X-74208239Y20600000D01*
X-58259470Y20600000D01*
X-58259470Y20360510D01*
X-58215192Y20125193D01*
X-58076120Y19909069D01*
X-57863920Y19764079D01*
X-57612030Y19713070D01*
X-55613050Y19713070D01*
X-55377733Y19757348D01*
X-55161609Y19896420D01*
X-55016619Y20108620D01*
X-54965610Y20360510D01*
X-54965610Y20600000D01*
X-39209470Y20600000D01*
X-39209470Y20360510D01*
X-39165192Y20125193D01*
X-39026120Y19909069D01*
X-38813920Y19764079D01*
X-38562030Y19713070D01*
X-36563050Y19713070D01*
X-36327733Y19757348D01*
X-36111609Y19896420D01*
X-35966619Y20108620D01*
X-35915610Y20360510D01*
X-35915610Y21932128D01*
X-34847738Y23000000D01*
X-20259470Y23000000D01*
X-20259470Y22760510D01*
X-20215192Y22525193D01*
X-20076120Y22309069D01*
X-19863920Y22164079D01*
X-19612030Y22113070D01*
X-18040412Y22113070D01*
X-17771700Y21844358D01*
X-19427914Y21845803D01*
X-21132087Y21141653D01*
X-22437071Y19838945D01*
X-23105488Y18229218D01*
X-23522927Y18647386D01*
X-24123453Y18896746D01*
X-24773694Y18897314D01*
X-25374655Y18649002D01*
X-25834846Y18189613D01*
X-26084206Y17589087D01*
X-26084774Y16938846D01*
X-25836462Y16337885D01*
X-25377073Y15877694D01*
X-24776547Y15628334D01*
X-24126306Y15627766D01*
X-23525345Y15876078D01*
X-23134942Y16265801D01*
X-22441653Y14587913D01*
X-21138945Y13282929D01*
X-19670650Y12673240D01*
X-19997386Y12347073D01*
X-20066761Y12180000D01*
X-23047233Y12180000D01*
X-23346993Y12720781D01*
X-23801803Y13258025D01*
X-23830833Y13483078D01*
X-24196909Y14120992D01*
X-24779238Y14570257D01*
X-25489166Y14762476D01*
X-26218613Y14668386D01*
X-26856528Y14302309D01*
X-27305793Y13719980D01*
X-27498012Y13010052D01*
X-27543258Y12346370D01*
X-27449167Y11616923D01*
X-27083091Y10979008D01*
X-26500762Y10529743D01*
X-26432713Y10511318D01*
X-25783007Y9339219D01*
X-25307789Y8777869D01*
X-24653924Y8441108D01*
X-24414360Y8421202D01*
X-24565647Y8056862D01*
X-24566163Y7465732D01*
X-24340424Y6919402D01*
X-23922797Y6501045D01*
X-23376862Y6274353D01*
X-22785732Y6273837D01*
X-22239402Y6499576D01*
X-21821045Y6917203D01*
X-21594353Y7463138D01*
X-21594351Y7465732D01*
X-15676163Y7465732D01*
X-15450424Y6919402D01*
X-15032797Y6501045D01*
X-14486862Y6274353D01*
X-13895732Y6273837D01*
X-13349402Y6499576D01*
X-12931045Y6917203D01*
X-12797269Y7239373D01*
X-11739360Y7239373D01*
X-11339976Y6272791D01*
X-10601099Y5532623D01*
X-9635216Y5131553D01*
X-8589373Y5130640D01*
X-7622791Y5530024D01*
X-6882623Y6268901D01*
X-6481553Y7234784D01*
X-6480640Y8280627D01*
X-6880024Y9247209D01*
X-7618901Y9987377D01*
X-8584784Y10388447D01*
X-9630627Y10389360D01*
X-10597209Y9989976D01*
X-11337377Y9251099D01*
X-11738447Y8285216D01*
X-11739360Y7239373D01*
X-12797269Y7239373D01*
X-12704353Y7463138D01*
X-12703837Y8054268D01*
X-12849342Y8406418D01*
X-12428333Y8441032D01*
X-11774175Y8777223D01*
X-11298468Y9338158D01*
X-10567138Y10654803D01*
X-10146909Y10979008D01*
X-9780833Y11616922D01*
X-9686742Y12346369D01*
X-9686742Y12346370D01*
X-8493258Y12346370D01*
X-8399167Y11616923D01*
X-8033091Y10979008D01*
X-7450762Y10529743D01*
X-7382713Y10511318D01*
X-6733007Y9339219D01*
X-6257789Y8777869D01*
X-5603924Y8441108D01*
X-5364360Y8421202D01*
X-5515647Y8056862D01*
X-5516163Y7465732D01*
X-5290424Y6919402D01*
X-4872797Y6501045D01*
X-4326862Y6274353D01*
X-3735732Y6273837D01*
X-3189402Y6499576D01*
X-2771045Y6917203D01*
X-2544353Y7463138D01*
X-2543837Y8054268D01*
X-2769576Y8600598D01*
X-3187203Y9018955D01*
X-3560547Y9173981D01*
X-3272371Y9733511D01*
X-3211466Y10466475D01*
X-3435691Y11166953D01*
X-4296993Y12720781D01*
X-4751803Y13258025D01*
X-4780833Y13483078D01*
X-5146909Y14120992D01*
X-5729238Y14570257D01*
X-6439166Y14762476D01*
X-7168613Y14668386D01*
X-7806528Y14302309D01*
X-8255793Y13719980D01*
X-8448012Y13010052D01*
X-8493258Y12346370D01*
X-9686742Y12346370D01*
X-9731988Y13010052D01*
X-9924207Y13719980D01*
X-10373472Y14302309D01*
X-11011387Y14668385D01*
X-11740834Y14762476D01*
X-12450762Y14570257D01*
X-13033091Y14120992D01*
X-13399167Y13483077D01*
X-13455351Y13047504D01*
X-13731533Y12721842D01*
X-14594188Y11168766D01*
X-14819024Y10468484D01*
X-14758758Y9735467D01*
X-14503258Y9238317D01*
X-15030598Y9020424D01*
X-15448955Y8602797D01*
X-15675647Y8056862D01*
X-15676163Y7465732D01*
X-21594351Y7465732D01*
X-21593837Y8054268D01*
X-21819576Y8600598D01*
X-22237203Y9018955D01*
X-22610547Y9173981D01*
X-22322371Y9733511D01*
X-22261466Y10466475D01*
X-22323414Y10660000D01*
X-20067036Y10660000D01*
X-19999002Y10495345D01*
X-19539613Y10035154D01*
X-18939087Y9785794D01*
X-18288846Y9785226D01*
X-17687885Y10033538D01*
X-17227694Y10492927D01*
X-16978334Y11093453D01*
X-16977766Y11743694D01*
X-17226078Y12344655D01*
X-17495188Y12614235D01*
X-15887913Y13278347D01*
X-14582929Y14581055D01*
X-14127570Y15677681D01*
X-14111380Y15666619D01*
X-13859490Y15615610D01*
X-11860510Y15615610D01*
X-11625193Y15659888D01*
X-11409069Y15798960D01*
X-11264079Y16011160D01*
X-11213070Y16263050D01*
X-11213070Y18262030D01*
X-11257348Y18497347D01*
X-11396420Y18713471D01*
X-11608620Y18858461D01*
X-11860510Y18909470D01*
X-12687208Y18909470D01*
X-16965610Y23187872D01*
X-16965610Y24759490D01*
X-17009888Y24994807D01*
X-17148960Y25210931D01*
X-17361160Y25355921D01*
X-17613050Y25406930D01*
X-19612030Y25406930D01*
X-19847347Y25362652D01*
X-20063471Y25223580D01*
X-20208461Y25011380D01*
X-20259470Y24759490D01*
X-20259470Y24520000D01*
X-26818060Y24520000D01*
X-26672791Y24580024D01*
X-25932623Y25318901D01*
X-25531553Y26284784D01*
X-25530640Y27330627D01*
X-25930024Y28297209D01*
X-26668901Y29037377D01*
X-27634784Y29438447D01*
X-28680627Y29439360D01*
X-29647209Y29039976D01*
X-30387377Y28301099D01*
X-30788447Y27335216D01*
X-30789360Y26289373D01*
X-30389976Y25322791D01*
X-29651099Y24582623D01*
X-29500286Y24520000D01*
X-35162540Y24520000D01*
X-35453379Y24462148D01*
X-35699941Y24297401D01*
X-36990412Y23006930D01*
X-38562030Y23006930D01*
X-38797347Y22962652D01*
X-39013471Y22823580D01*
X-39158461Y22611380D01*
X-39209470Y22359490D01*
X-39209470Y22120000D01*
X-54965610Y22120000D01*
X-54965610Y22359490D01*
X-55009888Y22594807D01*
X-55148960Y22810931D01*
X-55361160Y22955921D01*
X-55613050Y23006930D01*
X-57612030Y23006930D01*
X-57847347Y22962652D01*
X-58063471Y22823580D01*
X-58208461Y22611380D01*
X-58259470Y22359490D01*
X-58259470Y22120000D01*
X-74165610Y22120000D01*
X-74165610Y22809490D01*
X-74209888Y23044807D01*
X-74348960Y23260931D01*
X-74561160Y23405921D01*
X-74813050Y23456930D01*
X-76812030Y23456930D01*
X-77047347Y23412652D01*
X-77263471Y23273580D01*
X-77408461Y23061380D01*
X-77459470Y22809490D01*
X-77459470Y22570000D01*
X-85845198Y22570000D01*
X-86822599Y23547401D01*
X-87069161Y23712148D01*
X-87360000Y23770000D01*
X-93215610Y23770000D01*
X-93215610Y24009490D01*
X-93259888Y24244807D01*
X-93398960Y24460931D01*
X-93611160Y24605921D01*
X-93863050Y24656930D01*
X-95862030Y24656930D01*
X-96097347Y24612652D01*
X-96313471Y24473580D01*
X-96458461Y24261380D01*
X-96509470Y24009490D01*
X-96509470Y22010510D01*
X-96465192Y21775193D01*
X-96382148Y21646139D01*
X-97482087Y21191653D01*
X-98787071Y19888945D01*
X-99494194Y18186003D01*
X-99495803Y16342086D01*
X-112150000Y16342086D01*
X-112150000Y26465732D01*
X-110926163Y26465732D01*
X-110700424Y25919402D01*
X-110282797Y25501045D01*
X-109736862Y25274353D01*
X-109145732Y25273837D01*
X-108599402Y25499576D01*
X-108181045Y25917203D01*
X-108047269Y26239373D01*
X-106989360Y26239373D01*
X-106589976Y25272791D01*
X-105851099Y24532623D01*
X-104885216Y24131553D01*
X-103839373Y24130640D01*
X-102872791Y24530024D01*
X-102132623Y25268901D01*
X-101731553Y26234784D01*
X-101730640Y27280627D01*
X-102130024Y28247209D01*
X-102868901Y28987377D01*
X-103834784Y29388447D01*
X-104880627Y29389360D01*
X-105847209Y28989976D01*
X-106587377Y28251099D01*
X-106988447Y27285216D01*
X-106989360Y26239373D01*
X-108047269Y26239373D01*
X-107954353Y26463138D01*
X-107953837Y27054268D01*
X-108099342Y27406418D01*
X-107678333Y27441032D01*
X-107024175Y27777223D01*
X-106548468Y28338158D01*
X-105817138Y29654803D01*
X-105396909Y29979008D01*
X-105030833Y30616922D01*
X-104936742Y31346369D01*
X-104936742Y31346370D01*
X-103743258Y31346370D01*
X-103649167Y30616923D01*
X-103283091Y29979008D01*
X-102700762Y29529743D01*
X-102632713Y29511318D01*
X-101983007Y28339219D01*
X-101507789Y27777869D01*
X-100853924Y27441108D01*
X-100614360Y27421202D01*
X-100765647Y27056862D01*
X-100766163Y26465732D01*
X-100540424Y25919402D01*
X-100122797Y25501045D01*
X-99576862Y25274353D01*
X-98985732Y25273837D01*
X-98439402Y25499576D01*
X-98021045Y25917203D01*
X-97794353Y26463138D01*
X-97794308Y26515732D01*
X-91876163Y26515732D01*
X-91650424Y25969402D01*
X-91232797Y25551045D01*
X-90686862Y25324353D01*
X-90095732Y25323837D01*
X-89549402Y25549576D01*
X-89131045Y25967203D01*
X-88997269Y26289373D01*
X-87939360Y26289373D01*
X-87539976Y25322791D01*
X-86801099Y24582623D01*
X-85835216Y24181553D01*
X-84789373Y24180640D01*
X-83822791Y24580024D01*
X-83082623Y25318901D01*
X-82681553Y26284784D01*
X-82680640Y27330627D01*
X-83080024Y28297209D01*
X-83818901Y29037377D01*
X-84784784Y29438447D01*
X-85830627Y29439360D01*
X-86797209Y29039976D01*
X-87537377Y28301099D01*
X-87938447Y27335216D01*
X-87939360Y26289373D01*
X-88997269Y26289373D01*
X-88904353Y26513138D01*
X-88903837Y27104268D01*
X-89049342Y27456418D01*
X-88628333Y27491032D01*
X-87974175Y27827223D01*
X-87498468Y28388158D01*
X-86767138Y29704803D01*
X-86346909Y30029008D01*
X-85980833Y30666922D01*
X-85886742Y31396369D01*
X-85886742Y31396370D01*
X-84693258Y31396370D01*
X-84599167Y30666923D01*
X-84233091Y30029008D01*
X-83650762Y29579743D01*
X-83582713Y29561318D01*
X-82933007Y28389219D01*
X-82457789Y27827869D01*
X-81803924Y27491108D01*
X-81564360Y27471202D01*
X-81715647Y27106862D01*
X-81716163Y26515732D01*
X-81490424Y25969402D01*
X-81072797Y25551045D01*
X-80526862Y25324353D01*
X-79935732Y25323837D01*
X-79389402Y25549576D01*
X-78971045Y25967203D01*
X-78744353Y26513138D01*
X-78744351Y26515732D01*
X-72826163Y26515732D01*
X-72600424Y25969402D01*
X-72182797Y25551045D01*
X-71636862Y25324353D01*
X-71045732Y25323837D01*
X-70499402Y25549576D01*
X-70081045Y25967203D01*
X-69947269Y26289373D01*
X-68889360Y26289373D01*
X-68489976Y25322791D01*
X-67751099Y24582623D01*
X-66785216Y24181553D01*
X-65739373Y24180640D01*
X-64772791Y24580024D01*
X-64032623Y25318901D01*
X-63631553Y26284784D01*
X-63630640Y27330627D01*
X-64030024Y28297209D01*
X-64768901Y29037377D01*
X-65734784Y29438447D01*
X-66780627Y29439360D01*
X-67747209Y29039976D01*
X-68487377Y28301099D01*
X-68888447Y27335216D01*
X-68889360Y26289373D01*
X-69947269Y26289373D01*
X-69854353Y26513138D01*
X-69853837Y27104268D01*
X-69999342Y27456418D01*
X-69578333Y27491032D01*
X-68924175Y27827223D01*
X-68448468Y28388158D01*
X-67717138Y29704803D01*
X-67296909Y30029008D01*
X-66930833Y30666922D01*
X-66836742Y31396369D01*
X-66836742Y31396370D01*
X-65643258Y31396370D01*
X-65549167Y30666923D01*
X-65183091Y30029008D01*
X-64600762Y29579743D01*
X-64532713Y29561318D01*
X-63883007Y28389219D01*
X-63407789Y27827869D01*
X-62753924Y27491108D01*
X-62514360Y27471202D01*
X-62665647Y27106862D01*
X-62666163Y26515732D01*
X-62440424Y25969402D01*
X-62022797Y25551045D01*
X-61476862Y25324353D01*
X-60885732Y25323837D01*
X-60339402Y25549576D01*
X-59921045Y25967203D01*
X-59694353Y26513138D01*
X-59694351Y26515732D01*
X-53776163Y26515732D01*
X-53550424Y25969402D01*
X-53132797Y25551045D01*
X-52586862Y25324353D01*
X-51995732Y25323837D01*
X-51449402Y25549576D01*
X-51031045Y25967203D01*
X-50897269Y26289373D01*
X-49839360Y26289373D01*
X-49439976Y25322791D01*
X-48701099Y24582623D01*
X-47735216Y24181553D01*
X-46689373Y24180640D01*
X-45722791Y24580024D01*
X-44982623Y25318901D01*
X-44581553Y26284784D01*
X-44580640Y27330627D01*
X-44980024Y28297209D01*
X-45718901Y29037377D01*
X-46684784Y29438447D01*
X-47730627Y29439360D01*
X-48697209Y29039976D01*
X-49437377Y28301099D01*
X-49838447Y27335216D01*
X-49839360Y26289373D01*
X-50897269Y26289373D01*
X-50804353Y26513138D01*
X-50803837Y27104268D01*
X-50949342Y27456418D01*
X-50528333Y27491032D01*
X-49874175Y27827223D01*
X-49398468Y28388158D01*
X-48667138Y29704803D01*
X-48246909Y30029008D01*
X-47880833Y30666922D01*
X-47786742Y31396369D01*
X-47786742Y31396370D01*
X-46593258Y31396370D01*
X-46499167Y30666923D01*
X-46133091Y30029008D01*
X-45550762Y29579743D01*
X-45482713Y29561318D01*
X-44833007Y28389219D01*
X-44357789Y27827869D01*
X-43703924Y27491108D01*
X-43464360Y27471202D01*
X-43615647Y27106862D01*
X-43616163Y26515732D01*
X-43390424Y25969402D01*
X-42972797Y25551045D01*
X-42426862Y25324353D01*
X-41835732Y25323837D01*
X-41289402Y25549576D01*
X-40871045Y25967203D01*
X-40644353Y26513138D01*
X-40644351Y26515732D01*
X-34726163Y26515732D01*
X-34500424Y25969402D01*
X-34082797Y25551045D01*
X-33536862Y25324353D01*
X-32945732Y25323837D01*
X-32399402Y25549576D01*
X-31981045Y25967203D01*
X-31754353Y26513138D01*
X-31753837Y27104268D01*
X-31899342Y27456418D01*
X-31478333Y27491032D01*
X-30824175Y27827223D01*
X-30348468Y28388158D01*
X-29617138Y29704803D01*
X-29196909Y30029008D01*
X-28830833Y30666922D01*
X-28736742Y31396369D01*
X-28736742Y31396370D01*
X-27543258Y31396370D01*
X-27449167Y30666923D01*
X-27083091Y30029008D01*
X-26500762Y29579743D01*
X-26432713Y29561318D01*
X-25783007Y28389219D01*
X-25307789Y27827869D01*
X-24653924Y27491108D01*
X-24414360Y27471202D01*
X-24565647Y27106862D01*
X-24566163Y26515732D01*
X-24340424Y25969402D01*
X-23922797Y25551045D01*
X-23376862Y25324353D01*
X-22785732Y25323837D01*
X-22239402Y25549576D01*
X-21821045Y25967203D01*
X-21594353Y26513138D01*
X-21594351Y26515732D01*
X-15676163Y26515732D01*
X-15450424Y25969402D01*
X-15032797Y25551045D01*
X-14486862Y25324353D01*
X-13895732Y25323837D01*
X-13349402Y25549576D01*
X-12931045Y25967203D01*
X-12797269Y26289373D01*
X-11739360Y26289373D01*
X-11339976Y25322791D01*
X-10601099Y24582623D01*
X-9635216Y24181553D01*
X-8589373Y24180640D01*
X-7622791Y24580024D01*
X-6882623Y25318901D01*
X-6481553Y26284784D01*
X-6480640Y27330627D01*
X-6880024Y28297209D01*
X-7618901Y29037377D01*
X-8584784Y29438447D01*
X-9630627Y29439360D01*
X-10597209Y29039976D01*
X-11337377Y28301099D01*
X-11738447Y27335216D01*
X-11739360Y26289373D01*
X-12797269Y26289373D01*
X-12704353Y26513138D01*
X-12703837Y27104268D01*
X-12849342Y27456418D01*
X-12428333Y27491032D01*
X-11774175Y27827223D01*
X-11298468Y28388158D01*
X-10567138Y29704803D01*
X-10146909Y30029008D01*
X-9780833Y30666922D01*
X-9686742Y31396369D01*
X-9686742Y31396370D01*
X-8493258Y31396370D01*
X-8399167Y30666923D01*
X-8033091Y30029008D01*
X-7450762Y29579743D01*
X-7382713Y29561318D01*
X-6733007Y28389219D01*
X-6257789Y27827869D01*
X-5603924Y27491108D01*
X-5364360Y27471202D01*
X-5515647Y27106862D01*
X-5516163Y26515732D01*
X-5290424Y25969402D01*
X-4872797Y25551045D01*
X-4326862Y25324353D01*
X-3735732Y25323837D01*
X-3189402Y25549576D01*
X-2771045Y25967203D01*
X-2544353Y26513138D01*
X-2543837Y27104268D01*
X-2769576Y27650598D01*
X-3187203Y28068955D01*
X-3560547Y28223981D01*
X-3272371Y28783511D01*
X-3211466Y29516475D01*
X-3435691Y30216953D01*
X-4296993Y31770781D01*
X-4751803Y32308025D01*
X-4780833Y32533078D01*
X-5146909Y33170992D01*
X-5729238Y33620257D01*
X-6439166Y33812476D01*
X-7168613Y33718386D01*
X-7806528Y33352309D01*
X-8255793Y32769980D01*
X-8448012Y32060052D01*
X-8493258Y31396370D01*
X-9686742Y31396370D01*
X-9731988Y32060052D01*
X-9924207Y32769980D01*
X-10373472Y33352309D01*
X-11011387Y33718385D01*
X-11740834Y33812476D01*
X-12450762Y33620257D01*
X-13033091Y33170992D01*
X-13399167Y32533077D01*
X-13455351Y32097504D01*
X-13731533Y31771842D01*
X-14594188Y30218766D01*
X-14819024Y29518484D01*
X-14758758Y28785467D01*
X-14503258Y28288317D01*
X-15030598Y28070424D01*
X-15448955Y27652797D01*
X-15675647Y27106862D01*
X-15676163Y26515732D01*
X-21594351Y26515732D01*
X-21593837Y27104268D01*
X-21819576Y27650598D01*
X-22237203Y28068955D01*
X-22610547Y28223981D01*
X-22322371Y28783511D01*
X-22261466Y29516475D01*
X-22485691Y30216953D01*
X-23346993Y31770781D01*
X-23801803Y32308025D01*
X-23830833Y32533078D01*
X-24196909Y33170992D01*
X-24748193Y33596306D01*
X-20247314Y33596306D01*
X-19999002Y32995345D01*
X-19539613Y32535154D01*
X-18939087Y32285794D01*
X-18288846Y32285226D01*
X-17687885Y32533538D01*
X-17227694Y32992927D01*
X-16978334Y33593453D01*
X-16977766Y34243694D01*
X-17226078Y34844655D01*
X-17685467Y35304846D01*
X-18285993Y35554206D01*
X-18936234Y35554774D01*
X-19537195Y35306462D01*
X-19997386Y34847073D01*
X-20246746Y34246547D01*
X-20247314Y33596306D01*
X-24748193Y33596306D01*
X-24779238Y33620257D01*
X-25489166Y33812476D01*
X-26218613Y33718386D01*
X-26856528Y33352309D01*
X-27305793Y32769980D01*
X-27498012Y32060052D01*
X-27543258Y31396370D01*
X-28736742Y31396370D01*
X-28781988Y32060052D01*
X-28974207Y32769980D01*
X-29423472Y33352309D01*
X-30061387Y33718385D01*
X-30790834Y33812476D01*
X-31500762Y33620257D01*
X-32083091Y33170992D01*
X-32449167Y32533077D01*
X-32505351Y32097504D01*
X-32781533Y31771842D01*
X-33644188Y30218766D01*
X-33869024Y29518484D01*
X-33808758Y28785467D01*
X-33553258Y28288317D01*
X-34080598Y28070424D01*
X-34498955Y27652797D01*
X-34725647Y27106862D01*
X-34726163Y26515732D01*
X-40644351Y26515732D01*
X-40643837Y27104268D01*
X-40869576Y27650598D01*
X-41287203Y28068955D01*
X-41660547Y28223981D01*
X-41372371Y28783511D01*
X-41311466Y29516475D01*
X-41535691Y30216953D01*
X-42078555Y31196306D01*
X-39197314Y31196306D01*
X-38949002Y30595345D01*
X-38489613Y30135154D01*
X-37889087Y29885794D01*
X-37238846Y29885226D01*
X-36637885Y30133538D01*
X-36177694Y30592927D01*
X-35928334Y31193453D01*
X-35927766Y31843694D01*
X-36176078Y32444655D01*
X-36635467Y32904846D01*
X-37235993Y33154206D01*
X-37886234Y33154774D01*
X-38487195Y32906462D01*
X-38947386Y32447073D01*
X-39196746Y31846547D01*
X-39197314Y31196306D01*
X-42078555Y31196306D01*
X-42396993Y31770781D01*
X-42851803Y32308025D01*
X-42880833Y32533078D01*
X-43246909Y33170992D01*
X-43829238Y33620257D01*
X-44539166Y33812476D01*
X-45268613Y33718386D01*
X-45906528Y33352309D01*
X-46355793Y32769980D01*
X-46548012Y32060052D01*
X-46593258Y31396370D01*
X-47786742Y31396370D01*
X-47831988Y32060052D01*
X-48024207Y32769980D01*
X-48473472Y33352309D01*
X-49111387Y33718385D01*
X-49840834Y33812476D01*
X-50550762Y33620257D01*
X-51133091Y33170992D01*
X-51499167Y32533077D01*
X-51555351Y32097504D01*
X-51831533Y31771842D01*
X-52694188Y30218766D01*
X-52919024Y29518484D01*
X-52858758Y28785467D01*
X-52603258Y28288317D01*
X-53130598Y28070424D01*
X-53548955Y27652797D01*
X-53775647Y27106862D01*
X-53776163Y26515732D01*
X-59694351Y26515732D01*
X-59693837Y27104268D01*
X-59919576Y27650598D01*
X-60337203Y28068955D01*
X-60710547Y28223981D01*
X-60422371Y28783511D01*
X-60361466Y29516475D01*
X-60585691Y30216953D01*
X-61128555Y31196306D01*
X-58247314Y31196306D01*
X-57999002Y30595345D01*
X-57539613Y30135154D01*
X-56939087Y29885794D01*
X-56288846Y29885226D01*
X-55687885Y30133538D01*
X-55227694Y30592927D01*
X-54978334Y31193453D01*
X-54977766Y31843694D01*
X-55226078Y32444655D01*
X-55685467Y32904846D01*
X-56285993Y33154206D01*
X-56936234Y33154774D01*
X-57537195Y32906462D01*
X-57997386Y32447073D01*
X-58246746Y31846547D01*
X-58247314Y31196306D01*
X-61128555Y31196306D01*
X-61446993Y31770781D01*
X-61901803Y32308025D01*
X-61930833Y32533078D01*
X-62296909Y33170992D01*
X-62879238Y33620257D01*
X-63589166Y33812476D01*
X-64318613Y33718386D01*
X-64956528Y33352309D01*
X-65405793Y32769980D01*
X-65598012Y32060052D01*
X-65643258Y31396370D01*
X-66836742Y31396370D01*
X-66881988Y32060052D01*
X-67074207Y32769980D01*
X-67523472Y33352309D01*
X-68161387Y33718385D01*
X-68890834Y33812476D01*
X-69600762Y33620257D01*
X-70183091Y33170992D01*
X-70549167Y32533077D01*
X-70605351Y32097504D01*
X-70881533Y31771842D01*
X-71744188Y30218766D01*
X-71969024Y29518484D01*
X-71908758Y28785467D01*
X-71653258Y28288317D01*
X-72180598Y28070424D01*
X-72598955Y27652797D01*
X-72825647Y27106862D01*
X-72826163Y26515732D01*
X-78744351Y26515732D01*
X-78743837Y27104268D01*
X-78969576Y27650598D01*
X-79387203Y28068955D01*
X-79760547Y28223981D01*
X-79472371Y28783511D01*
X-79411466Y29516475D01*
X-79635691Y30216953D01*
X-80427995Y31646306D01*
X-77447314Y31646306D01*
X-77199002Y31045345D01*
X-76739613Y30585154D01*
X-76139087Y30335794D01*
X-75488846Y30335226D01*
X-74887885Y30583538D01*
X-74427694Y31042927D01*
X-74178334Y31643453D01*
X-74177766Y32293694D01*
X-74426078Y32894655D01*
X-74885467Y33354846D01*
X-75485993Y33604206D01*
X-76136234Y33604774D01*
X-76737195Y33356462D01*
X-77197386Y32897073D01*
X-77446746Y32296547D01*
X-77447314Y31646306D01*
X-80427995Y31646306D01*
X-80496993Y31770781D01*
X-80951803Y32308025D01*
X-80980833Y32533078D01*
X-81346909Y33170992D01*
X-81929238Y33620257D01*
X-82639166Y33812476D01*
X-83368613Y33718386D01*
X-84006528Y33352309D01*
X-84455793Y32769980D01*
X-84648012Y32060052D01*
X-84693258Y31396370D01*
X-85886742Y31396370D01*
X-85931988Y32060052D01*
X-86124207Y32769980D01*
X-86573472Y33352309D01*
X-87211387Y33718385D01*
X-87940834Y33812476D01*
X-88650762Y33620257D01*
X-89233091Y33170992D01*
X-89599167Y32533077D01*
X-89655351Y32097504D01*
X-89931533Y31771842D01*
X-90794188Y30218766D01*
X-91019024Y29518484D01*
X-90958758Y28785467D01*
X-90703258Y28288317D01*
X-91230598Y28070424D01*
X-91648955Y27652797D01*
X-91875647Y27106862D01*
X-91876163Y26515732D01*
X-97794308Y26515732D01*
X-97793837Y27054268D01*
X-98019576Y27600598D01*
X-98437203Y28018955D01*
X-98810547Y28173981D01*
X-98522371Y28733511D01*
X-98461466Y29466475D01*
X-98685691Y30166953D01*
X-99546993Y31720781D01*
X-100001803Y32258025D01*
X-100030833Y32483078D01*
X-100239276Y32846306D01*
X-96497314Y32846306D01*
X-96249002Y32245345D01*
X-95789613Y31785154D01*
X-95189087Y31535794D01*
X-94538846Y31535226D01*
X-93937885Y31783538D01*
X-93477694Y32242927D01*
X-93228334Y32843453D01*
X-93227766Y33493694D01*
X-93476078Y34094655D01*
X-93935467Y34554846D01*
X-94535993Y34804206D01*
X-95186234Y34804774D01*
X-95787195Y34556462D01*
X-96247386Y34097073D01*
X-96496746Y33496547D01*
X-96497314Y32846306D01*
X-100239276Y32846306D01*
X-100396909Y33120992D01*
X-100979238Y33570257D01*
X-101689166Y33762476D01*
X-102418613Y33668386D01*
X-103056528Y33302309D01*
X-103505793Y32719980D01*
X-103698012Y32010052D01*
X-103743258Y31346370D01*
X-104936742Y31346370D01*
X-104981988Y32010052D01*
X-105174207Y32719980D01*
X-105623472Y33302309D01*
X-106261387Y33668385D01*
X-106990834Y33762476D01*
X-107700762Y33570257D01*
X-108283091Y33120992D01*
X-108649167Y32483077D01*
X-108705351Y32047504D01*
X-108981533Y31721842D01*
X-109844188Y30168766D01*
X-110069024Y29468484D01*
X-110008758Y28735467D01*
X-109753258Y28238317D01*
X-110280598Y28020424D01*
X-110698955Y27602797D01*
X-110925647Y27056862D01*
X-110926163Y26465732D01*
X-112150000Y26465732D01*
X-112150000Y36033766D01*
X-111604774Y36033766D01*
X-111356462Y35432805D01*
X-110897073Y34972614D01*
X-110296547Y34723254D01*
X-109646306Y34722686D01*
X-109045345Y34970998D01*
X-108585154Y35430387D01*
X-108335794Y36030913D01*
X-108335226Y36681154D01*
X-108404309Y36848349D01*
X-100386930Y44865728D01*
X-100072797Y44551045D01*
X-99526862Y44324353D01*
X-98935732Y44323837D01*
X-98389402Y44549576D01*
X-97971045Y44967203D01*
X-97744353Y45513138D01*
X-97743837Y46104268D01*
X-97969576Y46650598D01*
X-98387203Y47068955D01*
X-98760547Y47223981D01*
X-98472371Y47783511D01*
X-98411466Y48516475D01*
X-98635691Y49216953D01*
X-99496993Y50770781D01*
X-99951803Y51308025D01*
X-99980833Y51533078D01*
X-100346909Y52170992D01*
X-100929238Y52620257D01*
X-101639166Y52812476D01*
X-102368613Y52718386D01*
X-103006528Y52352309D01*
X-103455793Y51769980D01*
X-103648012Y51060052D01*
X-103693258Y50396370D01*
X-103599167Y49666923D01*
X-103233091Y49029008D01*
X-102650762Y48579743D01*
X-102582713Y48561318D01*
X-101933007Y47389219D01*
X-101475000Y46848199D01*
X-101475000Y45927262D01*
X-101681172Y45721090D01*
X-101680640Y46330627D01*
X-102080024Y47297209D01*
X-102818901Y48037377D01*
X-103784784Y48438447D01*
X-104830627Y48439360D01*
X-105797209Y48039976D01*
X-106537377Y47301099D01*
X-106938447Y46335216D01*
X-106939360Y45289373D01*
X-106539976Y44322791D01*
X-105801099Y43582623D01*
X-104835216Y43181553D01*
X-104221245Y43181017D01*
X-109478917Y37923345D01*
X-109643453Y37991666D01*
X-110293694Y37992234D01*
X-110894655Y37743922D01*
X-111354846Y37284533D01*
X-111604206Y36684007D01*
X-111604774Y36033766D01*
X-112150000Y36033766D01*
X-112150000Y45515732D01*
X-110876163Y45515732D01*
X-110650424Y44969402D01*
X-110232797Y44551045D01*
X-109686862Y44324353D01*
X-109095732Y44323837D01*
X-108549402Y44549576D01*
X-108131045Y44967203D01*
X-107904353Y45513138D01*
X-107903837Y46104268D01*
X-108049342Y46456418D01*
X-107628333Y46491032D01*
X-106974175Y46827223D01*
X-106498468Y47388158D01*
X-105767138Y48704803D01*
X-105346909Y49029008D01*
X-104980833Y49666922D01*
X-104886742Y50396369D01*
X-104931988Y51060052D01*
X-105124207Y51769980D01*
X-105573472Y52352309D01*
X-106211387Y52718385D01*
X-106940834Y52812476D01*
X-107650762Y52620257D01*
X-108233091Y52170992D01*
X-108599167Y51533077D01*
X-108655351Y51097504D01*
X-108931533Y50771842D01*
X-109794188Y49218766D01*
X-110019024Y48518484D01*
X-109958758Y47785467D01*
X-109703258Y47288317D01*
X-110230598Y47070424D01*
X-110648955Y46652797D01*
X-110875647Y46106862D01*
X-110876163Y45515732D01*
X-112150000Y45515732D01*
X-112150000Y55083766D01*
X-110704774Y55083766D01*
X-110456462Y54482805D01*
X-109997073Y54022614D01*
X-109396547Y53773254D01*
X-108746306Y53772686D01*
X-108145345Y54020998D01*
X-107685154Y54480387D01*
X-107435794Y55080913D01*
X-107435226Y55731154D01*
X-107683538Y56332115D01*
X-107758242Y56406950D01*
X-100556930Y56406950D01*
X-100556930Y54407970D01*
X-100512652Y54172653D01*
X-100373580Y53956529D01*
X-100161380Y53811539D01*
X-99909490Y53760530D01*
X-97910510Y53760530D01*
X-97675193Y53804808D01*
X-97459069Y53943880D01*
X-97314079Y54156080D01*
X-97263070Y54407970D01*
X-97263070Y56406950D01*
X-97307348Y56642267D01*
X-97446420Y56858391D01*
X-97658620Y57003381D01*
X-97910510Y57054390D01*
X-99909490Y57054390D01*
X-100144807Y57010112D01*
X-100360931Y56871040D01*
X-100505921Y56658840D01*
X-100556930Y56406950D01*
X-107758242Y56406950D01*
X-108142927Y56792306D01*
X-108743453Y57041666D01*
X-109393694Y57042234D01*
X-109994655Y56793922D01*
X-110454846Y56334533D01*
X-110704206Y55734007D01*
X-110704774Y55083766D01*
X-112150000Y55083766D01*
X-112150000Y72050000D01*
X-105860000Y72050000D01*
X-105588295Y72104046D01*
X-105357954Y72257954D01*
X-102644556Y74971352D01*
X-102645803Y73542086D01*
X-101958127Y71877783D01*
X-102418613Y71818386D01*
X-103056528Y71452309D01*
X-103505793Y70869980D01*
X-103698012Y70160052D01*
X-103743258Y69496370D01*
X-103649167Y68766923D01*
X-103283091Y68129008D01*
X-102700762Y67679743D01*
X-102632713Y67661318D01*
X-101983007Y66489219D01*
X-101507789Y65927869D01*
X-100853924Y65591108D01*
X-100614360Y65571202D01*
X-100765647Y65206862D01*
X-100766163Y64615732D01*
X-100540424Y64069402D01*
X-100122797Y63651045D01*
X-99576862Y63424353D01*
X-98985732Y63423837D01*
X-98439402Y63649576D01*
X-98021045Y64067203D01*
X-97794353Y64613138D01*
X-97793837Y65204268D01*
X-98019576Y65750598D01*
X-98437203Y66168955D01*
X-98810547Y66323981D01*
X-98522371Y66883511D01*
X-98461466Y67616475D01*
X-98685691Y68316953D01*
X-98839816Y68595003D01*
X-94452882Y68595003D01*
X-94426891Y67994332D01*
X-94247027Y67560104D01*
X-93993001Y67476604D01*
X-93109605Y68360000D01*
X-92750395Y68360000D01*
X-91866999Y67476604D01*
X-91612973Y67560104D01*
X-91407118Y68124997D01*
X-91433109Y68725668D01*
X-91612973Y69159896D01*
X-91866999Y69243396D01*
X-92750395Y68360000D01*
X-93109605Y68360000D01*
X-93993001Y69243396D01*
X-94247027Y69159896D01*
X-94452882Y68595003D01*
X-98839816Y68595003D01*
X-99546993Y69870781D01*
X-99819483Y70192659D01*
X-98936003Y69825806D01*
X-97092086Y69824197D01*
X-97061103Y69836999D01*
X-93813396Y69836999D01*
X-93745354Y69630000D01*
X-93813396Y69423001D01*
X-92930000Y68539605D01*
X-92046604Y69423001D01*
X-92114646Y69630000D01*
X-92046604Y69836999D01*
X-92930000Y70720395D01*
X-93813396Y69836999D01*
X-97061103Y69836999D01*
X-95387913Y70528347D01*
X-94265730Y71648573D01*
X-94452882Y71135003D01*
X-94426891Y70534332D01*
X-94247027Y70100104D01*
X-93993001Y70016604D01*
X-93109605Y70900000D01*
X-92750395Y70900000D01*
X-91866999Y70016604D01*
X-91612973Y70100104D01*
X-91407118Y70664997D01*
X-91433109Y71265668D01*
X-91612973Y71699896D01*
X-91866999Y71783396D01*
X-92750395Y70900000D01*
X-93109605Y70900000D01*
X-93993001Y71783396D01*
X-94198259Y71715926D01*
X-94082929Y71831055D01*
X-93899728Y72272253D01*
X-93787200Y72159529D01*
X-93753408Y72145497D01*
X-93813396Y71963001D01*
X-92930000Y71079605D01*
X-92046604Y71963001D01*
X-92106447Y72145056D01*
X-92075036Y72158035D01*
X-91649529Y72582800D01*
X-91418963Y73138065D01*
X-91418438Y73739297D01*
X-91648035Y74294964D01*
X-92062698Y74710351D01*
X-91649529Y75122800D01*
X-91418963Y75678065D01*
X-91418438Y76279297D01*
X-91648035Y76834964D01*
X-91669333Y76856300D01*
X-79213740Y76856300D01*
X-79213740Y75103700D01*
X-79169462Y74868383D01*
X-79030390Y74652259D01*
X-78818190Y74507269D01*
X-78801720Y74503934D01*
X-78867631Y74438023D01*
X-78753003Y74323395D01*
X-79007027Y74239896D01*
X-79212882Y73675003D01*
X-79186891Y73074332D01*
X-79007027Y72640104D01*
X-78753001Y72556604D01*
X-77869605Y73440000D01*
X-77883747Y73454142D01*
X-77704142Y73633747D01*
X-77690000Y73619605D01*
X-77675857Y73633747D01*
X-77496252Y73454142D01*
X-77510395Y73440000D01*
X-76626999Y72556604D01*
X-76372973Y72640104D01*
X-76167118Y73204997D01*
X-76193109Y73805668D01*
X-76372973Y74239896D01*
X-76626997Y74323395D01*
X-76512369Y74438023D01*
X-76576254Y74501908D01*
X-76362259Y74639610D01*
X-76217269Y74851810D01*
X-76166260Y75103700D01*
X-76166260Y76856300D01*
X-76210538Y77091617D01*
X-76349610Y77307741D01*
X-76561810Y77452731D01*
X-76813700Y77503740D01*
X-78566300Y77503740D01*
X-78801617Y77459462D01*
X-79017741Y77320390D01*
X-79162731Y77108190D01*
X-79213740Y76856300D01*
X-91669333Y76856300D01*
X-92072800Y77260471D01*
X-92628065Y77491037D01*
X-93229297Y77491562D01*
X-93784964Y77261965D01*
X-94045293Y77002090D01*
X-94078347Y77082087D01*
X-95044572Y78050000D01*
X-75154092Y78050000D01*
X-69862046Y72757954D01*
X-69862046Y72757954D01*
G37*
X-69862046Y72757954D02*
X-69631705Y72604046D01*
X-69360000Y72549999D01*
X-69359995Y72550000D01*
X-32868681Y72550000D01*
X-32947401Y72497401D01*
X-36028270Y69416532D01*
X-36027766Y69993694D01*
X-36276078Y70594655D01*
X-36735467Y71054846D01*
X-37335993Y71304206D01*
X-37986234Y71304774D01*
X-38587195Y71056462D01*
X-39047386Y70597073D01*
X-39296746Y69996547D01*
X-39297314Y69346306D01*
X-39049002Y68745345D01*
X-38589613Y68285154D01*
X-37989087Y68035794D01*
X-37409514Y68035288D01*
X-40644189Y64800613D01*
X-40643837Y65204268D01*
X-40869576Y65750598D01*
X-41287203Y66168955D01*
X-41660547Y66323981D01*
X-41372371Y66883511D01*
X-41311466Y67616475D01*
X-41535691Y68316953D01*
X-42396993Y69870781D01*
X-42851803Y70408025D01*
X-42880833Y70633078D01*
X-43246909Y71270992D01*
X-43829238Y71720257D01*
X-44539166Y71912476D01*
X-45268613Y71818386D01*
X-45906528Y71452309D01*
X-46355793Y70869980D01*
X-46548012Y70160052D01*
X-46593258Y69496370D01*
X-46499167Y68766923D01*
X-46133091Y68129008D01*
X-45550762Y67679743D01*
X-45482713Y67661318D01*
X-44833007Y66489219D01*
X-44357789Y65927869D01*
X-43703924Y65591108D01*
X-43464360Y65571202D01*
X-43615647Y65206862D01*
X-43616163Y64615732D01*
X-43390424Y64069402D01*
X-42972797Y63651045D01*
X-42426862Y63424353D01*
X-42020803Y63423999D01*
X-42674802Y62770000D01*
X-45632658Y62770000D01*
X-44982623Y63418901D01*
X-44581553Y64384784D01*
X-44580640Y65430627D01*
X-44980024Y66397209D01*
X-45718901Y67137377D01*
X-46684784Y67538447D01*
X-47730627Y67539360D01*
X-48697209Y67139976D01*
X-49437377Y66401099D01*
X-49838447Y65435216D01*
X-49839360Y64389373D01*
X-49439976Y63422791D01*
X-48788324Y62770000D01*
X-60875078Y62770000D01*
X-60874838Y63045167D01*
X-61016883Y63388943D01*
X-61051861Y63423982D01*
X-60885732Y63423837D01*
X-60339402Y63649576D01*
X-59921045Y64067203D01*
X-59694353Y64613138D01*
X-59694351Y64615732D01*
X-53776163Y64615732D01*
X-53550424Y64069402D01*
X-53132797Y63651045D01*
X-52586862Y63424353D01*
X-51995732Y63423837D01*
X-51449402Y63649576D01*
X-51031045Y64067203D01*
X-50804353Y64613138D01*
X-50803837Y65204268D01*
X-50949342Y65556418D01*
X-50528333Y65591032D01*
X-49874175Y65927223D01*
X-49398468Y66488158D01*
X-48667138Y67804803D01*
X-48246909Y68129008D01*
X-47880833Y68766922D01*
X-47786742Y69496369D01*
X-47831988Y70160052D01*
X-48024207Y70869980D01*
X-48473472Y71452309D01*
X-49111387Y71818385D01*
X-49840834Y71912476D01*
X-50550762Y71720257D01*
X-51133091Y71270992D01*
X-51499167Y70633077D01*
X-51555351Y70197504D01*
X-51831533Y69871842D01*
X-52694188Y68318766D01*
X-52919024Y67618484D01*
X-52858758Y66885467D01*
X-52603258Y66388317D01*
X-53130598Y66170424D01*
X-53548955Y65752797D01*
X-53775647Y65206862D01*
X-53776163Y64615732D01*
X-59694351Y64615732D01*
X-59693837Y65204268D01*
X-59919576Y65750598D01*
X-60337203Y66168955D01*
X-60710547Y66323981D01*
X-60422371Y66883511D01*
X-60361466Y67616475D01*
X-60585691Y68316953D01*
X-61156271Y69346306D01*
X-58247314Y69346306D01*
X-57999002Y68745345D01*
X-57539613Y68285154D01*
X-56939087Y68035794D01*
X-56288846Y68035226D01*
X-55687885Y68283538D01*
X-55227694Y68742927D01*
X-54978334Y69343453D01*
X-54977766Y69993694D01*
X-55226078Y70594655D01*
X-55685467Y71054846D01*
X-56285993Y71304206D01*
X-56936234Y71304774D01*
X-57537195Y71056462D01*
X-57997386Y70597073D01*
X-58246746Y69996547D01*
X-58247314Y69346306D01*
X-61156271Y69346306D01*
X-61446993Y69870781D01*
X-61901803Y70408025D01*
X-61930833Y70633078D01*
X-62296909Y71270992D01*
X-62879238Y71720257D01*
X-63589166Y71912476D01*
X-64318613Y71818386D01*
X-64956528Y71452309D01*
X-65405793Y70869980D01*
X-65598012Y70160052D01*
X-65643258Y69496370D01*
X-65549167Y68766923D01*
X-65183091Y68129008D01*
X-64600762Y67679743D01*
X-64532713Y67661318D01*
X-63883007Y66489219D01*
X-63407789Y65927869D01*
X-62753924Y65591108D01*
X-62514360Y65571202D01*
X-62665647Y65206862D01*
X-62666163Y64615732D01*
X-62440424Y64069402D01*
X-62116582Y63744994D01*
X-62338943Y63653117D01*
X-62602192Y63390327D01*
X-62672917Y63220002D01*
X-64231870Y63220002D01*
X-64032623Y63418901D01*
X-63631553Y64384784D01*
X-63630640Y65430627D01*
X-64030024Y66397209D01*
X-64768901Y67137377D01*
X-65734784Y67538447D01*
X-66780627Y67539360D01*
X-67747209Y67139976D01*
X-68487377Y66401099D01*
X-68888447Y65435216D01*
X-68889360Y64389373D01*
X-68530142Y63520000D01*
X-70813000Y63520000D01*
X-70499402Y63649576D01*
X-70081045Y64067203D01*
X-69854353Y64613138D01*
X-69853837Y65204268D01*
X-69999342Y65556418D01*
X-69578333Y65591032D01*
X-68924175Y65927223D01*
X-68448468Y66488158D01*
X-67717138Y67804803D01*
X-67296909Y68129008D01*
X-66930833Y68766922D01*
X-66836742Y69496369D01*
X-66881988Y70160052D01*
X-67074207Y70869980D01*
X-67523472Y71452309D01*
X-68161387Y71818385D01*
X-68890834Y71912476D01*
X-69600762Y71720257D01*
X-70183091Y71270992D01*
X-70549167Y70633077D01*
X-70605351Y70197504D01*
X-70881533Y69871842D01*
X-71744188Y68318766D01*
X-71969024Y67618484D01*
X-71908758Y66885467D01*
X-71653258Y66388317D01*
X-72180598Y66170424D01*
X-72598955Y65752797D01*
X-72825647Y65206862D01*
X-72826132Y64650934D01*
X-73222599Y65047401D01*
X-73469161Y65212148D01*
X-73760000Y65270000D01*
X-76281969Y65270000D01*
X-76178963Y65518065D01*
X-76178438Y66119297D01*
X-76408035Y66674964D01*
X-76822698Y67090351D01*
X-76409529Y67502800D01*
X-76178963Y68058065D01*
X-76178438Y68659297D01*
X-76408035Y69214964D01*
X-76822698Y69630351D01*
X-76409529Y70042800D01*
X-76178963Y70598065D01*
X-76178438Y71199297D01*
X-76408035Y71754964D01*
X-76832800Y72180471D01*
X-76866592Y72194503D01*
X-76806604Y72376999D01*
X-77690000Y73260395D01*
X-78573396Y72376999D01*
X-78513553Y72194944D01*
X-78544964Y72181965D01*
X-78970471Y71757200D01*
X-79201037Y71201935D01*
X-79201562Y70600703D01*
X-78971965Y70045036D01*
X-78557302Y69629649D01*
X-78970471Y69217200D01*
X-79201037Y68661935D01*
X-79201562Y68060703D01*
X-78971965Y67505036D01*
X-78557302Y67089649D01*
X-78970471Y66677200D01*
X-79201037Y66121935D01*
X-79201159Y65982585D01*
X-79387203Y66168955D01*
X-79760547Y66323981D01*
X-79472371Y66883511D01*
X-79411466Y67616475D01*
X-79635691Y68316953D01*
X-80496993Y69870781D01*
X-80951803Y70408025D01*
X-80980833Y70633078D01*
X-81346909Y71270992D01*
X-81929238Y71720257D01*
X-82639166Y71912476D01*
X-83368613Y71818386D01*
X-84006528Y71452309D01*
X-84455793Y70869980D01*
X-84648012Y70160052D01*
X-84693258Y69496370D01*
X-84599167Y68766923D01*
X-84233091Y68129008D01*
X-83650762Y67679743D01*
X-83582713Y67661318D01*
X-82933007Y66489219D01*
X-82457789Y65927869D01*
X-81803924Y65591108D01*
X-81564360Y65571202D01*
X-81715647Y65206862D01*
X-81716163Y64615732D01*
X-81490424Y64069402D01*
X-81072797Y63651045D01*
X-80875629Y63569173D01*
X-81174802Y63270000D01*
X-83231784Y63270000D01*
X-83082623Y63418901D01*
X-82681553Y64384784D01*
X-82680640Y65430627D01*
X-83080024Y66397209D01*
X-83818901Y67137377D01*
X-84784784Y67538447D01*
X-85830627Y67539360D01*
X-86797209Y67139976D01*
X-87537377Y66401099D01*
X-87938447Y65435216D01*
X-87939360Y64389373D01*
X-87539976Y63422791D01*
X-87387451Y63270000D01*
X-89745198Y63270000D01*
X-89956546Y63481348D01*
X-89549402Y63649576D01*
X-89131045Y64067203D01*
X-88904353Y64613138D01*
X-88903837Y65204268D01*
X-89049342Y65556418D01*
X-88628333Y65591032D01*
X-87974175Y65927223D01*
X-87498468Y66488158D01*
X-86767138Y67804803D01*
X-86346909Y68129008D01*
X-85980833Y68766922D01*
X-85886742Y69496369D01*
X-85931988Y70160052D01*
X-86124207Y70869980D01*
X-86573472Y71452309D01*
X-87211387Y71818385D01*
X-87940834Y71912476D01*
X-88650762Y71720257D01*
X-89233091Y71270992D01*
X-89599167Y70633077D01*
X-89655351Y70197504D01*
X-89931533Y69871842D01*
X-90794188Y68318766D01*
X-91019024Y67618484D01*
X-90958758Y66885467D01*
X-90703258Y66388317D01*
X-91230598Y66170424D01*
X-91418557Y65982793D01*
X-91418438Y66119297D01*
X-91648035Y66674964D01*
X-92072800Y67100471D01*
X-92106592Y67114503D01*
X-92046604Y67296999D01*
X-92930000Y68180395D01*
X-93813396Y67296999D01*
X-93753553Y67114944D01*
X-93784964Y67101965D01*
X-94210471Y66677200D01*
X-94441037Y66121935D01*
X-94441562Y65520703D01*
X-94211965Y64965036D01*
X-93797302Y64549649D01*
X-94210471Y64137200D01*
X-94441037Y63581935D01*
X-94441562Y62980703D01*
X-94354501Y62770000D01*
X-102782658Y62770000D01*
X-102132623Y63418901D01*
X-101731553Y64384784D01*
X-101730640Y65430627D01*
X-102130024Y66397209D01*
X-102868901Y67137377D01*
X-103834784Y67538447D01*
X-104880627Y67539360D01*
X-105847209Y67139976D01*
X-106587377Y66401099D01*
X-106988447Y65435216D01*
X-106989360Y64389373D01*
X-106795574Y63920376D01*
X-107005000Y64129802D01*
X-107005000Y65949833D01*
X-106548468Y66488158D01*
X-105817138Y67804803D01*
X-105396909Y68129008D01*
X-105030833Y68766922D01*
X-104936742Y69496369D01*
X-104981988Y70160052D01*
X-105174207Y70869980D01*
X-105623472Y71452309D01*
X-106261387Y71818385D01*
X-106990834Y71912476D01*
X-107700762Y71720257D01*
X-108283091Y71270992D01*
X-108649167Y70633077D01*
X-108705351Y70197504D01*
X-108981533Y69871842D01*
X-109844188Y68318766D01*
X-110069024Y67618484D01*
X-110008758Y66885467D01*
X-109753258Y66388317D01*
X-110280598Y66170424D01*
X-110698955Y65752797D01*
X-110925647Y65206862D01*
X-110926163Y64615732D01*
X-110700424Y64069402D01*
X-110282797Y63651045D01*
X-109736862Y63424353D01*
X-109145732Y63423837D01*
X-108599402Y63649576D01*
X-108509872Y63738949D01*
X-108467148Y63524161D01*
X-108302401Y63277599D01*
X-106497401Y61472599D01*
X-106250840Y61307852D01*
X-106219253Y61301569D01*
X-105960000Y61250000D01*
X-94354641Y61250000D01*
X-94441037Y61041935D01*
X-94441562Y60440703D01*
X-94211965Y59885036D01*
X-93797302Y59469649D01*
X-94210471Y59057200D01*
X-94441037Y58501935D01*
X-94441562Y57900703D01*
X-94211965Y57345036D01*
X-93797302Y56929649D01*
X-94210471Y56517200D01*
X-94441037Y55961935D01*
X-94441562Y55360703D01*
X-94211965Y54805036D01*
X-93797302Y54389649D01*
X-94210471Y53977200D01*
X-94441037Y53421935D01*
X-94441562Y52820703D01*
X-94421837Y52772965D01*
X-97297401Y49897401D01*
X-97462148Y49650839D01*
X-97520000Y49360000D01*
X-97520000Y39722262D01*
X-99237872Y38004390D01*
X-100809490Y38004390D01*
X-101044807Y37960112D01*
X-101260931Y37821040D01*
X-101405921Y37608840D01*
X-101456930Y37356950D01*
X-101456930Y35357970D01*
X-101412652Y35122653D01*
X-101273580Y34906529D01*
X-101061380Y34761539D01*
X-100809490Y34710530D01*
X-98810510Y34710530D01*
X-98575193Y34754808D01*
X-98359069Y34893880D01*
X-98214079Y35106080D01*
X-98163070Y35357970D01*
X-98163070Y35597460D01*
X-91806930Y35597460D01*
X-91806930Y35313050D01*
X-91762652Y35077733D01*
X-91623580Y34861609D01*
X-91411380Y34716619D01*
X-91159490Y34665610D01*
X-89160510Y34665610D01*
X-88925193Y34709888D01*
X-88709069Y34848960D01*
X-88564079Y35061160D01*
X-88513070Y35313050D01*
X-88513070Y35552540D01*
X-86507460Y35552540D01*
X-86216621Y35610392D01*
X-85970059Y35775139D01*
X-85756352Y35988846D01*
X-81634774Y35988846D01*
X-81386462Y35387885D01*
X-80927073Y34927694D01*
X-80326547Y34678334D01*
X-79676306Y34677766D01*
X-79075345Y34926078D01*
X-78615154Y35385467D01*
X-78365794Y35985993D01*
X-78365226Y36636234D01*
X-78613538Y37237195D01*
X-79072927Y37697386D01*
X-79673453Y37946746D01*
X-80323694Y37947314D01*
X-80924655Y37699002D01*
X-81384846Y37239613D01*
X-81634206Y36639087D01*
X-81634774Y35988846D01*
X-85756352Y35988846D01*
X-81895198Y39850000D01*
X-58459470Y39850000D01*
X-58459470Y39610510D01*
X-58415192Y39375193D01*
X-58276120Y39159069D01*
X-58063920Y39014079D01*
X-57812030Y38963070D01*
X-55813050Y38963070D01*
X-55577733Y39007348D01*
X-55361609Y39146420D01*
X-55216619Y39358620D01*
X-55165610Y39610510D01*
X-55165610Y39850000D01*
X-39259470Y39850000D01*
X-39259470Y39460510D01*
X-39215192Y39225193D01*
X-39076120Y39009069D01*
X-38863920Y38864079D01*
X-38612030Y38813070D01*
X-36613050Y38813070D01*
X-36377733Y38857348D01*
X-36161609Y38996420D01*
X-36016619Y39208620D01*
X-35967738Y39450000D01*
X-20209470Y39450000D01*
X-20209470Y39210510D01*
X-20165192Y38975193D01*
X-20026120Y38759069D01*
X-19813920Y38614079D01*
X-19562030Y38563070D01*
X-17563050Y38563070D01*
X-17497640Y38575378D01*
X-15906930Y36984668D01*
X-15906930Y35413050D01*
X-15862652Y35177733D01*
X-15723580Y34961609D01*
X-15511380Y34816619D01*
X-15259490Y34765610D01*
X-13260510Y34765610D01*
X-13025193Y34809888D01*
X-12809069Y34948960D01*
X-12664079Y35161160D01*
X-12613070Y35413050D01*
X-12613070Y36088846D01*
X-5734774Y36088846D01*
X-5486462Y35487885D01*
X-5027073Y35027694D01*
X-4426547Y34778334D01*
X-3776306Y34777766D01*
X-3175345Y35026078D01*
X-2715154Y35485467D01*
X-2465794Y36085993D01*
X-2465226Y36736234D01*
X-2713538Y37337195D01*
X-3172927Y37797386D01*
X-3773453Y38046746D01*
X-4423694Y38047314D01*
X-5024655Y37799002D01*
X-5484846Y37339613D01*
X-5734206Y36739087D01*
X-5734774Y36088846D01*
X-12613070Y36088846D01*
X-12613070Y37412030D01*
X-12657348Y37647347D01*
X-12796420Y37863471D01*
X-13008620Y38008461D01*
X-13260510Y38059470D01*
X-14832128Y38059470D01*
X-16915610Y40142952D01*
X-16915610Y41209490D01*
X-16951457Y41400000D01*
X-14660000Y41400000D01*
X-14369161Y41457852D01*
X-14122599Y41622599D01*
X-11977599Y43767599D01*
X-11812852Y44014161D01*
X-11755000Y44305000D01*
X-11755000Y45339373D01*
X-11739360Y45339373D01*
X-11339976Y44372791D01*
X-10601099Y43632623D01*
X-9635216Y43231553D01*
X-8589373Y43230640D01*
X-7622791Y43630024D01*
X-6882623Y44368901D01*
X-6481553Y45334784D01*
X-6480640Y46380627D01*
X-6880024Y47347209D01*
X-7618901Y48087377D01*
X-8584784Y48488447D01*
X-9630627Y48489360D01*
X-10597209Y48089976D01*
X-11337377Y47351099D01*
X-11738447Y46385216D01*
X-11739360Y45339373D01*
X-11755000Y45339373D01*
X-11755000Y46899833D01*
X-11298468Y47438158D01*
X-10567138Y48754803D01*
X-10146909Y49079008D01*
X-9780833Y49716922D01*
X-9686742Y50446369D01*
X-9686742Y50446370D01*
X-8493258Y50446370D01*
X-8399167Y49716923D01*
X-8033091Y49079008D01*
X-7450762Y48629743D01*
X-7382713Y48611318D01*
X-6733007Y47439219D01*
X-6257789Y46877869D01*
X-5603924Y46541108D01*
X-5364360Y46521202D01*
X-5515647Y46156862D01*
X-5516163Y45565732D01*
X-5290424Y45019402D01*
X-4872797Y44601045D01*
X-4326862Y44374353D01*
X-3735732Y44373837D01*
X-3189402Y44599576D01*
X-2771045Y45017203D01*
X-2544353Y45563138D01*
X-2543837Y46154268D01*
X-2769576Y46700598D01*
X-3187203Y47118955D01*
X-3560547Y47273981D01*
X-3272371Y47833511D01*
X-3211466Y48566475D01*
X-3435691Y49266953D01*
X-4296993Y50820781D01*
X-4751803Y51358025D01*
X-4780833Y51583078D01*
X-5146909Y52220992D01*
X-5729238Y52670257D01*
X-6439166Y52862476D01*
X-7168613Y52768386D01*
X-7806528Y52402309D01*
X-8255793Y51819980D01*
X-8448012Y51110052D01*
X-8493258Y50446370D01*
X-9686742Y50446370D01*
X-9731988Y51110052D01*
X-9924207Y51819980D01*
X-10373472Y52402309D01*
X-11011387Y52768385D01*
X-11740834Y52862476D01*
X-12450762Y52670257D01*
X-13033091Y52220992D01*
X-13399167Y51583077D01*
X-13455351Y51147504D01*
X-13731533Y50821842D01*
X-14594188Y49268766D01*
X-14819024Y48568484D01*
X-14758758Y47835467D01*
X-14503258Y47338317D01*
X-15030598Y47120424D01*
X-15448955Y46702797D01*
X-15675647Y46156862D01*
X-15676163Y45565732D01*
X-15450424Y45019402D01*
X-15032797Y44601045D01*
X-14486862Y44374353D01*
X-13895732Y44373837D01*
X-13349402Y44599576D01*
X-13275000Y44673848D01*
X-13275000Y44619802D01*
X-14974802Y42920000D01*
X-39125198Y42920000D01*
X-33839220Y48205978D01*
X-33808758Y47835467D01*
X-33553258Y47338317D01*
X-34080598Y47120424D01*
X-34498955Y46702797D01*
X-34725647Y46156862D01*
X-34726163Y45565732D01*
X-34500424Y45019402D01*
X-34082797Y44601045D01*
X-33536862Y44374353D01*
X-32945732Y44373837D01*
X-32399402Y44599576D01*
X-31981045Y45017203D01*
X-31847269Y45339373D01*
X-30789360Y45339373D01*
X-30389976Y44372791D01*
X-29651099Y43632623D01*
X-28685216Y43231553D01*
X-27639373Y43230640D01*
X-26672791Y43630024D01*
X-25932623Y44368901D01*
X-25531553Y45334784D01*
X-25530640Y46380627D01*
X-25930024Y47347209D01*
X-26668901Y48087377D01*
X-27634784Y48488447D01*
X-28680627Y48489360D01*
X-29647209Y48089976D01*
X-30387377Y47351099D01*
X-30788447Y46385216D01*
X-30789360Y45339373D01*
X-31847269Y45339373D01*
X-31754353Y45563138D01*
X-31753837Y46154268D01*
X-31899342Y46506418D01*
X-31478333Y46541032D01*
X-30824175Y46877223D01*
X-30348468Y47438158D01*
X-29617138Y48754803D01*
X-29196909Y49079008D01*
X-28830833Y49716922D01*
X-28736742Y50446369D01*
X-28781988Y51110052D01*
X-28974207Y51819980D01*
X-29423472Y52402309D01*
X-30061387Y52768385D01*
X-30746055Y52856700D01*
X-30572599Y52972599D01*
X-29588640Y53956558D01*
X-29588640Y52984600D01*
X-29545021Y52752787D01*
X-29544412Y52749283D01*
X-29405340Y52533159D01*
X-29193140Y52388169D01*
X-28941250Y52337160D01*
X-27941150Y52337160D01*
X-27869390Y52350150D01*
X-27810144Y52337298D01*
X-27729033Y52352560D01*
X-26894909Y52352560D01*
X-27305793Y51819980D01*
X-27498012Y51110052D01*
X-27543258Y50446370D01*
X-27449167Y49716923D01*
X-27083091Y49079008D01*
X-26500762Y48629743D01*
X-26432713Y48611318D01*
X-25783007Y47439219D01*
X-25307789Y46877869D01*
X-24653924Y46541108D01*
X-24414360Y46521202D01*
X-24565647Y46156862D01*
X-24566163Y45565732D01*
X-24340424Y45019402D01*
X-23922797Y44601045D01*
X-23376862Y44374353D01*
X-22785732Y44373837D01*
X-22239402Y44599576D01*
X-21821045Y45017203D01*
X-21594353Y45563138D01*
X-21593837Y46154268D01*
X-21819576Y46700598D01*
X-22237203Y47118955D01*
X-22610547Y47273981D01*
X-22322371Y47833511D01*
X-22272283Y48436306D01*
X-20244774Y48436306D01*
X-19996462Y47835345D01*
X-19537073Y47375154D01*
X-18936547Y47125794D01*
X-18286306Y47125226D01*
X-17685345Y47373538D01*
X-17225154Y47832927D01*
X-16975794Y48433453D01*
X-16975226Y49083694D01*
X-17223538Y49684655D01*
X-17682927Y50144846D01*
X-18283453Y50394206D01*
X-18933694Y50394774D01*
X-19534655Y50146462D01*
X-19994846Y49687073D01*
X-20244206Y49086547D01*
X-20244774Y48436306D01*
X-22272283Y48436306D01*
X-22261466Y48566475D01*
X-22485691Y49266953D01*
X-23346993Y50820781D01*
X-23801803Y51358025D01*
X-23830833Y51583078D01*
X-24196909Y52220992D01*
X-24779238Y52670257D01*
X-25489166Y52862476D01*
X-26198949Y52770922D01*
X-26152560Y53000000D01*
X-26152560Y54000000D01*
X-26196838Y54235317D01*
X-26335910Y54451441D01*
X-26548110Y54596431D01*
X-26570009Y54600866D01*
X-26576555Y54633774D01*
X-26597852Y54740840D01*
X-26762599Y54987401D01*
X-27072599Y55297401D01*
X-27319161Y55462148D01*
X-27539268Y55505930D01*
X-26545198Y56500000D01*
X-26181809Y56500000D01*
X-26244846Y56437073D01*
X-26494206Y55836547D01*
X-26494774Y55186306D01*
X-26246462Y54585345D01*
X-25787073Y54125154D01*
X-25186547Y53875794D01*
X-24536306Y53875226D01*
X-23935345Y54123538D01*
X-23475154Y54582927D01*
X-23295258Y55016164D01*
X-23295803Y54392086D01*
X-22591653Y52687913D01*
X-21288945Y51382929D01*
X-19586003Y50675806D01*
X-17742086Y50674197D01*
X-16037913Y51378347D01*
X-14732929Y52681055D01*
X-14025806Y54383997D01*
X-14024309Y56099507D01*
X-14006930Y56082128D01*
X-14006930Y54510510D01*
X-13962652Y54275193D01*
X-13823580Y54059069D01*
X-13611380Y53914079D01*
X-13359490Y53863070D01*
X-11360510Y53863070D01*
X-11125193Y53907348D01*
X-10909069Y54046420D01*
X-10764079Y54258620D01*
X-10713070Y54510510D01*
X-10713070Y55188846D01*
X-5434774Y55188846D01*
X-5186462Y54587885D01*
X-4727073Y54127694D01*
X-4126547Y53878334D01*
X-3476306Y53877766D01*
X-2875345Y54126078D01*
X-2415154Y54585467D01*
X-2165794Y55185993D01*
X-2165226Y55836234D01*
X-2413538Y56437195D01*
X-2872927Y56897386D01*
X-3473453Y57146746D01*
X-4123694Y57147314D01*
X-4724655Y56899002D01*
X-5184846Y56439613D01*
X-5434206Y55839087D01*
X-5434774Y55188846D01*
X-10713070Y55188846D01*
X-10713070Y56509490D01*
X-10757348Y56744807D01*
X-10896420Y56960931D01*
X-11108620Y57105921D01*
X-11360510Y57156930D01*
X-12932128Y57156930D01*
X-13038198Y57263000D01*
X-12745750Y57263000D01*
X-12738918Y57269832D01*
X-12657698Y57240856D01*
X-12176206Y57264956D01*
X-12174250Y57263000D01*
X-11571690Y57263000D01*
X-11338301Y57359673D01*
X-11159673Y57538302D01*
X-11063000Y57771691D01*
X-11063000Y58374250D01*
X-11064573Y58375823D01*
X-11040856Y58442302D01*
X-11065909Y58942841D01*
X-11063000Y58945750D01*
X-11063000Y59548309D01*
X-11102778Y59644341D01*
X-11101569Y59646110D01*
X-11050560Y59898000D01*
X-11050560Y61422000D01*
X-11094838Y61657317D01*
X-11098232Y61662591D01*
X-11050560Y61898000D01*
X-11050560Y63132869D01*
X-10601099Y62682623D01*
X-9635216Y62281553D01*
X-8589373Y62280640D01*
X-7622791Y62680024D01*
X-6882623Y63418901D01*
X-6481553Y64384784D01*
X-6480640Y65430627D01*
X-6880024Y66397209D01*
X-7618901Y67137377D01*
X-8584784Y67538447D01*
X-9630627Y67539360D01*
X-10597209Y67139976D01*
X-11337377Y66401099D01*
X-11738447Y65435216D01*
X-11739360Y64389373D01*
X-11598872Y64049366D01*
X-11698000Y64069440D01*
X-12930116Y64069440D01*
X-12704353Y64613138D01*
X-12703837Y65204268D01*
X-12849342Y65556418D01*
X-12428333Y65591032D01*
X-11774175Y65927223D01*
X-11298468Y66488158D01*
X-10567138Y67804803D01*
X-10146909Y68129008D01*
X-9780833Y68766922D01*
X-9686742Y69496369D01*
X-9686742Y69496370D01*
X-8493258Y69496370D01*
X-8399167Y68766923D01*
X-8033091Y68129008D01*
X-7450762Y67679743D01*
X-7382713Y67661318D01*
X-6733007Y66489219D01*
X-6257789Y65927869D01*
X-5603924Y65591108D01*
X-5364360Y65571202D01*
X-5515647Y65206862D01*
X-5516163Y64615732D01*
X-5290424Y64069402D01*
X-4872797Y63651045D01*
X-4326862Y63424353D01*
X-3735732Y63423837D01*
X-3189402Y63649576D01*
X-2771045Y64067203D01*
X-2544353Y64613138D01*
X-2543837Y65204268D01*
X-2769576Y65750598D01*
X-3187203Y66168955D01*
X-3560547Y66323981D01*
X-3272371Y66883511D01*
X-3211466Y67616475D01*
X-3435691Y68316953D01*
X-4296993Y69870781D01*
X-4751803Y70408025D01*
X-4780833Y70633078D01*
X-5146909Y71270992D01*
X-5729238Y71720257D01*
X-6439166Y71912476D01*
X-7168613Y71818386D01*
X-7806528Y71452309D01*
X-8255793Y70869980D01*
X-8448012Y70160052D01*
X-8493258Y69496370D01*
X-9686742Y69496370D01*
X-9731988Y70160052D01*
X-9924207Y70869980D01*
X-10373472Y71452309D01*
X-11011387Y71818385D01*
X-11740834Y71912476D01*
X-12450762Y71720257D01*
X-13033091Y71270992D01*
X-13091761Y71168755D01*
X-13091638Y71309897D01*
X-13321235Y71865564D01*
X-13746000Y72291071D01*
X-14301265Y72521637D01*
X-14902497Y72522162D01*
X-15458164Y72292565D01*
X-15883671Y71867800D01*
X-16114237Y71312535D01*
X-16114762Y70711303D01*
X-16074570Y70614032D01*
X-16168602Y70520000D01*
X-17189844Y70520000D01*
X-17079897Y70784783D01*
X-17079504Y71234444D01*
X-17251219Y71650027D01*
X-17568900Y71968263D01*
X-17984183Y72140703D01*
X-18433844Y72141096D01*
X-18849427Y71969381D01*
X-19167663Y71651700D01*
X-19340103Y71236417D01*
X-19340496Y70786756D01*
X-19230275Y70520000D01*
X-20195198Y70520000D01*
X-20328678Y70653480D01*
X-20305763Y70708665D01*
X-20305238Y71309897D01*
X-20534835Y71865564D01*
X-20959600Y72291071D01*
X-21514865Y72521637D01*
X-22116097Y72522162D01*
X-22213368Y72481970D01*
X-22228799Y72497401D01*
X-22475361Y72662148D01*
X-22766200Y72720000D01*
X-27914757Y72720000D01*
X-27857954Y72757954D01*
X-24542820Y76073088D01*
X-24554494Y76014400D01*
X-24439453Y75436051D01*
X-24111844Y74945750D01*
X-23621543Y74618141D01*
X-23043194Y74503100D01*
X-22673206Y74503100D01*
X-22094857Y74618141D01*
X-21604556Y74945750D01*
X-21276947Y75436051D01*
X-21161906Y76014400D01*
X-21276947Y76592749D01*
X-21415428Y76800000D01*
X-19022911Y76800000D01*
X-19167663Y76655500D01*
X-19340103Y76240217D01*
X-19340496Y75790556D01*
X-19168781Y75374973D01*
X-18851100Y75056737D01*
X-18435817Y74884297D01*
X-17986156Y74883904D01*
X-17570573Y75055619D01*
X-17252337Y75373300D01*
X-17079897Y75788583D01*
X-17079504Y76238244D01*
X-17251219Y76653827D01*
X-17397137Y76800000D01*
X-15004572Y76800000D01*
X-15143053Y76592749D01*
X-15258094Y76014400D01*
X-15143053Y75436051D01*
X-14815444Y74945750D01*
X-14325143Y74618141D01*
X-13746794Y74503100D01*
X-13376806Y74503100D01*
X-12798457Y74618141D01*
X-12308156Y74945750D01*
X-11980547Y75436051D01*
X-11865506Y76014400D01*
X-11980547Y76592749D01*
X-12048420Y76694328D01*
X-7612046Y72257954D01*
X-7381705Y72104046D01*
X-7110000Y72050000D01*
X-1570000Y72050000D01*
X-1570000Y18444105D01*
X-1772927Y18647386D01*
X-2373453Y18896746D01*
X-3023694Y18897314D01*
X-3624655Y18649002D01*
X-4084846Y18189613D01*
X-4334206Y17589087D01*
X-4334774Y16938846D01*
X-4086462Y16337885D01*
X-3627073Y15877694D01*
X-3026547Y15628334D01*
X-2376306Y15627766D01*
X-1775345Y15876078D01*
X-1570000Y16081065D01*
X-1570000Y470000D01*
X-16965610Y470000D01*
X-16965610Y2259490D01*
X-17009888Y2494807D01*
X-17148960Y2710931D01*
X-17361160Y2855921D01*
X-17613050Y2906930D01*
X-19612030Y2906930D01*
X-19847347Y2862652D01*
X-20063471Y2723580D01*
X-20208461Y2511380D01*
X-20259470Y2259490D01*
X-20259470Y2020000D01*
X-33795198Y2020000D01*
X-34872599Y3097401D01*
X-35119161Y3262148D01*
X-35410000Y3320000D01*
X-36065610Y3320000D01*
X-36065610Y3559490D01*
X-36109888Y3794807D01*
X-36248960Y4010931D01*
X-36461160Y4155921D01*
X-36713050Y4206930D01*
X-38712030Y4206930D01*
X-38947347Y4162652D01*
X-39163471Y4023580D01*
X-39308461Y3811380D01*
X-39359470Y3559490D01*
X-39359470Y3320000D01*
X-55065610Y3320000D01*
X-55065610Y3659490D01*
X-55109888Y3894807D01*
X-55248960Y4110931D01*
X-55461160Y4255921D01*
X-55713050Y4306930D01*
X-57712030Y4306930D01*
X-57947347Y4262652D01*
X-58163471Y4123580D01*
X-58308461Y3911380D01*
X-58359470Y3659490D01*
X-58359470Y3420000D01*
X-74126996Y3420000D01*
X-74159888Y3594807D01*
X-74298960Y3810931D01*
X-74511160Y3955921D01*
X-74763050Y4006930D01*
X-76762030Y4006930D01*
X-76997347Y3962652D01*
X-77213471Y3823580D01*
X-77358461Y3611380D01*
X-77409470Y3359490D01*
X-77409470Y2270000D01*
X-93215610Y2270000D01*
X-93215610Y2509490D01*
X-93259888Y2744807D01*
X-93398960Y2960931D01*
X-93611160Y3105921D01*
X-93863050Y3156930D01*
X-95862030Y3156930D01*
X-96097347Y3112652D01*
X-96313471Y2973580D01*
X-96458461Y2761380D01*
X-96509470Y2509490D01*
X-96509470Y510510D01*
X-96501848Y470000D01*
X-112150000Y470000D01*
X-112150000Y7315732D01*
X-110926163Y7315732D01*
X-110700424Y6769402D01*
X-110282797Y6351045D01*
X-109736862Y6124353D01*
X-109145732Y6123837D01*
X-108599402Y6349576D01*
X-108181045Y6767203D01*
X-108047269Y7089373D01*
X-106989360Y7089373D01*
X-106589976Y6122791D01*
X-105851099Y5382623D01*
X-104885216Y4981553D01*
X-103839373Y4980640D01*
X-102872791Y5380024D01*
X-102132623Y6118901D01*
X-101731553Y7084784D01*
X-101730640Y8130627D01*
X-102130024Y9097209D01*
X-102868901Y9837377D01*
X-103834784Y10238447D01*
X-104880627Y10239360D01*
X-105847209Y9839976D01*
X-106587377Y9101099D01*
X-106988447Y8135216D01*
X-106989360Y7089373D01*
X-108047269Y7089373D01*
X-107954353Y7313138D01*
X-107953837Y7904268D01*
X-108099342Y8256418D01*
X-107678333Y8291032D01*
X-107024175Y8627223D01*
X-106548468Y9188158D01*
X-105817138Y10504803D01*
X-105396909Y10829008D01*
X-105030833Y11466922D01*
X-104936742Y12196369D01*
X-104936742Y12196370D01*
X-103743258Y12196370D01*
X-103649167Y11466923D01*
X-103283091Y10829008D01*
X-102700762Y10379743D01*
X-102632713Y10361318D01*
X-101983007Y9189219D01*
X-101507789Y8627869D01*
X-100853924Y8291108D01*
X-100614360Y8271202D01*
X-100765647Y7906862D01*
X-100766163Y7315732D01*
X-100540424Y6769402D01*
X-100122797Y6351045D01*
X-99576862Y6124353D01*
X-98985732Y6123837D01*
X-98439402Y6349576D01*
X-98021045Y6767203D01*
X-97794353Y7313138D01*
X-97794220Y7465732D01*
X-91876163Y7465732D01*
X-91650424Y6919402D01*
X-91232797Y6501045D01*
X-90686862Y6274353D01*
X-90095732Y6273837D01*
X-89549402Y6499576D01*
X-89131045Y6917203D01*
X-88997269Y7239373D01*
X-87939360Y7239373D01*
X-87539976Y6272791D01*
X-86801099Y5532623D01*
X-85835216Y5131553D01*
X-84789373Y5130640D01*
X-83822791Y5530024D01*
X-83082623Y6268901D01*
X-82681553Y7234784D01*
X-82680640Y8280627D01*
X-83080024Y9247209D01*
X-83818901Y9987377D01*
X-84784784Y10388447D01*
X-85830627Y10389360D01*
X-86797209Y9989976D01*
X-87537377Y9251099D01*
X-87938447Y8285216D01*
X-87939360Y7239373D01*
X-88997269Y7239373D01*
X-88904353Y7463138D01*
X-88903837Y8054268D01*
X-89049342Y8406418D01*
X-88628333Y8441032D01*
X-87974175Y8777223D01*
X-87498468Y9338158D01*
X-86767138Y10654803D01*
X-86346909Y10979008D01*
X-85980833Y11616922D01*
X-85886742Y12346369D01*
X-85886742Y12346370D01*
X-84693258Y12346370D01*
X-84599167Y11616923D01*
X-84233091Y10979008D01*
X-83650762Y10529743D01*
X-83582713Y10511318D01*
X-82933007Y9339219D01*
X-82457789Y8777869D01*
X-81803924Y8441108D01*
X-81564360Y8421202D01*
X-81715647Y8056862D01*
X-81716163Y7465732D01*
X-81490424Y6919402D01*
X-81072797Y6501045D01*
X-80526862Y6274353D01*
X-79935732Y6273837D01*
X-79389402Y6499576D01*
X-78971045Y6917203D01*
X-78744353Y7463138D01*
X-78744351Y7465732D01*
X-72826163Y7465732D01*
X-72600424Y6919402D01*
X-72182797Y6501045D01*
X-71636862Y6274353D01*
X-71045732Y6273837D01*
X-70499402Y6499576D01*
X-70081045Y6917203D01*
X-69947269Y7239373D01*
X-68889360Y7239373D01*
X-68489976Y6272791D01*
X-67751099Y5532623D01*
X-66785216Y5131553D01*
X-65739373Y5130640D01*
X-64772791Y5530024D01*
X-64032623Y6268901D01*
X-63631553Y7234784D01*
X-63630640Y8280627D01*
X-64030024Y9247209D01*
X-64768901Y9987377D01*
X-65734784Y10388447D01*
X-66780627Y10389360D01*
X-67747209Y9989976D01*
X-68487377Y9251099D01*
X-68888447Y8285216D01*
X-68889360Y7239373D01*
X-69947269Y7239373D01*
X-69854353Y7463138D01*
X-69853837Y8054268D01*
X-69999342Y8406418D01*
X-69578333Y8441032D01*
X-68924175Y8777223D01*
X-68448468Y9338158D01*
X-67717138Y10654803D01*
X-67296909Y10979008D01*
X-66930833Y11616922D01*
X-66836742Y12346369D01*
X-66836742Y12346370D01*
X-65643258Y12346370D01*
X-65549167Y11616923D01*
X-65183091Y10979008D01*
X-64600762Y10529743D01*
X-64532713Y10511318D01*
X-63883007Y9339219D01*
X-63407789Y8777869D01*
X-62753924Y8441108D01*
X-62514360Y8421202D01*
X-62665647Y8056862D01*
X-62666163Y7465732D01*
X-62440424Y6919402D01*
X-62022797Y6501045D01*
X-61476862Y6274353D01*
X-60885732Y6273837D01*
X-60339402Y6499576D01*
X-59921045Y6917203D01*
X-59694353Y7463138D01*
X-59694351Y7465732D01*
X-53776163Y7465732D01*
X-53550424Y6919402D01*
X-53132797Y6501045D01*
X-52586862Y6274353D01*
X-51995732Y6273837D01*
X-51449402Y6499576D01*
X-51031045Y6917203D01*
X-50897269Y7239373D01*
X-49839360Y7239373D01*
X-49439976Y6272791D01*
X-48701099Y5532623D01*
X-47735216Y5131553D01*
X-46689373Y5130640D01*
X-45722791Y5530024D01*
X-44982623Y6268901D01*
X-44581553Y7234784D01*
X-44580640Y8280627D01*
X-44980024Y9247209D01*
X-45718901Y9987377D01*
X-46684784Y10388447D01*
X-47730627Y10389360D01*
X-48697209Y9989976D01*
X-49437377Y9251099D01*
X-49838447Y8285216D01*
X-49839360Y7239373D01*
X-50897269Y7239373D01*
X-50804353Y7463138D01*
X-50803837Y8054268D01*
X-50949342Y8406418D01*
X-50528333Y8441032D01*
X-49874175Y8777223D01*
X-49398468Y9338158D01*
X-48667138Y10654803D01*
X-48246909Y10979008D01*
X-47880833Y11616922D01*
X-47786742Y12346369D01*
X-47786742Y12346370D01*
X-46593258Y12346370D01*
X-46499167Y11616923D01*
X-46133091Y10979008D01*
X-45550762Y10529743D01*
X-45482713Y10511318D01*
X-44833007Y9339219D01*
X-44357789Y8777869D01*
X-43703924Y8441108D01*
X-43464360Y8421202D01*
X-43615647Y8056862D01*
X-43616163Y7465732D01*
X-43390424Y6919402D01*
X-42972797Y6501045D01*
X-42426862Y6274353D01*
X-41835732Y6273837D01*
X-41289402Y6499576D01*
X-40871045Y6917203D01*
X-40644353Y7463138D01*
X-40644351Y7465732D01*
X-34726163Y7465732D01*
X-34500424Y6919402D01*
X-34082797Y6501045D01*
X-33536862Y6274353D01*
X-32945732Y6273837D01*
X-32399402Y6499576D01*
X-31981045Y6917203D01*
X-31847269Y7239373D01*
X-30789360Y7239373D01*
X-30389976Y6272791D01*
X-29651099Y5532623D01*
X-28685216Y5131553D01*
X-27639373Y5130640D01*
X-26672791Y5530024D01*
X-25932623Y6268901D01*
X-25531553Y7234784D01*
X-25530640Y8280627D01*
X-25930024Y9247209D01*
X-26668901Y9987377D01*
X-27634784Y10388447D01*
X-28680627Y10389360D01*
X-29647209Y9989976D01*
X-30387377Y9251099D01*
X-30788447Y8285216D01*
X-30789360Y7239373D01*
X-31847269Y7239373D01*
X-31754353Y7463138D01*
X-31753837Y8054268D01*
X-31899342Y8406418D01*
X-31478333Y8441032D01*
X-30824175Y8777223D01*
X-30348468Y9338158D01*
X-29617138Y10654803D01*
X-29196909Y10979008D01*
X-28830833Y11616922D01*
X-28736742Y12346369D01*
X-28781988Y13010052D01*
X-28974207Y13719980D01*
X-29423472Y14302309D01*
X-30061387Y14668385D01*
X-30790834Y14762476D01*
X-31500762Y14570257D01*
X-32083091Y14120992D01*
X-32449167Y13483077D01*
X-32505351Y13047504D01*
X-32781533Y12721842D01*
X-33644188Y11168766D01*
X-33869024Y10468484D01*
X-33808758Y9735467D01*
X-33553258Y9238317D01*
X-34080598Y9020424D01*
X-34498955Y8602797D01*
X-34725647Y8056862D01*
X-34726163Y7465732D01*
X-40644351Y7465732D01*
X-40643837Y8054268D01*
X-40869576Y8600598D01*
X-41287203Y9018955D01*
X-41660547Y9173981D01*
X-41372371Y9733511D01*
X-41311466Y10466475D01*
X-41535691Y11166953D01*
X-42217133Y12396306D01*
X-39347314Y12396306D01*
X-39099002Y11795345D01*
X-38639613Y11335154D01*
X-38039087Y11085794D01*
X-37388846Y11085226D01*
X-36787885Y11333538D01*
X-36327694Y11792927D01*
X-36078334Y12393453D01*
X-36077766Y13043694D01*
X-36326078Y13644655D01*
X-36785467Y14104846D01*
X-37385993Y14354206D01*
X-38036234Y14354774D01*
X-38637195Y14106462D01*
X-39097386Y13647073D01*
X-39346746Y13046547D01*
X-39347314Y12396306D01*
X-42217133Y12396306D01*
X-42396993Y12720781D01*
X-42851803Y13258025D01*
X-42880833Y13483078D01*
X-43246909Y14120992D01*
X-43829238Y14570257D01*
X-44539166Y14762476D01*
X-45268613Y14668386D01*
X-45906528Y14302309D01*
X-46355793Y13719980D01*
X-46548012Y13010052D01*
X-46593258Y12346370D01*
X-47786742Y12346370D01*
X-47831988Y13010052D01*
X-48024207Y13719980D01*
X-48473472Y14302309D01*
X-49111387Y14668385D01*
X-49840834Y14762476D01*
X-50550762Y14570257D01*
X-51133091Y14120992D01*
X-51499167Y13483077D01*
X-51555351Y13047504D01*
X-51831533Y12721842D01*
X-52694188Y11168766D01*
X-52919024Y10468484D01*
X-52858758Y9735467D01*
X-52603258Y9238317D01*
X-53130598Y9020424D01*
X-53548955Y8602797D01*
X-53775647Y8056862D01*
X-53776163Y7465732D01*
X-59694351Y7465732D01*
X-59693837Y8054268D01*
X-59919576Y8600598D01*
X-60337203Y9018955D01*
X-60710547Y9173981D01*
X-60422371Y9733511D01*
X-60361466Y10466475D01*
X-60585691Y11166953D01*
X-61322564Y12496306D01*
X-58347314Y12496306D01*
X-58099002Y11895345D01*
X-57639613Y11435154D01*
X-57039087Y11185794D01*
X-56388846Y11185226D01*
X-55787885Y11433538D01*
X-55327694Y11892927D01*
X-55078334Y12493453D01*
X-55077766Y13143694D01*
X-55326078Y13744655D01*
X-55785467Y14204846D01*
X-56385993Y14454206D01*
X-57036234Y14454774D01*
X-57637195Y14206462D01*
X-58097386Y13747073D01*
X-58346746Y13146547D01*
X-58347314Y12496306D01*
X-61322564Y12496306D01*
X-61446993Y12720781D01*
X-61901803Y13258025D01*
X-61930833Y13483078D01*
X-62296909Y14120992D01*
X-62879238Y14570257D01*
X-63589166Y14762476D01*
X-64318613Y14668386D01*
X-64956528Y14302309D01*
X-65405793Y13719980D01*
X-65598012Y13010052D01*
X-65643258Y12346370D01*
X-66836742Y12346370D01*
X-66881988Y13010052D01*
X-67074207Y13719980D01*
X-67523472Y14302309D01*
X-68161387Y14668385D01*
X-68890834Y14762476D01*
X-69600762Y14570257D01*
X-70183091Y14120992D01*
X-70549167Y13483077D01*
X-70605351Y13047504D01*
X-70881533Y12721842D01*
X-71744188Y11168766D01*
X-71969024Y10468484D01*
X-71908758Y9735467D01*
X-71653258Y9238317D01*
X-72180598Y9020424D01*
X-72598955Y8602797D01*
X-72825647Y8056862D01*
X-72826163Y7465732D01*
X-78744351Y7465732D01*
X-78743837Y8054268D01*
X-78969576Y8600598D01*
X-79387203Y9018955D01*
X-79760547Y9173981D01*
X-79472371Y9733511D01*
X-79411466Y10466475D01*
X-79635691Y11166953D01*
X-80206271Y12196306D01*
X-77397314Y12196306D01*
X-77149002Y11595345D01*
X-76689613Y11135154D01*
X-76089087Y10885794D01*
X-75438846Y10885226D01*
X-74837885Y11133538D01*
X-74377694Y11592927D01*
X-74128334Y12193453D01*
X-74127766Y12843694D01*
X-74376078Y13444655D01*
X-74835467Y13904846D01*
X-75435993Y14154206D01*
X-76086234Y14154774D01*
X-76687195Y13906462D01*
X-77147386Y13447073D01*
X-77396746Y12846547D01*
X-77397314Y12196306D01*
X-80206271Y12196306D01*
X-80496993Y12720781D01*
X-80951803Y13258025D01*
X-80980833Y13483078D01*
X-81346909Y14120992D01*
X-81929238Y14570257D01*
X-82639166Y14762476D01*
X-83368613Y14668386D01*
X-84006528Y14302309D01*
X-84455793Y13719980D01*
X-84648012Y13010052D01*
X-84693258Y12346370D01*
X-85886742Y12346370D01*
X-85931988Y13010052D01*
X-86124207Y13719980D01*
X-86573472Y14302309D01*
X-87211387Y14668385D01*
X-87940834Y14762476D01*
X-88650762Y14570257D01*
X-89233091Y14120992D01*
X-89599167Y13483077D01*
X-89655351Y13047504D01*
X-89931533Y12721842D01*
X-90794188Y11168766D01*
X-91019024Y10468484D01*
X-90958758Y9735467D01*
X-90703258Y9238317D01*
X-91230598Y9020424D01*
X-91648955Y8602797D01*
X-91875647Y8056862D01*
X-91876163Y7465732D01*
X-97794220Y7465732D01*
X-97793837Y7904268D01*
X-98019576Y8450598D01*
X-98437203Y8868955D01*
X-98810547Y9023981D01*
X-98522371Y9583511D01*
X-98461466Y10316475D01*
X-98685691Y11016953D01*
X-99546993Y12570781D01*
X-100001803Y13108025D01*
X-100030833Y13333078D01*
X-100396909Y13970992D01*
X-100979238Y14420257D01*
X-101689166Y14612476D01*
X-102418613Y14518386D01*
X-103056528Y14152309D01*
X-103505793Y13569980D01*
X-103698012Y12860052D01*
X-103743258Y12196370D01*
X-104936742Y12196370D01*
X-104981988Y12860052D01*
X-105174207Y13569980D01*
X-105623472Y14152309D01*
X-106261387Y14518385D01*
X-106990834Y14612476D01*
X-107700762Y14420257D01*
X-108283091Y13970992D01*
X-108649167Y13333077D01*
X-108705351Y12897504D01*
X-108981533Y12571842D01*
X-109844188Y11018766D01*
X-110069024Y10318484D01*
X-110008758Y9585467D01*
X-109753258Y9088317D01*
X-110280598Y8870424D01*
X-110698955Y8452797D01*
X-110925647Y7906862D01*
X-110926163Y7315732D01*
X-112150000Y7315732D01*
X-112150000Y16342086D01*
X-99495803Y16342086D01*
X-98791653Y14637913D01*
X-97488945Y13332929D01*
X-96091520Y12752668D01*
X-96247386Y12597073D01*
X-96496746Y11996547D01*
X-96497314Y11346306D01*
X-96249002Y10745345D01*
X-95789613Y10285154D01*
X-95189087Y10035794D01*
X-94538846Y10035226D01*
X-93937885Y10283538D01*
X-93477694Y10742927D01*
X-93228334Y11343453D01*
X-93227766Y11993694D01*
X-93476078Y12594655D01*
X-93633041Y12751892D01*
X-92237913Y13328347D01*
X-90932929Y14631055D01*
X-90225806Y16333997D01*
X-90224197Y18177914D01*
X-90258953Y18262030D01*
X-36256930Y18262030D01*
X-36256930Y16263050D01*
X-36212652Y16027733D01*
X-36073580Y15811609D01*
X-35861380Y15666619D01*
X-35609490Y15615610D01*
X-33610510Y15615610D01*
X-33375193Y15659888D01*
X-33159069Y15798960D01*
X-33014079Y16011160D01*
X-32963070Y16263050D01*
X-32963070Y18262030D01*
X-33007348Y18497347D01*
X-33146420Y18713471D01*
X-33358620Y18858461D01*
X-33610510Y18909470D01*
X-35609490Y18909470D01*
X-35844807Y18865192D01*
X-36060931Y18726120D01*
X-36205921Y18513920D01*
X-36256930Y18262030D01*
X-90258953Y18262030D01*
X-90928347Y19882087D01*
X-92231055Y21187071D01*
X-93341958Y21648358D01*
X-93266619Y21758620D01*
X-93215610Y22010510D01*
X-93215610Y22250000D01*
X-87674802Y22250000D01*
X-86697401Y21272599D01*
X-86450840Y21107852D01*
X-86160000Y21050000D01*
X-77459470Y21050000D01*
X-77459470Y20810510D01*
X-77415192Y20575193D01*
X-77276120Y20359069D01*
X-77063920Y20214079D01*
X-76812030Y20163070D01*
X-74813050Y20163070D01*
X-74577733Y20207348D01*
X-74361609Y20346420D01*
X-74216619Y20558620D01*
X-74208239Y20600000D01*
X-58259470Y20600000D01*
X-58259470Y20360510D01*
X-58215192Y20125193D01*
X-58076120Y19909069D01*
X-57863920Y19764079D01*
X-57612030Y19713070D01*
X-55613050Y19713070D01*
X-55377733Y19757348D01*
X-55161609Y19896420D01*
X-55016619Y20108620D01*
X-54965610Y20360510D01*
X-54965610Y20600000D01*
X-39209470Y20600000D01*
X-39209470Y20360510D01*
X-39165192Y20125193D01*
X-39026120Y19909069D01*
X-38813920Y19764079D01*
X-38562030Y19713070D01*
X-36563050Y19713070D01*
X-36327733Y19757348D01*
X-36111609Y19896420D01*
X-35966619Y20108620D01*
X-35915610Y20360510D01*
X-35915610Y21932128D01*
X-34847738Y23000000D01*
X-20259470Y23000000D01*
X-20259470Y22760510D01*
X-20215192Y22525193D01*
X-20076120Y22309069D01*
X-19863920Y22164079D01*
X-19612030Y22113070D01*
X-18040412Y22113070D01*
X-17771700Y21844358D01*
X-19427914Y21845803D01*
X-21132087Y21141653D01*
X-22437071Y19838945D01*
X-23105488Y18229218D01*
X-23522927Y18647386D01*
X-24123453Y18896746D01*
X-24773694Y18897314D01*
X-25374655Y18649002D01*
X-25834846Y18189613D01*
X-26084206Y17589087D01*
X-26084774Y16938846D01*
X-25836462Y16337885D01*
X-25377073Y15877694D01*
X-24776547Y15628334D01*
X-24126306Y15627766D01*
X-23525345Y15876078D01*
X-23134942Y16265801D01*
X-22441653Y14587913D01*
X-21138945Y13282929D01*
X-19670650Y12673240D01*
X-19997386Y12347073D01*
X-20066761Y12180000D01*
X-23047233Y12180000D01*
X-23346993Y12720781D01*
X-23801803Y13258025D01*
X-23830833Y13483078D01*
X-24196909Y14120992D01*
X-24779238Y14570257D01*
X-25489166Y14762476D01*
X-26218613Y14668386D01*
X-26856528Y14302309D01*
X-27305793Y13719980D01*
X-27498012Y13010052D01*
X-27543258Y12346370D01*
X-27449167Y11616923D01*
X-27083091Y10979008D01*
X-26500762Y10529743D01*
X-26432713Y10511318D01*
X-25783007Y9339219D01*
X-25307789Y8777869D01*
X-24653924Y8441108D01*
X-24414360Y8421202D01*
X-24565647Y8056862D01*
X-24566163Y7465732D01*
X-24340424Y6919402D01*
X-23922797Y6501045D01*
X-23376862Y6274353D01*
X-22785732Y6273837D01*
X-22239402Y6499576D01*
X-21821045Y6917203D01*
X-21594353Y7463138D01*
X-21594351Y7465732D01*
X-15676163Y7465732D01*
X-15450424Y6919402D01*
X-15032797Y6501045D01*
X-14486862Y6274353D01*
X-13895732Y6273837D01*
X-13349402Y6499576D01*
X-12931045Y6917203D01*
X-12797269Y7239373D01*
X-11739360Y7239373D01*
X-11339976Y6272791D01*
X-10601099Y5532623D01*
X-9635216Y5131553D01*
X-8589373Y5130640D01*
X-7622791Y5530024D01*
X-6882623Y6268901D01*
X-6481553Y7234784D01*
X-6480640Y8280627D01*
X-6880024Y9247209D01*
X-7618901Y9987377D01*
X-8584784Y10388447D01*
X-9630627Y10389360D01*
X-10597209Y9989976D01*
X-11337377Y9251099D01*
X-11738447Y8285216D01*
X-11739360Y7239373D01*
X-12797269Y7239373D01*
X-12704353Y7463138D01*
X-12703837Y8054268D01*
X-12849342Y8406418D01*
X-12428333Y8441032D01*
X-11774175Y8777223D01*
X-11298468Y9338158D01*
X-10567138Y10654803D01*
X-10146909Y10979008D01*
X-9780833Y11616922D01*
X-9686742Y12346369D01*
X-9686742Y12346370D01*
X-8493258Y12346370D01*
X-8399167Y11616923D01*
X-8033091Y10979008D01*
X-7450762Y10529743D01*
X-7382713Y10511318D01*
X-6733007Y9339219D01*
X-6257789Y8777869D01*
X-5603924Y8441108D01*
X-5364360Y8421202D01*
X-5515647Y8056862D01*
X-5516163Y7465732D01*
X-5290424Y6919402D01*
X-4872797Y6501045D01*
X-4326862Y6274353D01*
X-3735732Y6273837D01*
X-3189402Y6499576D01*
X-2771045Y6917203D01*
X-2544353Y7463138D01*
X-2543837Y8054268D01*
X-2769576Y8600598D01*
X-3187203Y9018955D01*
X-3560547Y9173981D01*
X-3272371Y9733511D01*
X-3211466Y10466475D01*
X-3435691Y11166953D01*
X-4296993Y12720781D01*
X-4751803Y13258025D01*
X-4780833Y13483078D01*
X-5146909Y14120992D01*
X-5729238Y14570257D01*
X-6439166Y14762476D01*
X-7168613Y14668386D01*
X-7806528Y14302309D01*
X-8255793Y13719980D01*
X-8448012Y13010052D01*
X-8493258Y12346370D01*
X-9686742Y12346370D01*
X-9731988Y13010052D01*
X-9924207Y13719980D01*
X-10373472Y14302309D01*
X-11011387Y14668385D01*
X-11740834Y14762476D01*
X-12450762Y14570257D01*
X-13033091Y14120992D01*
X-13399167Y13483077D01*
X-13455351Y13047504D01*
X-13731533Y12721842D01*
X-14594188Y11168766D01*
X-14819024Y10468484D01*
X-14758758Y9735467D01*
X-14503258Y9238317D01*
X-15030598Y9020424D01*
X-15448955Y8602797D01*
X-15675647Y8056862D01*
X-15676163Y7465732D01*
X-21594351Y7465732D01*
X-21593837Y8054268D01*
X-21819576Y8600598D01*
X-22237203Y9018955D01*
X-22610547Y9173981D01*
X-22322371Y9733511D01*
X-22261466Y10466475D01*
X-22323414Y10660000D01*
X-20067036Y10660000D01*
X-19999002Y10495345D01*
X-19539613Y10035154D01*
X-18939087Y9785794D01*
X-18288846Y9785226D01*
X-17687885Y10033538D01*
X-17227694Y10492927D01*
X-16978334Y11093453D01*
X-16977766Y11743694D01*
X-17226078Y12344655D01*
X-17495188Y12614235D01*
X-15887913Y13278347D01*
X-14582929Y14581055D01*
X-14127570Y15677681D01*
X-14111380Y15666619D01*
X-13859490Y15615610D01*
X-11860510Y15615610D01*
X-11625193Y15659888D01*
X-11409069Y15798960D01*
X-11264079Y16011160D01*
X-11213070Y16263050D01*
X-11213070Y18262030D01*
X-11257348Y18497347D01*
X-11396420Y18713471D01*
X-11608620Y18858461D01*
X-11860510Y18909470D01*
X-12687208Y18909470D01*
X-16965610Y23187872D01*
X-16965610Y24759490D01*
X-17009888Y24994807D01*
X-17148960Y25210931D01*
X-17361160Y25355921D01*
X-17613050Y25406930D01*
X-19612030Y25406930D01*
X-19847347Y25362652D01*
X-20063471Y25223580D01*
X-20208461Y25011380D01*
X-20259470Y24759490D01*
X-20259470Y24520000D01*
X-26818060Y24520000D01*
X-26672791Y24580024D01*
X-25932623Y25318901D01*
X-25531553Y26284784D01*
X-25530640Y27330627D01*
X-25930024Y28297209D01*
X-26668901Y29037377D01*
X-27634784Y29438447D01*
X-28680627Y29439360D01*
X-29647209Y29039976D01*
X-30387377Y28301099D01*
X-30788447Y27335216D01*
X-30789360Y26289373D01*
X-30389976Y25322791D01*
X-29651099Y24582623D01*
X-29500286Y24520000D01*
X-35162540Y24520000D01*
X-35453379Y24462148D01*
X-35699941Y24297401D01*
X-36990412Y23006930D01*
X-38562030Y23006930D01*
X-38797347Y22962652D01*
X-39013471Y22823580D01*
X-39158461Y22611380D01*
X-39209470Y22359490D01*
X-39209470Y22120000D01*
X-54965610Y22120000D01*
X-54965610Y22359490D01*
X-55009888Y22594807D01*
X-55148960Y22810931D01*
X-55361160Y22955921D01*
X-55613050Y23006930D01*
X-57612030Y23006930D01*
X-57847347Y22962652D01*
X-58063471Y22823580D01*
X-58208461Y22611380D01*
X-58259470Y22359490D01*
X-58259470Y22120000D01*
X-74165610Y22120000D01*
X-74165610Y22809490D01*
X-74209888Y23044807D01*
X-74348960Y23260931D01*
X-74561160Y23405921D01*
X-74813050Y23456930D01*
X-76812030Y23456930D01*
X-77047347Y23412652D01*
X-77263471Y23273580D01*
X-77408461Y23061380D01*
X-77459470Y22809490D01*
X-77459470Y22570000D01*
X-85845198Y22570000D01*
X-86822599Y23547401D01*
X-87069161Y23712148D01*
X-87360000Y23770000D01*
X-93215610Y23770000D01*
X-93215610Y24009490D01*
X-93259888Y24244807D01*
X-93398960Y24460931D01*
X-93611160Y24605921D01*
X-93863050Y24656930D01*
X-95862030Y24656930D01*
X-96097347Y24612652D01*
X-96313471Y24473580D01*
X-96458461Y24261380D01*
X-96509470Y24009490D01*
X-96509470Y22010510D01*
X-96465192Y21775193D01*
X-96382148Y21646139D01*
X-97482087Y21191653D01*
X-98787071Y19888945D01*
X-99494194Y18186003D01*
X-99495803Y16342086D01*
X-112150000Y16342086D01*
X-112150000Y26465732D01*
X-110926163Y26465732D01*
X-110700424Y25919402D01*
X-110282797Y25501045D01*
X-109736862Y25274353D01*
X-109145732Y25273837D01*
X-108599402Y25499576D01*
X-108181045Y25917203D01*
X-108047269Y26239373D01*
X-106989360Y26239373D01*
X-106589976Y25272791D01*
X-105851099Y24532623D01*
X-104885216Y24131553D01*
X-103839373Y24130640D01*
X-102872791Y24530024D01*
X-102132623Y25268901D01*
X-101731553Y26234784D01*
X-101730640Y27280627D01*
X-102130024Y28247209D01*
X-102868901Y28987377D01*
X-103834784Y29388447D01*
X-104880627Y29389360D01*
X-105847209Y28989976D01*
X-106587377Y28251099D01*
X-106988447Y27285216D01*
X-106989360Y26239373D01*
X-108047269Y26239373D01*
X-107954353Y26463138D01*
X-107953837Y27054268D01*
X-108099342Y27406418D01*
X-107678333Y27441032D01*
X-107024175Y27777223D01*
X-106548468Y28338158D01*
X-105817138Y29654803D01*
X-105396909Y29979008D01*
X-105030833Y30616922D01*
X-104936742Y31346369D01*
X-104936742Y31346370D01*
X-103743258Y31346370D01*
X-103649167Y30616923D01*
X-103283091Y29979008D01*
X-102700762Y29529743D01*
X-102632713Y29511318D01*
X-101983007Y28339219D01*
X-101507789Y27777869D01*
X-100853924Y27441108D01*
X-100614360Y27421202D01*
X-100765647Y27056862D01*
X-100766163Y26465732D01*
X-100540424Y25919402D01*
X-100122797Y25501045D01*
X-99576862Y25274353D01*
X-98985732Y25273837D01*
X-98439402Y25499576D01*
X-98021045Y25917203D01*
X-97794353Y26463138D01*
X-97794308Y26515732D01*
X-91876163Y26515732D01*
X-91650424Y25969402D01*
X-91232797Y25551045D01*
X-90686862Y25324353D01*
X-90095732Y25323837D01*
X-89549402Y25549576D01*
X-89131045Y25967203D01*
X-88997269Y26289373D01*
X-87939360Y26289373D01*
X-87539976Y25322791D01*
X-86801099Y24582623D01*
X-85835216Y24181553D01*
X-84789373Y24180640D01*
X-83822791Y24580024D01*
X-83082623Y25318901D01*
X-82681553Y26284784D01*
X-82680640Y27330627D01*
X-83080024Y28297209D01*
X-83818901Y29037377D01*
X-84784784Y29438447D01*
X-85830627Y29439360D01*
X-86797209Y29039976D01*
X-87537377Y28301099D01*
X-87938447Y27335216D01*
X-87939360Y26289373D01*
X-88997269Y26289373D01*
X-88904353Y26513138D01*
X-88903837Y27104268D01*
X-89049342Y27456418D01*
X-88628333Y27491032D01*
X-87974175Y27827223D01*
X-87498468Y28388158D01*
X-86767138Y29704803D01*
X-86346909Y30029008D01*
X-85980833Y30666922D01*
X-85886742Y31396369D01*
X-85886742Y31396370D01*
X-84693258Y31396370D01*
X-84599167Y30666923D01*
X-84233091Y30029008D01*
X-83650762Y29579743D01*
X-83582713Y29561318D01*
X-82933007Y28389219D01*
X-82457789Y27827869D01*
X-81803924Y27491108D01*
X-81564360Y27471202D01*
X-81715647Y27106862D01*
X-81716163Y26515732D01*
X-81490424Y25969402D01*
X-81072797Y25551045D01*
X-80526862Y25324353D01*
X-79935732Y25323837D01*
X-79389402Y25549576D01*
X-78971045Y25967203D01*
X-78744353Y26513138D01*
X-78744351Y26515732D01*
X-72826163Y26515732D01*
X-72600424Y25969402D01*
X-72182797Y25551045D01*
X-71636862Y25324353D01*
X-71045732Y25323837D01*
X-70499402Y25549576D01*
X-70081045Y25967203D01*
X-69947269Y26289373D01*
X-68889360Y26289373D01*
X-68489976Y25322791D01*
X-67751099Y24582623D01*
X-66785216Y24181553D01*
X-65739373Y24180640D01*
X-64772791Y24580024D01*
X-64032623Y25318901D01*
X-63631553Y26284784D01*
X-63630640Y27330627D01*
X-64030024Y28297209D01*
X-64768901Y29037377D01*
X-65734784Y29438447D01*
X-66780627Y29439360D01*
X-67747209Y29039976D01*
X-68487377Y28301099D01*
X-68888447Y27335216D01*
X-68889360Y26289373D01*
X-69947269Y26289373D01*
X-69854353Y26513138D01*
X-69853837Y27104268D01*
X-69999342Y27456418D01*
X-69578333Y27491032D01*
X-68924175Y27827223D01*
X-68448468Y28388158D01*
X-67717138Y29704803D01*
X-67296909Y30029008D01*
X-66930833Y30666922D01*
X-66836742Y31396369D01*
X-66836742Y31396370D01*
X-65643258Y31396370D01*
X-65549167Y30666923D01*
X-65183091Y30029008D01*
X-64600762Y29579743D01*
X-64532713Y29561318D01*
X-63883007Y28389219D01*
X-63407789Y27827869D01*
X-62753924Y27491108D01*
X-62514360Y27471202D01*
X-62665647Y27106862D01*
X-62666163Y26515732D01*
X-62440424Y25969402D01*
X-62022797Y25551045D01*
X-61476862Y25324353D01*
X-60885732Y25323837D01*
X-60339402Y25549576D01*
X-59921045Y25967203D01*
X-59694353Y26513138D01*
X-59694351Y26515732D01*
X-53776163Y26515732D01*
X-53550424Y25969402D01*
X-53132797Y25551045D01*
X-52586862Y25324353D01*
X-51995732Y25323837D01*
X-51449402Y25549576D01*
X-51031045Y25967203D01*
X-50897269Y26289373D01*
X-49839360Y26289373D01*
X-49439976Y25322791D01*
X-48701099Y24582623D01*
X-47735216Y24181553D01*
X-46689373Y24180640D01*
X-45722791Y24580024D01*
X-44982623Y25318901D01*
X-44581553Y26284784D01*
X-44580640Y27330627D01*
X-44980024Y28297209D01*
X-45718901Y29037377D01*
X-46684784Y29438447D01*
X-47730627Y29439360D01*
X-48697209Y29039976D01*
X-49437377Y28301099D01*
X-49838447Y27335216D01*
X-49839360Y26289373D01*
X-50897269Y26289373D01*
X-50804353Y26513138D01*
X-50803837Y27104268D01*
X-50949342Y27456418D01*
X-50528333Y27491032D01*
X-49874175Y27827223D01*
X-49398468Y28388158D01*
X-48667138Y29704803D01*
X-48246909Y30029008D01*
X-47880833Y30666922D01*
X-47786742Y31396369D01*
X-47786742Y31396370D01*
X-46593258Y31396370D01*
X-46499167Y30666923D01*
X-46133091Y30029008D01*
X-45550762Y29579743D01*
X-45482713Y29561318D01*
X-44833007Y28389219D01*
X-44357789Y27827869D01*
X-43703924Y27491108D01*
X-43464360Y27471202D01*
X-43615647Y27106862D01*
X-43616163Y26515732D01*
X-43390424Y25969402D01*
X-42972797Y25551045D01*
X-42426862Y25324353D01*
X-41835732Y25323837D01*
X-41289402Y25549576D01*
X-40871045Y25967203D01*
X-40644353Y26513138D01*
X-40644351Y26515732D01*
X-34726163Y26515732D01*
X-34500424Y25969402D01*
X-34082797Y25551045D01*
X-33536862Y25324353D01*
X-32945732Y25323837D01*
X-32399402Y25549576D01*
X-31981045Y25967203D01*
X-31754353Y26513138D01*
X-31753837Y27104268D01*
X-31899342Y27456418D01*
X-31478333Y27491032D01*
X-30824175Y27827223D01*
X-30348468Y28388158D01*
X-29617138Y29704803D01*
X-29196909Y30029008D01*
X-28830833Y30666922D01*
X-28736742Y31396369D01*
X-28736742Y31396370D01*
X-27543258Y31396370D01*
X-27449167Y30666923D01*
X-27083091Y30029008D01*
X-26500762Y29579743D01*
X-26432713Y29561318D01*
X-25783007Y28389219D01*
X-25307789Y27827869D01*
X-24653924Y27491108D01*
X-24414360Y27471202D01*
X-24565647Y27106862D01*
X-24566163Y26515732D01*
X-24340424Y25969402D01*
X-23922797Y25551045D01*
X-23376862Y25324353D01*
X-22785732Y25323837D01*
X-22239402Y25549576D01*
X-21821045Y25967203D01*
X-21594353Y26513138D01*
X-21594351Y26515732D01*
X-15676163Y26515732D01*
X-15450424Y25969402D01*
X-15032797Y25551045D01*
X-14486862Y25324353D01*
X-13895732Y25323837D01*
X-13349402Y25549576D01*
X-12931045Y25967203D01*
X-12797269Y26289373D01*
X-11739360Y26289373D01*
X-11339976Y25322791D01*
X-10601099Y24582623D01*
X-9635216Y24181553D01*
X-8589373Y24180640D01*
X-7622791Y24580024D01*
X-6882623Y25318901D01*
X-6481553Y26284784D01*
X-6480640Y27330627D01*
X-6880024Y28297209D01*
X-7618901Y29037377D01*
X-8584784Y29438447D01*
X-9630627Y29439360D01*
X-10597209Y29039976D01*
X-11337377Y28301099D01*
X-11738447Y27335216D01*
X-11739360Y26289373D01*
X-12797269Y26289373D01*
X-12704353Y26513138D01*
X-12703837Y27104268D01*
X-12849342Y27456418D01*
X-12428333Y27491032D01*
X-11774175Y27827223D01*
X-11298468Y28388158D01*
X-10567138Y29704803D01*
X-10146909Y30029008D01*
X-9780833Y30666922D01*
X-9686742Y31396369D01*
X-9686742Y31396370D01*
X-8493258Y31396370D01*
X-8399167Y30666923D01*
X-8033091Y30029008D01*
X-7450762Y29579743D01*
X-7382713Y29561318D01*
X-6733007Y28389219D01*
X-6257789Y27827869D01*
X-5603924Y27491108D01*
X-5364360Y27471202D01*
X-5515647Y27106862D01*
X-5516163Y26515732D01*
X-5290424Y25969402D01*
X-4872797Y25551045D01*
X-4326862Y25324353D01*
X-3735732Y25323837D01*
X-3189402Y25549576D01*
X-2771045Y25967203D01*
X-2544353Y26513138D01*
X-2543837Y27104268D01*
X-2769576Y27650598D01*
X-3187203Y28068955D01*
X-3560547Y28223981D01*
X-3272371Y28783511D01*
X-3211466Y29516475D01*
X-3435691Y30216953D01*
X-4296993Y31770781D01*
X-4751803Y32308025D01*
X-4780833Y32533078D01*
X-5146909Y33170992D01*
X-5729238Y33620257D01*
X-6439166Y33812476D01*
X-7168613Y33718386D01*
X-7806528Y33352309D01*
X-8255793Y32769980D01*
X-8448012Y32060052D01*
X-8493258Y31396370D01*
X-9686742Y31396370D01*
X-9731988Y32060052D01*
X-9924207Y32769980D01*
X-10373472Y33352309D01*
X-11011387Y33718385D01*
X-11740834Y33812476D01*
X-12450762Y33620257D01*
X-13033091Y33170992D01*
X-13399167Y32533077D01*
X-13455351Y32097504D01*
X-13731533Y31771842D01*
X-14594188Y30218766D01*
X-14819024Y29518484D01*
X-14758758Y28785467D01*
X-14503258Y28288317D01*
X-15030598Y28070424D01*
X-15448955Y27652797D01*
X-15675647Y27106862D01*
X-15676163Y26515732D01*
X-21594351Y26515732D01*
X-21593837Y27104268D01*
X-21819576Y27650598D01*
X-22237203Y28068955D01*
X-22610547Y28223981D01*
X-22322371Y28783511D01*
X-22261466Y29516475D01*
X-22485691Y30216953D01*
X-23346993Y31770781D01*
X-23801803Y32308025D01*
X-23830833Y32533078D01*
X-24196909Y33170992D01*
X-24748193Y33596306D01*
X-20247314Y33596306D01*
X-19999002Y32995345D01*
X-19539613Y32535154D01*
X-18939087Y32285794D01*
X-18288846Y32285226D01*
X-17687885Y32533538D01*
X-17227694Y32992927D01*
X-16978334Y33593453D01*
X-16977766Y34243694D01*
X-17226078Y34844655D01*
X-17685467Y35304846D01*
X-18285993Y35554206D01*
X-18936234Y35554774D01*
X-19537195Y35306462D01*
X-19997386Y34847073D01*
X-20246746Y34246547D01*
X-20247314Y33596306D01*
X-24748193Y33596306D01*
X-24779238Y33620257D01*
X-25489166Y33812476D01*
X-26218613Y33718386D01*
X-26856528Y33352309D01*
X-27305793Y32769980D01*
X-27498012Y32060052D01*
X-27543258Y31396370D01*
X-28736742Y31396370D01*
X-28781988Y32060052D01*
X-28974207Y32769980D01*
X-29423472Y33352309D01*
X-30061387Y33718385D01*
X-30790834Y33812476D01*
X-31500762Y33620257D01*
X-32083091Y33170992D01*
X-32449167Y32533077D01*
X-32505351Y32097504D01*
X-32781533Y31771842D01*
X-33644188Y30218766D01*
X-33869024Y29518484D01*
X-33808758Y28785467D01*
X-33553258Y28288317D01*
X-34080598Y28070424D01*
X-34498955Y27652797D01*
X-34725647Y27106862D01*
X-34726163Y26515732D01*
X-40644351Y26515732D01*
X-40643837Y27104268D01*
X-40869576Y27650598D01*
X-41287203Y28068955D01*
X-41660547Y28223981D01*
X-41372371Y28783511D01*
X-41311466Y29516475D01*
X-41535691Y30216953D01*
X-42078555Y31196306D01*
X-39197314Y31196306D01*
X-38949002Y30595345D01*
X-38489613Y30135154D01*
X-37889087Y29885794D01*
X-37238846Y29885226D01*
X-36637885Y30133538D01*
X-36177694Y30592927D01*
X-35928334Y31193453D01*
X-35927766Y31843694D01*
X-36176078Y32444655D01*
X-36635467Y32904846D01*
X-37235993Y33154206D01*
X-37886234Y33154774D01*
X-38487195Y32906462D01*
X-38947386Y32447073D01*
X-39196746Y31846547D01*
X-39197314Y31196306D01*
X-42078555Y31196306D01*
X-42396993Y31770781D01*
X-42851803Y32308025D01*
X-42880833Y32533078D01*
X-43246909Y33170992D01*
X-43829238Y33620257D01*
X-44539166Y33812476D01*
X-45268613Y33718386D01*
X-45906528Y33352309D01*
X-46355793Y32769980D01*
X-46548012Y32060052D01*
X-46593258Y31396370D01*
X-47786742Y31396370D01*
X-47831988Y32060052D01*
X-48024207Y32769980D01*
X-48473472Y33352309D01*
X-49111387Y33718385D01*
X-49840834Y33812476D01*
X-50550762Y33620257D01*
X-51133091Y33170992D01*
X-51499167Y32533077D01*
X-51555351Y32097504D01*
X-51831533Y31771842D01*
X-52694188Y30218766D01*
X-52919024Y29518484D01*
X-52858758Y28785467D01*
X-52603258Y28288317D01*
X-53130598Y28070424D01*
X-53548955Y27652797D01*
X-53775647Y27106862D01*
X-53776163Y26515732D01*
X-59694351Y26515732D01*
X-59693837Y27104268D01*
X-59919576Y27650598D01*
X-60337203Y28068955D01*
X-60710547Y28223981D01*
X-60422371Y28783511D01*
X-60361466Y29516475D01*
X-60585691Y30216953D01*
X-61128555Y31196306D01*
X-58247314Y31196306D01*
X-57999002Y30595345D01*
X-57539613Y30135154D01*
X-56939087Y29885794D01*
X-56288846Y29885226D01*
X-55687885Y30133538D01*
X-55227694Y30592927D01*
X-54978334Y31193453D01*
X-54977766Y31843694D01*
X-55226078Y32444655D01*
X-55685467Y32904846D01*
X-56285993Y33154206D01*
X-56936234Y33154774D01*
X-57537195Y32906462D01*
X-57997386Y32447073D01*
X-58246746Y31846547D01*
X-58247314Y31196306D01*
X-61128555Y31196306D01*
X-61446993Y31770781D01*
X-61901803Y32308025D01*
X-61930833Y32533078D01*
X-62296909Y33170992D01*
X-62879238Y33620257D01*
X-63589166Y33812476D01*
X-64318613Y33718386D01*
X-64956528Y33352309D01*
X-65405793Y32769980D01*
X-65598012Y32060052D01*
X-65643258Y31396370D01*
X-66836742Y31396370D01*
X-66881988Y32060052D01*
X-67074207Y32769980D01*
X-67523472Y33352309D01*
X-68161387Y33718385D01*
X-68890834Y33812476D01*
X-69600762Y33620257D01*
X-70183091Y33170992D01*
X-70549167Y32533077D01*
X-70605351Y32097504D01*
X-70881533Y31771842D01*
X-71744188Y30218766D01*
X-71969024Y29518484D01*
X-71908758Y28785467D01*
X-71653258Y28288317D01*
X-72180598Y28070424D01*
X-72598955Y27652797D01*
X-72825647Y27106862D01*
X-72826163Y26515732D01*
X-78744351Y26515732D01*
X-78743837Y27104268D01*
X-78969576Y27650598D01*
X-79387203Y28068955D01*
X-79760547Y28223981D01*
X-79472371Y28783511D01*
X-79411466Y29516475D01*
X-79635691Y30216953D01*
X-80427995Y31646306D01*
X-77447314Y31646306D01*
X-77199002Y31045345D01*
X-76739613Y30585154D01*
X-76139087Y30335794D01*
X-75488846Y30335226D01*
X-74887885Y30583538D01*
X-74427694Y31042927D01*
X-74178334Y31643453D01*
X-74177766Y32293694D01*
X-74426078Y32894655D01*
X-74885467Y33354846D01*
X-75485993Y33604206D01*
X-76136234Y33604774D01*
X-76737195Y33356462D01*
X-77197386Y32897073D01*
X-77446746Y32296547D01*
X-77447314Y31646306D01*
X-80427995Y31646306D01*
X-80496993Y31770781D01*
X-80951803Y32308025D01*
X-80980833Y32533078D01*
X-81346909Y33170992D01*
X-81929238Y33620257D01*
X-82639166Y33812476D01*
X-83368613Y33718386D01*
X-84006528Y33352309D01*
X-84455793Y32769980D01*
X-84648012Y32060052D01*
X-84693258Y31396370D01*
X-85886742Y31396370D01*
X-85931988Y32060052D01*
X-86124207Y32769980D01*
X-86573472Y33352309D01*
X-87211387Y33718385D01*
X-87940834Y33812476D01*
X-88650762Y33620257D01*
X-89233091Y33170992D01*
X-89599167Y32533077D01*
X-89655351Y32097504D01*
X-89931533Y31771842D01*
X-90794188Y30218766D01*
X-91019024Y29518484D01*
X-90958758Y28785467D01*
X-90703258Y28288317D01*
X-91230598Y28070424D01*
X-91648955Y27652797D01*
X-91875647Y27106862D01*
X-91876163Y26515732D01*
X-97794308Y26515732D01*
X-97793837Y27054268D01*
X-98019576Y27600598D01*
X-98437203Y28018955D01*
X-98810547Y28173981D01*
X-98522371Y28733511D01*
X-98461466Y29466475D01*
X-98685691Y30166953D01*
X-99546993Y31720781D01*
X-100001803Y32258025D01*
X-100030833Y32483078D01*
X-100239276Y32846306D01*
X-96497314Y32846306D01*
X-96249002Y32245345D01*
X-95789613Y31785154D01*
X-95189087Y31535794D01*
X-94538846Y31535226D01*
X-93937885Y31783538D01*
X-93477694Y32242927D01*
X-93228334Y32843453D01*
X-93227766Y33493694D01*
X-93476078Y34094655D01*
X-93935467Y34554846D01*
X-94535993Y34804206D01*
X-95186234Y34804774D01*
X-95787195Y34556462D01*
X-96247386Y34097073D01*
X-96496746Y33496547D01*
X-96497314Y32846306D01*
X-100239276Y32846306D01*
X-100396909Y33120992D01*
X-100979238Y33570257D01*
X-101689166Y33762476D01*
X-102418613Y33668386D01*
X-103056528Y33302309D01*
X-103505793Y32719980D01*
X-103698012Y32010052D01*
X-103743258Y31346370D01*
X-104936742Y31346370D01*
X-104981988Y32010052D01*
X-105174207Y32719980D01*
X-105623472Y33302309D01*
X-106261387Y33668385D01*
X-106990834Y33762476D01*
X-107700762Y33570257D01*
X-108283091Y33120992D01*
X-108649167Y32483077D01*
X-108705351Y32047504D01*
X-108981533Y31721842D01*
X-109844188Y30168766D01*
X-110069024Y29468484D01*
X-110008758Y28735467D01*
X-109753258Y28238317D01*
X-110280598Y28020424D01*
X-110698955Y27602797D01*
X-110925647Y27056862D01*
X-110926163Y26465732D01*
X-112150000Y26465732D01*
X-112150000Y36033766D01*
X-111604774Y36033766D01*
X-111356462Y35432805D01*
X-110897073Y34972614D01*
X-110296547Y34723254D01*
X-109646306Y34722686D01*
X-109045345Y34970998D01*
X-108585154Y35430387D01*
X-108335794Y36030913D01*
X-108335226Y36681154D01*
X-108404309Y36848349D01*
X-100386930Y44865728D01*
X-100072797Y44551045D01*
X-99526862Y44324353D01*
X-98935732Y44323837D01*
X-98389402Y44549576D01*
X-97971045Y44967203D01*
X-97744353Y45513138D01*
X-97743837Y46104268D01*
X-97969576Y46650598D01*
X-98387203Y47068955D01*
X-98760547Y47223981D01*
X-98472371Y47783511D01*
X-98411466Y48516475D01*
X-98635691Y49216953D01*
X-99496993Y50770781D01*
X-99951803Y51308025D01*
X-99980833Y51533078D01*
X-100346909Y52170992D01*
X-100929238Y52620257D01*
X-101639166Y52812476D01*
X-102368613Y52718386D01*
X-103006528Y52352309D01*
X-103455793Y51769980D01*
X-103648012Y51060052D01*
X-103693258Y50396370D01*
X-103599167Y49666923D01*
X-103233091Y49029008D01*
X-102650762Y48579743D01*
X-102582713Y48561318D01*
X-101933007Y47389219D01*
X-101475000Y46848199D01*
X-101475000Y45927262D01*
X-101681172Y45721090D01*
X-101680640Y46330627D01*
X-102080024Y47297209D01*
X-102818901Y48037377D01*
X-103784784Y48438447D01*
X-104830627Y48439360D01*
X-105797209Y48039976D01*
X-106537377Y47301099D01*
X-106938447Y46335216D01*
X-106939360Y45289373D01*
X-106539976Y44322791D01*
X-105801099Y43582623D01*
X-104835216Y43181553D01*
X-104221245Y43181017D01*
X-109478917Y37923345D01*
X-109643453Y37991666D01*
X-110293694Y37992234D01*
X-110894655Y37743922D01*
X-111354846Y37284533D01*
X-111604206Y36684007D01*
X-111604774Y36033766D01*
X-112150000Y36033766D01*
X-112150000Y45515732D01*
X-110876163Y45515732D01*
X-110650424Y44969402D01*
X-110232797Y44551045D01*
X-109686862Y44324353D01*
X-109095732Y44323837D01*
X-108549402Y44549576D01*
X-108131045Y44967203D01*
X-107904353Y45513138D01*
X-107903837Y46104268D01*
X-108049342Y46456418D01*
X-107628333Y46491032D01*
X-106974175Y46827223D01*
X-106498468Y47388158D01*
X-105767138Y48704803D01*
X-105346909Y49029008D01*
X-104980833Y49666922D01*
X-104886742Y50396369D01*
X-104931988Y51060052D01*
X-105124207Y51769980D01*
X-105573472Y52352309D01*
X-106211387Y52718385D01*
X-106940834Y52812476D01*
X-107650762Y52620257D01*
X-108233091Y52170992D01*
X-108599167Y51533077D01*
X-108655351Y51097504D01*
X-108931533Y50771842D01*
X-109794188Y49218766D01*
X-110019024Y48518484D01*
X-109958758Y47785467D01*
X-109703258Y47288317D01*
X-110230598Y47070424D01*
X-110648955Y46652797D01*
X-110875647Y46106862D01*
X-110876163Y45515732D01*
X-112150000Y45515732D01*
X-112150000Y55083766D01*
X-110704774Y55083766D01*
X-110456462Y54482805D01*
X-109997073Y54022614D01*
X-109396547Y53773254D01*
X-108746306Y53772686D01*
X-108145345Y54020998D01*
X-107685154Y54480387D01*
X-107435794Y55080913D01*
X-107435226Y55731154D01*
X-107683538Y56332115D01*
X-107758242Y56406950D01*
X-100556930Y56406950D01*
X-100556930Y54407970D01*
X-100512652Y54172653D01*
X-100373580Y53956529D01*
X-100161380Y53811539D01*
X-99909490Y53760530D01*
X-97910510Y53760530D01*
X-97675193Y53804808D01*
X-97459069Y53943880D01*
X-97314079Y54156080D01*
X-97263070Y54407970D01*
X-97263070Y56406950D01*
X-97307348Y56642267D01*
X-97446420Y56858391D01*
X-97658620Y57003381D01*
X-97910510Y57054390D01*
X-99909490Y57054390D01*
X-100144807Y57010112D01*
X-100360931Y56871040D01*
X-100505921Y56658840D01*
X-100556930Y56406950D01*
X-107758242Y56406950D01*
X-108142927Y56792306D01*
X-108743453Y57041666D01*
X-109393694Y57042234D01*
X-109994655Y56793922D01*
X-110454846Y56334533D01*
X-110704206Y55734007D01*
X-110704774Y55083766D01*
X-112150000Y55083766D01*
X-112150000Y72050000D01*
X-105860000Y72050000D01*
X-105588295Y72104046D01*
X-105357954Y72257954D01*
X-102644556Y74971352D01*
X-102645803Y73542086D01*
X-101958127Y71877783D01*
X-102418613Y71818386D01*
X-103056528Y71452309D01*
X-103505793Y70869980D01*
X-103698012Y70160052D01*
X-103743258Y69496370D01*
X-103649167Y68766923D01*
X-103283091Y68129008D01*
X-102700762Y67679743D01*
X-102632713Y67661318D01*
X-101983007Y66489219D01*
X-101507789Y65927869D01*
X-100853924Y65591108D01*
X-100614360Y65571202D01*
X-100765647Y65206862D01*
X-100766163Y64615732D01*
X-100540424Y64069402D01*
X-100122797Y63651045D01*
X-99576862Y63424353D01*
X-98985732Y63423837D01*
X-98439402Y63649576D01*
X-98021045Y64067203D01*
X-97794353Y64613138D01*
X-97793837Y65204268D01*
X-98019576Y65750598D01*
X-98437203Y66168955D01*
X-98810547Y66323981D01*
X-98522371Y66883511D01*
X-98461466Y67616475D01*
X-98685691Y68316953D01*
X-98839816Y68595003D01*
X-94452882Y68595003D01*
X-94426891Y67994332D01*
X-94247027Y67560104D01*
X-93993001Y67476604D01*
X-93109605Y68360000D01*
X-92750395Y68360000D01*
X-91866999Y67476604D01*
X-91612973Y67560104D01*
X-91407118Y68124997D01*
X-91433109Y68725668D01*
X-91612973Y69159896D01*
X-91866999Y69243396D01*
X-92750395Y68360000D01*
X-93109605Y68360000D01*
X-93993001Y69243396D01*
X-94247027Y69159896D01*
X-94452882Y68595003D01*
X-98839816Y68595003D01*
X-99546993Y69870781D01*
X-99819483Y70192659D01*
X-98936003Y69825806D01*
X-97092086Y69824197D01*
X-97061103Y69836999D01*
X-93813396Y69836999D01*
X-93745354Y69630000D01*
X-93813396Y69423001D01*
X-92930000Y68539605D01*
X-92046604Y69423001D01*
X-92114646Y69630000D01*
X-92046604Y69836999D01*
X-92930000Y70720395D01*
X-93813396Y69836999D01*
X-97061103Y69836999D01*
X-95387913Y70528347D01*
X-94265730Y71648573D01*
X-94452882Y71135003D01*
X-94426891Y70534332D01*
X-94247027Y70100104D01*
X-93993001Y70016604D01*
X-93109605Y70900000D01*
X-92750395Y70900000D01*
X-91866999Y70016604D01*
X-91612973Y70100104D01*
X-91407118Y70664997D01*
X-91433109Y71265668D01*
X-91612973Y71699896D01*
X-91866999Y71783396D01*
X-92750395Y70900000D01*
X-93109605Y70900000D01*
X-93993001Y71783396D01*
X-94198259Y71715926D01*
X-94082929Y71831055D01*
X-93899728Y72272253D01*
X-93787200Y72159529D01*
X-93753408Y72145497D01*
X-93813396Y71963001D01*
X-92930000Y71079605D01*
X-92046604Y71963001D01*
X-92106447Y72145056D01*
X-92075036Y72158035D01*
X-91649529Y72582800D01*
X-91418963Y73138065D01*
X-91418438Y73739297D01*
X-91648035Y74294964D01*
X-92062698Y74710351D01*
X-91649529Y75122800D01*
X-91418963Y75678065D01*
X-91418438Y76279297D01*
X-91648035Y76834964D01*
X-91669333Y76856300D01*
X-79213740Y76856300D01*
X-79213740Y75103700D01*
X-79169462Y74868383D01*
X-79030390Y74652259D01*
X-78818190Y74507269D01*
X-78801720Y74503934D01*
X-78867631Y74438023D01*
X-78753003Y74323395D01*
X-79007027Y74239896D01*
X-79212882Y73675003D01*
X-79186891Y73074332D01*
X-79007027Y72640104D01*
X-78753001Y72556604D01*
X-77869605Y73440000D01*
X-77883747Y73454142D01*
X-77704142Y73633747D01*
X-77690000Y73619605D01*
X-77675857Y73633747D01*
X-77496252Y73454142D01*
X-77510395Y73440000D01*
X-76626999Y72556604D01*
X-76372973Y72640104D01*
X-76167118Y73204997D01*
X-76193109Y73805668D01*
X-76372973Y74239896D01*
X-76626997Y74323395D01*
X-76512369Y74438023D01*
X-76576254Y74501908D01*
X-76362259Y74639610D01*
X-76217269Y74851810D01*
X-76166260Y75103700D01*
X-76166260Y76856300D01*
X-76210538Y77091617D01*
X-76349610Y77307741D01*
X-76561810Y77452731D01*
X-76813700Y77503740D01*
X-78566300Y77503740D01*
X-78801617Y77459462D01*
X-79017741Y77320390D01*
X-79162731Y77108190D01*
X-79213740Y76856300D01*
X-91669333Y76856300D01*
X-92072800Y77260471D01*
X-92628065Y77491037D01*
X-93229297Y77491562D01*
X-93784964Y77261965D01*
X-94045293Y77002090D01*
X-94078347Y77082087D01*
X-95044572Y78050000D01*
X-75154092Y78050000D01*
X-69862046Y72757954D01*
G36*
X-12313000Y58720890D02*
X-12313000Y58579110D01*
X-12379110Y58513000D01*
X-12520890Y58513000D01*
X-12607000Y58599110D01*
X-12607000Y58700890D01*
X-12500890Y58807000D01*
X-12399110Y58807000D01*
X-12313000Y58720890D01*
X-12313000Y58720890D01*
G37*
X-12313000Y58720890D02*
X-12313000Y58579110D01*
X-12379110Y58513000D01*
X-12520890Y58513000D01*
X-12607000Y58599110D01*
X-12607000Y58700890D01*
X-12500890Y58807000D01*
X-12399110Y58807000D01*
X-12313000Y58720890D01*
G36*
X-24063000Y58820890D02*
X-24063000Y58679110D01*
X-24129110Y58613000D01*
X-24270890Y58613000D01*
X-24357000Y58699110D01*
X-24357000Y58800890D01*
X-24250890Y58907000D01*
X-24149110Y58907000D01*
X-24063000Y58820890D01*
X-24063000Y58820890D01*
G37*
X-24063000Y58820890D02*
X-24063000Y58679110D01*
X-24129110Y58613000D01*
X-24270890Y58613000D01*
X-24357000Y58699110D01*
X-24357000Y58800890D01*
X-24250890Y58907000D01*
X-24149110Y58907000D01*
X-24063000Y58820890D01*
M02*
