%TF.GenerationSoftware,KiCad,Pcbnew,4.0.6*%
%TF.CreationDate,2017-11-03T08:26:54+09:00*%
%TF.ProjectId,lets_split,6C6574735F73706C69742E6B69636164,rev?*%
%TF.FileFunction,Copper,L2,Bot,Signal*%
%FSLAX46Y46*%
G04 Gerber Fmt 4.6, Leading zero omitted, Abs format (unit mm)*
G04 Created by KiCad (PCBNEW 4.0.6) date 11/03/17 08:26:54*
%MOMM*%
%LPD*%
G01*
G04 APERTURE LIST*
%ADD10C,0.100000*%
%ADD11C,2.500000*%
%ADD12C,3.987810*%
%ADD13C,1.701810*%
%ADD14C,1.998980*%
%ADD15R,1.998980X1.998980*%
%ADD16O,2.057400X1.752600*%
%ADD17C,1.752600*%
%ADD18C,1.651000*%
%ADD19R,1.752600X1.752600*%
%ADD20C,2.000000*%
%ADD21R,1.524000X1.524000*%
%ADD22C,1.524000*%
%ADD23R,0.500000X1.000000*%
%ADD24R,1.000000X1.000000*%
%ADD25C,1.000000*%
%ADD26C,0.500000*%
%ADD27C,8.000000*%
%ADD28C,0.600000*%
%ADD29C,0.250000*%
%ADD30C,0.254000*%
G04 APERTURE END LIST*
D10*
D11*
X-30659724Y50939328D02*
X-30620276Y50360672D01*
X-24969816Y49860307D02*
X-24160184Y48399693D01*
D12*
X-28160000Y45860000D03*
D13*
X-33240000Y45860000D03*
X-23080000Y45860000D03*
D11*
X-31159547Y49859954D02*
X-31970453Y48400046D01*
X-25620276Y50939328D02*
X-25659724Y50360672D01*
D14*
X-18612540Y11420000D03*
D15*
X-18612540Y1260000D03*
D14*
X-75762540Y12520000D03*
D15*
X-75762540Y2360000D03*
D14*
X-56712540Y12820000D03*
D15*
X-56712540Y2660000D03*
D14*
X-37712540Y12720000D03*
D15*
X-37712540Y2560000D03*
D14*
X-24450000Y17262540D03*
D15*
X-34610000Y17262540D03*
D14*
X-4100000Y36412540D03*
D15*
X-14260000Y36412540D03*
D14*
X-2700000Y17262540D03*
D15*
X-12860000Y17262540D03*
D14*
X-37562540Y31520000D03*
D15*
X-37562540Y21360000D03*
D14*
X-56612540Y31520000D03*
D15*
X-56612540Y21360000D03*
D14*
X-75812540Y31970000D03*
D15*
X-75812540Y21810000D03*
D14*
X-109970000Y36357460D03*
D15*
X-99810000Y36357460D03*
D14*
X-94862540Y11670000D03*
D15*
X-94862540Y1510000D03*
D14*
X-80000000Y36312540D03*
D15*
X-90160000Y36312540D03*
D14*
X-56812540Y50770000D03*
D15*
X-56812540Y40610000D03*
D14*
X-37612540Y50620000D03*
D15*
X-37612540Y40460000D03*
D14*
X-18610000Y48760000D03*
D15*
X-18562540Y40210000D03*
D14*
X-3800000Y55512540D03*
D15*
X-12360000Y55510000D03*
D14*
X-24860000Y55510000D03*
D15*
X-33110000Y55462540D03*
D14*
X-37662540Y69670000D03*
D15*
X-37662540Y59510000D03*
D14*
X-56612540Y69670000D03*
D15*
X-56612540Y59510000D03*
D14*
X-71470000Y55407460D03*
D15*
X-61310000Y55407460D03*
D14*
X-109070000Y55407460D03*
D15*
X-98910000Y55407460D03*
D14*
X-94862540Y33170000D03*
D15*
X-94862540Y23010000D03*
D14*
X-18612540Y33920000D03*
D15*
X-18612540Y23760000D03*
D16*
X-13561800Y76014400D03*
D17*
X-21816800Y71010600D03*
X-16609800Y67911800D03*
D16*
X-22858200Y76014400D03*
D17*
X-19810200Y67911800D03*
X-14603200Y71010600D03*
D18*
X-48380000Y55460000D03*
X-58540000Y55460000D03*
X-45890000Y55460000D03*
X-35730000Y55460000D03*
D11*
X-106859724Y69989328D02*
X-106820276Y69410672D01*
X-101169816Y68910307D02*
X-100360184Y67449693D01*
D12*
X-104360000Y64910000D03*
D13*
X-109440000Y64910000D03*
X-99280000Y64910000D03*
D11*
X-107359547Y68909954D02*
X-108170453Y67450046D01*
X-101820276Y69989328D02*
X-101859724Y69410672D01*
X-106809724Y50889328D02*
X-106770276Y50310672D01*
X-101119816Y49810307D02*
X-100310184Y48349693D01*
D12*
X-104310000Y45810000D03*
D13*
X-109390000Y45810000D03*
X-99230000Y45810000D03*
D11*
X-107309547Y49809954D02*
X-108120453Y48350046D01*
X-101770276Y50889328D02*
X-101809724Y50310672D01*
X-106859724Y31839328D02*
X-106820276Y31260672D01*
X-101169816Y30760307D02*
X-100360184Y29299693D01*
D12*
X-104360000Y26760000D03*
D13*
X-109440000Y26760000D03*
X-99280000Y26760000D03*
D11*
X-107359547Y30759954D02*
X-108170453Y29300046D01*
X-101820276Y31839328D02*
X-101859724Y31260672D01*
X-106859724Y12689328D02*
X-106820276Y12110672D01*
X-101169816Y11610307D02*
X-100360184Y10149693D01*
D12*
X-104360000Y7610000D03*
D13*
X-109440000Y7610000D03*
X-99280000Y7610000D03*
D11*
X-107359547Y11609954D02*
X-108170453Y10150046D01*
X-101820276Y12689328D02*
X-101859724Y12110672D01*
X-87809724Y69989328D02*
X-87770276Y69410672D01*
X-82119816Y68910307D02*
X-81310184Y67449693D01*
D12*
X-85310000Y64910000D03*
D13*
X-90390000Y64910000D03*
X-80230000Y64910000D03*
D11*
X-88309547Y68909954D02*
X-89120453Y67450046D01*
X-82770276Y69989328D02*
X-82809724Y69410672D01*
X-87809724Y50939328D02*
X-87770276Y50360672D01*
X-82119816Y49860307D02*
X-81310184Y48399693D01*
D12*
X-85310000Y45860000D03*
D13*
X-90390000Y45860000D03*
X-80230000Y45860000D03*
D11*
X-88309547Y49859954D02*
X-89120453Y48400046D01*
X-82770276Y50939328D02*
X-82809724Y50360672D01*
X-87809724Y31889328D02*
X-87770276Y31310672D01*
X-82119816Y30810307D02*
X-81310184Y29349693D01*
D12*
X-85310000Y26810000D03*
D13*
X-90390000Y26810000D03*
X-80230000Y26810000D03*
D11*
X-88309547Y30809954D02*
X-89120453Y29350046D01*
X-82770276Y31889328D02*
X-82809724Y31310672D01*
X-87809724Y12839328D02*
X-87770276Y12260672D01*
X-82119816Y11760307D02*
X-81310184Y10299693D01*
D12*
X-85310000Y7760000D03*
D13*
X-90390000Y7760000D03*
X-80230000Y7760000D03*
D11*
X-88309547Y11759954D02*
X-89120453Y10300046D01*
X-82770276Y12839328D02*
X-82809724Y12260672D01*
X-68759724Y69989328D02*
X-68720276Y69410672D01*
X-63069816Y68910307D02*
X-62260184Y67449693D01*
D12*
X-66260000Y64910000D03*
D13*
X-71340000Y64910000D03*
X-61180000Y64910000D03*
D11*
X-69259547Y68909954D02*
X-70070453Y67450046D01*
X-63720276Y69989328D02*
X-63759724Y69410672D01*
X-68759724Y50939328D02*
X-68720276Y50360672D01*
X-63069816Y49860307D02*
X-62260184Y48399693D01*
D12*
X-66260000Y45860000D03*
D13*
X-71340000Y45860000D03*
X-61180000Y45860000D03*
D11*
X-69259547Y49859954D02*
X-70070453Y48400046D01*
X-63720276Y50939328D02*
X-63759724Y50360672D01*
X-68759724Y31889328D02*
X-68720276Y31310672D01*
X-63069816Y30810307D02*
X-62260184Y29349693D01*
D12*
X-66260000Y26810000D03*
D13*
X-71340000Y26810000D03*
X-61180000Y26810000D03*
D11*
X-69259547Y30809954D02*
X-70070453Y29350046D01*
X-63720276Y31889328D02*
X-63759724Y31310672D01*
X-68759724Y12839328D02*
X-68720276Y12260672D01*
X-63069816Y11760307D02*
X-62260184Y10299693D01*
D12*
X-66260000Y7760000D03*
D13*
X-71340000Y7760000D03*
X-61180000Y7760000D03*
D11*
X-69259547Y11759954D02*
X-70070453Y10300046D01*
X-63720276Y12839328D02*
X-63759724Y12260672D01*
X-49709724Y69989328D02*
X-49670276Y69410672D01*
X-44019816Y68910307D02*
X-43210184Y67449693D01*
D12*
X-47210000Y64910000D03*
D13*
X-52290000Y64910000D03*
X-42130000Y64910000D03*
D11*
X-50209547Y68909954D02*
X-51020453Y67450046D01*
X-44670276Y69989328D02*
X-44709724Y69410672D01*
X-49709724Y50939328D02*
X-49670276Y50360672D01*
X-44019816Y49860307D02*
X-43210184Y48399693D01*
D12*
X-47210000Y45860000D03*
D13*
X-52290000Y45860000D03*
X-42130000Y45860000D03*
D11*
X-50209547Y49859954D02*
X-51020453Y48400046D01*
X-44670276Y50939328D02*
X-44709724Y50360672D01*
X-49709724Y31889328D02*
X-49670276Y31310672D01*
X-44019816Y30810307D02*
X-43210184Y29349693D01*
D12*
X-47210000Y26810000D03*
D13*
X-52290000Y26810000D03*
X-42130000Y26810000D03*
D11*
X-50209547Y30809954D02*
X-51020453Y29350046D01*
X-44670276Y31889328D02*
X-44709724Y31310672D01*
X-49709724Y12839328D02*
X-49670276Y12260672D01*
X-44019816Y11760307D02*
X-43210184Y10299693D01*
D12*
X-47210000Y7760000D03*
D13*
X-52290000Y7760000D03*
X-42130000Y7760000D03*
D11*
X-50209547Y11759954D02*
X-51020453Y10300046D01*
X-44670276Y12839328D02*
X-44709724Y12260672D01*
X-30659724Y69989328D02*
X-30620276Y69410672D01*
X-24969816Y68910307D02*
X-24160184Y67449693D01*
D12*
X-28160000Y64910000D03*
D13*
X-33240000Y64910000D03*
X-23080000Y64910000D03*
D11*
X-31159547Y68909954D02*
X-31970453Y67450046D01*
X-25620276Y69989328D02*
X-25659724Y69410672D01*
X-30659724Y31889328D02*
X-30620276Y31310672D01*
X-24969816Y30810307D02*
X-24160184Y29349693D01*
D12*
X-28160000Y26810000D03*
D13*
X-33240000Y26810000D03*
X-23080000Y26810000D03*
D11*
X-31159547Y30809954D02*
X-31970453Y29350046D01*
X-25620276Y31889328D02*
X-25659724Y31310672D01*
X-30659724Y12839328D02*
X-30620276Y12260672D01*
X-24969816Y11760307D02*
X-24160184Y10299693D01*
D12*
X-28160000Y7760000D03*
D13*
X-33240000Y7760000D03*
X-23080000Y7760000D03*
D11*
X-31159547Y11759954D02*
X-31970453Y10300046D01*
X-25620276Y12839328D02*
X-25659724Y12260672D01*
X-11609724Y69989328D02*
X-11570276Y69410672D01*
X-5919816Y68910307D02*
X-5110184Y67449693D01*
D12*
X-9110000Y64910000D03*
D13*
X-14190000Y64910000D03*
X-4030000Y64910000D03*
D11*
X-12109547Y68909954D02*
X-12920453Y67450046D01*
X-6570276Y69989328D02*
X-6609724Y69410672D01*
X-11609724Y50939328D02*
X-11570276Y50360672D01*
X-5919816Y49860307D02*
X-5110184Y48399693D01*
D12*
X-9110000Y45860000D03*
D13*
X-14190000Y45860000D03*
X-4030000Y45860000D03*
D11*
X-12109547Y49859954D02*
X-12920453Y48400046D01*
X-6570276Y50939328D02*
X-6609724Y50360672D01*
X-11609724Y31889328D02*
X-11570276Y31310672D01*
X-5919816Y30810307D02*
X-5110184Y29349693D01*
D12*
X-9110000Y26810000D03*
D13*
X-14190000Y26810000D03*
X-4030000Y26810000D03*
D11*
X-12109547Y30809954D02*
X-12920453Y29350046D01*
X-6570276Y31889328D02*
X-6609724Y31310672D01*
X-11609724Y12839328D02*
X-11570276Y12260672D01*
X-5919816Y11760307D02*
X-5110184Y10299693D01*
D12*
X-9110000Y7760000D03*
D13*
X-14190000Y7760000D03*
X-4030000Y7760000D03*
D11*
X-12109547Y11759954D02*
X-12920453Y10300046D01*
X-6570276Y12839328D02*
X-6609724Y12260672D01*
D19*
X-77690000Y75980000D03*
D17*
X-77690000Y73440000D03*
X-77690000Y70900000D03*
X-77690000Y68360000D03*
X-77690000Y65820000D03*
X-77690000Y63280000D03*
X-77690000Y60740000D03*
X-77690000Y58200000D03*
X-77690000Y55660000D03*
X-77690000Y53120000D03*
X-77690000Y50580000D03*
X-77690000Y48040000D03*
X-92930000Y48040000D03*
X-92930000Y50580000D03*
X-92930000Y53120000D03*
X-92930000Y55660000D03*
X-92930000Y58200000D03*
X-92930000Y60740000D03*
X-92930000Y63280000D03*
X-92930000Y70900000D03*
X-92930000Y73440000D03*
X-92930000Y75980000D03*
X-92930000Y65820000D03*
X-92930000Y68360000D03*
D20*
X-18860000Y63760000D03*
D21*
X-12460000Y58660000D03*
X-12460000Y60660000D03*
X-12460000Y62660000D03*
D22*
X-12450000Y60650000D03*
X-12470000Y62660000D03*
X-12450000Y58650000D03*
D21*
X-24210000Y58760000D03*
X-24210000Y60760000D03*
X-24210000Y62760000D03*
D22*
X-24200000Y60750000D03*
X-24220000Y62760000D03*
X-24200000Y58750000D03*
D10*
G36*
X-28941250Y52984600D02*
X-28441250Y53484600D01*
X-28441150Y53484600D01*
X-27941150Y52984600D01*
X-28941250Y52984600D01*
X-28941250Y52984600D01*
G37*
G36*
X-27801200Y52984676D02*
X-28301124Y53484600D01*
X-27801200Y53984524D01*
X-27301276Y53484600D01*
X-27801200Y52984676D01*
X-27801200Y52984676D01*
G37*
G36*
X-27941150Y53984600D02*
X-28441150Y53484600D01*
X-28441250Y53484600D01*
X-28941250Y53984600D01*
X-27941150Y53984600D01*
X-27941150Y53984600D01*
G37*
D23*
X-28691200Y53484600D03*
D24*
X-27300000Y53490000D03*
D25*
X-27340000Y53490000D03*
D26*
X-28680000Y53470000D03*
D27*
X-94860000Y17260000D03*
X-18510000Y17210000D03*
X-18660000Y55310000D03*
X-98010000Y74460000D03*
D28*
X-61810000Y62860000D03*
D29*
X-13460000Y52210000D02*
X-19660000Y52210000D01*
X-19660000Y52210000D02*
X-19710000Y52160000D01*
X-13460000Y52210000D02*
X-13510000Y52160000D01*
X-100765000Y68180000D02*
X-101530000Y68180000D01*
X-101530000Y68180000D02*
X-105310000Y71960000D01*
X-105310000Y71960000D02*
X-108160000Y71960000D01*
X-108160000Y71960000D02*
X-111110000Y69010000D01*
X-111110000Y69010000D02*
X-111110000Y57447460D01*
X-111110000Y57447460D02*
X-109070000Y55407460D01*
X-37662540Y59510000D02*
X-37157460Y59510000D01*
X-37157460Y59510000D02*
X-33110000Y55462540D01*
X-98910000Y55407460D02*
X-93182540Y55407460D01*
X-93182540Y55407460D02*
X-92930000Y55660000D01*
X-100765000Y30030000D02*
X-98002540Y30030000D01*
X-98002540Y30030000D02*
X-94862540Y33170000D01*
X-92860000Y45760000D02*
X-94360000Y47260000D01*
X-94862540Y29507460D02*
X-92860000Y31510000D01*
X-92860000Y31510000D02*
X-92860000Y45760000D01*
X-94862540Y23010000D02*
X-94862540Y29507460D01*
X-94360000Y48760000D02*
X-92930000Y50190000D01*
X-94360000Y47260000D02*
X-94360000Y48760000D01*
X-92930000Y50190000D02*
X-92930000Y50580000D01*
X-92930000Y50580000D02*
X-93540000Y50580000D01*
X-100765000Y10880000D02*
X-95652540Y10880000D01*
X-95652540Y10880000D02*
X-94862540Y11670000D01*
X-101220000Y13020000D02*
X-101840000Y12400000D01*
X-101840000Y12400000D02*
X-100765000Y10880000D01*
X-92110000Y47220000D02*
X-92930000Y48040000D01*
X-94862540Y9007460D02*
X-90360000Y13510000D01*
X-90360000Y13510000D02*
X-90360000Y22510000D01*
X-94862540Y1510000D02*
X-94862540Y9007460D01*
X-34610000Y17262540D02*
X-34610000Y5662540D01*
X-34610000Y5662540D02*
X-37712540Y2560000D01*
X-92110000Y45510000D02*
X-92110000Y47220000D01*
X-92110000Y24260000D02*
X-92110000Y45510000D01*
X-90360000Y22510000D02*
X-92110000Y24260000D01*
X-92110000Y45510000D02*
X-92110000Y45260000D01*
X-81715000Y68180000D02*
X-79980000Y68180000D01*
X-73410000Y57347460D02*
X-71470000Y55407460D01*
X-73410000Y64760000D02*
X-73410000Y57347460D01*
X-75710000Y67060000D02*
X-73410000Y64760000D01*
X-78860000Y67060000D02*
X-75710000Y67060000D01*
X-79980000Y68180000D02*
X-78860000Y67060000D01*
X-81715000Y49130000D02*
X-81715000Y38027540D01*
X-81715000Y38027540D02*
X-80000000Y36312540D01*
X-81715000Y30080000D02*
X-77702540Y30080000D01*
X-77702540Y30080000D02*
X-75812540Y31970000D01*
X-81715000Y11030000D02*
X-77252540Y11030000D01*
X-77252540Y11030000D02*
X-75762540Y12520000D01*
X-56612540Y69670000D02*
X-61175000Y69670000D01*
X-61175000Y69670000D02*
X-62665000Y68180000D01*
X-56812540Y50770000D02*
X-63620000Y50770000D01*
X-63620000Y50770000D02*
X-63740000Y50650000D01*
X-63740000Y50650000D02*
X-62665000Y49130000D01*
X-62665000Y30080000D02*
X-58052540Y30080000D01*
X-58052540Y30080000D02*
X-56612540Y31520000D01*
X-62665000Y11030000D02*
X-58502540Y11030000D01*
X-58502540Y11030000D02*
X-56712540Y12820000D01*
X-43615000Y68180000D02*
X-39152540Y68180000D01*
X-39152540Y68180000D02*
X-37662540Y69670000D01*
X-37612540Y50620000D02*
X-42125000Y50620000D01*
X-42125000Y50620000D02*
X-43615000Y49130000D01*
X-43615000Y30080000D02*
X-39002540Y30080000D01*
X-39002540Y30080000D02*
X-37562540Y31520000D01*
X-43615000Y11030000D02*
X-38490000Y11030000D01*
X-38490000Y11030000D02*
X-37712540Y11807460D01*
X-37712540Y11807460D02*
X-37712540Y12720000D01*
X-25660000Y58260000D02*
X-25660000Y56310000D01*
X-25660000Y56310000D02*
X-24860000Y55510000D01*
X-24565000Y68180000D02*
X-24565000Y65005000D01*
X-25660000Y63910000D02*
X-25660000Y58260000D01*
X-25660000Y58260000D02*
X-25660000Y58172540D01*
X-24565000Y65005000D02*
X-25660000Y63910000D01*
X-24565000Y49130000D02*
X-18980000Y49130000D01*
X-18980000Y49130000D02*
X-18610000Y48760000D01*
X-24565000Y30080000D02*
X-24540000Y30080000D01*
X-24540000Y30080000D02*
X-20700000Y33920000D01*
X-20700000Y33920000D02*
X-18612540Y33920000D01*
X-5515000Y68180000D02*
X-5515000Y57227540D01*
X-5515000Y57227540D02*
X-3800000Y55512540D01*
X-5515000Y49130000D02*
X-5515000Y37827540D01*
X-5515000Y37827540D02*
X-4100000Y36412540D01*
X-3878730Y17741270D02*
X-3178730Y17741270D01*
X-3178730Y17741270D02*
X-2700000Y17262540D01*
X-5515000Y30080000D02*
X-5515000Y19377540D01*
X-5515000Y19377540D02*
X-3878730Y17741270D01*
X-3878730Y17741270D02*
X-3750000Y17612540D01*
X-24450000Y17262540D02*
X-24450000Y15350000D01*
X-5860000Y5760000D02*
X-5860000Y10685000D01*
X-6610000Y5010000D02*
X-5860000Y5760000D01*
X-14110000Y5010000D02*
X-6610000Y5010000D01*
X-24450000Y15350000D02*
X-14110000Y5010000D01*
X-5860000Y10685000D02*
X-5515000Y11030000D01*
X-13561800Y76014400D02*
X-13561800Y75758200D01*
X-13561800Y75758200D02*
X-16210000Y73110000D01*
X-16210000Y73110000D02*
X-16210000Y69460000D01*
X-16210000Y69460000D02*
X-14960000Y68210000D01*
X-14960000Y68210000D02*
X-14960000Y66310000D01*
X-14960000Y66310000D02*
X-15760000Y65510000D01*
X-15760000Y65510000D02*
X-15760000Y62460000D01*
X-15760000Y62460000D02*
X-13960000Y60660000D01*
X-13960000Y60660000D02*
X-12460000Y60660000D01*
X-45890000Y55460000D02*
X-45890000Y58430000D01*
X-22766200Y71960000D02*
X-21816800Y71010600D01*
X-32360000Y71960000D02*
X-22766200Y71960000D01*
X-45890000Y58430000D02*
X-32360000Y71960000D01*
X-28691200Y53484600D02*
X-28691200Y52591200D01*
X-18860000Y61760000D02*
X-18860000Y63760000D01*
X-23360000Y57260000D02*
X-18860000Y61760000D01*
X-23360000Y54760000D02*
X-23360000Y57260000D01*
X-24110000Y54010000D02*
X-23360000Y54760000D01*
X-25110000Y54010000D02*
X-24110000Y54010000D01*
X-26610000Y52510000D02*
X-25110000Y54010000D01*
X-28610000Y52510000D02*
X-26610000Y52510000D01*
X-28691200Y52591200D02*
X-28610000Y52510000D01*
X-19810200Y67911800D02*
X-19810200Y64710200D01*
X-19810200Y64710200D02*
X-18860000Y63760000D01*
X-19810200Y67911800D02*
X-16609800Y67911800D01*
X-24210000Y60760000D02*
X-23160000Y60760000D01*
X-20110000Y73266200D02*
X-22858200Y76014400D01*
X-20110000Y70210000D02*
X-20110000Y73266200D01*
X-21560000Y68760000D02*
X-20110000Y70210000D01*
X-21560000Y62360000D02*
X-21560000Y68760000D01*
X-23160000Y60760000D02*
X-21560000Y62360000D01*
X-61810000Y62860000D02*
X-58540000Y59590000D01*
X-58540000Y59590000D02*
X-58540000Y55460000D01*
X-106840000Y46760000D02*
X-106840000Y48205000D01*
X-106840000Y48205000D02*
X-107715000Y49080000D01*
X-107715000Y49080000D02*
X-107715000Y49675000D01*
X-107715000Y49675000D02*
X-106790000Y50600000D01*
X-107765000Y68180000D02*
X-107765000Y57315000D01*
X-106790000Y56340000D02*
X-106790000Y50005000D01*
X-107765000Y57315000D02*
X-106790000Y56340000D01*
X-106790000Y50005000D02*
X-106840000Y49955000D01*
X-106840000Y49955000D02*
X-106840000Y46760000D01*
X-106840000Y46760000D02*
X-106840000Y12400000D01*
X-77690000Y58200000D02*
X-84200000Y58200000D01*
X-84200000Y58200000D02*
X-87790000Y61790000D01*
X-87790000Y50650000D02*
X-87790000Y61790000D01*
X-87790000Y61790000D02*
X-87790000Y69700000D01*
X-87790000Y31600000D02*
X-87790000Y50650000D01*
X-87790000Y12550000D02*
X-87790000Y31600000D01*
X-77690000Y55660000D02*
X-75860000Y55660000D01*
X-70850000Y50650000D02*
X-68740000Y50650000D01*
X-75860000Y55660000D02*
X-70850000Y50650000D01*
X-68740000Y69700000D02*
X-68740000Y50650000D01*
X-68740000Y50650000D02*
X-68740000Y31600000D01*
X-68740000Y31600000D02*
X-68740000Y12550000D01*
X-49690000Y31600000D02*
X-49690000Y50650000D01*
X-49690000Y50650000D02*
X-50615000Y51575000D01*
X-50615000Y51575000D02*
X-50615000Y68180000D01*
X-49690000Y12550000D02*
X-49690000Y31600000D01*
X-30640000Y69700000D02*
X-30640000Y50650000D01*
X-30640000Y50650000D02*
X-30640000Y31600000D01*
X-30640000Y31600000D02*
X-30640000Y12550000D01*
X-11590000Y31600000D02*
X-11590000Y22490000D01*
X-10610000Y21510000D02*
X-10610000Y13530000D01*
X-11590000Y22490000D02*
X-10610000Y21510000D01*
X-10610000Y13530000D02*
X-11590000Y12550000D01*
X-11590000Y31600000D02*
X-11590000Y50650000D01*
X-11590000Y50650000D02*
X-8910000Y53330000D01*
X-12515000Y64915000D02*
X-12515000Y68180000D01*
X-8910000Y61310000D02*
X-12515000Y64915000D01*
X-8910000Y53330000D02*
X-8910000Y61310000D01*
D30*
G36*
X-69862046Y72757954D02*
X-69631705Y72604046D01*
X-69360000Y72549999D01*
X-69359995Y72550000D01*
X-32818681Y72550000D01*
X-32897402Y72497401D01*
X-36028314Y69366489D01*
X-36027766Y69993694D01*
X-36276078Y70594655D01*
X-36735467Y71054846D01*
X-37335993Y71304206D01*
X-37986234Y71304774D01*
X-38587195Y71056462D01*
X-39047386Y70597073D01*
X-39296746Y69996547D01*
X-39297314Y69346306D01*
X-39228231Y69179111D01*
X-39467342Y68940000D01*
X-41881052Y68940000D01*
X-42396993Y69870781D01*
X-42851803Y70408025D01*
X-42880833Y70633078D01*
X-43246909Y71270992D01*
X-43829238Y71720257D01*
X-44539166Y71912476D01*
X-45268613Y71818386D01*
X-45906528Y71452309D01*
X-46355793Y70869980D01*
X-46548012Y70160052D01*
X-46593258Y69496370D01*
X-46499167Y68766923D01*
X-46133091Y68129008D01*
X-45550762Y67679743D01*
X-45482713Y67661318D01*
X-44833007Y66489219D01*
X-44357789Y65927869D01*
X-43703924Y65591108D01*
X-43464360Y65571202D01*
X-43615647Y65206862D01*
X-43616163Y64615732D01*
X-43390424Y64069402D01*
X-42972797Y63651045D01*
X-42426862Y63424353D01*
X-41970847Y63423955D01*
X-46427401Y58967401D01*
X-46592148Y58720839D01*
X-46650000Y58430000D01*
X-46650000Y56726238D01*
X-46716226Y56698874D01*
X-47127430Y56288387D01*
X-47146586Y56242253D01*
X-47353785Y56306610D01*
X-48200395Y55460000D01*
X-47353785Y54613390D01*
X-47146991Y54677621D01*
X-47128874Y54633774D01*
X-46718387Y54222570D01*
X-46181786Y53999754D01*
X-45600763Y53999247D01*
X-45063774Y54221126D01*
X-44652570Y54631613D01*
X-44429754Y55168214D01*
X-44429305Y55682869D01*
X-37202340Y55682869D01*
X-37175553Y55102465D01*
X-37004976Y54690656D01*
X-36756215Y54613390D01*
X-35909605Y55460000D01*
X-36756215Y56306610D01*
X-37004976Y56229344D01*
X-37202340Y55682869D01*
X-44429305Y55682869D01*
X-44429247Y55749237D01*
X-44651126Y56286226D01*
X-45061613Y56697430D01*
X-45130000Y56725827D01*
X-45130000Y58115198D01*
X-42735708Y60509490D01*
X-39309470Y60509490D01*
X-39309470Y58510510D01*
X-39265192Y58275193D01*
X-39126120Y58059069D01*
X-38913920Y57914079D01*
X-38662030Y57863070D01*
X-36663050Y57863070D01*
X-36597640Y57875378D01*
X-35648096Y56925834D01*
X-36087535Y56905553D01*
X-36499344Y56734976D01*
X-36576610Y56486215D01*
X-35730000Y55639605D01*
X-35715857Y55653747D01*
X-35536252Y55474142D01*
X-35550395Y55460000D01*
X-35536252Y55445857D01*
X-35715857Y55266252D01*
X-35730000Y55280395D01*
X-36576610Y54433785D01*
X-36499344Y54185024D01*
X-35952869Y53987660D01*
X-35372465Y54014447D01*
X-34960656Y54185024D01*
X-34883391Y54433783D01*
X-34768601Y54318993D01*
X-34735965Y54351629D01*
X-34712652Y54227733D01*
X-34573580Y54011609D01*
X-34361380Y53866619D01*
X-34109490Y53815610D01*
X-32110510Y53815610D01*
X-31875193Y53859888D01*
X-31659069Y53998960D01*
X-31514079Y54211160D01*
X-31463070Y54463050D01*
X-31463070Y56462030D01*
X-31507348Y56697347D01*
X-31646420Y56913471D01*
X-31858620Y57058461D01*
X-32110510Y57109470D01*
X-33682128Y57109470D01*
X-36015610Y59442952D01*
X-36015610Y60509490D01*
X-36059888Y60744807D01*
X-36198960Y60960931D01*
X-36411160Y61105921D01*
X-36663050Y61156930D01*
X-38662030Y61156930D01*
X-38897347Y61112652D01*
X-39113471Y60973580D01*
X-39258461Y60761380D01*
X-39309470Y60509490D01*
X-42735708Y60509490D01*
X-32229724Y71015473D01*
X-32449167Y70633077D01*
X-32505351Y70197504D01*
X-32781533Y69871842D01*
X-33644188Y68318766D01*
X-33869024Y67618484D01*
X-33808758Y66885467D01*
X-33553258Y66388317D01*
X-34080598Y66170424D01*
X-34498955Y65752797D01*
X-34725647Y65206862D01*
X-34726163Y64615732D01*
X-34500424Y64069402D01*
X-34082797Y63651045D01*
X-33536862Y63424353D01*
X-32945732Y63423837D01*
X-32399402Y63649576D01*
X-31981045Y64067203D01*
X-31754353Y64613138D01*
X-31753837Y65204268D01*
X-31899342Y65556418D01*
X-31478333Y65591032D01*
X-31400000Y65631290D01*
X-31400000Y52697539D01*
X-31500762Y52670257D01*
X-32083091Y52220992D01*
X-32449167Y51583077D01*
X-32505351Y51147504D01*
X-32781533Y50821842D01*
X-33644188Y49268766D01*
X-33869024Y48568484D01*
X-33808758Y47835467D01*
X-33553258Y47338317D01*
X-34080598Y47120424D01*
X-34498955Y46702797D01*
X-34725647Y46156862D01*
X-34726163Y45565732D01*
X-34500424Y45019402D01*
X-34082797Y44601045D01*
X-33536862Y44374353D01*
X-32945732Y44373837D01*
X-32399402Y44599576D01*
X-31981045Y45017203D01*
X-31754353Y45563138D01*
X-31753837Y46154268D01*
X-31899342Y46506418D01*
X-31478333Y46541032D01*
X-31400000Y46581290D01*
X-31400000Y33647539D01*
X-31500762Y33620257D01*
X-32083091Y33170992D01*
X-32449167Y32533077D01*
X-32505351Y32097504D01*
X-32781533Y31771842D01*
X-33644188Y30218766D01*
X-33869024Y29518484D01*
X-33808758Y28785467D01*
X-33553258Y28288317D01*
X-34080598Y28070424D01*
X-34498955Y27652797D01*
X-34725647Y27106862D01*
X-34726163Y26515732D01*
X-34500424Y25969402D01*
X-34082797Y25551045D01*
X-33536862Y25324353D01*
X-32945732Y25323837D01*
X-32399402Y25549576D01*
X-31981045Y25967203D01*
X-31754353Y26513138D01*
X-31753837Y27104268D01*
X-31899342Y27456418D01*
X-31478333Y27491032D01*
X-31400000Y27531290D01*
X-31400000Y14597539D01*
X-31500762Y14570257D01*
X-32083091Y14120992D01*
X-32449167Y13483077D01*
X-32505351Y13047504D01*
X-32781533Y12721842D01*
X-33644188Y11168766D01*
X-33850000Y10527737D01*
X-33850000Y15615610D01*
X-33610510Y15615610D01*
X-33375193Y15659888D01*
X-33159069Y15798960D01*
X-33014079Y16011160D01*
X-32963070Y16263050D01*
X-32963070Y18262030D01*
X-33007348Y18497347D01*
X-33146420Y18713471D01*
X-33358620Y18858461D01*
X-33610510Y18909470D01*
X-35609490Y18909470D01*
X-35844807Y18865192D01*
X-36060931Y18726120D01*
X-36205921Y18513920D01*
X-36256930Y18262030D01*
X-36256930Y16263050D01*
X-36212652Y16027733D01*
X-36073580Y15811609D01*
X-35861380Y15666619D01*
X-35609490Y15615610D01*
X-35370000Y15615610D01*
X-35370000Y5977342D01*
X-37140412Y4206930D01*
X-38712030Y4206930D01*
X-38947347Y4162652D01*
X-39163471Y4023580D01*
X-39308461Y3811380D01*
X-39359470Y3559490D01*
X-39359470Y1560510D01*
X-39315192Y1325193D01*
X-39176120Y1109069D01*
X-38963920Y964079D01*
X-38712030Y913070D01*
X-36713050Y913070D01*
X-36477733Y957348D01*
X-36261609Y1096420D01*
X-36116619Y1308620D01*
X-36065610Y1560510D01*
X-36065610Y3132128D01*
X-34072599Y5125139D01*
X-33907852Y5371701D01*
X-33850000Y5662540D01*
X-33850000Y6404379D01*
X-33536862Y6274353D01*
X-32945732Y6273837D01*
X-32399402Y6499576D01*
X-31981045Y6917203D01*
X-31847269Y7239373D01*
X-30789360Y7239373D01*
X-30389976Y6272791D01*
X-29651099Y5532623D01*
X-28685216Y5131553D01*
X-27639373Y5130640D01*
X-26672791Y5530024D01*
X-25932623Y6268901D01*
X-25531553Y7234784D01*
X-25530640Y8280627D01*
X-25930024Y9247209D01*
X-26668901Y9987377D01*
X-27634784Y10388447D01*
X-28680627Y10389360D01*
X-29647209Y9989976D01*
X-30387377Y9251099D01*
X-30788447Y8285216D01*
X-30789360Y7239373D01*
X-31847269Y7239373D01*
X-31754353Y7463138D01*
X-31753837Y8054268D01*
X-31899342Y8406418D01*
X-31478333Y8441032D01*
X-30824175Y8777223D01*
X-30348468Y9338158D01*
X-29617138Y10654803D01*
X-29196909Y10979008D01*
X-28830833Y11616922D01*
X-28736742Y12346369D01*
X-28781988Y13010052D01*
X-28974207Y13719980D01*
X-29423472Y14302309D01*
X-29880000Y14564294D01*
X-29880000Y24811924D01*
X-29651099Y24582623D01*
X-28685216Y24181553D01*
X-27639373Y24180640D01*
X-26672791Y24580024D01*
X-26493012Y24759490D01*
X-20259470Y24759490D01*
X-20259470Y22760510D01*
X-20215192Y22525193D01*
X-20076120Y22309069D01*
X-19863920Y22164079D01*
X-19612030Y22113070D01*
X-17613050Y22113070D01*
X-17377733Y22157348D01*
X-17161609Y22296420D01*
X-17016619Y22508620D01*
X-16965610Y22760510D01*
X-16965610Y24759490D01*
X-17009888Y24994807D01*
X-17148960Y25210931D01*
X-17361160Y25355921D01*
X-17613050Y25406930D01*
X-19612030Y25406930D01*
X-19847347Y25362652D01*
X-20063471Y25223580D01*
X-20208461Y25011380D01*
X-20259470Y24759490D01*
X-26493012Y24759490D01*
X-25932623Y25318901D01*
X-25531553Y26284784D01*
X-25530640Y27330627D01*
X-25930024Y28297209D01*
X-26668901Y29037377D01*
X-27634784Y29438447D01*
X-28680627Y29439360D01*
X-29647209Y29039976D01*
X-29880000Y28807591D01*
X-29880000Y29231561D01*
X-29617138Y29704803D01*
X-29196909Y30029008D01*
X-28830833Y30666922D01*
X-28736742Y31396369D01*
X-28736742Y31396370D01*
X-27543258Y31396370D01*
X-27449167Y30666923D01*
X-27083091Y30029008D01*
X-26500762Y29579743D01*
X-26432713Y29561318D01*
X-25783007Y28389219D01*
X-25307789Y27827869D01*
X-24653924Y27491108D01*
X-24414360Y27471202D01*
X-24565647Y27106862D01*
X-24566163Y26515732D01*
X-24340424Y25969402D01*
X-23922797Y25551045D01*
X-23376862Y25324353D01*
X-22785732Y25323837D01*
X-22239402Y25549576D01*
X-21821045Y25967203D01*
X-21594353Y26513138D01*
X-21593837Y27104268D01*
X-21819576Y27650598D01*
X-22237203Y28068955D01*
X-22610547Y28223981D01*
X-22322371Y28783511D01*
X-22261466Y29516475D01*
X-22485691Y30216953D01*
X-22786169Y30759029D01*
X-20385198Y33160000D01*
X-20067036Y33160000D01*
X-19999002Y32995345D01*
X-19539613Y32535154D01*
X-18939087Y32285794D01*
X-18288846Y32285226D01*
X-17687885Y32533538D01*
X-17227694Y32992927D01*
X-16978334Y33593453D01*
X-16977766Y34243694D01*
X-17226078Y34844655D01*
X-17685467Y35304846D01*
X-18285993Y35554206D01*
X-18936234Y35554774D01*
X-19537195Y35306462D01*
X-19997386Y34847073D01*
X-20066761Y34680000D01*
X-20700000Y34680000D01*
X-20990839Y34622148D01*
X-21237401Y34457401D01*
X-23611533Y32083269D01*
X-23801803Y32308025D01*
X-23830833Y32533078D01*
X-24196909Y33170992D01*
X-24779238Y33620257D01*
X-25489166Y33812476D01*
X-26218613Y33718386D01*
X-26856528Y33352309D01*
X-27305793Y32769980D01*
X-27498012Y32060052D01*
X-27543258Y31396370D01*
X-28736742Y31396370D01*
X-28781988Y32060052D01*
X-28974207Y32769980D01*
X-29423472Y33352309D01*
X-29880000Y33614294D01*
X-29880000Y37412030D01*
X-15906930Y37412030D01*
X-15906930Y35413050D01*
X-15862652Y35177733D01*
X-15723580Y34961609D01*
X-15511380Y34816619D01*
X-15259490Y34765610D01*
X-13260510Y34765610D01*
X-13025193Y34809888D01*
X-12809069Y34948960D01*
X-12664079Y35161160D01*
X-12613070Y35413050D01*
X-12613070Y37412030D01*
X-12657348Y37647347D01*
X-12796420Y37863471D01*
X-13008620Y38008461D01*
X-13260510Y38059470D01*
X-15259490Y38059470D01*
X-15494807Y38015192D01*
X-15710931Y37876120D01*
X-15855921Y37663920D01*
X-15906930Y37412030D01*
X-29880000Y37412030D01*
X-29880000Y41209490D01*
X-20209470Y41209490D01*
X-20209470Y39210510D01*
X-20165192Y38975193D01*
X-20026120Y38759069D01*
X-19813920Y38614079D01*
X-19562030Y38563070D01*
X-17563050Y38563070D01*
X-17327733Y38607348D01*
X-17111609Y38746420D01*
X-16966619Y38958620D01*
X-16915610Y39210510D01*
X-16915610Y41209490D01*
X-16959888Y41444807D01*
X-17098960Y41660931D01*
X-17311160Y41805921D01*
X-17563050Y41856930D01*
X-19562030Y41856930D01*
X-19797347Y41812652D01*
X-20013471Y41673580D01*
X-20158461Y41461380D01*
X-20209470Y41209490D01*
X-29880000Y41209490D01*
X-29880000Y43861924D01*
X-29651099Y43632623D01*
X-28685216Y43231553D01*
X-27639373Y43230640D01*
X-26672791Y43630024D01*
X-25932623Y44368901D01*
X-25531553Y45334784D01*
X-25530640Y46380627D01*
X-25930024Y47347209D01*
X-26668901Y48087377D01*
X-27634784Y48488447D01*
X-28680627Y48489360D01*
X-29647209Y48089976D01*
X-29880000Y47857591D01*
X-29880000Y48281561D01*
X-29617138Y48754803D01*
X-29196909Y49079008D01*
X-28830833Y49716922D01*
X-28736742Y50446369D01*
X-28781988Y51110052D01*
X-28974207Y51819980D01*
X-29032956Y51896130D01*
X-28900839Y51807852D01*
X-28610000Y51750000D01*
X-27324741Y51750000D01*
X-27498012Y51110052D01*
X-27543258Y50446370D01*
X-27449167Y49716923D01*
X-27083091Y49079008D01*
X-26500762Y48629743D01*
X-26432713Y48611318D01*
X-25783007Y47439219D01*
X-25307789Y46877869D01*
X-24653924Y46541108D01*
X-24414360Y46521202D01*
X-24565647Y46156862D01*
X-24566163Y45565732D01*
X-24340424Y45019402D01*
X-23922797Y44601045D01*
X-23376862Y44374353D01*
X-22785732Y44373837D01*
X-22239402Y44599576D01*
X-21821045Y45017203D01*
X-21594353Y45563138D01*
X-21593837Y46154268D01*
X-21819576Y46700598D01*
X-22237203Y47118955D01*
X-22610547Y47273981D01*
X-22322371Y47833511D01*
X-22277792Y48370000D01*
X-20217377Y48370000D01*
X-19996462Y47835345D01*
X-19537073Y47375154D01*
X-18936547Y47125794D01*
X-18286306Y47125226D01*
X-17685345Y47373538D01*
X-17225154Y47832927D01*
X-16975794Y48433453D01*
X-16975226Y49083694D01*
X-17223538Y49684655D01*
X-17682927Y50144846D01*
X-18283453Y50394206D01*
X-18933694Y50394774D01*
X-19534655Y50146462D01*
X-19791565Y49890000D01*
X-22831052Y49890000D01*
X-23346993Y50820781D01*
X-23801803Y51358025D01*
X-23830833Y51583078D01*
X-24196909Y52220992D01*
X-24779238Y52670257D01*
X-25248016Y52797182D01*
X-24795198Y53250000D01*
X-24110000Y53250000D01*
X-23819161Y53307852D01*
X-23572599Y53472599D01*
X-23107892Y53937306D01*
X-22591653Y52687913D01*
X-21288945Y51382929D01*
X-19586003Y50675806D01*
X-17742086Y50674197D01*
X-16037913Y51378347D01*
X-15966135Y51450000D01*
X-13761365Y51450000D01*
X-13510000Y51400000D01*
X-13420485Y51417806D01*
X-13455351Y51147504D01*
X-13731533Y50821842D01*
X-14594188Y49268766D01*
X-14819024Y48568484D01*
X-14758758Y47835467D01*
X-14503258Y47338317D01*
X-15030598Y47120424D01*
X-15448955Y46702797D01*
X-15675647Y46156862D01*
X-15676163Y45565732D01*
X-15450424Y45019402D01*
X-15032797Y44601045D01*
X-14486862Y44374353D01*
X-13895732Y44373837D01*
X-13349402Y44599576D01*
X-12931045Y45017203D01*
X-12704353Y45563138D01*
X-12703837Y46154268D01*
X-12849342Y46506418D01*
X-12428333Y46541032D01*
X-12350000Y46581290D01*
X-12350000Y33647539D01*
X-12450762Y33620257D01*
X-13033091Y33170992D01*
X-13399167Y32533077D01*
X-13455351Y32097504D01*
X-13731533Y31771842D01*
X-14594188Y30218766D01*
X-14819024Y29518484D01*
X-14758758Y28785467D01*
X-14503258Y28288317D01*
X-15030598Y28070424D01*
X-15448955Y27652797D01*
X-15675647Y27106862D01*
X-15676163Y26515732D01*
X-15450424Y25969402D01*
X-15032797Y25551045D01*
X-14486862Y25324353D01*
X-13895732Y25323837D01*
X-13349402Y25549576D01*
X-12931045Y25967203D01*
X-12704353Y26513138D01*
X-12703837Y27104268D01*
X-12849342Y27456418D01*
X-12428333Y27491032D01*
X-12350000Y27531290D01*
X-12350000Y22490000D01*
X-12292148Y22199161D01*
X-12127401Y21952599D01*
X-11370000Y21195198D01*
X-11370000Y18672413D01*
X-11396420Y18713471D01*
X-11608620Y18858461D01*
X-11860510Y18909470D01*
X-13859490Y18909470D01*
X-14094807Y18865192D01*
X-14161185Y18822479D01*
X-14578347Y19832087D01*
X-15881055Y21137071D01*
X-17583997Y21844194D01*
X-19427914Y21845803D01*
X-21132087Y21141653D01*
X-22437071Y19838945D01*
X-23105488Y18229218D01*
X-23522927Y18647386D01*
X-24123453Y18896746D01*
X-24773694Y18897314D01*
X-25374655Y18649002D01*
X-25834846Y18189613D01*
X-26084206Y17589087D01*
X-26084774Y16938846D01*
X-25836462Y16337885D01*
X-25377073Y15877694D01*
X-25210000Y15808319D01*
X-25210000Y15350000D01*
X-25152148Y15059161D01*
X-24987401Y14812599D01*
X-24629660Y14454858D01*
X-24779238Y14570257D01*
X-25489166Y14762476D01*
X-26218613Y14668386D01*
X-26856528Y14302309D01*
X-27305793Y13719980D01*
X-27498012Y13010052D01*
X-27543258Y12346370D01*
X-27449167Y11616923D01*
X-27083091Y10979008D01*
X-26500762Y10529743D01*
X-26432713Y10511318D01*
X-25783007Y9339219D01*
X-25307789Y8777869D01*
X-24653924Y8441108D01*
X-24414360Y8421202D01*
X-24565647Y8056862D01*
X-24566163Y7465732D01*
X-24340424Y6919402D01*
X-23922797Y6501045D01*
X-23376862Y6274353D01*
X-22785732Y6273837D01*
X-22239402Y6499576D01*
X-21821045Y6917203D01*
X-21594353Y7463138D01*
X-21593837Y8054268D01*
X-21819576Y8600598D01*
X-22237203Y9018955D01*
X-22610547Y9173981D01*
X-22322371Y9733511D01*
X-22261466Y10466475D01*
X-22485691Y11166953D01*
X-23346993Y12720781D01*
X-23801803Y13258025D01*
X-23830833Y13483078D01*
X-24063744Y13888942D01*
X-14647401Y4472599D01*
X-14400840Y4307852D01*
X-14110000Y4250000D01*
X-6610000Y4250000D01*
X-6319161Y4307852D01*
X-6072599Y4472599D01*
X-5322599Y5222599D01*
X-5157852Y5469160D01*
X-5100000Y5760000D01*
X-5100000Y6728645D01*
X-4872797Y6501045D01*
X-4326862Y6274353D01*
X-3735732Y6273837D01*
X-3189402Y6499576D01*
X-2771045Y6917203D01*
X-2544353Y7463138D01*
X-2543837Y8054268D01*
X-2769576Y8600598D01*
X-3187203Y9018955D01*
X-3560547Y9173981D01*
X-3272371Y9733511D01*
X-3211466Y10466475D01*
X-3435691Y11166953D01*
X-4296993Y12720781D01*
X-4751803Y13258025D01*
X-4780833Y13483078D01*
X-5146909Y14120992D01*
X-5729238Y14570257D01*
X-6439166Y14762476D01*
X-7168613Y14668386D01*
X-7806528Y14302309D01*
X-8255793Y13719980D01*
X-8448012Y13010052D01*
X-8493258Y12346370D01*
X-8399167Y11616923D01*
X-8033091Y10979008D01*
X-7450762Y10529743D01*
X-7382713Y10511318D01*
X-6733007Y9339219D01*
X-6620000Y9205730D01*
X-6620000Y8617904D01*
X-6880024Y9247209D01*
X-7618901Y9987377D01*
X-8584784Y10388447D01*
X-9630627Y10389360D01*
X-10597209Y9989976D01*
X-11337377Y9251099D01*
X-11738447Y8285216D01*
X-11739360Y7239373D01*
X-11339976Y6272791D01*
X-10838062Y5770000D01*
X-13795198Y5770000D01*
X-14299387Y6274189D01*
X-13895732Y6273837D01*
X-13349402Y6499576D01*
X-12931045Y6917203D01*
X-12704353Y7463138D01*
X-12703837Y8054268D01*
X-12849342Y8406418D01*
X-12428333Y8441032D01*
X-11774175Y8777223D01*
X-11298468Y9338158D01*
X-10567138Y10654803D01*
X-10146909Y10979008D01*
X-9780833Y11616922D01*
X-9686742Y12346369D01*
X-9731988Y13010052D01*
X-9859643Y13481523D01*
X-9850000Y13530000D01*
X-9850000Y21510000D01*
X-9857244Y21546420D01*
X-9907852Y21800840D01*
X-10072599Y22047401D01*
X-10830000Y22804802D01*
X-10830000Y24811924D01*
X-10601099Y24582623D01*
X-9635216Y24181553D01*
X-8589373Y24180640D01*
X-7622791Y24580024D01*
X-6882623Y25318901D01*
X-6481553Y26284784D01*
X-6480640Y27330627D01*
X-6880024Y28297209D01*
X-7618901Y29037377D01*
X-8584784Y29438447D01*
X-9630627Y29439360D01*
X-10597209Y29039976D01*
X-10830000Y28807591D01*
X-10830000Y29231561D01*
X-10567138Y29704803D01*
X-10146909Y30029008D01*
X-9780833Y30666922D01*
X-9686742Y31396369D01*
X-9731988Y32060052D01*
X-9924207Y32769980D01*
X-10373472Y33352309D01*
X-10830000Y33614294D01*
X-10830000Y43861924D01*
X-10601099Y43632623D01*
X-9635216Y43231553D01*
X-8589373Y43230640D01*
X-7622791Y43630024D01*
X-6882623Y44368901D01*
X-6481553Y45334784D01*
X-6480640Y46380627D01*
X-6880024Y47347209D01*
X-7618901Y48087377D01*
X-8584784Y48488447D01*
X-9630627Y48489360D01*
X-10597209Y48089976D01*
X-10830000Y47857591D01*
X-10830000Y48281561D01*
X-10567138Y48754803D01*
X-10146909Y49079008D01*
X-9780833Y49716922D01*
X-9686742Y50446369D01*
X-9686742Y50446370D01*
X-8493258Y50446370D01*
X-8399167Y49716923D01*
X-8033091Y49079008D01*
X-7450762Y48629743D01*
X-7382713Y48611318D01*
X-6733007Y47439219D01*
X-6275000Y46898199D01*
X-6275000Y37827540D01*
X-6217148Y37536701D01*
X-6052401Y37290139D01*
X-5665885Y36903623D01*
X-5734206Y36739087D01*
X-5734774Y36088846D01*
X-5486462Y35487885D01*
X-5027073Y35027694D01*
X-4426547Y34778334D01*
X-3776306Y34777766D01*
X-3175345Y35026078D01*
X-2715154Y35485467D01*
X-2465794Y36085993D01*
X-2465226Y36736234D01*
X-2713538Y37337195D01*
X-3172927Y37797386D01*
X-3773453Y38046746D01*
X-4423694Y38047314D01*
X-4590889Y37978231D01*
X-4755000Y38142342D01*
X-4755000Y44552131D01*
X-4326862Y44374353D01*
X-3735732Y44373837D01*
X-3189402Y44599576D01*
X-2771045Y45017203D01*
X-2544353Y45563138D01*
X-2543837Y46154268D01*
X-2769576Y46700598D01*
X-3187203Y47118955D01*
X-3560547Y47273981D01*
X-3272371Y47833511D01*
X-3211466Y48566475D01*
X-3435691Y49266953D01*
X-4296993Y50820781D01*
X-4751803Y51358025D01*
X-4780833Y51583078D01*
X-5146909Y52220992D01*
X-5729238Y52670257D01*
X-6439166Y52862476D01*
X-7168613Y52768386D01*
X-7806528Y52402309D01*
X-8255793Y51819980D01*
X-8448012Y51110052D01*
X-8493258Y50446370D01*
X-9686742Y50446370D01*
X-9731988Y51110052D01*
X-9800843Y51364355D01*
X-8372599Y52792599D01*
X-8207852Y53039160D01*
X-8150000Y53330000D01*
X-8150000Y61310000D01*
X-8207852Y61600839D01*
X-8372599Y61847401D01*
X-8806027Y62280829D01*
X-8589373Y62280640D01*
X-7622791Y62680024D01*
X-6882623Y63418901D01*
X-6481553Y64384784D01*
X-6480640Y65430627D01*
X-6880024Y66397209D01*
X-7618901Y67137377D01*
X-8584784Y67538447D01*
X-9630627Y67539360D01*
X-10597209Y67139976D01*
X-11337377Y66401099D01*
X-11738447Y65435216D01*
X-11738641Y65213443D01*
X-11755000Y65229802D01*
X-11755000Y65949833D01*
X-11298468Y66488158D01*
X-10567138Y67804803D01*
X-10146909Y68129008D01*
X-9780833Y68766922D01*
X-9686742Y69496369D01*
X-9686742Y69496370D01*
X-8493258Y69496370D01*
X-8399167Y68766923D01*
X-8033091Y68129008D01*
X-7450762Y67679743D01*
X-7382713Y67661318D01*
X-6733007Y66489219D01*
X-6275000Y65948199D01*
X-6275000Y57227540D01*
X-6217148Y56936701D01*
X-6052401Y56690139D01*
X-5365885Y56003623D01*
X-5434206Y55839087D01*
X-5434774Y55188846D01*
X-5186462Y54587885D01*
X-4727073Y54127694D01*
X-4126547Y53878334D01*
X-3476306Y53877766D01*
X-2875345Y54126078D01*
X-2415154Y54585467D01*
X-2165794Y55185993D01*
X-2165226Y55836234D01*
X-2413538Y56437195D01*
X-2872927Y56897386D01*
X-3473453Y57146746D01*
X-4123694Y57147314D01*
X-4290889Y57078231D01*
X-4755000Y57542342D01*
X-4755000Y63602131D01*
X-4326862Y63424353D01*
X-3735732Y63423837D01*
X-3189402Y63649576D01*
X-2771045Y64067203D01*
X-2544353Y64613138D01*
X-2543837Y65204268D01*
X-2769576Y65750598D01*
X-3187203Y66168955D01*
X-3560547Y66323981D01*
X-3272371Y66883511D01*
X-3211466Y67616475D01*
X-3435691Y68316953D01*
X-4296993Y69870781D01*
X-4751803Y70408025D01*
X-4780833Y70633078D01*
X-5146909Y71270992D01*
X-5729238Y71720257D01*
X-6439166Y71912476D01*
X-7168613Y71818386D01*
X-7806528Y71452309D01*
X-8255793Y70869980D01*
X-8448012Y70160052D01*
X-8493258Y69496370D01*
X-9686742Y69496370D01*
X-9731988Y70160052D01*
X-9924207Y70869980D01*
X-10373472Y71452309D01*
X-11011387Y71818385D01*
X-11740834Y71912476D01*
X-12450762Y71720257D01*
X-13033091Y71270992D01*
X-13091761Y71168755D01*
X-13091638Y71309897D01*
X-13321235Y71865564D01*
X-13746000Y72291071D01*
X-14301265Y72521637D01*
X-14902497Y72522162D01*
X-15450000Y72295938D01*
X-15450000Y72795198D01*
X-13742098Y74503100D01*
X-13376806Y74503100D01*
X-12798457Y74618141D01*
X-12308156Y74945750D01*
X-11980547Y75436051D01*
X-11865506Y76014400D01*
X-11980547Y76592749D01*
X-12048420Y76694328D01*
X-7612046Y72257954D01*
X-7381705Y72104046D01*
X-7110000Y72050000D01*
X-1570000Y72050000D01*
X-1570000Y18444105D01*
X-1772927Y18647386D01*
X-2373453Y18896746D01*
X-3023694Y18897314D01*
X-3624655Y18649002D01*
X-3668195Y18605537D01*
X-4755000Y19692342D01*
X-4755000Y25502131D01*
X-4326862Y25324353D01*
X-3735732Y25323837D01*
X-3189402Y25549576D01*
X-2771045Y25967203D01*
X-2544353Y26513138D01*
X-2543837Y27104268D01*
X-2769576Y27650598D01*
X-3187203Y28068955D01*
X-3560547Y28223981D01*
X-3272371Y28783511D01*
X-3211466Y29516475D01*
X-3435691Y30216953D01*
X-4296993Y31770781D01*
X-4751803Y32308025D01*
X-4780833Y32533078D01*
X-5146909Y33170992D01*
X-5729238Y33620257D01*
X-6439166Y33812476D01*
X-7168613Y33718386D01*
X-7806528Y33352309D01*
X-8255793Y32769980D01*
X-8448012Y32060052D01*
X-8493258Y31396370D01*
X-8399167Y30666923D01*
X-8033091Y30029008D01*
X-7450762Y29579743D01*
X-7382713Y29561318D01*
X-6733007Y28389219D01*
X-6275000Y27848199D01*
X-6275000Y19377540D01*
X-6217148Y19086701D01*
X-6052401Y18840139D01*
X-4334614Y17122352D01*
X-4334774Y16938846D01*
X-4086462Y16337885D01*
X-3627073Y15877694D01*
X-3026547Y15628334D01*
X-2376306Y15627766D01*
X-1775345Y15876078D01*
X-1570000Y16081065D01*
X-1570000Y470000D01*
X-16965610Y470000D01*
X-16965610Y2259490D01*
X-17009888Y2494807D01*
X-17148960Y2710931D01*
X-17361160Y2855921D01*
X-17613050Y2906930D01*
X-19612030Y2906930D01*
X-19847347Y2862652D01*
X-20063471Y2723580D01*
X-20208461Y2511380D01*
X-20259470Y2259490D01*
X-20259470Y470000D01*
X-93223813Y470000D01*
X-93215610Y510510D01*
X-93215610Y2509490D01*
X-93259888Y2744807D01*
X-93398960Y2960931D01*
X-93611160Y3105921D01*
X-93863050Y3156930D01*
X-94102540Y3156930D01*
X-94102540Y3359490D01*
X-77409470Y3359490D01*
X-77409470Y1360510D01*
X-77365192Y1125193D01*
X-77226120Y909069D01*
X-77013920Y764079D01*
X-76762030Y713070D01*
X-74763050Y713070D01*
X-74527733Y757348D01*
X-74311609Y896420D01*
X-74166619Y1108620D01*
X-74115610Y1360510D01*
X-74115610Y3359490D01*
X-74159888Y3594807D01*
X-74201510Y3659490D01*
X-58359470Y3659490D01*
X-58359470Y1660510D01*
X-58315192Y1425193D01*
X-58176120Y1209069D01*
X-57963920Y1064079D01*
X-57712030Y1013070D01*
X-55713050Y1013070D01*
X-55477733Y1057348D01*
X-55261609Y1196420D01*
X-55116619Y1408620D01*
X-55065610Y1660510D01*
X-55065610Y3659490D01*
X-55109888Y3894807D01*
X-55248960Y4110931D01*
X-55461160Y4255921D01*
X-55713050Y4306930D01*
X-57712030Y4306930D01*
X-57947347Y4262652D01*
X-58163471Y4123580D01*
X-58308461Y3911380D01*
X-58359470Y3659490D01*
X-74201510Y3659490D01*
X-74298960Y3810931D01*
X-74511160Y3955921D01*
X-74763050Y4006930D01*
X-76762030Y4006930D01*
X-76997347Y3962652D01*
X-77213471Y3823580D01*
X-77358461Y3611380D01*
X-77409470Y3359490D01*
X-94102540Y3359490D01*
X-94102540Y8692658D01*
X-89822599Y12972599D01*
X-89657852Y13219161D01*
X-89600000Y13510000D01*
X-89600000Y22510000D01*
X-89657852Y22800839D01*
X-89822599Y23047401D01*
X-91350000Y24574802D01*
X-91350000Y25668453D01*
X-91232797Y25551045D01*
X-90686862Y25324353D01*
X-90095732Y25323837D01*
X-89549402Y25549576D01*
X-89131045Y25967203D01*
X-88904353Y26513138D01*
X-88903837Y27104268D01*
X-89049342Y27456418D01*
X-88628333Y27491032D01*
X-88550000Y27531290D01*
X-88550000Y14597539D01*
X-88650762Y14570257D01*
X-89233091Y14120992D01*
X-89599167Y13483077D01*
X-89655351Y13047504D01*
X-89931533Y12721842D01*
X-90794188Y11168766D01*
X-91019024Y10468484D01*
X-90958758Y9735467D01*
X-90703258Y9238317D01*
X-91230598Y9020424D01*
X-91648955Y8602797D01*
X-91875647Y8056862D01*
X-91876163Y7465732D01*
X-91650424Y6919402D01*
X-91232797Y6501045D01*
X-90686862Y6274353D01*
X-90095732Y6273837D01*
X-89549402Y6499576D01*
X-89131045Y6917203D01*
X-88997269Y7239373D01*
X-87939360Y7239373D01*
X-87539976Y6272791D01*
X-86801099Y5532623D01*
X-85835216Y5131553D01*
X-84789373Y5130640D01*
X-83822791Y5530024D01*
X-83082623Y6268901D01*
X-82681553Y7234784D01*
X-82680640Y8280627D01*
X-83080024Y9247209D01*
X-83818901Y9987377D01*
X-84784784Y10388447D01*
X-85830627Y10389360D01*
X-86797209Y9989976D01*
X-87537377Y9251099D01*
X-87938447Y8285216D01*
X-87939360Y7239373D01*
X-88997269Y7239373D01*
X-88904353Y7463138D01*
X-88903837Y8054268D01*
X-89049342Y8406418D01*
X-88628333Y8441032D01*
X-87974175Y8777223D01*
X-87498468Y9338158D01*
X-86767138Y10654803D01*
X-86346909Y10979008D01*
X-85980833Y11616922D01*
X-85886742Y12346369D01*
X-85886742Y12346370D01*
X-84693258Y12346370D01*
X-84599167Y11616923D01*
X-84233091Y10979008D01*
X-83650762Y10529743D01*
X-83582713Y10511318D01*
X-82933007Y9339219D01*
X-82457789Y8777869D01*
X-81803924Y8441108D01*
X-81564360Y8421202D01*
X-81715647Y8056862D01*
X-81716163Y7465732D01*
X-81490424Y6919402D01*
X-81072797Y6501045D01*
X-80526862Y6274353D01*
X-79935732Y6273837D01*
X-79389402Y6499576D01*
X-78971045Y6917203D01*
X-78744353Y7463138D01*
X-78743837Y8054268D01*
X-78969576Y8600598D01*
X-79387203Y9018955D01*
X-79760547Y9173981D01*
X-79472371Y9733511D01*
X-79427792Y10270000D01*
X-77252540Y10270000D01*
X-76961701Y10327852D01*
X-76715139Y10492599D01*
X-76253623Y10954115D01*
X-76089087Y10885794D01*
X-75438846Y10885226D01*
X-74837885Y11133538D01*
X-74377694Y11592927D01*
X-74128334Y12193453D01*
X-74127766Y12843694D01*
X-74376078Y13444655D01*
X-74835467Y13904846D01*
X-75435993Y14154206D01*
X-76086234Y14154774D01*
X-76687195Y13906462D01*
X-77147386Y13447073D01*
X-77396746Y12846547D01*
X-77397314Y12196306D01*
X-77328231Y12029111D01*
X-77567342Y11790000D01*
X-79981052Y11790000D01*
X-80496993Y12720781D01*
X-80951803Y13258025D01*
X-80980833Y13483078D01*
X-81346909Y14120992D01*
X-81929238Y14570257D01*
X-82639166Y14762476D01*
X-83368613Y14668386D01*
X-84006528Y14302309D01*
X-84455793Y13719980D01*
X-84648012Y13010052D01*
X-84693258Y12346370D01*
X-85886742Y12346370D01*
X-85931988Y13010052D01*
X-86124207Y13719980D01*
X-86573472Y14302309D01*
X-87030000Y14564294D01*
X-87030000Y22809490D01*
X-77459470Y22809490D01*
X-77459470Y20810510D01*
X-77415192Y20575193D01*
X-77276120Y20359069D01*
X-77063920Y20214079D01*
X-76812030Y20163070D01*
X-74813050Y20163070D01*
X-74577733Y20207348D01*
X-74361609Y20346420D01*
X-74216619Y20558620D01*
X-74165610Y20810510D01*
X-74165610Y22809490D01*
X-74209888Y23044807D01*
X-74348960Y23260931D01*
X-74561160Y23405921D01*
X-74813050Y23456930D01*
X-76812030Y23456930D01*
X-77047347Y23412652D01*
X-77263471Y23273580D01*
X-77408461Y23061380D01*
X-77459470Y22809490D01*
X-87030000Y22809490D01*
X-87030000Y24811924D01*
X-86801099Y24582623D01*
X-85835216Y24181553D01*
X-84789373Y24180640D01*
X-83822791Y24580024D01*
X-83082623Y25318901D01*
X-82681553Y26284784D01*
X-82680640Y27330627D01*
X-83080024Y28297209D01*
X-83818901Y29037377D01*
X-84784784Y29438447D01*
X-85830627Y29439360D01*
X-86797209Y29039976D01*
X-87030000Y28807591D01*
X-87030000Y29231561D01*
X-86767138Y29704803D01*
X-86346909Y30029008D01*
X-85980833Y30666922D01*
X-85886742Y31396369D01*
X-85886742Y31396370D01*
X-84693258Y31396370D01*
X-84599167Y30666923D01*
X-84233091Y30029008D01*
X-83650762Y29579743D01*
X-83582713Y29561318D01*
X-82933007Y28389219D01*
X-82457789Y27827869D01*
X-81803924Y27491108D01*
X-81564360Y27471202D01*
X-81715647Y27106862D01*
X-81716163Y26515732D01*
X-81490424Y25969402D01*
X-81072797Y25551045D01*
X-80526862Y25324353D01*
X-79935732Y25323837D01*
X-79389402Y25549576D01*
X-78971045Y25967203D01*
X-78744353Y26513138D01*
X-78743837Y27104268D01*
X-78969576Y27650598D01*
X-79387203Y28068955D01*
X-79760547Y28223981D01*
X-79472371Y28783511D01*
X-79427792Y29320000D01*
X-77702540Y29320000D01*
X-77411701Y29377852D01*
X-77165139Y29542599D01*
X-76303623Y30404115D01*
X-76139087Y30335794D01*
X-75488846Y30335226D01*
X-74887885Y30583538D01*
X-74427694Y31042927D01*
X-74178334Y31643453D01*
X-74177766Y32293694D01*
X-74426078Y32894655D01*
X-74885467Y33354846D01*
X-75485993Y33604206D01*
X-76136234Y33604774D01*
X-76737195Y33356462D01*
X-77197386Y32897073D01*
X-77446746Y32296547D01*
X-77447314Y31646306D01*
X-77378231Y31479111D01*
X-78017342Y30840000D01*
X-79981052Y30840000D01*
X-80496993Y31770781D01*
X-80951803Y32308025D01*
X-80980833Y32533078D01*
X-81346909Y33170992D01*
X-81929238Y33620257D01*
X-82639166Y33812476D01*
X-83368613Y33718386D01*
X-84006528Y33352309D01*
X-84455793Y32769980D01*
X-84648012Y32060052D01*
X-84693258Y31396370D01*
X-85886742Y31396370D01*
X-85931988Y32060052D01*
X-86124207Y32769980D01*
X-86573472Y33352309D01*
X-87030000Y33614294D01*
X-87030000Y43861924D01*
X-86801099Y43632623D01*
X-85835216Y43231553D01*
X-84789373Y43230640D01*
X-83822791Y43630024D01*
X-83082623Y44368901D01*
X-82681553Y45334784D01*
X-82680640Y46380627D01*
X-83080024Y47347209D01*
X-83818901Y48087377D01*
X-84784784Y48488447D01*
X-85830627Y48489360D01*
X-86797209Y48089976D01*
X-87030000Y47857591D01*
X-87030000Y48281561D01*
X-86767138Y48754803D01*
X-86346909Y49079008D01*
X-85980833Y49716922D01*
X-85886742Y50446369D01*
X-85886742Y50446370D01*
X-84693258Y50446370D01*
X-84599167Y49716923D01*
X-84233091Y49079008D01*
X-83650762Y48629743D01*
X-83582713Y48611318D01*
X-82933007Y47439219D01*
X-82475000Y46898199D01*
X-82475000Y38027540D01*
X-82417148Y37736701D01*
X-82252401Y37490139D01*
X-81565885Y36803623D01*
X-81634206Y36639087D01*
X-81634774Y35988846D01*
X-81386462Y35387885D01*
X-80927073Y34927694D01*
X-80326547Y34678334D01*
X-79676306Y34677766D01*
X-79075345Y34926078D01*
X-78615154Y35385467D01*
X-78365794Y35985993D01*
X-78365226Y36636234D01*
X-78613538Y37237195D01*
X-79072927Y37697386D01*
X-79673453Y37946746D01*
X-80323694Y37947314D01*
X-80490889Y37878231D01*
X-80955000Y38342342D01*
X-80955000Y44552131D01*
X-80526862Y44374353D01*
X-79935732Y44373837D01*
X-79389402Y44599576D01*
X-78971045Y45017203D01*
X-78744353Y45563138D01*
X-78743837Y46154268D01*
X-78969576Y46700598D01*
X-79387203Y47118955D01*
X-79760547Y47273981D01*
X-79472371Y47833511D01*
X-79411466Y48566475D01*
X-79635691Y49266953D01*
X-80496993Y50820781D01*
X-80951803Y51358025D01*
X-80980833Y51583078D01*
X-81346909Y52220992D01*
X-81929238Y52670257D01*
X-82639166Y52862476D01*
X-83368613Y52768386D01*
X-84006528Y52402309D01*
X-84455793Y51819980D01*
X-84648012Y51110052D01*
X-84693258Y50446370D01*
X-85886742Y50446370D01*
X-85931988Y51110052D01*
X-86124207Y51819980D01*
X-86573472Y52402309D01*
X-87030000Y52664294D01*
X-87030000Y59955198D01*
X-84737401Y57662599D01*
X-84490839Y57497852D01*
X-84200000Y57440000D01*
X-79011203Y57440000D01*
X-78971965Y57345036D01*
X-78557302Y56929649D01*
X-78970471Y56517200D01*
X-79201037Y55961935D01*
X-79201562Y55360703D01*
X-78971965Y54805036D01*
X-78557302Y54389649D01*
X-78970471Y53977200D01*
X-79201037Y53421935D01*
X-79201562Y52820703D01*
X-78971965Y52265036D01*
X-78557302Y51849649D01*
X-78970471Y51437200D01*
X-79201037Y50881935D01*
X-79201562Y50280703D01*
X-78971965Y49725036D01*
X-78557302Y49309649D01*
X-78970471Y48897200D01*
X-79201037Y48341935D01*
X-79201562Y47740703D01*
X-78971965Y47185036D01*
X-78547200Y46759529D01*
X-77991935Y46528963D01*
X-77390703Y46528438D01*
X-76835036Y46758035D01*
X-76409529Y47182800D01*
X-76178963Y47738065D01*
X-76178438Y48339297D01*
X-76408035Y48894964D01*
X-76822698Y49310351D01*
X-76409529Y49722800D01*
X-76178963Y50278065D01*
X-76178438Y50879297D01*
X-76408035Y51434964D01*
X-76822698Y51850351D01*
X-76409529Y52262800D01*
X-76178963Y52818065D01*
X-76178438Y53419297D01*
X-76408035Y53974964D01*
X-76822698Y54390351D01*
X-76409529Y54802800D01*
X-76369168Y54900000D01*
X-76174802Y54900000D01*
X-71387401Y50112599D01*
X-71305776Y50058059D01*
X-71744188Y49268766D01*
X-71969024Y48568484D01*
X-71908758Y47835467D01*
X-71653258Y47338317D01*
X-72180598Y47120424D01*
X-72598955Y46702797D01*
X-72825647Y46156862D01*
X-72826163Y45565732D01*
X-72600424Y45019402D01*
X-72182797Y44601045D01*
X-71636862Y44374353D01*
X-71045732Y44373837D01*
X-70499402Y44599576D01*
X-70081045Y45017203D01*
X-69854353Y45563138D01*
X-69853837Y46154268D01*
X-69999342Y46506418D01*
X-69578333Y46541032D01*
X-69500000Y46581290D01*
X-69500000Y33647539D01*
X-69600762Y33620257D01*
X-70183091Y33170992D01*
X-70549167Y32533077D01*
X-70605351Y32097504D01*
X-70881533Y31771842D01*
X-71744188Y30218766D01*
X-71969024Y29518484D01*
X-71908758Y28785467D01*
X-71653258Y28288317D01*
X-72180598Y28070424D01*
X-72598955Y27652797D01*
X-72825647Y27106862D01*
X-72826163Y26515732D01*
X-72600424Y25969402D01*
X-72182797Y25551045D01*
X-71636862Y25324353D01*
X-71045732Y25323837D01*
X-70499402Y25549576D01*
X-70081045Y25967203D01*
X-69854353Y26513138D01*
X-69853837Y27104268D01*
X-69999342Y27456418D01*
X-69578333Y27491032D01*
X-69500000Y27531290D01*
X-69500000Y14597539D01*
X-69600762Y14570257D01*
X-70183091Y14120992D01*
X-70549167Y13483077D01*
X-70605351Y13047504D01*
X-70881533Y12721842D01*
X-71744188Y11168766D01*
X-71969024Y10468484D01*
X-71908758Y9735467D01*
X-71653258Y9238317D01*
X-72180598Y9020424D01*
X-72598955Y8602797D01*
X-72825647Y8056862D01*
X-72826163Y7465732D01*
X-72600424Y6919402D01*
X-72182797Y6501045D01*
X-71636862Y6274353D01*
X-71045732Y6273837D01*
X-70499402Y6499576D01*
X-70081045Y6917203D01*
X-69947269Y7239373D01*
X-68889360Y7239373D01*
X-68489976Y6272791D01*
X-67751099Y5532623D01*
X-66785216Y5131553D01*
X-65739373Y5130640D01*
X-64772791Y5530024D01*
X-64032623Y6268901D01*
X-63631553Y7234784D01*
X-63630640Y8280627D01*
X-64030024Y9247209D01*
X-64768901Y9987377D01*
X-65734784Y10388447D01*
X-66780627Y10389360D01*
X-67747209Y9989976D01*
X-68487377Y9251099D01*
X-68888447Y8285216D01*
X-68889360Y7239373D01*
X-69947269Y7239373D01*
X-69854353Y7463138D01*
X-69853837Y8054268D01*
X-69999342Y8406418D01*
X-69578333Y8441032D01*
X-68924175Y8777223D01*
X-68448468Y9338158D01*
X-67717138Y10654803D01*
X-67296909Y10979008D01*
X-66930833Y11616922D01*
X-66836742Y12346369D01*
X-66836742Y12346370D01*
X-65643258Y12346370D01*
X-65549167Y11616923D01*
X-65183091Y10979008D01*
X-64600762Y10529743D01*
X-64532713Y10511318D01*
X-63883007Y9339219D01*
X-63407789Y8777869D01*
X-62753924Y8441108D01*
X-62514360Y8421202D01*
X-62665647Y8056862D01*
X-62666163Y7465732D01*
X-62440424Y6919402D01*
X-62022797Y6501045D01*
X-61476862Y6274353D01*
X-60885732Y6273837D01*
X-60339402Y6499576D01*
X-59921045Y6917203D01*
X-59694353Y7463138D01*
X-59693837Y8054268D01*
X-59919576Y8600598D01*
X-60337203Y9018955D01*
X-60710547Y9173981D01*
X-60422371Y9733511D01*
X-60377792Y10270000D01*
X-58502540Y10270000D01*
X-58211701Y10327852D01*
X-57965139Y10492599D01*
X-57203623Y11254115D01*
X-57039087Y11185794D01*
X-56388846Y11185226D01*
X-55787885Y11433538D01*
X-55327694Y11892927D01*
X-55078334Y12493453D01*
X-55077766Y13143694D01*
X-55326078Y13744655D01*
X-55785467Y14204846D01*
X-56385993Y14454206D01*
X-57036234Y14454774D01*
X-57637195Y14206462D01*
X-58097386Y13747073D01*
X-58346746Y13146547D01*
X-58347314Y12496306D01*
X-58278231Y12329111D01*
X-58817342Y11790000D01*
X-60931052Y11790000D01*
X-61446993Y12720781D01*
X-61901803Y13258025D01*
X-61930833Y13483078D01*
X-62296909Y14120992D01*
X-62879238Y14570257D01*
X-63589166Y14762476D01*
X-64318613Y14668386D01*
X-64956528Y14302309D01*
X-65405793Y13719980D01*
X-65598012Y13010052D01*
X-65643258Y12346370D01*
X-66836742Y12346370D01*
X-66881988Y13010052D01*
X-67074207Y13719980D01*
X-67523472Y14302309D01*
X-67980000Y14564294D01*
X-67980000Y22359490D01*
X-58259470Y22359490D01*
X-58259470Y20360510D01*
X-58215192Y20125193D01*
X-58076120Y19909069D01*
X-57863920Y19764079D01*
X-57612030Y19713070D01*
X-55613050Y19713070D01*
X-55377733Y19757348D01*
X-55161609Y19896420D01*
X-55016619Y20108620D01*
X-54965610Y20360510D01*
X-54965610Y22359490D01*
X-55009888Y22594807D01*
X-55148960Y22810931D01*
X-55361160Y22955921D01*
X-55613050Y23006930D01*
X-57612030Y23006930D01*
X-57847347Y22962652D01*
X-58063471Y22823580D01*
X-58208461Y22611380D01*
X-58259470Y22359490D01*
X-67980000Y22359490D01*
X-67980000Y24811924D01*
X-67751099Y24582623D01*
X-66785216Y24181553D01*
X-65739373Y24180640D01*
X-64772791Y24580024D01*
X-64032623Y25318901D01*
X-63631553Y26284784D01*
X-63630640Y27330627D01*
X-64030024Y28297209D01*
X-64768901Y29037377D01*
X-65734784Y29438447D01*
X-66780627Y29439360D01*
X-67747209Y29039976D01*
X-67980000Y28807591D01*
X-67980000Y29231561D01*
X-67717138Y29704803D01*
X-67296909Y30029008D01*
X-66930833Y30666922D01*
X-66836742Y31396369D01*
X-66836742Y31396370D01*
X-65643258Y31396370D01*
X-65549167Y30666923D01*
X-65183091Y30029008D01*
X-64600762Y29579743D01*
X-64532713Y29561318D01*
X-63883007Y28389219D01*
X-63407789Y27827869D01*
X-62753924Y27491108D01*
X-62514360Y27471202D01*
X-62665647Y27106862D01*
X-62666163Y26515732D01*
X-62440424Y25969402D01*
X-62022797Y25551045D01*
X-61476862Y25324353D01*
X-60885732Y25323837D01*
X-60339402Y25549576D01*
X-59921045Y25967203D01*
X-59694353Y26513138D01*
X-59693837Y27104268D01*
X-59919576Y27650598D01*
X-60337203Y28068955D01*
X-60710547Y28223981D01*
X-60422371Y28783511D01*
X-60377792Y29320000D01*
X-58052540Y29320000D01*
X-57761701Y29377852D01*
X-57515139Y29542599D01*
X-57103623Y29954115D01*
X-56939087Y29885794D01*
X-56288846Y29885226D01*
X-55687885Y30133538D01*
X-55227694Y30592927D01*
X-54978334Y31193453D01*
X-54977766Y31843694D01*
X-55226078Y32444655D01*
X-55685467Y32904846D01*
X-56285993Y33154206D01*
X-56936234Y33154774D01*
X-57537195Y32906462D01*
X-57997386Y32447073D01*
X-58246746Y31846547D01*
X-58247314Y31196306D01*
X-58178231Y31029111D01*
X-58367342Y30840000D01*
X-60931052Y30840000D01*
X-61446993Y31770781D01*
X-61901803Y32308025D01*
X-61930833Y32533078D01*
X-62296909Y33170992D01*
X-62879238Y33620257D01*
X-63589166Y33812476D01*
X-64318613Y33718386D01*
X-64956528Y33352309D01*
X-65405793Y32769980D01*
X-65598012Y32060052D01*
X-65643258Y31396370D01*
X-66836742Y31396370D01*
X-66881988Y32060052D01*
X-67074207Y32769980D01*
X-67523472Y33352309D01*
X-67980000Y33614294D01*
X-67980000Y41609490D01*
X-58459470Y41609490D01*
X-58459470Y39610510D01*
X-58415192Y39375193D01*
X-58276120Y39159069D01*
X-58063920Y39014079D01*
X-57812030Y38963070D01*
X-55813050Y38963070D01*
X-55577733Y39007348D01*
X-55361609Y39146420D01*
X-55216619Y39358620D01*
X-55165610Y39610510D01*
X-55165610Y41609490D01*
X-55209888Y41844807D01*
X-55348960Y42060931D01*
X-55561160Y42205921D01*
X-55813050Y42256930D01*
X-57812030Y42256930D01*
X-58047347Y42212652D01*
X-58263471Y42073580D01*
X-58408461Y41861380D01*
X-58459470Y41609490D01*
X-67980000Y41609490D01*
X-67980000Y43861924D01*
X-67751099Y43632623D01*
X-66785216Y43231553D01*
X-65739373Y43230640D01*
X-64772791Y43630024D01*
X-64032623Y44368901D01*
X-63631553Y45334784D01*
X-63630640Y46380627D01*
X-64030024Y47347209D01*
X-64768901Y48087377D01*
X-65734784Y48488447D01*
X-66780627Y48489360D01*
X-67747209Y48089976D01*
X-67980000Y47857591D01*
X-67980000Y48281561D01*
X-67717138Y48754803D01*
X-67296909Y49079008D01*
X-66930833Y49716922D01*
X-66836742Y50446369D01*
X-66836742Y50446370D01*
X-65643258Y50446370D01*
X-65549167Y49716923D01*
X-65183091Y49079008D01*
X-64600762Y48629743D01*
X-64532713Y48611318D01*
X-63883007Y47439219D01*
X-63407789Y46877869D01*
X-62753924Y46541108D01*
X-62514360Y46521202D01*
X-62665647Y46156862D01*
X-62666163Y45565732D01*
X-62440424Y45019402D01*
X-62022797Y44601045D01*
X-61476862Y44374353D01*
X-60885732Y44373837D01*
X-60339402Y44599576D01*
X-59921045Y45017203D01*
X-59694353Y45563138D01*
X-59693837Y46154268D01*
X-59919576Y46700598D01*
X-60337203Y47118955D01*
X-60710547Y47273981D01*
X-60422371Y47833511D01*
X-60361466Y48566475D01*
X-60585691Y49266953D01*
X-60997569Y50010000D01*
X-58267036Y50010000D01*
X-58199002Y49845345D01*
X-57739613Y49385154D01*
X-57139087Y49135794D01*
X-56488846Y49135226D01*
X-55887885Y49383538D01*
X-55427694Y49842927D01*
X-55178334Y50443453D01*
X-55177766Y51093694D01*
X-55426078Y51694655D01*
X-55885467Y52154846D01*
X-56485993Y52404206D01*
X-57136234Y52404774D01*
X-57737195Y52156462D01*
X-58197386Y51697073D01*
X-58266761Y51530000D01*
X-61923986Y51530000D01*
X-61930833Y51583078D01*
X-62296909Y52220992D01*
X-62879238Y52670257D01*
X-63589166Y52862476D01*
X-64318613Y52768386D01*
X-64956528Y52402309D01*
X-65405793Y51819980D01*
X-65598012Y51110052D01*
X-65643258Y50446370D01*
X-66836742Y50446370D01*
X-66881988Y51110052D01*
X-67074207Y51819980D01*
X-67523472Y52402309D01*
X-67980000Y52664294D01*
X-67980000Y62911924D01*
X-67751099Y62682623D01*
X-66785216Y62281553D01*
X-65739373Y62280640D01*
X-64772791Y62680024D01*
X-64032623Y63418901D01*
X-63631553Y64384784D01*
X-63630640Y65430627D01*
X-64030024Y66397209D01*
X-64768901Y67137377D01*
X-65734784Y67538447D01*
X-66780627Y67539360D01*
X-67747209Y67139976D01*
X-67980000Y66907591D01*
X-67980000Y67331561D01*
X-67717138Y67804803D01*
X-67296909Y68129008D01*
X-66930833Y68766922D01*
X-66836742Y69496369D01*
X-66836742Y69496370D01*
X-65643258Y69496370D01*
X-65549167Y68766923D01*
X-65183091Y68129008D01*
X-64600762Y67679743D01*
X-64532713Y67661318D01*
X-63883007Y66489219D01*
X-63407789Y65927869D01*
X-62753924Y65591108D01*
X-62514360Y65571202D01*
X-62665647Y65206862D01*
X-62666163Y64615732D01*
X-62440424Y64069402D01*
X-62116582Y63744994D01*
X-62338943Y63653117D01*
X-62602192Y63390327D01*
X-62744838Y63046799D01*
X-62745162Y62674833D01*
X-62603117Y62331057D01*
X-62340327Y62067808D01*
X-61996799Y61925162D01*
X-61949923Y61925121D01*
X-59300000Y59275198D01*
X-59300000Y56726238D01*
X-59366226Y56698874D01*
X-59663070Y56402548D01*
X-59663070Y56406950D01*
X-59707348Y56642267D01*
X-59846420Y56858391D01*
X-60058620Y57003381D01*
X-60310510Y57054390D01*
X-62309490Y57054390D01*
X-62544807Y57010112D01*
X-62760931Y56871040D01*
X-62905921Y56658840D01*
X-62956930Y56406950D01*
X-62956930Y54407970D01*
X-62912652Y54172653D01*
X-62773580Y53956529D01*
X-62561380Y53811539D01*
X-62309490Y53760530D01*
X-60310510Y53760530D01*
X-60075193Y53804808D01*
X-59859069Y53943880D01*
X-59714079Y54156080D01*
X-59663070Y54407970D01*
X-59663070Y54517768D01*
X-59368387Y54222570D01*
X-58831786Y53999754D01*
X-58250763Y53999247D01*
X-57713774Y54221126D01*
X-57302570Y54631613D01*
X-57079754Y55168214D01*
X-57079247Y55749237D01*
X-57301126Y56286226D01*
X-57711613Y56697430D01*
X-57780000Y56725827D01*
X-57780000Y57897085D01*
X-57612030Y57863070D01*
X-55613050Y57863070D01*
X-55377733Y57907348D01*
X-55161609Y58046420D01*
X-55016619Y58258620D01*
X-54965610Y58510510D01*
X-54965610Y60509490D01*
X-55009888Y60744807D01*
X-55148960Y60960931D01*
X-55361160Y61105921D01*
X-55613050Y61156930D01*
X-57612030Y61156930D01*
X-57847347Y61112652D01*
X-58063471Y60973580D01*
X-58208461Y60761380D01*
X-58259470Y60509490D01*
X-58259470Y60384272D01*
X-60874878Y62999680D01*
X-60874838Y63045167D01*
X-61016883Y63388943D01*
X-61051861Y63423982D01*
X-60885732Y63423837D01*
X-60339402Y63649576D01*
X-59921045Y64067203D01*
X-59694353Y64613138D01*
X-59694351Y64615732D01*
X-53776163Y64615732D01*
X-53550424Y64069402D01*
X-53132797Y63651045D01*
X-52586862Y63424353D01*
X-51995732Y63423837D01*
X-51449402Y63649576D01*
X-51375000Y63723848D01*
X-51375000Y51799447D01*
X-51499167Y51583077D01*
X-51555351Y51147504D01*
X-51831533Y50821842D01*
X-52694188Y49268766D01*
X-52919024Y48568484D01*
X-52858758Y47835467D01*
X-52603258Y47338317D01*
X-53130598Y47120424D01*
X-53548955Y46702797D01*
X-53775647Y46156862D01*
X-53776163Y45565732D01*
X-53550424Y45019402D01*
X-53132797Y44601045D01*
X-52586862Y44374353D01*
X-51995732Y44373837D01*
X-51449402Y44599576D01*
X-51031045Y45017203D01*
X-50804353Y45563138D01*
X-50803837Y46154268D01*
X-50949342Y46506418D01*
X-50528333Y46541032D01*
X-50450000Y46581290D01*
X-50450000Y33647539D01*
X-50550762Y33620257D01*
X-51133091Y33170992D01*
X-51499167Y32533077D01*
X-51555351Y32097504D01*
X-51831533Y31771842D01*
X-52694188Y30218766D01*
X-52919024Y29518484D01*
X-52858758Y28785467D01*
X-52603258Y28288317D01*
X-53130598Y28070424D01*
X-53548955Y27652797D01*
X-53775647Y27106862D01*
X-53776163Y26515732D01*
X-53550424Y25969402D01*
X-53132797Y25551045D01*
X-52586862Y25324353D01*
X-51995732Y25323837D01*
X-51449402Y25549576D01*
X-51031045Y25967203D01*
X-50804353Y26513138D01*
X-50803837Y27104268D01*
X-50949342Y27456418D01*
X-50528333Y27491032D01*
X-50450000Y27531290D01*
X-50450000Y14597539D01*
X-50550762Y14570257D01*
X-51133091Y14120992D01*
X-51499167Y13483077D01*
X-51555351Y13047504D01*
X-51831533Y12721842D01*
X-52694188Y11168766D01*
X-52919024Y10468484D01*
X-52858758Y9735467D01*
X-52603258Y9238317D01*
X-53130598Y9020424D01*
X-53548955Y8602797D01*
X-53775647Y8056862D01*
X-53776163Y7465732D01*
X-53550424Y6919402D01*
X-53132797Y6501045D01*
X-52586862Y6274353D01*
X-51995732Y6273837D01*
X-51449402Y6499576D01*
X-51031045Y6917203D01*
X-50897269Y7239373D01*
X-49839360Y7239373D01*
X-49439976Y6272791D01*
X-48701099Y5532623D01*
X-47735216Y5131553D01*
X-46689373Y5130640D01*
X-45722791Y5530024D01*
X-44982623Y6268901D01*
X-44581553Y7234784D01*
X-44580640Y8280627D01*
X-44980024Y9247209D01*
X-45718901Y9987377D01*
X-46684784Y10388447D01*
X-47730627Y10389360D01*
X-48697209Y9989976D01*
X-49437377Y9251099D01*
X-49838447Y8285216D01*
X-49839360Y7239373D01*
X-50897269Y7239373D01*
X-50804353Y7463138D01*
X-50803837Y8054268D01*
X-50949342Y8406418D01*
X-50528333Y8441032D01*
X-49874175Y8777223D01*
X-49398468Y9338158D01*
X-48667138Y10654803D01*
X-48246909Y10979008D01*
X-47880833Y11616922D01*
X-47786742Y12346369D01*
X-47786742Y12346370D01*
X-46593258Y12346370D01*
X-46499167Y11616923D01*
X-46133091Y10979008D01*
X-45550762Y10529743D01*
X-45482713Y10511318D01*
X-44833007Y9339219D01*
X-44357789Y8777869D01*
X-43703924Y8441108D01*
X-43464360Y8421202D01*
X-43615647Y8056862D01*
X-43616163Y7465732D01*
X-43390424Y6919402D01*
X-42972797Y6501045D01*
X-42426862Y6274353D01*
X-41835732Y6273837D01*
X-41289402Y6499576D01*
X-40871045Y6917203D01*
X-40644353Y7463138D01*
X-40643837Y8054268D01*
X-40869576Y8600598D01*
X-41287203Y9018955D01*
X-41660547Y9173981D01*
X-41372371Y9733511D01*
X-41327792Y10270000D01*
X-38490000Y10270000D01*
X-38199161Y10327852D01*
X-37952599Y10492599D01*
X-37339641Y11105557D01*
X-36787885Y11333538D01*
X-36327694Y11792927D01*
X-36078334Y12393453D01*
X-36077766Y13043694D01*
X-36326078Y13644655D01*
X-36785467Y14104846D01*
X-37385993Y14354206D01*
X-38036234Y14354774D01*
X-38637195Y14106462D01*
X-39097386Y13647073D01*
X-39346746Y13046547D01*
X-39347314Y12396306D01*
X-39099002Y11795345D01*
X-39093666Y11790000D01*
X-41881052Y11790000D01*
X-42396993Y12720781D01*
X-42851803Y13258025D01*
X-42880833Y13483078D01*
X-43246909Y14120992D01*
X-43829238Y14570257D01*
X-44539166Y14762476D01*
X-45268613Y14668386D01*
X-45906528Y14302309D01*
X-46355793Y13719980D01*
X-46548012Y13010052D01*
X-46593258Y12346370D01*
X-47786742Y12346370D01*
X-47831988Y13010052D01*
X-48024207Y13719980D01*
X-48473472Y14302309D01*
X-48930000Y14564294D01*
X-48930000Y22359490D01*
X-39209470Y22359490D01*
X-39209470Y20360510D01*
X-39165192Y20125193D01*
X-39026120Y19909069D01*
X-38813920Y19764079D01*
X-38562030Y19713070D01*
X-36563050Y19713070D01*
X-36327733Y19757348D01*
X-36111609Y19896420D01*
X-35966619Y20108620D01*
X-35915610Y20360510D01*
X-35915610Y22359490D01*
X-35959888Y22594807D01*
X-36098960Y22810931D01*
X-36311160Y22955921D01*
X-36563050Y23006930D01*
X-38562030Y23006930D01*
X-38797347Y22962652D01*
X-39013471Y22823580D01*
X-39158461Y22611380D01*
X-39209470Y22359490D01*
X-48930000Y22359490D01*
X-48930000Y24811924D01*
X-48701099Y24582623D01*
X-47735216Y24181553D01*
X-46689373Y24180640D01*
X-45722791Y24580024D01*
X-44982623Y25318901D01*
X-44581553Y26284784D01*
X-44580640Y27330627D01*
X-44980024Y28297209D01*
X-45718901Y29037377D01*
X-46684784Y29438447D01*
X-47730627Y29439360D01*
X-48697209Y29039976D01*
X-48930000Y28807591D01*
X-48930000Y29231561D01*
X-48667138Y29704803D01*
X-48246909Y30029008D01*
X-47880833Y30666922D01*
X-47786742Y31396369D01*
X-47786742Y31396370D01*
X-46593258Y31396370D01*
X-46499167Y30666923D01*
X-46133091Y30029008D01*
X-45550762Y29579743D01*
X-45482713Y29561318D01*
X-44833007Y28389219D01*
X-44357789Y27827869D01*
X-43703924Y27491108D01*
X-43464360Y27471202D01*
X-43615647Y27106862D01*
X-43616163Y26515732D01*
X-43390424Y25969402D01*
X-42972797Y25551045D01*
X-42426862Y25324353D01*
X-41835732Y25323837D01*
X-41289402Y25549576D01*
X-40871045Y25967203D01*
X-40644353Y26513138D01*
X-40643837Y27104268D01*
X-40869576Y27650598D01*
X-41287203Y28068955D01*
X-41660547Y28223981D01*
X-41372371Y28783511D01*
X-41327792Y29320000D01*
X-39002540Y29320000D01*
X-38711701Y29377852D01*
X-38465139Y29542599D01*
X-38053623Y29954115D01*
X-37889087Y29885794D01*
X-37238846Y29885226D01*
X-36637885Y30133538D01*
X-36177694Y30592927D01*
X-35928334Y31193453D01*
X-35927766Y31843694D01*
X-36176078Y32444655D01*
X-36635467Y32904846D01*
X-37235993Y33154206D01*
X-37886234Y33154774D01*
X-38487195Y32906462D01*
X-38947386Y32447073D01*
X-39196746Y31846547D01*
X-39197314Y31196306D01*
X-39128231Y31029111D01*
X-39317342Y30840000D01*
X-41881052Y30840000D01*
X-42396993Y31770781D01*
X-42851803Y32308025D01*
X-42880833Y32533078D01*
X-43246909Y33170992D01*
X-43829238Y33620257D01*
X-44539166Y33812476D01*
X-45268613Y33718386D01*
X-45906528Y33352309D01*
X-46355793Y32769980D01*
X-46548012Y32060052D01*
X-46593258Y31396370D01*
X-47786742Y31396370D01*
X-47831988Y32060052D01*
X-48024207Y32769980D01*
X-48473472Y33352309D01*
X-48930000Y33614294D01*
X-48930000Y41459490D01*
X-39259470Y41459490D01*
X-39259470Y39460510D01*
X-39215192Y39225193D01*
X-39076120Y39009069D01*
X-38863920Y38864079D01*
X-38612030Y38813070D01*
X-36613050Y38813070D01*
X-36377733Y38857348D01*
X-36161609Y38996420D01*
X-36016619Y39208620D01*
X-35965610Y39460510D01*
X-35965610Y41459490D01*
X-36009888Y41694807D01*
X-36148960Y41910931D01*
X-36361160Y42055921D01*
X-36613050Y42106930D01*
X-38612030Y42106930D01*
X-38847347Y42062652D01*
X-39063471Y41923580D01*
X-39208461Y41711380D01*
X-39259470Y41459490D01*
X-48930000Y41459490D01*
X-48930000Y43861924D01*
X-48701099Y43632623D01*
X-47735216Y43231553D01*
X-46689373Y43230640D01*
X-45722791Y43630024D01*
X-44982623Y44368901D01*
X-44581553Y45334784D01*
X-44580640Y46380627D01*
X-44980024Y47347209D01*
X-45718901Y48087377D01*
X-46684784Y48488447D01*
X-47730627Y48489360D01*
X-48697209Y48089976D01*
X-48930000Y47857591D01*
X-48930000Y48281561D01*
X-48667138Y48754803D01*
X-48246909Y49079008D01*
X-47880833Y49716922D01*
X-47786742Y50446369D01*
X-47786742Y50446370D01*
X-46593258Y50446370D01*
X-46499167Y49716923D01*
X-46133091Y49079008D01*
X-45550762Y48629743D01*
X-45482713Y48611318D01*
X-44833007Y47439219D01*
X-44357789Y46877869D01*
X-43703924Y46541108D01*
X-43464360Y46521202D01*
X-43615647Y46156862D01*
X-43616163Y45565732D01*
X-43390424Y45019402D01*
X-42972797Y44601045D01*
X-42426862Y44374353D01*
X-41835732Y44373837D01*
X-41289402Y44599576D01*
X-40871045Y45017203D01*
X-40644353Y45563138D01*
X-40643837Y46154268D01*
X-40869576Y46700598D01*
X-41287203Y47118955D01*
X-41660547Y47273981D01*
X-41372371Y47833511D01*
X-41311466Y48566475D01*
X-41535691Y49266953D01*
X-41845085Y49825113D01*
X-41810198Y49860000D01*
X-39067036Y49860000D01*
X-38999002Y49695345D01*
X-38539613Y49235154D01*
X-37939087Y48985794D01*
X-37288846Y48985226D01*
X-36687885Y49233538D01*
X-36227694Y49692927D01*
X-35978334Y50293453D01*
X-35977766Y50943694D01*
X-36226078Y51544655D01*
X-36685467Y52004846D01*
X-37285993Y52254206D01*
X-37936234Y52254774D01*
X-38537195Y52006462D01*
X-38997386Y51547073D01*
X-39066761Y51380000D01*
X-42125000Y51380000D01*
X-42415840Y51322148D01*
X-42662401Y51157401D01*
X-42672995Y51146807D01*
X-42851803Y51358025D01*
X-42880833Y51583078D01*
X-43246909Y52220992D01*
X-43829238Y52670257D01*
X-44539166Y52862476D01*
X-45268613Y52768386D01*
X-45906528Y52402309D01*
X-46355793Y51819980D01*
X-46548012Y51110052D01*
X-46593258Y50446370D01*
X-47786742Y50446370D01*
X-47831988Y51110052D01*
X-48024207Y51819980D01*
X-48473472Y52402309D01*
X-49111387Y52768385D01*
X-49840834Y52862476D01*
X-49855000Y52858640D01*
X-49855000Y54433785D01*
X-49226610Y54433785D01*
X-49149344Y54185024D01*
X-48602869Y53987660D01*
X-48022465Y54014447D01*
X-47610656Y54185024D01*
X-47533390Y54433785D01*
X-48380000Y55280395D01*
X-49226610Y54433785D01*
X-49855000Y54433785D01*
X-49855000Y55682869D01*
X-49852340Y55682869D01*
X-49825553Y55102465D01*
X-49654976Y54690656D01*
X-49406215Y54613390D01*
X-48559605Y55460000D01*
X-49406215Y56306610D01*
X-49654976Y56229344D01*
X-49852340Y55682869D01*
X-49855000Y55682869D01*
X-49855000Y56486215D01*
X-49226610Y56486215D01*
X-48380000Y55639605D01*
X-47533390Y56486215D01*
X-47610656Y56734976D01*
X-48157131Y56932340D01*
X-48737535Y56905553D01*
X-49149344Y56734976D01*
X-49226610Y56486215D01*
X-49855000Y56486215D01*
X-49855000Y64389373D01*
X-49839360Y64389373D01*
X-49439976Y63422791D01*
X-48701099Y62682623D01*
X-47735216Y62281553D01*
X-46689373Y62280640D01*
X-45722791Y62680024D01*
X-44982623Y63418901D01*
X-44581553Y64384784D01*
X-44580640Y65430627D01*
X-44980024Y66397209D01*
X-45718901Y67137377D01*
X-46684784Y67538447D01*
X-47730627Y67539360D01*
X-48697209Y67139976D01*
X-49437377Y66401099D01*
X-49838447Y65435216D01*
X-49839360Y64389373D01*
X-49855000Y64389373D01*
X-49855000Y65949833D01*
X-49398468Y66488158D01*
X-48667138Y67804803D01*
X-48246909Y68129008D01*
X-47880833Y68766922D01*
X-47786742Y69496369D01*
X-47831988Y70160052D01*
X-48024207Y70869980D01*
X-48473472Y71452309D01*
X-49111387Y71818385D01*
X-49840834Y71912476D01*
X-50550762Y71720257D01*
X-51133091Y71270992D01*
X-51499167Y70633077D01*
X-51555351Y70197504D01*
X-51831533Y69871842D01*
X-52694188Y68318766D01*
X-52919024Y67618484D01*
X-52858758Y66885467D01*
X-52603258Y66388317D01*
X-53130598Y66170424D01*
X-53548955Y65752797D01*
X-53775647Y65206862D01*
X-53776163Y64615732D01*
X-59694351Y64615732D01*
X-59693837Y65204268D01*
X-59919576Y65750598D01*
X-60337203Y66168955D01*
X-60710547Y66323981D01*
X-60422371Y66883511D01*
X-60361466Y67616475D01*
X-60585691Y68316953D01*
X-60895085Y68875113D01*
X-60860198Y68910000D01*
X-58067036Y68910000D01*
X-57999002Y68745345D01*
X-57539613Y68285154D01*
X-56939087Y68035794D01*
X-56288846Y68035226D01*
X-55687885Y68283538D01*
X-55227694Y68742927D01*
X-54978334Y69343453D01*
X-54977766Y69993694D01*
X-55226078Y70594655D01*
X-55685467Y71054846D01*
X-56285993Y71304206D01*
X-56936234Y71304774D01*
X-57537195Y71056462D01*
X-57997386Y70597073D01*
X-58066761Y70430000D01*
X-61175000Y70430000D01*
X-61465840Y70372148D01*
X-61712401Y70207401D01*
X-61722995Y70196807D01*
X-61901803Y70408025D01*
X-61930833Y70633078D01*
X-62296909Y71270992D01*
X-62879238Y71720257D01*
X-63589166Y71912476D01*
X-64318613Y71818386D01*
X-64956528Y71452309D01*
X-65405793Y70869980D01*
X-65598012Y70160052D01*
X-65643258Y69496370D01*
X-66836742Y69496370D01*
X-66881988Y70160052D01*
X-67074207Y70869980D01*
X-67523472Y71452309D01*
X-68161387Y71818385D01*
X-68890834Y71912476D01*
X-69600762Y71720257D01*
X-70183091Y71270992D01*
X-70549167Y70633077D01*
X-70605351Y70197504D01*
X-70881533Y69871842D01*
X-71744188Y68318766D01*
X-71969024Y67618484D01*
X-71908758Y66885467D01*
X-71653258Y66388317D01*
X-72180598Y66170424D01*
X-72598955Y65752797D01*
X-72820456Y65219363D01*
X-72872599Y65297401D01*
X-75172599Y67597401D01*
X-75419161Y67762148D01*
X-75710000Y67820000D01*
X-76278263Y67820000D01*
X-76167118Y68124997D01*
X-76193109Y68725668D01*
X-76372973Y69159896D01*
X-76626999Y69243396D01*
X-77510395Y68360000D01*
X-77496252Y68345857D01*
X-77675857Y68166252D01*
X-77690000Y68180395D01*
X-77704142Y68166252D01*
X-77883747Y68345857D01*
X-77869605Y68360000D01*
X-78753001Y69243396D01*
X-79007027Y69159896D01*
X-79212882Y68595003D01*
X-79208028Y68482830D01*
X-79442599Y68717401D01*
X-79689161Y68882148D01*
X-79980000Y68940000D01*
X-79981052Y68940000D01*
X-80496993Y69870781D01*
X-80951803Y70408025D01*
X-80980833Y70633078D01*
X-81346909Y71270992D01*
X-81929238Y71720257D01*
X-82639166Y71912476D01*
X-83368613Y71818386D01*
X-84006528Y71452309D01*
X-84455793Y70869980D01*
X-84648012Y70160052D01*
X-84693258Y69496370D01*
X-84599167Y68766923D01*
X-84233091Y68129008D01*
X-83650762Y67679743D01*
X-83582713Y67661318D01*
X-82933007Y66489219D01*
X-82457789Y65927869D01*
X-81803924Y65591108D01*
X-81564360Y65571202D01*
X-81715647Y65206862D01*
X-81716163Y64615732D01*
X-81490424Y64069402D01*
X-81072797Y63651045D01*
X-80526862Y63424353D01*
X-79935732Y63423837D01*
X-79389402Y63649576D01*
X-79019707Y64018626D01*
X-79201037Y63581935D01*
X-79201562Y62980703D01*
X-78971965Y62425036D01*
X-78557302Y62009649D01*
X-78970471Y61597200D01*
X-79201037Y61041935D01*
X-79201562Y60440703D01*
X-78971965Y59885036D01*
X-78557302Y59469649D01*
X-78970471Y59057200D01*
X-79010832Y58960000D01*
X-83885198Y58960000D01*
X-87030000Y62104802D01*
X-87030000Y62911924D01*
X-86801099Y62682623D01*
X-85835216Y62281553D01*
X-84789373Y62280640D01*
X-83822791Y62680024D01*
X-83082623Y63418901D01*
X-82681553Y64384784D01*
X-82680640Y65430627D01*
X-83080024Y66397209D01*
X-83818901Y67137377D01*
X-84784784Y67538447D01*
X-85830627Y67539360D01*
X-86797209Y67139976D01*
X-87030000Y66907591D01*
X-87030000Y67331561D01*
X-86767138Y67804803D01*
X-86346909Y68129008D01*
X-85980833Y68766922D01*
X-85886742Y69496369D01*
X-85931988Y70160052D01*
X-86124207Y70869980D01*
X-86573472Y71452309D01*
X-87211387Y71818385D01*
X-87940834Y71912476D01*
X-88650762Y71720257D01*
X-89233091Y71270992D01*
X-89599167Y70633077D01*
X-89655351Y70197504D01*
X-89931533Y69871842D01*
X-90794188Y68318766D01*
X-91019024Y67618484D01*
X-90958758Y66885467D01*
X-90703258Y66388317D01*
X-91230598Y66170424D01*
X-91418557Y65982793D01*
X-91418438Y66119297D01*
X-91648035Y66674964D01*
X-92062698Y67090351D01*
X-91649529Y67502800D01*
X-91418963Y68058065D01*
X-91418438Y68659297D01*
X-91648035Y69214964D01*
X-92062698Y69630351D01*
X-91649529Y70042800D01*
X-91418963Y70598065D01*
X-91418438Y71199297D01*
X-91648035Y71754964D01*
X-92062698Y72170351D01*
X-91649529Y72582800D01*
X-91418963Y73138065D01*
X-91418438Y73739297D01*
X-91648035Y74294964D01*
X-92062698Y74710351D01*
X-91649529Y75122800D01*
X-91418963Y75678065D01*
X-91418438Y76279297D01*
X-91648035Y76834964D01*
X-91669333Y76856300D01*
X-79213740Y76856300D01*
X-79213740Y75103700D01*
X-79169462Y74868383D01*
X-79030390Y74652259D01*
X-78818190Y74507269D01*
X-78769843Y74497478D01*
X-78970471Y74297200D01*
X-79201037Y73741935D01*
X-79201562Y73140703D01*
X-78971965Y72585036D01*
X-78557302Y72169649D01*
X-78970471Y71757200D01*
X-79201037Y71201935D01*
X-79201562Y70600703D01*
X-78971965Y70045036D01*
X-78547200Y69619529D01*
X-78513408Y69605497D01*
X-78573396Y69423001D01*
X-77690000Y68539605D01*
X-76806604Y69423001D01*
X-76866447Y69605056D01*
X-76835036Y69618035D01*
X-76409529Y70042800D01*
X-76178963Y70598065D01*
X-76178438Y71199297D01*
X-76408035Y71754964D01*
X-76822698Y72170351D01*
X-76409529Y72582800D01*
X-76178963Y73138065D01*
X-76178438Y73739297D01*
X-76408035Y74294964D01*
X-76607737Y74495015D01*
X-76578383Y74500538D01*
X-76362259Y74639610D01*
X-76217269Y74851810D01*
X-76166260Y75103700D01*
X-76166260Y76856300D01*
X-76210538Y77091617D01*
X-76349610Y77307741D01*
X-76561810Y77452731D01*
X-76813700Y77503740D01*
X-78566300Y77503740D01*
X-78801617Y77459462D01*
X-79017741Y77320390D01*
X-79162731Y77108190D01*
X-79213740Y76856300D01*
X-91669333Y76856300D01*
X-92072800Y77260471D01*
X-92628065Y77491037D01*
X-93229297Y77491562D01*
X-93784964Y77261965D01*
X-94045293Y77002090D01*
X-94078347Y77082087D01*
X-95044572Y78050000D01*
X-75154092Y78050000D01*
X-69862046Y72757954D01*
X-69862046Y72757954D01*
G37*
X-69862046Y72757954D02*
X-69631705Y72604046D01*
X-69360000Y72549999D01*
X-69359995Y72550000D01*
X-32818681Y72550000D01*
X-32897402Y72497401D01*
X-36028314Y69366489D01*
X-36027766Y69993694D01*
X-36276078Y70594655D01*
X-36735467Y71054846D01*
X-37335993Y71304206D01*
X-37986234Y71304774D01*
X-38587195Y71056462D01*
X-39047386Y70597073D01*
X-39296746Y69996547D01*
X-39297314Y69346306D01*
X-39228231Y69179111D01*
X-39467342Y68940000D01*
X-41881052Y68940000D01*
X-42396993Y69870781D01*
X-42851803Y70408025D01*
X-42880833Y70633078D01*
X-43246909Y71270992D01*
X-43829238Y71720257D01*
X-44539166Y71912476D01*
X-45268613Y71818386D01*
X-45906528Y71452309D01*
X-46355793Y70869980D01*
X-46548012Y70160052D01*
X-46593258Y69496370D01*
X-46499167Y68766923D01*
X-46133091Y68129008D01*
X-45550762Y67679743D01*
X-45482713Y67661318D01*
X-44833007Y66489219D01*
X-44357789Y65927869D01*
X-43703924Y65591108D01*
X-43464360Y65571202D01*
X-43615647Y65206862D01*
X-43616163Y64615732D01*
X-43390424Y64069402D01*
X-42972797Y63651045D01*
X-42426862Y63424353D01*
X-41970847Y63423955D01*
X-46427401Y58967401D01*
X-46592148Y58720839D01*
X-46650000Y58430000D01*
X-46650000Y56726238D01*
X-46716226Y56698874D01*
X-47127430Y56288387D01*
X-47146586Y56242253D01*
X-47353785Y56306610D01*
X-48200395Y55460000D01*
X-47353785Y54613390D01*
X-47146991Y54677621D01*
X-47128874Y54633774D01*
X-46718387Y54222570D01*
X-46181786Y53999754D01*
X-45600763Y53999247D01*
X-45063774Y54221126D01*
X-44652570Y54631613D01*
X-44429754Y55168214D01*
X-44429305Y55682869D01*
X-37202340Y55682869D01*
X-37175553Y55102465D01*
X-37004976Y54690656D01*
X-36756215Y54613390D01*
X-35909605Y55460000D01*
X-36756215Y56306610D01*
X-37004976Y56229344D01*
X-37202340Y55682869D01*
X-44429305Y55682869D01*
X-44429247Y55749237D01*
X-44651126Y56286226D01*
X-45061613Y56697430D01*
X-45130000Y56725827D01*
X-45130000Y58115198D01*
X-42735708Y60509490D01*
X-39309470Y60509490D01*
X-39309470Y58510510D01*
X-39265192Y58275193D01*
X-39126120Y58059069D01*
X-38913920Y57914079D01*
X-38662030Y57863070D01*
X-36663050Y57863070D01*
X-36597640Y57875378D01*
X-35648096Y56925834D01*
X-36087535Y56905553D01*
X-36499344Y56734976D01*
X-36576610Y56486215D01*
X-35730000Y55639605D01*
X-35715857Y55653747D01*
X-35536252Y55474142D01*
X-35550395Y55460000D01*
X-35536252Y55445857D01*
X-35715857Y55266252D01*
X-35730000Y55280395D01*
X-36576610Y54433785D01*
X-36499344Y54185024D01*
X-35952869Y53987660D01*
X-35372465Y54014447D01*
X-34960656Y54185024D01*
X-34883391Y54433783D01*
X-34768601Y54318993D01*
X-34735965Y54351629D01*
X-34712652Y54227733D01*
X-34573580Y54011609D01*
X-34361380Y53866619D01*
X-34109490Y53815610D01*
X-32110510Y53815610D01*
X-31875193Y53859888D01*
X-31659069Y53998960D01*
X-31514079Y54211160D01*
X-31463070Y54463050D01*
X-31463070Y56462030D01*
X-31507348Y56697347D01*
X-31646420Y56913471D01*
X-31858620Y57058461D01*
X-32110510Y57109470D01*
X-33682128Y57109470D01*
X-36015610Y59442952D01*
X-36015610Y60509490D01*
X-36059888Y60744807D01*
X-36198960Y60960931D01*
X-36411160Y61105921D01*
X-36663050Y61156930D01*
X-38662030Y61156930D01*
X-38897347Y61112652D01*
X-39113471Y60973580D01*
X-39258461Y60761380D01*
X-39309470Y60509490D01*
X-42735708Y60509490D01*
X-32229724Y71015473D01*
X-32449167Y70633077D01*
X-32505351Y70197504D01*
X-32781533Y69871842D01*
X-33644188Y68318766D01*
X-33869024Y67618484D01*
X-33808758Y66885467D01*
X-33553258Y66388317D01*
X-34080598Y66170424D01*
X-34498955Y65752797D01*
X-34725647Y65206862D01*
X-34726163Y64615732D01*
X-34500424Y64069402D01*
X-34082797Y63651045D01*
X-33536862Y63424353D01*
X-32945732Y63423837D01*
X-32399402Y63649576D01*
X-31981045Y64067203D01*
X-31754353Y64613138D01*
X-31753837Y65204268D01*
X-31899342Y65556418D01*
X-31478333Y65591032D01*
X-31400000Y65631290D01*
X-31400000Y52697539D01*
X-31500762Y52670257D01*
X-32083091Y52220992D01*
X-32449167Y51583077D01*
X-32505351Y51147504D01*
X-32781533Y50821842D01*
X-33644188Y49268766D01*
X-33869024Y48568484D01*
X-33808758Y47835467D01*
X-33553258Y47338317D01*
X-34080598Y47120424D01*
X-34498955Y46702797D01*
X-34725647Y46156862D01*
X-34726163Y45565732D01*
X-34500424Y45019402D01*
X-34082797Y44601045D01*
X-33536862Y44374353D01*
X-32945732Y44373837D01*
X-32399402Y44599576D01*
X-31981045Y45017203D01*
X-31754353Y45563138D01*
X-31753837Y46154268D01*
X-31899342Y46506418D01*
X-31478333Y46541032D01*
X-31400000Y46581290D01*
X-31400000Y33647539D01*
X-31500762Y33620257D01*
X-32083091Y33170992D01*
X-32449167Y32533077D01*
X-32505351Y32097504D01*
X-32781533Y31771842D01*
X-33644188Y30218766D01*
X-33869024Y29518484D01*
X-33808758Y28785467D01*
X-33553258Y28288317D01*
X-34080598Y28070424D01*
X-34498955Y27652797D01*
X-34725647Y27106862D01*
X-34726163Y26515732D01*
X-34500424Y25969402D01*
X-34082797Y25551045D01*
X-33536862Y25324353D01*
X-32945732Y25323837D01*
X-32399402Y25549576D01*
X-31981045Y25967203D01*
X-31754353Y26513138D01*
X-31753837Y27104268D01*
X-31899342Y27456418D01*
X-31478333Y27491032D01*
X-31400000Y27531290D01*
X-31400000Y14597539D01*
X-31500762Y14570257D01*
X-32083091Y14120992D01*
X-32449167Y13483077D01*
X-32505351Y13047504D01*
X-32781533Y12721842D01*
X-33644188Y11168766D01*
X-33850000Y10527737D01*
X-33850000Y15615610D01*
X-33610510Y15615610D01*
X-33375193Y15659888D01*
X-33159069Y15798960D01*
X-33014079Y16011160D01*
X-32963070Y16263050D01*
X-32963070Y18262030D01*
X-33007348Y18497347D01*
X-33146420Y18713471D01*
X-33358620Y18858461D01*
X-33610510Y18909470D01*
X-35609490Y18909470D01*
X-35844807Y18865192D01*
X-36060931Y18726120D01*
X-36205921Y18513920D01*
X-36256930Y18262030D01*
X-36256930Y16263050D01*
X-36212652Y16027733D01*
X-36073580Y15811609D01*
X-35861380Y15666619D01*
X-35609490Y15615610D01*
X-35370000Y15615610D01*
X-35370000Y5977342D01*
X-37140412Y4206930D01*
X-38712030Y4206930D01*
X-38947347Y4162652D01*
X-39163471Y4023580D01*
X-39308461Y3811380D01*
X-39359470Y3559490D01*
X-39359470Y1560510D01*
X-39315192Y1325193D01*
X-39176120Y1109069D01*
X-38963920Y964079D01*
X-38712030Y913070D01*
X-36713050Y913070D01*
X-36477733Y957348D01*
X-36261609Y1096420D01*
X-36116619Y1308620D01*
X-36065610Y1560510D01*
X-36065610Y3132128D01*
X-34072599Y5125139D01*
X-33907852Y5371701D01*
X-33850000Y5662540D01*
X-33850000Y6404379D01*
X-33536862Y6274353D01*
X-32945732Y6273837D01*
X-32399402Y6499576D01*
X-31981045Y6917203D01*
X-31847269Y7239373D01*
X-30789360Y7239373D01*
X-30389976Y6272791D01*
X-29651099Y5532623D01*
X-28685216Y5131553D01*
X-27639373Y5130640D01*
X-26672791Y5530024D01*
X-25932623Y6268901D01*
X-25531553Y7234784D01*
X-25530640Y8280627D01*
X-25930024Y9247209D01*
X-26668901Y9987377D01*
X-27634784Y10388447D01*
X-28680627Y10389360D01*
X-29647209Y9989976D01*
X-30387377Y9251099D01*
X-30788447Y8285216D01*
X-30789360Y7239373D01*
X-31847269Y7239373D01*
X-31754353Y7463138D01*
X-31753837Y8054268D01*
X-31899342Y8406418D01*
X-31478333Y8441032D01*
X-30824175Y8777223D01*
X-30348468Y9338158D01*
X-29617138Y10654803D01*
X-29196909Y10979008D01*
X-28830833Y11616922D01*
X-28736742Y12346369D01*
X-28781988Y13010052D01*
X-28974207Y13719980D01*
X-29423472Y14302309D01*
X-29880000Y14564294D01*
X-29880000Y24811924D01*
X-29651099Y24582623D01*
X-28685216Y24181553D01*
X-27639373Y24180640D01*
X-26672791Y24580024D01*
X-26493012Y24759490D01*
X-20259470Y24759490D01*
X-20259470Y22760510D01*
X-20215192Y22525193D01*
X-20076120Y22309069D01*
X-19863920Y22164079D01*
X-19612030Y22113070D01*
X-17613050Y22113070D01*
X-17377733Y22157348D01*
X-17161609Y22296420D01*
X-17016619Y22508620D01*
X-16965610Y22760510D01*
X-16965610Y24759490D01*
X-17009888Y24994807D01*
X-17148960Y25210931D01*
X-17361160Y25355921D01*
X-17613050Y25406930D01*
X-19612030Y25406930D01*
X-19847347Y25362652D01*
X-20063471Y25223580D01*
X-20208461Y25011380D01*
X-20259470Y24759490D01*
X-26493012Y24759490D01*
X-25932623Y25318901D01*
X-25531553Y26284784D01*
X-25530640Y27330627D01*
X-25930024Y28297209D01*
X-26668901Y29037377D01*
X-27634784Y29438447D01*
X-28680627Y29439360D01*
X-29647209Y29039976D01*
X-29880000Y28807591D01*
X-29880000Y29231561D01*
X-29617138Y29704803D01*
X-29196909Y30029008D01*
X-28830833Y30666922D01*
X-28736742Y31396369D01*
X-28736742Y31396370D01*
X-27543258Y31396370D01*
X-27449167Y30666923D01*
X-27083091Y30029008D01*
X-26500762Y29579743D01*
X-26432713Y29561318D01*
X-25783007Y28389219D01*
X-25307789Y27827869D01*
X-24653924Y27491108D01*
X-24414360Y27471202D01*
X-24565647Y27106862D01*
X-24566163Y26515732D01*
X-24340424Y25969402D01*
X-23922797Y25551045D01*
X-23376862Y25324353D01*
X-22785732Y25323837D01*
X-22239402Y25549576D01*
X-21821045Y25967203D01*
X-21594353Y26513138D01*
X-21593837Y27104268D01*
X-21819576Y27650598D01*
X-22237203Y28068955D01*
X-22610547Y28223981D01*
X-22322371Y28783511D01*
X-22261466Y29516475D01*
X-22485691Y30216953D01*
X-22786169Y30759029D01*
X-20385198Y33160000D01*
X-20067036Y33160000D01*
X-19999002Y32995345D01*
X-19539613Y32535154D01*
X-18939087Y32285794D01*
X-18288846Y32285226D01*
X-17687885Y32533538D01*
X-17227694Y32992927D01*
X-16978334Y33593453D01*
X-16977766Y34243694D01*
X-17226078Y34844655D01*
X-17685467Y35304846D01*
X-18285993Y35554206D01*
X-18936234Y35554774D01*
X-19537195Y35306462D01*
X-19997386Y34847073D01*
X-20066761Y34680000D01*
X-20700000Y34680000D01*
X-20990839Y34622148D01*
X-21237401Y34457401D01*
X-23611533Y32083269D01*
X-23801803Y32308025D01*
X-23830833Y32533078D01*
X-24196909Y33170992D01*
X-24779238Y33620257D01*
X-25489166Y33812476D01*
X-26218613Y33718386D01*
X-26856528Y33352309D01*
X-27305793Y32769980D01*
X-27498012Y32060052D01*
X-27543258Y31396370D01*
X-28736742Y31396370D01*
X-28781988Y32060052D01*
X-28974207Y32769980D01*
X-29423472Y33352309D01*
X-29880000Y33614294D01*
X-29880000Y37412030D01*
X-15906930Y37412030D01*
X-15906930Y35413050D01*
X-15862652Y35177733D01*
X-15723580Y34961609D01*
X-15511380Y34816619D01*
X-15259490Y34765610D01*
X-13260510Y34765610D01*
X-13025193Y34809888D01*
X-12809069Y34948960D01*
X-12664079Y35161160D01*
X-12613070Y35413050D01*
X-12613070Y37412030D01*
X-12657348Y37647347D01*
X-12796420Y37863471D01*
X-13008620Y38008461D01*
X-13260510Y38059470D01*
X-15259490Y38059470D01*
X-15494807Y38015192D01*
X-15710931Y37876120D01*
X-15855921Y37663920D01*
X-15906930Y37412030D01*
X-29880000Y37412030D01*
X-29880000Y41209490D01*
X-20209470Y41209490D01*
X-20209470Y39210510D01*
X-20165192Y38975193D01*
X-20026120Y38759069D01*
X-19813920Y38614079D01*
X-19562030Y38563070D01*
X-17563050Y38563070D01*
X-17327733Y38607348D01*
X-17111609Y38746420D01*
X-16966619Y38958620D01*
X-16915610Y39210510D01*
X-16915610Y41209490D01*
X-16959888Y41444807D01*
X-17098960Y41660931D01*
X-17311160Y41805921D01*
X-17563050Y41856930D01*
X-19562030Y41856930D01*
X-19797347Y41812652D01*
X-20013471Y41673580D01*
X-20158461Y41461380D01*
X-20209470Y41209490D01*
X-29880000Y41209490D01*
X-29880000Y43861924D01*
X-29651099Y43632623D01*
X-28685216Y43231553D01*
X-27639373Y43230640D01*
X-26672791Y43630024D01*
X-25932623Y44368901D01*
X-25531553Y45334784D01*
X-25530640Y46380627D01*
X-25930024Y47347209D01*
X-26668901Y48087377D01*
X-27634784Y48488447D01*
X-28680627Y48489360D01*
X-29647209Y48089976D01*
X-29880000Y47857591D01*
X-29880000Y48281561D01*
X-29617138Y48754803D01*
X-29196909Y49079008D01*
X-28830833Y49716922D01*
X-28736742Y50446369D01*
X-28781988Y51110052D01*
X-28974207Y51819980D01*
X-29032956Y51896130D01*
X-28900839Y51807852D01*
X-28610000Y51750000D01*
X-27324741Y51750000D01*
X-27498012Y51110052D01*
X-27543258Y50446370D01*
X-27449167Y49716923D01*
X-27083091Y49079008D01*
X-26500762Y48629743D01*
X-26432713Y48611318D01*
X-25783007Y47439219D01*
X-25307789Y46877869D01*
X-24653924Y46541108D01*
X-24414360Y46521202D01*
X-24565647Y46156862D01*
X-24566163Y45565732D01*
X-24340424Y45019402D01*
X-23922797Y44601045D01*
X-23376862Y44374353D01*
X-22785732Y44373837D01*
X-22239402Y44599576D01*
X-21821045Y45017203D01*
X-21594353Y45563138D01*
X-21593837Y46154268D01*
X-21819576Y46700598D01*
X-22237203Y47118955D01*
X-22610547Y47273981D01*
X-22322371Y47833511D01*
X-22277792Y48370000D01*
X-20217377Y48370000D01*
X-19996462Y47835345D01*
X-19537073Y47375154D01*
X-18936547Y47125794D01*
X-18286306Y47125226D01*
X-17685345Y47373538D01*
X-17225154Y47832927D01*
X-16975794Y48433453D01*
X-16975226Y49083694D01*
X-17223538Y49684655D01*
X-17682927Y50144846D01*
X-18283453Y50394206D01*
X-18933694Y50394774D01*
X-19534655Y50146462D01*
X-19791565Y49890000D01*
X-22831052Y49890000D01*
X-23346993Y50820781D01*
X-23801803Y51358025D01*
X-23830833Y51583078D01*
X-24196909Y52220992D01*
X-24779238Y52670257D01*
X-25248016Y52797182D01*
X-24795198Y53250000D01*
X-24110000Y53250000D01*
X-23819161Y53307852D01*
X-23572599Y53472599D01*
X-23107892Y53937306D01*
X-22591653Y52687913D01*
X-21288945Y51382929D01*
X-19586003Y50675806D01*
X-17742086Y50674197D01*
X-16037913Y51378347D01*
X-15966135Y51450000D01*
X-13761365Y51450000D01*
X-13510000Y51400000D01*
X-13420485Y51417806D01*
X-13455351Y51147504D01*
X-13731533Y50821842D01*
X-14594188Y49268766D01*
X-14819024Y48568484D01*
X-14758758Y47835467D01*
X-14503258Y47338317D01*
X-15030598Y47120424D01*
X-15448955Y46702797D01*
X-15675647Y46156862D01*
X-15676163Y45565732D01*
X-15450424Y45019402D01*
X-15032797Y44601045D01*
X-14486862Y44374353D01*
X-13895732Y44373837D01*
X-13349402Y44599576D01*
X-12931045Y45017203D01*
X-12704353Y45563138D01*
X-12703837Y46154268D01*
X-12849342Y46506418D01*
X-12428333Y46541032D01*
X-12350000Y46581290D01*
X-12350000Y33647539D01*
X-12450762Y33620257D01*
X-13033091Y33170992D01*
X-13399167Y32533077D01*
X-13455351Y32097504D01*
X-13731533Y31771842D01*
X-14594188Y30218766D01*
X-14819024Y29518484D01*
X-14758758Y28785467D01*
X-14503258Y28288317D01*
X-15030598Y28070424D01*
X-15448955Y27652797D01*
X-15675647Y27106862D01*
X-15676163Y26515732D01*
X-15450424Y25969402D01*
X-15032797Y25551045D01*
X-14486862Y25324353D01*
X-13895732Y25323837D01*
X-13349402Y25549576D01*
X-12931045Y25967203D01*
X-12704353Y26513138D01*
X-12703837Y27104268D01*
X-12849342Y27456418D01*
X-12428333Y27491032D01*
X-12350000Y27531290D01*
X-12350000Y22490000D01*
X-12292148Y22199161D01*
X-12127401Y21952599D01*
X-11370000Y21195198D01*
X-11370000Y18672413D01*
X-11396420Y18713471D01*
X-11608620Y18858461D01*
X-11860510Y18909470D01*
X-13859490Y18909470D01*
X-14094807Y18865192D01*
X-14161185Y18822479D01*
X-14578347Y19832087D01*
X-15881055Y21137071D01*
X-17583997Y21844194D01*
X-19427914Y21845803D01*
X-21132087Y21141653D01*
X-22437071Y19838945D01*
X-23105488Y18229218D01*
X-23522927Y18647386D01*
X-24123453Y18896746D01*
X-24773694Y18897314D01*
X-25374655Y18649002D01*
X-25834846Y18189613D01*
X-26084206Y17589087D01*
X-26084774Y16938846D01*
X-25836462Y16337885D01*
X-25377073Y15877694D01*
X-25210000Y15808319D01*
X-25210000Y15350000D01*
X-25152148Y15059161D01*
X-24987401Y14812599D01*
X-24629660Y14454858D01*
X-24779238Y14570257D01*
X-25489166Y14762476D01*
X-26218613Y14668386D01*
X-26856528Y14302309D01*
X-27305793Y13719980D01*
X-27498012Y13010052D01*
X-27543258Y12346370D01*
X-27449167Y11616923D01*
X-27083091Y10979008D01*
X-26500762Y10529743D01*
X-26432713Y10511318D01*
X-25783007Y9339219D01*
X-25307789Y8777869D01*
X-24653924Y8441108D01*
X-24414360Y8421202D01*
X-24565647Y8056862D01*
X-24566163Y7465732D01*
X-24340424Y6919402D01*
X-23922797Y6501045D01*
X-23376862Y6274353D01*
X-22785732Y6273837D01*
X-22239402Y6499576D01*
X-21821045Y6917203D01*
X-21594353Y7463138D01*
X-21593837Y8054268D01*
X-21819576Y8600598D01*
X-22237203Y9018955D01*
X-22610547Y9173981D01*
X-22322371Y9733511D01*
X-22261466Y10466475D01*
X-22485691Y11166953D01*
X-23346993Y12720781D01*
X-23801803Y13258025D01*
X-23830833Y13483078D01*
X-24063744Y13888942D01*
X-14647401Y4472599D01*
X-14400840Y4307852D01*
X-14110000Y4250000D01*
X-6610000Y4250000D01*
X-6319161Y4307852D01*
X-6072599Y4472599D01*
X-5322599Y5222599D01*
X-5157852Y5469160D01*
X-5100000Y5760000D01*
X-5100000Y6728645D01*
X-4872797Y6501045D01*
X-4326862Y6274353D01*
X-3735732Y6273837D01*
X-3189402Y6499576D01*
X-2771045Y6917203D01*
X-2544353Y7463138D01*
X-2543837Y8054268D01*
X-2769576Y8600598D01*
X-3187203Y9018955D01*
X-3560547Y9173981D01*
X-3272371Y9733511D01*
X-3211466Y10466475D01*
X-3435691Y11166953D01*
X-4296993Y12720781D01*
X-4751803Y13258025D01*
X-4780833Y13483078D01*
X-5146909Y14120992D01*
X-5729238Y14570257D01*
X-6439166Y14762476D01*
X-7168613Y14668386D01*
X-7806528Y14302309D01*
X-8255793Y13719980D01*
X-8448012Y13010052D01*
X-8493258Y12346370D01*
X-8399167Y11616923D01*
X-8033091Y10979008D01*
X-7450762Y10529743D01*
X-7382713Y10511318D01*
X-6733007Y9339219D01*
X-6620000Y9205730D01*
X-6620000Y8617904D01*
X-6880024Y9247209D01*
X-7618901Y9987377D01*
X-8584784Y10388447D01*
X-9630627Y10389360D01*
X-10597209Y9989976D01*
X-11337377Y9251099D01*
X-11738447Y8285216D01*
X-11739360Y7239373D01*
X-11339976Y6272791D01*
X-10838062Y5770000D01*
X-13795198Y5770000D01*
X-14299387Y6274189D01*
X-13895732Y6273837D01*
X-13349402Y6499576D01*
X-12931045Y6917203D01*
X-12704353Y7463138D01*
X-12703837Y8054268D01*
X-12849342Y8406418D01*
X-12428333Y8441032D01*
X-11774175Y8777223D01*
X-11298468Y9338158D01*
X-10567138Y10654803D01*
X-10146909Y10979008D01*
X-9780833Y11616922D01*
X-9686742Y12346369D01*
X-9731988Y13010052D01*
X-9859643Y13481523D01*
X-9850000Y13530000D01*
X-9850000Y21510000D01*
X-9857244Y21546420D01*
X-9907852Y21800840D01*
X-10072599Y22047401D01*
X-10830000Y22804802D01*
X-10830000Y24811924D01*
X-10601099Y24582623D01*
X-9635216Y24181553D01*
X-8589373Y24180640D01*
X-7622791Y24580024D01*
X-6882623Y25318901D01*
X-6481553Y26284784D01*
X-6480640Y27330627D01*
X-6880024Y28297209D01*
X-7618901Y29037377D01*
X-8584784Y29438447D01*
X-9630627Y29439360D01*
X-10597209Y29039976D01*
X-10830000Y28807591D01*
X-10830000Y29231561D01*
X-10567138Y29704803D01*
X-10146909Y30029008D01*
X-9780833Y30666922D01*
X-9686742Y31396369D01*
X-9731988Y32060052D01*
X-9924207Y32769980D01*
X-10373472Y33352309D01*
X-10830000Y33614294D01*
X-10830000Y43861924D01*
X-10601099Y43632623D01*
X-9635216Y43231553D01*
X-8589373Y43230640D01*
X-7622791Y43630024D01*
X-6882623Y44368901D01*
X-6481553Y45334784D01*
X-6480640Y46380627D01*
X-6880024Y47347209D01*
X-7618901Y48087377D01*
X-8584784Y48488447D01*
X-9630627Y48489360D01*
X-10597209Y48089976D01*
X-10830000Y47857591D01*
X-10830000Y48281561D01*
X-10567138Y48754803D01*
X-10146909Y49079008D01*
X-9780833Y49716922D01*
X-9686742Y50446369D01*
X-9686742Y50446370D01*
X-8493258Y50446370D01*
X-8399167Y49716923D01*
X-8033091Y49079008D01*
X-7450762Y48629743D01*
X-7382713Y48611318D01*
X-6733007Y47439219D01*
X-6275000Y46898199D01*
X-6275000Y37827540D01*
X-6217148Y37536701D01*
X-6052401Y37290139D01*
X-5665885Y36903623D01*
X-5734206Y36739087D01*
X-5734774Y36088846D01*
X-5486462Y35487885D01*
X-5027073Y35027694D01*
X-4426547Y34778334D01*
X-3776306Y34777766D01*
X-3175345Y35026078D01*
X-2715154Y35485467D01*
X-2465794Y36085993D01*
X-2465226Y36736234D01*
X-2713538Y37337195D01*
X-3172927Y37797386D01*
X-3773453Y38046746D01*
X-4423694Y38047314D01*
X-4590889Y37978231D01*
X-4755000Y38142342D01*
X-4755000Y44552131D01*
X-4326862Y44374353D01*
X-3735732Y44373837D01*
X-3189402Y44599576D01*
X-2771045Y45017203D01*
X-2544353Y45563138D01*
X-2543837Y46154268D01*
X-2769576Y46700598D01*
X-3187203Y47118955D01*
X-3560547Y47273981D01*
X-3272371Y47833511D01*
X-3211466Y48566475D01*
X-3435691Y49266953D01*
X-4296993Y50820781D01*
X-4751803Y51358025D01*
X-4780833Y51583078D01*
X-5146909Y52220992D01*
X-5729238Y52670257D01*
X-6439166Y52862476D01*
X-7168613Y52768386D01*
X-7806528Y52402309D01*
X-8255793Y51819980D01*
X-8448012Y51110052D01*
X-8493258Y50446370D01*
X-9686742Y50446370D01*
X-9731988Y51110052D01*
X-9800843Y51364355D01*
X-8372599Y52792599D01*
X-8207852Y53039160D01*
X-8150000Y53330000D01*
X-8150000Y61310000D01*
X-8207852Y61600839D01*
X-8372599Y61847401D01*
X-8806027Y62280829D01*
X-8589373Y62280640D01*
X-7622791Y62680024D01*
X-6882623Y63418901D01*
X-6481553Y64384784D01*
X-6480640Y65430627D01*
X-6880024Y66397209D01*
X-7618901Y67137377D01*
X-8584784Y67538447D01*
X-9630627Y67539360D01*
X-10597209Y67139976D01*
X-11337377Y66401099D01*
X-11738447Y65435216D01*
X-11738641Y65213443D01*
X-11755000Y65229802D01*
X-11755000Y65949833D01*
X-11298468Y66488158D01*
X-10567138Y67804803D01*
X-10146909Y68129008D01*
X-9780833Y68766922D01*
X-9686742Y69496369D01*
X-9686742Y69496370D01*
X-8493258Y69496370D01*
X-8399167Y68766923D01*
X-8033091Y68129008D01*
X-7450762Y67679743D01*
X-7382713Y67661318D01*
X-6733007Y66489219D01*
X-6275000Y65948199D01*
X-6275000Y57227540D01*
X-6217148Y56936701D01*
X-6052401Y56690139D01*
X-5365885Y56003623D01*
X-5434206Y55839087D01*
X-5434774Y55188846D01*
X-5186462Y54587885D01*
X-4727073Y54127694D01*
X-4126547Y53878334D01*
X-3476306Y53877766D01*
X-2875345Y54126078D01*
X-2415154Y54585467D01*
X-2165794Y55185993D01*
X-2165226Y55836234D01*
X-2413538Y56437195D01*
X-2872927Y56897386D01*
X-3473453Y57146746D01*
X-4123694Y57147314D01*
X-4290889Y57078231D01*
X-4755000Y57542342D01*
X-4755000Y63602131D01*
X-4326862Y63424353D01*
X-3735732Y63423837D01*
X-3189402Y63649576D01*
X-2771045Y64067203D01*
X-2544353Y64613138D01*
X-2543837Y65204268D01*
X-2769576Y65750598D01*
X-3187203Y66168955D01*
X-3560547Y66323981D01*
X-3272371Y66883511D01*
X-3211466Y67616475D01*
X-3435691Y68316953D01*
X-4296993Y69870781D01*
X-4751803Y70408025D01*
X-4780833Y70633078D01*
X-5146909Y71270992D01*
X-5729238Y71720257D01*
X-6439166Y71912476D01*
X-7168613Y71818386D01*
X-7806528Y71452309D01*
X-8255793Y70869980D01*
X-8448012Y70160052D01*
X-8493258Y69496370D01*
X-9686742Y69496370D01*
X-9731988Y70160052D01*
X-9924207Y70869980D01*
X-10373472Y71452309D01*
X-11011387Y71818385D01*
X-11740834Y71912476D01*
X-12450762Y71720257D01*
X-13033091Y71270992D01*
X-13091761Y71168755D01*
X-13091638Y71309897D01*
X-13321235Y71865564D01*
X-13746000Y72291071D01*
X-14301265Y72521637D01*
X-14902497Y72522162D01*
X-15450000Y72295938D01*
X-15450000Y72795198D01*
X-13742098Y74503100D01*
X-13376806Y74503100D01*
X-12798457Y74618141D01*
X-12308156Y74945750D01*
X-11980547Y75436051D01*
X-11865506Y76014400D01*
X-11980547Y76592749D01*
X-12048420Y76694328D01*
X-7612046Y72257954D01*
X-7381705Y72104046D01*
X-7110000Y72050000D01*
X-1570000Y72050000D01*
X-1570000Y18444105D01*
X-1772927Y18647386D01*
X-2373453Y18896746D01*
X-3023694Y18897314D01*
X-3624655Y18649002D01*
X-3668195Y18605537D01*
X-4755000Y19692342D01*
X-4755000Y25502131D01*
X-4326862Y25324353D01*
X-3735732Y25323837D01*
X-3189402Y25549576D01*
X-2771045Y25967203D01*
X-2544353Y26513138D01*
X-2543837Y27104268D01*
X-2769576Y27650598D01*
X-3187203Y28068955D01*
X-3560547Y28223981D01*
X-3272371Y28783511D01*
X-3211466Y29516475D01*
X-3435691Y30216953D01*
X-4296993Y31770781D01*
X-4751803Y32308025D01*
X-4780833Y32533078D01*
X-5146909Y33170992D01*
X-5729238Y33620257D01*
X-6439166Y33812476D01*
X-7168613Y33718386D01*
X-7806528Y33352309D01*
X-8255793Y32769980D01*
X-8448012Y32060052D01*
X-8493258Y31396370D01*
X-8399167Y30666923D01*
X-8033091Y30029008D01*
X-7450762Y29579743D01*
X-7382713Y29561318D01*
X-6733007Y28389219D01*
X-6275000Y27848199D01*
X-6275000Y19377540D01*
X-6217148Y19086701D01*
X-6052401Y18840139D01*
X-4334614Y17122352D01*
X-4334774Y16938846D01*
X-4086462Y16337885D01*
X-3627073Y15877694D01*
X-3026547Y15628334D01*
X-2376306Y15627766D01*
X-1775345Y15876078D01*
X-1570000Y16081065D01*
X-1570000Y470000D01*
X-16965610Y470000D01*
X-16965610Y2259490D01*
X-17009888Y2494807D01*
X-17148960Y2710931D01*
X-17361160Y2855921D01*
X-17613050Y2906930D01*
X-19612030Y2906930D01*
X-19847347Y2862652D01*
X-20063471Y2723580D01*
X-20208461Y2511380D01*
X-20259470Y2259490D01*
X-20259470Y470000D01*
X-93223813Y470000D01*
X-93215610Y510510D01*
X-93215610Y2509490D01*
X-93259888Y2744807D01*
X-93398960Y2960931D01*
X-93611160Y3105921D01*
X-93863050Y3156930D01*
X-94102540Y3156930D01*
X-94102540Y3359490D01*
X-77409470Y3359490D01*
X-77409470Y1360510D01*
X-77365192Y1125193D01*
X-77226120Y909069D01*
X-77013920Y764079D01*
X-76762030Y713070D01*
X-74763050Y713070D01*
X-74527733Y757348D01*
X-74311609Y896420D01*
X-74166619Y1108620D01*
X-74115610Y1360510D01*
X-74115610Y3359490D01*
X-74159888Y3594807D01*
X-74201510Y3659490D01*
X-58359470Y3659490D01*
X-58359470Y1660510D01*
X-58315192Y1425193D01*
X-58176120Y1209069D01*
X-57963920Y1064079D01*
X-57712030Y1013070D01*
X-55713050Y1013070D01*
X-55477733Y1057348D01*
X-55261609Y1196420D01*
X-55116619Y1408620D01*
X-55065610Y1660510D01*
X-55065610Y3659490D01*
X-55109888Y3894807D01*
X-55248960Y4110931D01*
X-55461160Y4255921D01*
X-55713050Y4306930D01*
X-57712030Y4306930D01*
X-57947347Y4262652D01*
X-58163471Y4123580D01*
X-58308461Y3911380D01*
X-58359470Y3659490D01*
X-74201510Y3659490D01*
X-74298960Y3810931D01*
X-74511160Y3955921D01*
X-74763050Y4006930D01*
X-76762030Y4006930D01*
X-76997347Y3962652D01*
X-77213471Y3823580D01*
X-77358461Y3611380D01*
X-77409470Y3359490D01*
X-94102540Y3359490D01*
X-94102540Y8692658D01*
X-89822599Y12972599D01*
X-89657852Y13219161D01*
X-89600000Y13510000D01*
X-89600000Y22510000D01*
X-89657852Y22800839D01*
X-89822599Y23047401D01*
X-91350000Y24574802D01*
X-91350000Y25668453D01*
X-91232797Y25551045D01*
X-90686862Y25324353D01*
X-90095732Y25323837D01*
X-89549402Y25549576D01*
X-89131045Y25967203D01*
X-88904353Y26513138D01*
X-88903837Y27104268D01*
X-89049342Y27456418D01*
X-88628333Y27491032D01*
X-88550000Y27531290D01*
X-88550000Y14597539D01*
X-88650762Y14570257D01*
X-89233091Y14120992D01*
X-89599167Y13483077D01*
X-89655351Y13047504D01*
X-89931533Y12721842D01*
X-90794188Y11168766D01*
X-91019024Y10468484D01*
X-90958758Y9735467D01*
X-90703258Y9238317D01*
X-91230598Y9020424D01*
X-91648955Y8602797D01*
X-91875647Y8056862D01*
X-91876163Y7465732D01*
X-91650424Y6919402D01*
X-91232797Y6501045D01*
X-90686862Y6274353D01*
X-90095732Y6273837D01*
X-89549402Y6499576D01*
X-89131045Y6917203D01*
X-88997269Y7239373D01*
X-87939360Y7239373D01*
X-87539976Y6272791D01*
X-86801099Y5532623D01*
X-85835216Y5131553D01*
X-84789373Y5130640D01*
X-83822791Y5530024D01*
X-83082623Y6268901D01*
X-82681553Y7234784D01*
X-82680640Y8280627D01*
X-83080024Y9247209D01*
X-83818901Y9987377D01*
X-84784784Y10388447D01*
X-85830627Y10389360D01*
X-86797209Y9989976D01*
X-87537377Y9251099D01*
X-87938447Y8285216D01*
X-87939360Y7239373D01*
X-88997269Y7239373D01*
X-88904353Y7463138D01*
X-88903837Y8054268D01*
X-89049342Y8406418D01*
X-88628333Y8441032D01*
X-87974175Y8777223D01*
X-87498468Y9338158D01*
X-86767138Y10654803D01*
X-86346909Y10979008D01*
X-85980833Y11616922D01*
X-85886742Y12346369D01*
X-85886742Y12346370D01*
X-84693258Y12346370D01*
X-84599167Y11616923D01*
X-84233091Y10979008D01*
X-83650762Y10529743D01*
X-83582713Y10511318D01*
X-82933007Y9339219D01*
X-82457789Y8777869D01*
X-81803924Y8441108D01*
X-81564360Y8421202D01*
X-81715647Y8056862D01*
X-81716163Y7465732D01*
X-81490424Y6919402D01*
X-81072797Y6501045D01*
X-80526862Y6274353D01*
X-79935732Y6273837D01*
X-79389402Y6499576D01*
X-78971045Y6917203D01*
X-78744353Y7463138D01*
X-78743837Y8054268D01*
X-78969576Y8600598D01*
X-79387203Y9018955D01*
X-79760547Y9173981D01*
X-79472371Y9733511D01*
X-79427792Y10270000D01*
X-77252540Y10270000D01*
X-76961701Y10327852D01*
X-76715139Y10492599D01*
X-76253623Y10954115D01*
X-76089087Y10885794D01*
X-75438846Y10885226D01*
X-74837885Y11133538D01*
X-74377694Y11592927D01*
X-74128334Y12193453D01*
X-74127766Y12843694D01*
X-74376078Y13444655D01*
X-74835467Y13904846D01*
X-75435993Y14154206D01*
X-76086234Y14154774D01*
X-76687195Y13906462D01*
X-77147386Y13447073D01*
X-77396746Y12846547D01*
X-77397314Y12196306D01*
X-77328231Y12029111D01*
X-77567342Y11790000D01*
X-79981052Y11790000D01*
X-80496993Y12720781D01*
X-80951803Y13258025D01*
X-80980833Y13483078D01*
X-81346909Y14120992D01*
X-81929238Y14570257D01*
X-82639166Y14762476D01*
X-83368613Y14668386D01*
X-84006528Y14302309D01*
X-84455793Y13719980D01*
X-84648012Y13010052D01*
X-84693258Y12346370D01*
X-85886742Y12346370D01*
X-85931988Y13010052D01*
X-86124207Y13719980D01*
X-86573472Y14302309D01*
X-87030000Y14564294D01*
X-87030000Y22809490D01*
X-77459470Y22809490D01*
X-77459470Y20810510D01*
X-77415192Y20575193D01*
X-77276120Y20359069D01*
X-77063920Y20214079D01*
X-76812030Y20163070D01*
X-74813050Y20163070D01*
X-74577733Y20207348D01*
X-74361609Y20346420D01*
X-74216619Y20558620D01*
X-74165610Y20810510D01*
X-74165610Y22809490D01*
X-74209888Y23044807D01*
X-74348960Y23260931D01*
X-74561160Y23405921D01*
X-74813050Y23456930D01*
X-76812030Y23456930D01*
X-77047347Y23412652D01*
X-77263471Y23273580D01*
X-77408461Y23061380D01*
X-77459470Y22809490D01*
X-87030000Y22809490D01*
X-87030000Y24811924D01*
X-86801099Y24582623D01*
X-85835216Y24181553D01*
X-84789373Y24180640D01*
X-83822791Y24580024D01*
X-83082623Y25318901D01*
X-82681553Y26284784D01*
X-82680640Y27330627D01*
X-83080024Y28297209D01*
X-83818901Y29037377D01*
X-84784784Y29438447D01*
X-85830627Y29439360D01*
X-86797209Y29039976D01*
X-87030000Y28807591D01*
X-87030000Y29231561D01*
X-86767138Y29704803D01*
X-86346909Y30029008D01*
X-85980833Y30666922D01*
X-85886742Y31396369D01*
X-85886742Y31396370D01*
X-84693258Y31396370D01*
X-84599167Y30666923D01*
X-84233091Y30029008D01*
X-83650762Y29579743D01*
X-83582713Y29561318D01*
X-82933007Y28389219D01*
X-82457789Y27827869D01*
X-81803924Y27491108D01*
X-81564360Y27471202D01*
X-81715647Y27106862D01*
X-81716163Y26515732D01*
X-81490424Y25969402D01*
X-81072797Y25551045D01*
X-80526862Y25324353D01*
X-79935732Y25323837D01*
X-79389402Y25549576D01*
X-78971045Y25967203D01*
X-78744353Y26513138D01*
X-78743837Y27104268D01*
X-78969576Y27650598D01*
X-79387203Y28068955D01*
X-79760547Y28223981D01*
X-79472371Y28783511D01*
X-79427792Y29320000D01*
X-77702540Y29320000D01*
X-77411701Y29377852D01*
X-77165139Y29542599D01*
X-76303623Y30404115D01*
X-76139087Y30335794D01*
X-75488846Y30335226D01*
X-74887885Y30583538D01*
X-74427694Y31042927D01*
X-74178334Y31643453D01*
X-74177766Y32293694D01*
X-74426078Y32894655D01*
X-74885467Y33354846D01*
X-75485993Y33604206D01*
X-76136234Y33604774D01*
X-76737195Y33356462D01*
X-77197386Y32897073D01*
X-77446746Y32296547D01*
X-77447314Y31646306D01*
X-77378231Y31479111D01*
X-78017342Y30840000D01*
X-79981052Y30840000D01*
X-80496993Y31770781D01*
X-80951803Y32308025D01*
X-80980833Y32533078D01*
X-81346909Y33170992D01*
X-81929238Y33620257D01*
X-82639166Y33812476D01*
X-83368613Y33718386D01*
X-84006528Y33352309D01*
X-84455793Y32769980D01*
X-84648012Y32060052D01*
X-84693258Y31396370D01*
X-85886742Y31396370D01*
X-85931988Y32060052D01*
X-86124207Y32769980D01*
X-86573472Y33352309D01*
X-87030000Y33614294D01*
X-87030000Y43861924D01*
X-86801099Y43632623D01*
X-85835216Y43231553D01*
X-84789373Y43230640D01*
X-83822791Y43630024D01*
X-83082623Y44368901D01*
X-82681553Y45334784D01*
X-82680640Y46380627D01*
X-83080024Y47347209D01*
X-83818901Y48087377D01*
X-84784784Y48488447D01*
X-85830627Y48489360D01*
X-86797209Y48089976D01*
X-87030000Y47857591D01*
X-87030000Y48281561D01*
X-86767138Y48754803D01*
X-86346909Y49079008D01*
X-85980833Y49716922D01*
X-85886742Y50446369D01*
X-85886742Y50446370D01*
X-84693258Y50446370D01*
X-84599167Y49716923D01*
X-84233091Y49079008D01*
X-83650762Y48629743D01*
X-83582713Y48611318D01*
X-82933007Y47439219D01*
X-82475000Y46898199D01*
X-82475000Y38027540D01*
X-82417148Y37736701D01*
X-82252401Y37490139D01*
X-81565885Y36803623D01*
X-81634206Y36639087D01*
X-81634774Y35988846D01*
X-81386462Y35387885D01*
X-80927073Y34927694D01*
X-80326547Y34678334D01*
X-79676306Y34677766D01*
X-79075345Y34926078D01*
X-78615154Y35385467D01*
X-78365794Y35985993D01*
X-78365226Y36636234D01*
X-78613538Y37237195D01*
X-79072927Y37697386D01*
X-79673453Y37946746D01*
X-80323694Y37947314D01*
X-80490889Y37878231D01*
X-80955000Y38342342D01*
X-80955000Y44552131D01*
X-80526862Y44374353D01*
X-79935732Y44373837D01*
X-79389402Y44599576D01*
X-78971045Y45017203D01*
X-78744353Y45563138D01*
X-78743837Y46154268D01*
X-78969576Y46700598D01*
X-79387203Y47118955D01*
X-79760547Y47273981D01*
X-79472371Y47833511D01*
X-79411466Y48566475D01*
X-79635691Y49266953D01*
X-80496993Y50820781D01*
X-80951803Y51358025D01*
X-80980833Y51583078D01*
X-81346909Y52220992D01*
X-81929238Y52670257D01*
X-82639166Y52862476D01*
X-83368613Y52768386D01*
X-84006528Y52402309D01*
X-84455793Y51819980D01*
X-84648012Y51110052D01*
X-84693258Y50446370D01*
X-85886742Y50446370D01*
X-85931988Y51110052D01*
X-86124207Y51819980D01*
X-86573472Y52402309D01*
X-87030000Y52664294D01*
X-87030000Y59955198D01*
X-84737401Y57662599D01*
X-84490839Y57497852D01*
X-84200000Y57440000D01*
X-79011203Y57440000D01*
X-78971965Y57345036D01*
X-78557302Y56929649D01*
X-78970471Y56517200D01*
X-79201037Y55961935D01*
X-79201562Y55360703D01*
X-78971965Y54805036D01*
X-78557302Y54389649D01*
X-78970471Y53977200D01*
X-79201037Y53421935D01*
X-79201562Y52820703D01*
X-78971965Y52265036D01*
X-78557302Y51849649D01*
X-78970471Y51437200D01*
X-79201037Y50881935D01*
X-79201562Y50280703D01*
X-78971965Y49725036D01*
X-78557302Y49309649D01*
X-78970471Y48897200D01*
X-79201037Y48341935D01*
X-79201562Y47740703D01*
X-78971965Y47185036D01*
X-78547200Y46759529D01*
X-77991935Y46528963D01*
X-77390703Y46528438D01*
X-76835036Y46758035D01*
X-76409529Y47182800D01*
X-76178963Y47738065D01*
X-76178438Y48339297D01*
X-76408035Y48894964D01*
X-76822698Y49310351D01*
X-76409529Y49722800D01*
X-76178963Y50278065D01*
X-76178438Y50879297D01*
X-76408035Y51434964D01*
X-76822698Y51850351D01*
X-76409529Y52262800D01*
X-76178963Y52818065D01*
X-76178438Y53419297D01*
X-76408035Y53974964D01*
X-76822698Y54390351D01*
X-76409529Y54802800D01*
X-76369168Y54900000D01*
X-76174802Y54900000D01*
X-71387401Y50112599D01*
X-71305776Y50058059D01*
X-71744188Y49268766D01*
X-71969024Y48568484D01*
X-71908758Y47835467D01*
X-71653258Y47338317D01*
X-72180598Y47120424D01*
X-72598955Y46702797D01*
X-72825647Y46156862D01*
X-72826163Y45565732D01*
X-72600424Y45019402D01*
X-72182797Y44601045D01*
X-71636862Y44374353D01*
X-71045732Y44373837D01*
X-70499402Y44599576D01*
X-70081045Y45017203D01*
X-69854353Y45563138D01*
X-69853837Y46154268D01*
X-69999342Y46506418D01*
X-69578333Y46541032D01*
X-69500000Y46581290D01*
X-69500000Y33647539D01*
X-69600762Y33620257D01*
X-70183091Y33170992D01*
X-70549167Y32533077D01*
X-70605351Y32097504D01*
X-70881533Y31771842D01*
X-71744188Y30218766D01*
X-71969024Y29518484D01*
X-71908758Y28785467D01*
X-71653258Y28288317D01*
X-72180598Y28070424D01*
X-72598955Y27652797D01*
X-72825647Y27106862D01*
X-72826163Y26515732D01*
X-72600424Y25969402D01*
X-72182797Y25551045D01*
X-71636862Y25324353D01*
X-71045732Y25323837D01*
X-70499402Y25549576D01*
X-70081045Y25967203D01*
X-69854353Y26513138D01*
X-69853837Y27104268D01*
X-69999342Y27456418D01*
X-69578333Y27491032D01*
X-69500000Y27531290D01*
X-69500000Y14597539D01*
X-69600762Y14570257D01*
X-70183091Y14120992D01*
X-70549167Y13483077D01*
X-70605351Y13047504D01*
X-70881533Y12721842D01*
X-71744188Y11168766D01*
X-71969024Y10468484D01*
X-71908758Y9735467D01*
X-71653258Y9238317D01*
X-72180598Y9020424D01*
X-72598955Y8602797D01*
X-72825647Y8056862D01*
X-72826163Y7465732D01*
X-72600424Y6919402D01*
X-72182797Y6501045D01*
X-71636862Y6274353D01*
X-71045732Y6273837D01*
X-70499402Y6499576D01*
X-70081045Y6917203D01*
X-69947269Y7239373D01*
X-68889360Y7239373D01*
X-68489976Y6272791D01*
X-67751099Y5532623D01*
X-66785216Y5131553D01*
X-65739373Y5130640D01*
X-64772791Y5530024D01*
X-64032623Y6268901D01*
X-63631553Y7234784D01*
X-63630640Y8280627D01*
X-64030024Y9247209D01*
X-64768901Y9987377D01*
X-65734784Y10388447D01*
X-66780627Y10389360D01*
X-67747209Y9989976D01*
X-68487377Y9251099D01*
X-68888447Y8285216D01*
X-68889360Y7239373D01*
X-69947269Y7239373D01*
X-69854353Y7463138D01*
X-69853837Y8054268D01*
X-69999342Y8406418D01*
X-69578333Y8441032D01*
X-68924175Y8777223D01*
X-68448468Y9338158D01*
X-67717138Y10654803D01*
X-67296909Y10979008D01*
X-66930833Y11616922D01*
X-66836742Y12346369D01*
X-66836742Y12346370D01*
X-65643258Y12346370D01*
X-65549167Y11616923D01*
X-65183091Y10979008D01*
X-64600762Y10529743D01*
X-64532713Y10511318D01*
X-63883007Y9339219D01*
X-63407789Y8777869D01*
X-62753924Y8441108D01*
X-62514360Y8421202D01*
X-62665647Y8056862D01*
X-62666163Y7465732D01*
X-62440424Y6919402D01*
X-62022797Y6501045D01*
X-61476862Y6274353D01*
X-60885732Y6273837D01*
X-60339402Y6499576D01*
X-59921045Y6917203D01*
X-59694353Y7463138D01*
X-59693837Y8054268D01*
X-59919576Y8600598D01*
X-60337203Y9018955D01*
X-60710547Y9173981D01*
X-60422371Y9733511D01*
X-60377792Y10270000D01*
X-58502540Y10270000D01*
X-58211701Y10327852D01*
X-57965139Y10492599D01*
X-57203623Y11254115D01*
X-57039087Y11185794D01*
X-56388846Y11185226D01*
X-55787885Y11433538D01*
X-55327694Y11892927D01*
X-55078334Y12493453D01*
X-55077766Y13143694D01*
X-55326078Y13744655D01*
X-55785467Y14204846D01*
X-56385993Y14454206D01*
X-57036234Y14454774D01*
X-57637195Y14206462D01*
X-58097386Y13747073D01*
X-58346746Y13146547D01*
X-58347314Y12496306D01*
X-58278231Y12329111D01*
X-58817342Y11790000D01*
X-60931052Y11790000D01*
X-61446993Y12720781D01*
X-61901803Y13258025D01*
X-61930833Y13483078D01*
X-62296909Y14120992D01*
X-62879238Y14570257D01*
X-63589166Y14762476D01*
X-64318613Y14668386D01*
X-64956528Y14302309D01*
X-65405793Y13719980D01*
X-65598012Y13010052D01*
X-65643258Y12346370D01*
X-66836742Y12346370D01*
X-66881988Y13010052D01*
X-67074207Y13719980D01*
X-67523472Y14302309D01*
X-67980000Y14564294D01*
X-67980000Y22359490D01*
X-58259470Y22359490D01*
X-58259470Y20360510D01*
X-58215192Y20125193D01*
X-58076120Y19909069D01*
X-57863920Y19764079D01*
X-57612030Y19713070D01*
X-55613050Y19713070D01*
X-55377733Y19757348D01*
X-55161609Y19896420D01*
X-55016619Y20108620D01*
X-54965610Y20360510D01*
X-54965610Y22359490D01*
X-55009888Y22594807D01*
X-55148960Y22810931D01*
X-55361160Y22955921D01*
X-55613050Y23006930D01*
X-57612030Y23006930D01*
X-57847347Y22962652D01*
X-58063471Y22823580D01*
X-58208461Y22611380D01*
X-58259470Y22359490D01*
X-67980000Y22359490D01*
X-67980000Y24811924D01*
X-67751099Y24582623D01*
X-66785216Y24181553D01*
X-65739373Y24180640D01*
X-64772791Y24580024D01*
X-64032623Y25318901D01*
X-63631553Y26284784D01*
X-63630640Y27330627D01*
X-64030024Y28297209D01*
X-64768901Y29037377D01*
X-65734784Y29438447D01*
X-66780627Y29439360D01*
X-67747209Y29039976D01*
X-67980000Y28807591D01*
X-67980000Y29231561D01*
X-67717138Y29704803D01*
X-67296909Y30029008D01*
X-66930833Y30666922D01*
X-66836742Y31396369D01*
X-66836742Y31396370D01*
X-65643258Y31396370D01*
X-65549167Y30666923D01*
X-65183091Y30029008D01*
X-64600762Y29579743D01*
X-64532713Y29561318D01*
X-63883007Y28389219D01*
X-63407789Y27827869D01*
X-62753924Y27491108D01*
X-62514360Y27471202D01*
X-62665647Y27106862D01*
X-62666163Y26515732D01*
X-62440424Y25969402D01*
X-62022797Y25551045D01*
X-61476862Y25324353D01*
X-60885732Y25323837D01*
X-60339402Y25549576D01*
X-59921045Y25967203D01*
X-59694353Y26513138D01*
X-59693837Y27104268D01*
X-59919576Y27650598D01*
X-60337203Y28068955D01*
X-60710547Y28223981D01*
X-60422371Y28783511D01*
X-60377792Y29320000D01*
X-58052540Y29320000D01*
X-57761701Y29377852D01*
X-57515139Y29542599D01*
X-57103623Y29954115D01*
X-56939087Y29885794D01*
X-56288846Y29885226D01*
X-55687885Y30133538D01*
X-55227694Y30592927D01*
X-54978334Y31193453D01*
X-54977766Y31843694D01*
X-55226078Y32444655D01*
X-55685467Y32904846D01*
X-56285993Y33154206D01*
X-56936234Y33154774D01*
X-57537195Y32906462D01*
X-57997386Y32447073D01*
X-58246746Y31846547D01*
X-58247314Y31196306D01*
X-58178231Y31029111D01*
X-58367342Y30840000D01*
X-60931052Y30840000D01*
X-61446993Y31770781D01*
X-61901803Y32308025D01*
X-61930833Y32533078D01*
X-62296909Y33170992D01*
X-62879238Y33620257D01*
X-63589166Y33812476D01*
X-64318613Y33718386D01*
X-64956528Y33352309D01*
X-65405793Y32769980D01*
X-65598012Y32060052D01*
X-65643258Y31396370D01*
X-66836742Y31396370D01*
X-66881988Y32060052D01*
X-67074207Y32769980D01*
X-67523472Y33352309D01*
X-67980000Y33614294D01*
X-67980000Y41609490D01*
X-58459470Y41609490D01*
X-58459470Y39610510D01*
X-58415192Y39375193D01*
X-58276120Y39159069D01*
X-58063920Y39014079D01*
X-57812030Y38963070D01*
X-55813050Y38963070D01*
X-55577733Y39007348D01*
X-55361609Y39146420D01*
X-55216619Y39358620D01*
X-55165610Y39610510D01*
X-55165610Y41609490D01*
X-55209888Y41844807D01*
X-55348960Y42060931D01*
X-55561160Y42205921D01*
X-55813050Y42256930D01*
X-57812030Y42256930D01*
X-58047347Y42212652D01*
X-58263471Y42073580D01*
X-58408461Y41861380D01*
X-58459470Y41609490D01*
X-67980000Y41609490D01*
X-67980000Y43861924D01*
X-67751099Y43632623D01*
X-66785216Y43231553D01*
X-65739373Y43230640D01*
X-64772791Y43630024D01*
X-64032623Y44368901D01*
X-63631553Y45334784D01*
X-63630640Y46380627D01*
X-64030024Y47347209D01*
X-64768901Y48087377D01*
X-65734784Y48488447D01*
X-66780627Y48489360D01*
X-67747209Y48089976D01*
X-67980000Y47857591D01*
X-67980000Y48281561D01*
X-67717138Y48754803D01*
X-67296909Y49079008D01*
X-66930833Y49716922D01*
X-66836742Y50446369D01*
X-66836742Y50446370D01*
X-65643258Y50446370D01*
X-65549167Y49716923D01*
X-65183091Y49079008D01*
X-64600762Y48629743D01*
X-64532713Y48611318D01*
X-63883007Y47439219D01*
X-63407789Y46877869D01*
X-62753924Y46541108D01*
X-62514360Y46521202D01*
X-62665647Y46156862D01*
X-62666163Y45565732D01*
X-62440424Y45019402D01*
X-62022797Y44601045D01*
X-61476862Y44374353D01*
X-60885732Y44373837D01*
X-60339402Y44599576D01*
X-59921045Y45017203D01*
X-59694353Y45563138D01*
X-59693837Y46154268D01*
X-59919576Y46700598D01*
X-60337203Y47118955D01*
X-60710547Y47273981D01*
X-60422371Y47833511D01*
X-60361466Y48566475D01*
X-60585691Y49266953D01*
X-60997569Y50010000D01*
X-58267036Y50010000D01*
X-58199002Y49845345D01*
X-57739613Y49385154D01*
X-57139087Y49135794D01*
X-56488846Y49135226D01*
X-55887885Y49383538D01*
X-55427694Y49842927D01*
X-55178334Y50443453D01*
X-55177766Y51093694D01*
X-55426078Y51694655D01*
X-55885467Y52154846D01*
X-56485993Y52404206D01*
X-57136234Y52404774D01*
X-57737195Y52156462D01*
X-58197386Y51697073D01*
X-58266761Y51530000D01*
X-61923986Y51530000D01*
X-61930833Y51583078D01*
X-62296909Y52220992D01*
X-62879238Y52670257D01*
X-63589166Y52862476D01*
X-64318613Y52768386D01*
X-64956528Y52402309D01*
X-65405793Y51819980D01*
X-65598012Y51110052D01*
X-65643258Y50446370D01*
X-66836742Y50446370D01*
X-66881988Y51110052D01*
X-67074207Y51819980D01*
X-67523472Y52402309D01*
X-67980000Y52664294D01*
X-67980000Y62911924D01*
X-67751099Y62682623D01*
X-66785216Y62281553D01*
X-65739373Y62280640D01*
X-64772791Y62680024D01*
X-64032623Y63418901D01*
X-63631553Y64384784D01*
X-63630640Y65430627D01*
X-64030024Y66397209D01*
X-64768901Y67137377D01*
X-65734784Y67538447D01*
X-66780627Y67539360D01*
X-67747209Y67139976D01*
X-67980000Y66907591D01*
X-67980000Y67331561D01*
X-67717138Y67804803D01*
X-67296909Y68129008D01*
X-66930833Y68766922D01*
X-66836742Y69496369D01*
X-66836742Y69496370D01*
X-65643258Y69496370D01*
X-65549167Y68766923D01*
X-65183091Y68129008D01*
X-64600762Y67679743D01*
X-64532713Y67661318D01*
X-63883007Y66489219D01*
X-63407789Y65927869D01*
X-62753924Y65591108D01*
X-62514360Y65571202D01*
X-62665647Y65206862D01*
X-62666163Y64615732D01*
X-62440424Y64069402D01*
X-62116582Y63744994D01*
X-62338943Y63653117D01*
X-62602192Y63390327D01*
X-62744838Y63046799D01*
X-62745162Y62674833D01*
X-62603117Y62331057D01*
X-62340327Y62067808D01*
X-61996799Y61925162D01*
X-61949923Y61925121D01*
X-59300000Y59275198D01*
X-59300000Y56726238D01*
X-59366226Y56698874D01*
X-59663070Y56402548D01*
X-59663070Y56406950D01*
X-59707348Y56642267D01*
X-59846420Y56858391D01*
X-60058620Y57003381D01*
X-60310510Y57054390D01*
X-62309490Y57054390D01*
X-62544807Y57010112D01*
X-62760931Y56871040D01*
X-62905921Y56658840D01*
X-62956930Y56406950D01*
X-62956930Y54407970D01*
X-62912652Y54172653D01*
X-62773580Y53956529D01*
X-62561380Y53811539D01*
X-62309490Y53760530D01*
X-60310510Y53760530D01*
X-60075193Y53804808D01*
X-59859069Y53943880D01*
X-59714079Y54156080D01*
X-59663070Y54407970D01*
X-59663070Y54517768D01*
X-59368387Y54222570D01*
X-58831786Y53999754D01*
X-58250763Y53999247D01*
X-57713774Y54221126D01*
X-57302570Y54631613D01*
X-57079754Y55168214D01*
X-57079247Y55749237D01*
X-57301126Y56286226D01*
X-57711613Y56697430D01*
X-57780000Y56725827D01*
X-57780000Y57897085D01*
X-57612030Y57863070D01*
X-55613050Y57863070D01*
X-55377733Y57907348D01*
X-55161609Y58046420D01*
X-55016619Y58258620D01*
X-54965610Y58510510D01*
X-54965610Y60509490D01*
X-55009888Y60744807D01*
X-55148960Y60960931D01*
X-55361160Y61105921D01*
X-55613050Y61156930D01*
X-57612030Y61156930D01*
X-57847347Y61112652D01*
X-58063471Y60973580D01*
X-58208461Y60761380D01*
X-58259470Y60509490D01*
X-58259470Y60384272D01*
X-60874878Y62999680D01*
X-60874838Y63045167D01*
X-61016883Y63388943D01*
X-61051861Y63423982D01*
X-60885732Y63423837D01*
X-60339402Y63649576D01*
X-59921045Y64067203D01*
X-59694353Y64613138D01*
X-59694351Y64615732D01*
X-53776163Y64615732D01*
X-53550424Y64069402D01*
X-53132797Y63651045D01*
X-52586862Y63424353D01*
X-51995732Y63423837D01*
X-51449402Y63649576D01*
X-51375000Y63723848D01*
X-51375000Y51799447D01*
X-51499167Y51583077D01*
X-51555351Y51147504D01*
X-51831533Y50821842D01*
X-52694188Y49268766D01*
X-52919024Y48568484D01*
X-52858758Y47835467D01*
X-52603258Y47338317D01*
X-53130598Y47120424D01*
X-53548955Y46702797D01*
X-53775647Y46156862D01*
X-53776163Y45565732D01*
X-53550424Y45019402D01*
X-53132797Y44601045D01*
X-52586862Y44374353D01*
X-51995732Y44373837D01*
X-51449402Y44599576D01*
X-51031045Y45017203D01*
X-50804353Y45563138D01*
X-50803837Y46154268D01*
X-50949342Y46506418D01*
X-50528333Y46541032D01*
X-50450000Y46581290D01*
X-50450000Y33647539D01*
X-50550762Y33620257D01*
X-51133091Y33170992D01*
X-51499167Y32533077D01*
X-51555351Y32097504D01*
X-51831533Y31771842D01*
X-52694188Y30218766D01*
X-52919024Y29518484D01*
X-52858758Y28785467D01*
X-52603258Y28288317D01*
X-53130598Y28070424D01*
X-53548955Y27652797D01*
X-53775647Y27106862D01*
X-53776163Y26515732D01*
X-53550424Y25969402D01*
X-53132797Y25551045D01*
X-52586862Y25324353D01*
X-51995732Y25323837D01*
X-51449402Y25549576D01*
X-51031045Y25967203D01*
X-50804353Y26513138D01*
X-50803837Y27104268D01*
X-50949342Y27456418D01*
X-50528333Y27491032D01*
X-50450000Y27531290D01*
X-50450000Y14597539D01*
X-50550762Y14570257D01*
X-51133091Y14120992D01*
X-51499167Y13483077D01*
X-51555351Y13047504D01*
X-51831533Y12721842D01*
X-52694188Y11168766D01*
X-52919024Y10468484D01*
X-52858758Y9735467D01*
X-52603258Y9238317D01*
X-53130598Y9020424D01*
X-53548955Y8602797D01*
X-53775647Y8056862D01*
X-53776163Y7465732D01*
X-53550424Y6919402D01*
X-53132797Y6501045D01*
X-52586862Y6274353D01*
X-51995732Y6273837D01*
X-51449402Y6499576D01*
X-51031045Y6917203D01*
X-50897269Y7239373D01*
X-49839360Y7239373D01*
X-49439976Y6272791D01*
X-48701099Y5532623D01*
X-47735216Y5131553D01*
X-46689373Y5130640D01*
X-45722791Y5530024D01*
X-44982623Y6268901D01*
X-44581553Y7234784D01*
X-44580640Y8280627D01*
X-44980024Y9247209D01*
X-45718901Y9987377D01*
X-46684784Y10388447D01*
X-47730627Y10389360D01*
X-48697209Y9989976D01*
X-49437377Y9251099D01*
X-49838447Y8285216D01*
X-49839360Y7239373D01*
X-50897269Y7239373D01*
X-50804353Y7463138D01*
X-50803837Y8054268D01*
X-50949342Y8406418D01*
X-50528333Y8441032D01*
X-49874175Y8777223D01*
X-49398468Y9338158D01*
X-48667138Y10654803D01*
X-48246909Y10979008D01*
X-47880833Y11616922D01*
X-47786742Y12346369D01*
X-47786742Y12346370D01*
X-46593258Y12346370D01*
X-46499167Y11616923D01*
X-46133091Y10979008D01*
X-45550762Y10529743D01*
X-45482713Y10511318D01*
X-44833007Y9339219D01*
X-44357789Y8777869D01*
X-43703924Y8441108D01*
X-43464360Y8421202D01*
X-43615647Y8056862D01*
X-43616163Y7465732D01*
X-43390424Y6919402D01*
X-42972797Y6501045D01*
X-42426862Y6274353D01*
X-41835732Y6273837D01*
X-41289402Y6499576D01*
X-40871045Y6917203D01*
X-40644353Y7463138D01*
X-40643837Y8054268D01*
X-40869576Y8600598D01*
X-41287203Y9018955D01*
X-41660547Y9173981D01*
X-41372371Y9733511D01*
X-41327792Y10270000D01*
X-38490000Y10270000D01*
X-38199161Y10327852D01*
X-37952599Y10492599D01*
X-37339641Y11105557D01*
X-36787885Y11333538D01*
X-36327694Y11792927D01*
X-36078334Y12393453D01*
X-36077766Y13043694D01*
X-36326078Y13644655D01*
X-36785467Y14104846D01*
X-37385993Y14354206D01*
X-38036234Y14354774D01*
X-38637195Y14106462D01*
X-39097386Y13647073D01*
X-39346746Y13046547D01*
X-39347314Y12396306D01*
X-39099002Y11795345D01*
X-39093666Y11790000D01*
X-41881052Y11790000D01*
X-42396993Y12720781D01*
X-42851803Y13258025D01*
X-42880833Y13483078D01*
X-43246909Y14120992D01*
X-43829238Y14570257D01*
X-44539166Y14762476D01*
X-45268613Y14668386D01*
X-45906528Y14302309D01*
X-46355793Y13719980D01*
X-46548012Y13010052D01*
X-46593258Y12346370D01*
X-47786742Y12346370D01*
X-47831988Y13010052D01*
X-48024207Y13719980D01*
X-48473472Y14302309D01*
X-48930000Y14564294D01*
X-48930000Y22359490D01*
X-39209470Y22359490D01*
X-39209470Y20360510D01*
X-39165192Y20125193D01*
X-39026120Y19909069D01*
X-38813920Y19764079D01*
X-38562030Y19713070D01*
X-36563050Y19713070D01*
X-36327733Y19757348D01*
X-36111609Y19896420D01*
X-35966619Y20108620D01*
X-35915610Y20360510D01*
X-35915610Y22359490D01*
X-35959888Y22594807D01*
X-36098960Y22810931D01*
X-36311160Y22955921D01*
X-36563050Y23006930D01*
X-38562030Y23006930D01*
X-38797347Y22962652D01*
X-39013471Y22823580D01*
X-39158461Y22611380D01*
X-39209470Y22359490D01*
X-48930000Y22359490D01*
X-48930000Y24811924D01*
X-48701099Y24582623D01*
X-47735216Y24181553D01*
X-46689373Y24180640D01*
X-45722791Y24580024D01*
X-44982623Y25318901D01*
X-44581553Y26284784D01*
X-44580640Y27330627D01*
X-44980024Y28297209D01*
X-45718901Y29037377D01*
X-46684784Y29438447D01*
X-47730627Y29439360D01*
X-48697209Y29039976D01*
X-48930000Y28807591D01*
X-48930000Y29231561D01*
X-48667138Y29704803D01*
X-48246909Y30029008D01*
X-47880833Y30666922D01*
X-47786742Y31396369D01*
X-47786742Y31396370D01*
X-46593258Y31396370D01*
X-46499167Y30666923D01*
X-46133091Y30029008D01*
X-45550762Y29579743D01*
X-45482713Y29561318D01*
X-44833007Y28389219D01*
X-44357789Y27827869D01*
X-43703924Y27491108D01*
X-43464360Y27471202D01*
X-43615647Y27106862D01*
X-43616163Y26515732D01*
X-43390424Y25969402D01*
X-42972797Y25551045D01*
X-42426862Y25324353D01*
X-41835732Y25323837D01*
X-41289402Y25549576D01*
X-40871045Y25967203D01*
X-40644353Y26513138D01*
X-40643837Y27104268D01*
X-40869576Y27650598D01*
X-41287203Y28068955D01*
X-41660547Y28223981D01*
X-41372371Y28783511D01*
X-41327792Y29320000D01*
X-39002540Y29320000D01*
X-38711701Y29377852D01*
X-38465139Y29542599D01*
X-38053623Y29954115D01*
X-37889087Y29885794D01*
X-37238846Y29885226D01*
X-36637885Y30133538D01*
X-36177694Y30592927D01*
X-35928334Y31193453D01*
X-35927766Y31843694D01*
X-36176078Y32444655D01*
X-36635467Y32904846D01*
X-37235993Y33154206D01*
X-37886234Y33154774D01*
X-38487195Y32906462D01*
X-38947386Y32447073D01*
X-39196746Y31846547D01*
X-39197314Y31196306D01*
X-39128231Y31029111D01*
X-39317342Y30840000D01*
X-41881052Y30840000D01*
X-42396993Y31770781D01*
X-42851803Y32308025D01*
X-42880833Y32533078D01*
X-43246909Y33170992D01*
X-43829238Y33620257D01*
X-44539166Y33812476D01*
X-45268613Y33718386D01*
X-45906528Y33352309D01*
X-46355793Y32769980D01*
X-46548012Y32060052D01*
X-46593258Y31396370D01*
X-47786742Y31396370D01*
X-47831988Y32060052D01*
X-48024207Y32769980D01*
X-48473472Y33352309D01*
X-48930000Y33614294D01*
X-48930000Y41459490D01*
X-39259470Y41459490D01*
X-39259470Y39460510D01*
X-39215192Y39225193D01*
X-39076120Y39009069D01*
X-38863920Y38864079D01*
X-38612030Y38813070D01*
X-36613050Y38813070D01*
X-36377733Y38857348D01*
X-36161609Y38996420D01*
X-36016619Y39208620D01*
X-35965610Y39460510D01*
X-35965610Y41459490D01*
X-36009888Y41694807D01*
X-36148960Y41910931D01*
X-36361160Y42055921D01*
X-36613050Y42106930D01*
X-38612030Y42106930D01*
X-38847347Y42062652D01*
X-39063471Y41923580D01*
X-39208461Y41711380D01*
X-39259470Y41459490D01*
X-48930000Y41459490D01*
X-48930000Y43861924D01*
X-48701099Y43632623D01*
X-47735216Y43231553D01*
X-46689373Y43230640D01*
X-45722791Y43630024D01*
X-44982623Y44368901D01*
X-44581553Y45334784D01*
X-44580640Y46380627D01*
X-44980024Y47347209D01*
X-45718901Y48087377D01*
X-46684784Y48488447D01*
X-47730627Y48489360D01*
X-48697209Y48089976D01*
X-48930000Y47857591D01*
X-48930000Y48281561D01*
X-48667138Y48754803D01*
X-48246909Y49079008D01*
X-47880833Y49716922D01*
X-47786742Y50446369D01*
X-47786742Y50446370D01*
X-46593258Y50446370D01*
X-46499167Y49716923D01*
X-46133091Y49079008D01*
X-45550762Y48629743D01*
X-45482713Y48611318D01*
X-44833007Y47439219D01*
X-44357789Y46877869D01*
X-43703924Y46541108D01*
X-43464360Y46521202D01*
X-43615647Y46156862D01*
X-43616163Y45565732D01*
X-43390424Y45019402D01*
X-42972797Y44601045D01*
X-42426862Y44374353D01*
X-41835732Y44373837D01*
X-41289402Y44599576D01*
X-40871045Y45017203D01*
X-40644353Y45563138D01*
X-40643837Y46154268D01*
X-40869576Y46700598D01*
X-41287203Y47118955D01*
X-41660547Y47273981D01*
X-41372371Y47833511D01*
X-41311466Y48566475D01*
X-41535691Y49266953D01*
X-41845085Y49825113D01*
X-41810198Y49860000D01*
X-39067036Y49860000D01*
X-38999002Y49695345D01*
X-38539613Y49235154D01*
X-37939087Y48985794D01*
X-37288846Y48985226D01*
X-36687885Y49233538D01*
X-36227694Y49692927D01*
X-35978334Y50293453D01*
X-35977766Y50943694D01*
X-36226078Y51544655D01*
X-36685467Y52004846D01*
X-37285993Y52254206D01*
X-37936234Y52254774D01*
X-38537195Y52006462D01*
X-38997386Y51547073D01*
X-39066761Y51380000D01*
X-42125000Y51380000D01*
X-42415840Y51322148D01*
X-42662401Y51157401D01*
X-42672995Y51146807D01*
X-42851803Y51358025D01*
X-42880833Y51583078D01*
X-43246909Y52220992D01*
X-43829238Y52670257D01*
X-44539166Y52862476D01*
X-45268613Y52768386D01*
X-45906528Y52402309D01*
X-46355793Y51819980D01*
X-46548012Y51110052D01*
X-46593258Y50446370D01*
X-47786742Y50446370D01*
X-47831988Y51110052D01*
X-48024207Y51819980D01*
X-48473472Y52402309D01*
X-49111387Y52768385D01*
X-49840834Y52862476D01*
X-49855000Y52858640D01*
X-49855000Y54433785D01*
X-49226610Y54433785D01*
X-49149344Y54185024D01*
X-48602869Y53987660D01*
X-48022465Y54014447D01*
X-47610656Y54185024D01*
X-47533390Y54433785D01*
X-48380000Y55280395D01*
X-49226610Y54433785D01*
X-49855000Y54433785D01*
X-49855000Y55682869D01*
X-49852340Y55682869D01*
X-49825553Y55102465D01*
X-49654976Y54690656D01*
X-49406215Y54613390D01*
X-48559605Y55460000D01*
X-49406215Y56306610D01*
X-49654976Y56229344D01*
X-49852340Y55682869D01*
X-49855000Y55682869D01*
X-49855000Y56486215D01*
X-49226610Y56486215D01*
X-48380000Y55639605D01*
X-47533390Y56486215D01*
X-47610656Y56734976D01*
X-48157131Y56932340D01*
X-48737535Y56905553D01*
X-49149344Y56734976D01*
X-49226610Y56486215D01*
X-49855000Y56486215D01*
X-49855000Y64389373D01*
X-49839360Y64389373D01*
X-49439976Y63422791D01*
X-48701099Y62682623D01*
X-47735216Y62281553D01*
X-46689373Y62280640D01*
X-45722791Y62680024D01*
X-44982623Y63418901D01*
X-44581553Y64384784D01*
X-44580640Y65430627D01*
X-44980024Y66397209D01*
X-45718901Y67137377D01*
X-46684784Y67538447D01*
X-47730627Y67539360D01*
X-48697209Y67139976D01*
X-49437377Y66401099D01*
X-49838447Y65435216D01*
X-49839360Y64389373D01*
X-49855000Y64389373D01*
X-49855000Y65949833D01*
X-49398468Y66488158D01*
X-48667138Y67804803D01*
X-48246909Y68129008D01*
X-47880833Y68766922D01*
X-47786742Y69496369D01*
X-47831988Y70160052D01*
X-48024207Y70869980D01*
X-48473472Y71452309D01*
X-49111387Y71818385D01*
X-49840834Y71912476D01*
X-50550762Y71720257D01*
X-51133091Y71270992D01*
X-51499167Y70633077D01*
X-51555351Y70197504D01*
X-51831533Y69871842D01*
X-52694188Y68318766D01*
X-52919024Y67618484D01*
X-52858758Y66885467D01*
X-52603258Y66388317D01*
X-53130598Y66170424D01*
X-53548955Y65752797D01*
X-53775647Y65206862D01*
X-53776163Y64615732D01*
X-59694351Y64615732D01*
X-59693837Y65204268D01*
X-59919576Y65750598D01*
X-60337203Y66168955D01*
X-60710547Y66323981D01*
X-60422371Y66883511D01*
X-60361466Y67616475D01*
X-60585691Y68316953D01*
X-60895085Y68875113D01*
X-60860198Y68910000D01*
X-58067036Y68910000D01*
X-57999002Y68745345D01*
X-57539613Y68285154D01*
X-56939087Y68035794D01*
X-56288846Y68035226D01*
X-55687885Y68283538D01*
X-55227694Y68742927D01*
X-54978334Y69343453D01*
X-54977766Y69993694D01*
X-55226078Y70594655D01*
X-55685467Y71054846D01*
X-56285993Y71304206D01*
X-56936234Y71304774D01*
X-57537195Y71056462D01*
X-57997386Y70597073D01*
X-58066761Y70430000D01*
X-61175000Y70430000D01*
X-61465840Y70372148D01*
X-61712401Y70207401D01*
X-61722995Y70196807D01*
X-61901803Y70408025D01*
X-61930833Y70633078D01*
X-62296909Y71270992D01*
X-62879238Y71720257D01*
X-63589166Y71912476D01*
X-64318613Y71818386D01*
X-64956528Y71452309D01*
X-65405793Y70869980D01*
X-65598012Y70160052D01*
X-65643258Y69496370D01*
X-66836742Y69496370D01*
X-66881988Y70160052D01*
X-67074207Y70869980D01*
X-67523472Y71452309D01*
X-68161387Y71818385D01*
X-68890834Y71912476D01*
X-69600762Y71720257D01*
X-70183091Y71270992D01*
X-70549167Y70633077D01*
X-70605351Y70197504D01*
X-70881533Y69871842D01*
X-71744188Y68318766D01*
X-71969024Y67618484D01*
X-71908758Y66885467D01*
X-71653258Y66388317D01*
X-72180598Y66170424D01*
X-72598955Y65752797D01*
X-72820456Y65219363D01*
X-72872599Y65297401D01*
X-75172599Y67597401D01*
X-75419161Y67762148D01*
X-75710000Y67820000D01*
X-76278263Y67820000D01*
X-76167118Y68124997D01*
X-76193109Y68725668D01*
X-76372973Y69159896D01*
X-76626999Y69243396D01*
X-77510395Y68360000D01*
X-77496252Y68345857D01*
X-77675857Y68166252D01*
X-77690000Y68180395D01*
X-77704142Y68166252D01*
X-77883747Y68345857D01*
X-77869605Y68360000D01*
X-78753001Y69243396D01*
X-79007027Y69159896D01*
X-79212882Y68595003D01*
X-79208028Y68482830D01*
X-79442599Y68717401D01*
X-79689161Y68882148D01*
X-79980000Y68940000D01*
X-79981052Y68940000D01*
X-80496993Y69870781D01*
X-80951803Y70408025D01*
X-80980833Y70633078D01*
X-81346909Y71270992D01*
X-81929238Y71720257D01*
X-82639166Y71912476D01*
X-83368613Y71818386D01*
X-84006528Y71452309D01*
X-84455793Y70869980D01*
X-84648012Y70160052D01*
X-84693258Y69496370D01*
X-84599167Y68766923D01*
X-84233091Y68129008D01*
X-83650762Y67679743D01*
X-83582713Y67661318D01*
X-82933007Y66489219D01*
X-82457789Y65927869D01*
X-81803924Y65591108D01*
X-81564360Y65571202D01*
X-81715647Y65206862D01*
X-81716163Y64615732D01*
X-81490424Y64069402D01*
X-81072797Y63651045D01*
X-80526862Y63424353D01*
X-79935732Y63423837D01*
X-79389402Y63649576D01*
X-79019707Y64018626D01*
X-79201037Y63581935D01*
X-79201562Y62980703D01*
X-78971965Y62425036D01*
X-78557302Y62009649D01*
X-78970471Y61597200D01*
X-79201037Y61041935D01*
X-79201562Y60440703D01*
X-78971965Y59885036D01*
X-78557302Y59469649D01*
X-78970471Y59057200D01*
X-79010832Y58960000D01*
X-83885198Y58960000D01*
X-87030000Y62104802D01*
X-87030000Y62911924D01*
X-86801099Y62682623D01*
X-85835216Y62281553D01*
X-84789373Y62280640D01*
X-83822791Y62680024D01*
X-83082623Y63418901D01*
X-82681553Y64384784D01*
X-82680640Y65430627D01*
X-83080024Y66397209D01*
X-83818901Y67137377D01*
X-84784784Y67538447D01*
X-85830627Y67539360D01*
X-86797209Y67139976D01*
X-87030000Y66907591D01*
X-87030000Y67331561D01*
X-86767138Y67804803D01*
X-86346909Y68129008D01*
X-85980833Y68766922D01*
X-85886742Y69496369D01*
X-85931988Y70160052D01*
X-86124207Y70869980D01*
X-86573472Y71452309D01*
X-87211387Y71818385D01*
X-87940834Y71912476D01*
X-88650762Y71720257D01*
X-89233091Y71270992D01*
X-89599167Y70633077D01*
X-89655351Y70197504D01*
X-89931533Y69871842D01*
X-90794188Y68318766D01*
X-91019024Y67618484D01*
X-90958758Y66885467D01*
X-90703258Y66388317D01*
X-91230598Y66170424D01*
X-91418557Y65982793D01*
X-91418438Y66119297D01*
X-91648035Y66674964D01*
X-92062698Y67090351D01*
X-91649529Y67502800D01*
X-91418963Y68058065D01*
X-91418438Y68659297D01*
X-91648035Y69214964D01*
X-92062698Y69630351D01*
X-91649529Y70042800D01*
X-91418963Y70598065D01*
X-91418438Y71199297D01*
X-91648035Y71754964D01*
X-92062698Y72170351D01*
X-91649529Y72582800D01*
X-91418963Y73138065D01*
X-91418438Y73739297D01*
X-91648035Y74294964D01*
X-92062698Y74710351D01*
X-91649529Y75122800D01*
X-91418963Y75678065D01*
X-91418438Y76279297D01*
X-91648035Y76834964D01*
X-91669333Y76856300D01*
X-79213740Y76856300D01*
X-79213740Y75103700D01*
X-79169462Y74868383D01*
X-79030390Y74652259D01*
X-78818190Y74507269D01*
X-78769843Y74497478D01*
X-78970471Y74297200D01*
X-79201037Y73741935D01*
X-79201562Y73140703D01*
X-78971965Y72585036D01*
X-78557302Y72169649D01*
X-78970471Y71757200D01*
X-79201037Y71201935D01*
X-79201562Y70600703D01*
X-78971965Y70045036D01*
X-78547200Y69619529D01*
X-78513408Y69605497D01*
X-78573396Y69423001D01*
X-77690000Y68539605D01*
X-76806604Y69423001D01*
X-76866447Y69605056D01*
X-76835036Y69618035D01*
X-76409529Y70042800D01*
X-76178963Y70598065D01*
X-76178438Y71199297D01*
X-76408035Y71754964D01*
X-76822698Y72170351D01*
X-76409529Y72582800D01*
X-76178963Y73138065D01*
X-76178438Y73739297D01*
X-76408035Y74294964D01*
X-76607737Y74495015D01*
X-76578383Y74500538D01*
X-76362259Y74639610D01*
X-76217269Y74851810D01*
X-76166260Y75103700D01*
X-76166260Y76856300D01*
X-76210538Y77091617D01*
X-76349610Y77307741D01*
X-76561810Y77452731D01*
X-76813700Y77503740D01*
X-78566300Y77503740D01*
X-78801617Y77459462D01*
X-79017741Y77320390D01*
X-79162731Y77108190D01*
X-79213740Y76856300D01*
X-91669333Y76856300D01*
X-92072800Y77260471D01*
X-92628065Y77491037D01*
X-93229297Y77491562D01*
X-93784964Y77261965D01*
X-94045293Y77002090D01*
X-94078347Y77082087D01*
X-95044572Y78050000D01*
X-75154092Y78050000D01*
X-69862046Y72757954D01*
G36*
X-12313000Y62710890D02*
X-12313000Y62609110D01*
X-12409110Y62513000D01*
X-12530890Y62513000D01*
X-12607000Y62589110D01*
X-12607000Y62730890D01*
X-12530890Y62807000D01*
X-12409110Y62807000D01*
X-12313000Y62710890D01*
X-12313000Y62710890D01*
G37*
X-12313000Y62710890D02*
X-12313000Y62609110D01*
X-12409110Y62513000D01*
X-12530890Y62513000D01*
X-12607000Y62589110D01*
X-12607000Y62730890D01*
X-12530890Y62807000D01*
X-12409110Y62807000D01*
X-12313000Y62710890D01*
G36*
X-24063000Y62810890D02*
X-24063000Y62709110D01*
X-24159110Y62613000D01*
X-24280890Y62613000D01*
X-24357000Y62689110D01*
X-24357000Y62830890D01*
X-24280890Y62907000D01*
X-24159110Y62907000D01*
X-24063000Y62810890D01*
X-24063000Y62810890D01*
G37*
X-24063000Y62810890D02*
X-24063000Y62709110D01*
X-24159110Y62613000D01*
X-24280890Y62613000D01*
X-24357000Y62689110D01*
X-24357000Y62830890D01*
X-24280890Y62907000D01*
X-24159110Y62907000D01*
X-24063000Y62810890D01*
M02*
