%TF.GenerationSoftware,KiCad,Pcbnew,4.0.6*%
%TF.CreationDate,2017-11-03T08:26:54+09:00*%
%TF.ProjectId,lets_split,6C6574735F73706C69742E6B69636164,rev?*%
%TF.FileFunction,Legend,Top*%
%FSLAX46Y46*%
G04 Gerber Fmt 4.6, Leading zero omitted, Abs format (unit mm)*
G04 Created by KiCad (PCBNEW 4.0.6) date 11/03/17 08:26:54*
%MOMM*%
%LPD*%
G01*
G04 APERTURE LIST*
%ADD10C,0.100000*%
%ADD11C,0.300000*%
%ADD12C,0.250000*%
%ADD13C,0.381000*%
%ADD14C,0.200000*%
%ADD15C,0.150000*%
%ADD16C,0.010000*%
%ADD17C,0.304800*%
%ADD18C,2.700000*%
%ADD19C,4.187810*%
%ADD20C,1.901810*%
%ADD21C,2.198980*%
%ADD22R,2.198980X2.198980*%
%ADD23O,2.257400X1.952600*%
%ADD24C,1.952600*%
%ADD25C,1.190600*%
%ADD26C,1.851000*%
%ADD27R,1.952600X1.952600*%
%ADD28C,2.200000*%
%ADD29R,1.724000X1.724000*%
%ADD30C,1.724000*%
%ADD31R,0.700000X1.200000*%
%ADD32R,1.200000X1.200000*%
%ADD33C,1.200000*%
%ADD34C,0.700000*%
%ADD35C,8.200000*%
G04 APERTURE END LIST*
D10*
D11*
X-88895714Y59356429D02*
X-88895714Y60856429D01*
X-88895714Y60285000D02*
X-88752857Y60356429D01*
X-88467143Y60356429D01*
X-88324286Y60285000D01*
X-88252857Y60213571D01*
X-88181428Y60070714D01*
X-88181428Y59642143D01*
X-88252857Y59499286D01*
X-88324286Y59427857D01*
X-88467143Y59356429D01*
X-88752857Y59356429D01*
X-88895714Y59427857D01*
X-87324285Y59356429D02*
X-87467143Y59427857D01*
X-87538571Y59499286D01*
X-87610000Y59642143D01*
X-87610000Y60070714D01*
X-87538571Y60213571D01*
X-87467143Y60285000D01*
X-87324285Y60356429D01*
X-87110000Y60356429D01*
X-86967143Y60285000D01*
X-86895714Y60213571D01*
X-86824285Y60070714D01*
X-86824285Y59642143D01*
X-86895714Y59499286D01*
X-86967143Y59427857D01*
X-87110000Y59356429D01*
X-87324285Y59356429D01*
X-86395714Y60356429D02*
X-85824285Y60356429D01*
X-86181428Y60856429D02*
X-86181428Y59570714D01*
X-86110000Y59427857D01*
X-85967142Y59356429D01*
X-85824285Y59356429D01*
X-85538571Y60356429D02*
X-84967142Y60356429D01*
X-85324285Y60856429D02*
X-85324285Y59570714D01*
X-85252857Y59427857D01*
X-85109999Y59356429D01*
X-84967142Y59356429D01*
X-84252856Y59356429D02*
X-84395714Y59427857D01*
X-84467142Y59499286D01*
X-84538571Y59642143D01*
X-84538571Y60070714D01*
X-84467142Y60213571D01*
X-84395714Y60285000D01*
X-84252856Y60356429D01*
X-84038571Y60356429D01*
X-83895714Y60285000D01*
X-83824285Y60213571D01*
X-83752856Y60070714D01*
X-83752856Y59642143D01*
X-83824285Y59499286D01*
X-83895714Y59427857D01*
X-84038571Y59356429D01*
X-84252856Y59356429D01*
X-83109999Y59356429D02*
X-83109999Y60356429D01*
X-83109999Y60213571D02*
X-83038571Y60285000D01*
X-82895713Y60356429D01*
X-82681428Y60356429D01*
X-82538571Y60285000D01*
X-82467142Y60142143D01*
X-82467142Y59356429D01*
X-82467142Y60142143D02*
X-82395713Y60285000D01*
X-82252856Y60356429D01*
X-82038571Y60356429D01*
X-81895713Y60285000D01*
X-81824285Y60142143D01*
X-81824285Y59356429D01*
X-85717143Y57806429D02*
X-85717143Y56806429D01*
X-86360000Y57806429D02*
X-86360000Y57020714D01*
X-86288572Y56877857D01*
X-86145714Y56806429D01*
X-85931429Y56806429D01*
X-85788572Y56877857D01*
X-85717143Y56949286D01*
X-85002857Y57806429D02*
X-85002857Y56306429D01*
X-85002857Y57735000D02*
X-84860000Y57806429D01*
X-84574286Y57806429D01*
X-84431429Y57735000D01*
X-84360000Y57663571D01*
X-84288571Y57520714D01*
X-84288571Y57092143D01*
X-84360000Y56949286D01*
X-84431429Y56877857D01*
X-84574286Y56806429D01*
X-84860000Y56806429D01*
X-85002857Y56877857D01*
D12*
X-22836190Y50557619D02*
X-22836190Y51557619D01*
X-22407619Y51462381D02*
X-22360000Y51510000D01*
X-22264762Y51557619D01*
X-22026666Y51557619D01*
X-21931428Y51510000D01*
X-21883809Y51462381D01*
X-21836190Y51367143D01*
X-21836190Y51271905D01*
X-21883809Y51129048D01*
X-22455238Y50557619D01*
X-21836190Y50557619D01*
X-20836190Y50652857D02*
X-20883809Y50605238D01*
X-21026666Y50557619D01*
X-21121904Y50557619D01*
X-21264762Y50605238D01*
X-21360000Y50700476D01*
X-21407619Y50795714D01*
X-21455238Y50986190D01*
X-21455238Y51129048D01*
X-21407619Y51319524D01*
X-21360000Y51414762D01*
X-21264762Y51510000D01*
X-21121904Y51557619D01*
X-21026666Y51557619D01*
X-20883809Y51510000D01*
X-20836190Y51462381D01*
X-21895715Y65855238D02*
X-21990953Y65807619D01*
X-22181430Y65807619D01*
X-22276668Y65855238D01*
X-22324287Y65950476D01*
X-22324287Y66331429D01*
X-22276668Y66426667D01*
X-22181430Y66474286D01*
X-21990953Y66474286D01*
X-21895715Y66426667D01*
X-21848096Y66331429D01*
X-21848096Y66236190D01*
X-22324287Y66140952D01*
X-21514763Y65807619D02*
X-20990953Y66474286D01*
X-21514763Y66474286D02*
X-20990953Y65807619D01*
X-20752858Y66474286D02*
X-20371906Y66474286D01*
X-20610001Y66807619D02*
X-20610001Y65950476D01*
X-20562382Y65855238D01*
X-20467144Y65807619D01*
X-20371906Y65807619D01*
X-20038572Y65807619D02*
X-20038572Y66474286D01*
X-20038572Y66283810D02*
X-19990953Y66379048D01*
X-19943334Y66426667D01*
X-19848096Y66474286D01*
X-19752857Y66474286D01*
X-18990952Y65807619D02*
X-18990952Y66331429D01*
X-19038571Y66426667D01*
X-19133809Y66474286D01*
X-19324286Y66474286D01*
X-19419524Y66426667D01*
X-18990952Y65855238D02*
X-19086190Y65807619D01*
X-19324286Y65807619D01*
X-19419524Y65855238D01*
X-19467143Y65950476D01*
X-19467143Y66045714D01*
X-19419524Y66140952D01*
X-19324286Y66188571D01*
X-19086190Y66188571D01*
X-18990952Y66236190D01*
X-17324285Y65807619D02*
X-17324285Y66807619D01*
X-17324285Y65855238D02*
X-17419523Y65807619D01*
X-17610000Y65807619D01*
X-17705238Y65855238D01*
X-17752857Y65902857D01*
X-17800476Y65998095D01*
X-17800476Y66283810D01*
X-17752857Y66379048D01*
X-17705238Y66426667D01*
X-17610000Y66474286D01*
X-17419523Y66474286D01*
X-17324285Y66426667D01*
X-16419523Y65807619D02*
X-16419523Y66331429D01*
X-16467142Y66426667D01*
X-16562380Y66474286D01*
X-16752857Y66474286D01*
X-16848095Y66426667D01*
X-16419523Y65855238D02*
X-16514761Y65807619D01*
X-16752857Y65807619D01*
X-16848095Y65855238D01*
X-16895714Y65950476D01*
X-16895714Y66045714D01*
X-16848095Y66140952D01*
X-16752857Y66188571D01*
X-16514761Y66188571D01*
X-16419523Y66236190D01*
X-16086190Y66474286D02*
X-15705238Y66474286D01*
X-15943333Y66807619D02*
X-15943333Y65950476D01*
X-15895714Y65855238D01*
X-15800476Y65807619D01*
X-15705238Y65807619D01*
X-14943332Y65807619D02*
X-14943332Y66331429D01*
X-14990951Y66426667D01*
X-15086189Y66474286D01*
X-15276666Y66474286D01*
X-15371904Y66426667D01*
X-14943332Y65855238D02*
X-15038570Y65807619D01*
X-15276666Y65807619D01*
X-15371904Y65855238D01*
X-15419523Y65950476D01*
X-15419523Y66045714D01*
X-15371904Y66140952D01*
X-15276666Y66188571D01*
X-15038570Y66188571D01*
X-14943332Y66236190D01*
X-22621904Y59010000D02*
X-22717142Y59057619D01*
X-22859999Y59057619D01*
X-23002857Y59010000D01*
X-23098095Y58914762D01*
X-23145714Y58819524D01*
X-23193333Y58629048D01*
X-23193333Y58486190D01*
X-23145714Y58295714D01*
X-23098095Y58200476D01*
X-23002857Y58105238D01*
X-22859999Y58057619D01*
X-22764761Y58057619D01*
X-22621904Y58105238D01*
X-22574285Y58152857D01*
X-22574285Y58486190D01*
X-22764761Y58486190D01*
X-22145714Y58057619D02*
X-22145714Y59057619D01*
X-21574285Y58057619D01*
X-21574285Y59057619D01*
X-21098095Y58057619D02*
X-21098095Y59057619D01*
X-20860000Y59057619D01*
X-20717142Y59010000D01*
X-20621904Y58914762D01*
X-20574285Y58819524D01*
X-20526666Y58629048D01*
X-20526666Y58486190D01*
X-20574285Y58295714D01*
X-20621904Y58200476D01*
X-20717142Y58105238D01*
X-20860000Y58057619D01*
X-21098095Y58057619D01*
X-23443333Y63307619D02*
X-23110000Y62307619D01*
X-22776666Y63307619D01*
X-21871904Y62402857D02*
X-21919523Y62355238D01*
X-22062380Y62307619D01*
X-22157618Y62307619D01*
X-22300476Y62355238D01*
X-22395714Y62450476D01*
X-22443333Y62545714D01*
X-22490952Y62736190D01*
X-22490952Y62879048D01*
X-22443333Y63069524D01*
X-22395714Y63164762D01*
X-22300476Y63260000D01*
X-22157618Y63307619D01*
X-22062380Y63307619D01*
X-21919523Y63260000D01*
X-21871904Y63212381D01*
X-20871904Y62402857D02*
X-20919523Y62355238D01*
X-21062380Y62307619D01*
X-21157618Y62307619D01*
X-21300476Y62355238D01*
X-21395714Y62450476D01*
X-21443333Y62545714D01*
X-21490952Y62736190D01*
X-21490952Y62879048D01*
X-21443333Y63069524D01*
X-21395714Y63164762D01*
X-21300476Y63260000D01*
X-21157618Y63307619D01*
X-21062380Y63307619D01*
X-20919523Y63260000D01*
X-20871904Y63212381D01*
X-15871904Y59010000D02*
X-15967142Y59057619D01*
X-16109999Y59057619D01*
X-16252857Y59010000D01*
X-16348095Y58914762D01*
X-16395714Y58819524D01*
X-16443333Y58629048D01*
X-16443333Y58486190D01*
X-16395714Y58295714D01*
X-16348095Y58200476D01*
X-16252857Y58105238D01*
X-16109999Y58057619D01*
X-16014761Y58057619D01*
X-15871904Y58105238D01*
X-15824285Y58152857D01*
X-15824285Y58486190D01*
X-16014761Y58486190D01*
X-15395714Y58057619D02*
X-15395714Y59057619D01*
X-14824285Y58057619D01*
X-14824285Y59057619D01*
X-14348095Y58057619D02*
X-14348095Y59057619D01*
X-14110000Y59057619D01*
X-13967142Y59010000D01*
X-13871904Y58914762D01*
X-13824285Y58819524D01*
X-13776666Y58629048D01*
X-13776666Y58486190D01*
X-13824285Y58295714D01*
X-13871904Y58200476D01*
X-13967142Y58105238D01*
X-14110000Y58057619D01*
X-14348095Y58057619D01*
X-16693333Y63307619D02*
X-16360000Y62307619D01*
X-16026666Y63307619D01*
X-15121904Y62402857D02*
X-15169523Y62355238D01*
X-15312380Y62307619D01*
X-15407618Y62307619D01*
X-15550476Y62355238D01*
X-15645714Y62450476D01*
X-15693333Y62545714D01*
X-15740952Y62736190D01*
X-15740952Y62879048D01*
X-15693333Y63069524D01*
X-15645714Y63164762D01*
X-15550476Y63260000D01*
X-15407618Y63307619D01*
X-15312380Y63307619D01*
X-15169523Y63260000D01*
X-15121904Y63212381D01*
X-14121904Y62402857D02*
X-14169523Y62355238D01*
X-14312380Y62307619D01*
X-14407618Y62307619D01*
X-14550476Y62355238D01*
X-14645714Y62450476D01*
X-14693333Y62545714D01*
X-14740952Y62736190D01*
X-14740952Y62879048D01*
X-14693333Y63069524D01*
X-14645714Y63164762D01*
X-14550476Y63260000D01*
X-14407618Y63307619D01*
X-14312380Y63307619D01*
X-14169523Y63260000D01*
X-14121904Y63212381D01*
D13*
X-13409400Y78910000D02*
X-13409400Y66845000D01*
X-13409400Y66845000D02*
X-23010600Y66845000D01*
X-23010600Y66845000D02*
X-23010600Y78910000D01*
D14*
X-29160000Y54272000D02*
X-26560000Y54272000D01*
X-26560000Y54272000D02*
X-26560000Y52748000D01*
X-26560000Y52748000D02*
X-29160000Y52748000D01*
X-29160000Y52748000D02*
X-29160000Y54272000D01*
D15*
X-91224123Y17260000D02*
G75*
G03X-91224123Y17260000I-3635877J0D01*
G01*
X-14874123Y17210000D02*
G75*
G03X-14874123Y17210000I-3635877J0D01*
G01*
X-15024123Y55310000D02*
G75*
G03X-15024123Y55310000I-3635877J0D01*
G01*
X-94374123Y74460000D02*
G75*
G03X-94374123Y74460000I-3635877J0D01*
G01*
D16*
G36*
X-80264000Y12615333D02*
X-79078667Y12615333D01*
X-79078667Y4318000D01*
X-73744667Y4318000D01*
X-72811531Y4317053D01*
X-71930305Y4314322D01*
X-71115271Y4309972D01*
X-70380709Y4304166D01*
X-69740901Y4297068D01*
X-69210127Y4288844D01*
X-68802669Y4279658D01*
X-68532808Y4269673D01*
X-68414824Y4259055D01*
X-68410667Y4256625D01*
X-68466638Y4173760D01*
X-68617009Y4001494D01*
X-68835469Y3769182D01*
X-68979896Y3621625D01*
X-69549125Y3048000D01*
X-67185269Y3048000D01*
X-68368334Y1862667D01*
X-69551398Y677333D01*
X-74420866Y687070D01*
X-75322378Y689879D01*
X-76180007Y694489D01*
X-76977570Y700684D01*
X-77698883Y708248D01*
X-78327762Y716963D01*
X-78848025Y726613D01*
X-79243488Y736981D01*
X-79497966Y747852D01*
X-79586667Y756223D01*
X-80182022Y956743D01*
X-80685855Y1298944D01*
X-81059069Y1730069D01*
X-81204966Y1905000D01*
X-80917585Y1905000D01*
X-80794492Y1717201D01*
X-80596685Y1506167D01*
X-80299369Y1286971D01*
X-79965563Y1098980D01*
X-79658284Y981562D01*
X-79595663Y968286D01*
X-79370176Y927000D01*
X-79217261Y892342D01*
X-79205667Y888751D01*
X-79107428Y883280D01*
X-78855436Y877915D01*
X-78465272Y872768D01*
X-77952518Y867957D01*
X-77332753Y863595D01*
X-76621559Y859799D01*
X-75834517Y856684D01*
X-74987207Y854364D01*
X-74420677Y853351D01*
X-69720353Y846667D01*
X-67693647Y2878667D01*
X-69728301Y2878667D01*
X-70233651Y2367332D01*
X-70739000Y1855997D01*
X-75828293Y1880499D01*
X-80917585Y1905000D01*
X-81204966Y1905000D01*
X-81262709Y1974234D01*
X-81526285Y2221631D01*
X-81636346Y2307465D01*
X-81911087Y2516812D01*
X-82099936Y2702278D01*
X-82251960Y2922966D01*
X-82416223Y3237981D01*
X-82426806Y3259667D01*
X-82633013Y3683000D01*
X-82633116Y4318000D01*
X-80264000Y4318000D01*
X-79246358Y4318000D01*
X-79268346Y8360833D01*
X-79290333Y12403667D01*
X-79777167Y12429059D01*
X-80264000Y12454451D01*
X-80264000Y4318000D01*
X-82633116Y4318000D01*
X-82633840Y8741833D01*
X-82634667Y13800667D01*
X-80264000Y13800667D01*
X-80264000Y12615333D01*
X-80264000Y12615333D01*
G37*
X-80264000Y12615333D02*
X-79078667Y12615333D01*
X-79078667Y4318000D01*
X-73744667Y4318000D01*
X-72811531Y4317053D01*
X-71930305Y4314322D01*
X-71115271Y4309972D01*
X-70380709Y4304166D01*
X-69740901Y4297068D01*
X-69210127Y4288844D01*
X-68802669Y4279658D01*
X-68532808Y4269673D01*
X-68414824Y4259055D01*
X-68410667Y4256625D01*
X-68466638Y4173760D01*
X-68617009Y4001494D01*
X-68835469Y3769182D01*
X-68979896Y3621625D01*
X-69549125Y3048000D01*
X-67185269Y3048000D01*
X-68368334Y1862667D01*
X-69551398Y677333D01*
X-74420866Y687070D01*
X-75322378Y689879D01*
X-76180007Y694489D01*
X-76977570Y700684D01*
X-77698883Y708248D01*
X-78327762Y716963D01*
X-78848025Y726613D01*
X-79243488Y736981D01*
X-79497966Y747852D01*
X-79586667Y756223D01*
X-80182022Y956743D01*
X-80685855Y1298944D01*
X-81059069Y1730069D01*
X-81204966Y1905000D01*
X-80917585Y1905000D01*
X-80794492Y1717201D01*
X-80596685Y1506167D01*
X-80299369Y1286971D01*
X-79965563Y1098980D01*
X-79658284Y981562D01*
X-79595663Y968286D01*
X-79370176Y927000D01*
X-79217261Y892342D01*
X-79205667Y888751D01*
X-79107428Y883280D01*
X-78855436Y877915D01*
X-78465272Y872768D01*
X-77952518Y867957D01*
X-77332753Y863595D01*
X-76621559Y859799D01*
X-75834517Y856684D01*
X-74987207Y854364D01*
X-74420677Y853351D01*
X-69720353Y846667D01*
X-67693647Y2878667D01*
X-69728301Y2878667D01*
X-70233651Y2367332D01*
X-70739000Y1855997D01*
X-75828293Y1880499D01*
X-80917585Y1905000D01*
X-81204966Y1905000D01*
X-81262709Y1974234D01*
X-81526285Y2221631D01*
X-81636346Y2307465D01*
X-81911087Y2516812D01*
X-82099936Y2702278D01*
X-82251960Y2922966D01*
X-82416223Y3237981D01*
X-82426806Y3259667D01*
X-82633013Y3683000D01*
X-82633116Y4318000D01*
X-80264000Y4318000D01*
X-79246358Y4318000D01*
X-79268346Y8360833D01*
X-79290333Y12403667D01*
X-79777167Y12429059D01*
X-80264000Y12454451D01*
X-80264000Y4318000D01*
X-82633116Y4318000D01*
X-82633840Y8741833D01*
X-82634667Y13800667D01*
X-80264000Y13800667D01*
X-80264000Y12615333D01*
G36*
X-37507333Y3048000D02*
X-36322000Y3048000D01*
X-36322000Y677333D01*
X-43434000Y677333D01*
X-43434000Y846667D01*
X-43273117Y846667D01*
X-36491333Y846667D01*
X-36491333Y2887117D01*
X-36978167Y2861725D01*
X-37465000Y2836333D01*
X-37490359Y2350621D01*
X-37515717Y1864909D01*
X-43222333Y1820333D01*
X-43273117Y846667D01*
X-43434000Y846667D01*
X-43434000Y1862667D01*
X-44619333Y1862667D01*
X-44619333Y4233333D01*
X-37507333Y4233333D01*
X-37507333Y3048000D01*
X-37507333Y3048000D01*
G37*
X-37507333Y3048000D02*
X-36322000Y3048000D01*
X-36322000Y677333D01*
X-43434000Y677333D01*
X-43434000Y846667D01*
X-43273117Y846667D01*
X-36491333Y846667D01*
X-36491333Y2887117D01*
X-36978167Y2861725D01*
X-37465000Y2836333D01*
X-37490359Y2350621D01*
X-37515717Y1864909D01*
X-43222333Y1820333D01*
X-43273117Y846667D01*
X-43434000Y846667D01*
X-43434000Y1862667D01*
X-44619333Y1862667D01*
X-44619333Y4233333D01*
X-37507333Y4233333D01*
X-37507333Y3048000D01*
G36*
X-51709033Y12635404D02*
X-50546000Y11470142D01*
X-50546000Y3088065D01*
X-51731333Y1905000D01*
X-52916667Y721935D01*
X-52916667Y1842634D01*
X-52921357Y2256050D01*
X-52934204Y2600687D01*
X-52953366Y2845393D01*
X-52977007Y2959017D01*
X-52982817Y2963333D01*
X-53068683Y2906988D01*
X-53240235Y2756793D01*
X-53465847Y2541012D01*
X-53554317Y2452611D01*
X-54059667Y1941888D01*
X-54073227Y3264968D01*
X-52747333Y3264968D01*
X-52747333Y1230314D01*
X-50715333Y3257020D01*
X-50715333Y11308301D01*
X-51731333Y12313699D01*
X-51731333Y4270366D01*
X-52747333Y3264968D01*
X-54073227Y3264968D01*
X-54102000Y6072111D01*
X-54144333Y10202333D01*
X-60113333Y10246833D01*
X-60113333Y10414000D01*
X-59859333Y10414000D01*
X-54093550Y10414000D01*
X-54118942Y10900833D01*
X-54144333Y11387667D01*
X-59859333Y11432253D01*
X-59859333Y10414000D01*
X-60113333Y10414000D01*
X-60113333Y11430000D01*
X-61298667Y11430000D01*
X-61298667Y13800667D01*
X-52872065Y13800667D01*
X-51709033Y12635404D01*
X-51709033Y12635404D01*
G37*
X-51709033Y12635404D02*
X-50546000Y11470142D01*
X-50546000Y3088065D01*
X-51731333Y1905000D01*
X-52916667Y721935D01*
X-52916667Y1842634D01*
X-52921357Y2256050D01*
X-52934204Y2600687D01*
X-52953366Y2845393D01*
X-52977007Y2959017D01*
X-52982817Y2963333D01*
X-53068683Y2906988D01*
X-53240235Y2756793D01*
X-53465847Y2541012D01*
X-53554317Y2452611D01*
X-54059667Y1941888D01*
X-54073227Y3264968D01*
X-52747333Y3264968D01*
X-52747333Y1230314D01*
X-50715333Y3257020D01*
X-50715333Y11308301D01*
X-51731333Y12313699D01*
X-51731333Y4270366D01*
X-52747333Y3264968D01*
X-54073227Y3264968D01*
X-54102000Y6072111D01*
X-54144333Y10202333D01*
X-60113333Y10246833D01*
X-60113333Y10414000D01*
X-59859333Y10414000D01*
X-54093550Y10414000D01*
X-54118942Y10900833D01*
X-54144333Y11387667D01*
X-59859333Y11432253D01*
X-59859333Y10414000D01*
X-60113333Y10414000D01*
X-60113333Y11430000D01*
X-61298667Y11430000D01*
X-61298667Y13800667D01*
X-52872065Y13800667D01*
X-51709033Y12635404D01*
G36*
X-32681333Y17356667D02*
X-31496000Y17356667D01*
X-31496000Y3172732D01*
X-32681333Y1989667D01*
X-33866667Y806602D01*
X-33866667Y1927301D01*
X-33871008Y2340719D01*
X-33882897Y2685357D01*
X-33900632Y2930063D01*
X-33922512Y3043684D01*
X-33927889Y3048000D01*
X-34011549Y2992186D01*
X-34183131Y2842988D01*
X-34411842Y2627772D01*
X-34520556Y2521279D01*
X-35052000Y1994559D01*
X-35052000Y3349634D01*
X-33697333Y3349634D01*
X-33697333Y1314980D01*
X-32680843Y2328823D01*
X-31664352Y3342665D01*
X-31686010Y10243833D01*
X-31707667Y17145000D01*
X-32681333Y17195784D01*
X-32681333Y4355033D01*
X-33189333Y3852333D01*
X-33697333Y3349634D01*
X-35052000Y3349634D01*
X-35052000Y18542000D01*
X-32681333Y18542000D01*
X-32681333Y17356667D01*
X-32681333Y17356667D01*
G37*
X-32681333Y17356667D02*
X-31496000Y17356667D01*
X-31496000Y3172732D01*
X-32681333Y1989667D01*
X-33866667Y806602D01*
X-33866667Y1927301D01*
X-33871008Y2340719D01*
X-33882897Y2685357D01*
X-33900632Y2930063D01*
X-33922512Y3043684D01*
X-33927889Y3048000D01*
X-34011549Y2992186D01*
X-34183131Y2842988D01*
X-34411842Y2627772D01*
X-34520556Y2521279D01*
X-35052000Y1994559D01*
X-35052000Y3349634D01*
X-33697333Y3349634D01*
X-33697333Y1314980D01*
X-32680843Y2328823D01*
X-31664352Y3342665D01*
X-31686010Y10243833D01*
X-31707667Y17145000D01*
X-32681333Y17195784D01*
X-32681333Y4355033D01*
X-33189333Y3852333D01*
X-33697333Y3349634D01*
X-35052000Y3349634D01*
X-35052000Y18542000D01*
X-32681333Y18542000D01*
X-32681333Y17356667D01*
G36*
X-73152000Y7874000D02*
X-71966667Y7874000D01*
X-71966667Y5503333D01*
X-76700263Y5503333D01*
X-76750333Y6646333D01*
X-77321833Y6671369D01*
X-77716712Y6688667D01*
X-76538667Y6688667D01*
X-76538667Y5672667D01*
X-72130626Y5672667D01*
X-72154480Y6667500D01*
X-72178333Y7662333D01*
X-72665167Y7687725D01*
X-73152000Y7713117D01*
X-73152000Y6688667D01*
X-76538667Y6688667D01*
X-77716712Y6688667D01*
X-77893333Y6696404D01*
X-77893333Y9059333D01*
X-73152000Y9059333D01*
X-73152000Y7874000D01*
X-73152000Y7874000D01*
G37*
X-73152000Y7874000D02*
X-71966667Y7874000D01*
X-71966667Y5503333D01*
X-76700263Y5503333D01*
X-76750333Y6646333D01*
X-77321833Y6671369D01*
X-77716712Y6688667D01*
X-76538667Y6688667D01*
X-76538667Y5672667D01*
X-72130626Y5672667D01*
X-72154480Y6667500D01*
X-72178333Y7662333D01*
X-72665167Y7687725D01*
X-73152000Y7713117D01*
X-73152000Y6688667D01*
X-76538667Y6688667D01*
X-77716712Y6688667D01*
X-77893333Y6696404D01*
X-77893333Y9059333D01*
X-73152000Y9059333D01*
X-73152000Y7874000D01*
G36*
X-68388366Y12635404D02*
X-67225333Y11470142D01*
X-67225333Y7744648D01*
X-68348302Y6623991D01*
X-68704503Y6271692D01*
X-69020854Y5964809D01*
X-69277608Y5722010D01*
X-69455017Y5561966D01*
X-69533336Y5503345D01*
X-69533635Y5503333D01*
X-69556258Y5582895D01*
X-69575219Y5801182D01*
X-69588876Y6127600D01*
X-69595587Y6531552D01*
X-69596000Y6665229D01*
X-69596000Y7827125D01*
X-70188667Y7239000D01*
X-70781333Y6650875D01*
X-70781333Y8006301D01*
X-69426667Y8006301D01*
X-69426667Y7008817D01*
X-69421733Y6620461D01*
X-69408303Y6302751D01*
X-69388436Y6088706D01*
X-69364492Y6011333D01*
X-69286371Y6068172D01*
X-69110889Y6225161D01*
X-68859716Y6462017D01*
X-68554522Y6758452D01*
X-68348492Y6962452D01*
X-67394667Y7913571D01*
X-67394667Y11308301D01*
X-68410667Y12313699D01*
X-68410667Y9011699D01*
X-69426667Y8006301D01*
X-70781333Y8006301D01*
X-70781333Y10244667D01*
X-76700263Y10244667D01*
X-76750333Y11387667D01*
X-77321833Y11412702D01*
X-77716713Y11430000D01*
X-76538667Y11430000D01*
X-76538667Y10414000D01*
X-70781333Y10414000D01*
X-70781333Y11430000D01*
X-76538667Y11430000D01*
X-77716713Y11430000D01*
X-77893334Y11437737D01*
X-77893333Y12619202D01*
X-77893333Y13800667D01*
X-69551398Y13800667D01*
X-68388366Y12635404D01*
X-68388366Y12635404D01*
G37*
X-68388366Y12635404D02*
X-67225333Y11470142D01*
X-67225333Y7744648D01*
X-68348302Y6623991D01*
X-68704503Y6271692D01*
X-69020854Y5964809D01*
X-69277608Y5722010D01*
X-69455017Y5561966D01*
X-69533336Y5503345D01*
X-69533635Y5503333D01*
X-69556258Y5582895D01*
X-69575219Y5801182D01*
X-69588876Y6127600D01*
X-69595587Y6531552D01*
X-69596000Y6665229D01*
X-69596000Y7827125D01*
X-70188667Y7239000D01*
X-70781333Y6650875D01*
X-70781333Y8006301D01*
X-69426667Y8006301D01*
X-69426667Y7008817D01*
X-69421733Y6620461D01*
X-69408303Y6302751D01*
X-69388436Y6088706D01*
X-69364492Y6011333D01*
X-69286371Y6068172D01*
X-69110889Y6225161D01*
X-68859716Y6462017D01*
X-68554522Y6758452D01*
X-68348492Y6962452D01*
X-67394667Y7913571D01*
X-67394667Y11308301D01*
X-68410667Y12313699D01*
X-68410667Y9011699D01*
X-69426667Y8006301D01*
X-70781333Y8006301D01*
X-70781333Y10244667D01*
X-76700263Y10244667D01*
X-76750333Y11387667D01*
X-77321833Y11412702D01*
X-77716713Y11430000D01*
X-76538667Y11430000D01*
X-76538667Y10414000D01*
X-70781333Y10414000D01*
X-70781333Y11430000D01*
X-76538667Y11430000D01*
X-77716713Y11430000D01*
X-77893334Y11437737D01*
X-77893333Y12619202D01*
X-77893333Y13800667D01*
X-69551398Y13800667D01*
X-68388366Y12635404D01*
G36*
X-63627000Y17399000D02*
X-62484000Y17348930D01*
X-62484000Y9059333D01*
X-56472667Y9059333D01*
X-56472667Y7874000D01*
X-55287333Y7874000D01*
X-55287333Y5503333D01*
X-59160833Y5510018D01*
X-60211049Y5513902D01*
X-61115119Y5521618D01*
X-61869005Y5533072D01*
X-62468667Y5548168D01*
X-62910068Y5566811D01*
X-63189167Y5588905D01*
X-63288333Y5607241D01*
X-63711581Y5818714D01*
X-64107442Y6122589D01*
X-64408801Y6466372D01*
X-64431333Y6501210D01*
X-64547966Y6646333D01*
X-64286733Y6646333D01*
X-64060713Y6377750D01*
X-63851510Y6184101D01*
X-63566346Y5985580D01*
X-63396723Y5890917D01*
X-62958753Y5672667D01*
X-55451293Y5672667D01*
X-55475147Y6667500D01*
X-55499000Y7662333D01*
X-55985833Y7687725D01*
X-56472667Y7713117D01*
X-56472667Y6690358D01*
X-60379700Y6668346D01*
X-64286733Y6646333D01*
X-64547966Y6646333D01*
X-64642731Y6764246D01*
X-64911354Y7005770D01*
X-64991923Y7061747D01*
X-65263644Y7275790D01*
X-65512965Y7537851D01*
X-65569231Y7612637D01*
X-65664558Y7752870D01*
X-65746062Y7886715D01*
X-65814825Y8028047D01*
X-65871930Y8190739D01*
X-65918459Y8388665D01*
X-65955497Y8635701D01*
X-65984124Y8945719D01*
X-65990379Y9059333D01*
X-63670976Y9059333D01*
X-62653333Y9059333D01*
X-62653333Y17195784D01*
X-63140167Y17170392D01*
X-63627000Y17145000D01*
X-63648988Y13102167D01*
X-63670976Y9059333D01*
X-65990379Y9059333D01*
X-66005425Y9332595D01*
X-66020481Y9810203D01*
X-66030377Y10392416D01*
X-66036193Y11093109D01*
X-66039015Y11926157D01*
X-66039923Y12905432D01*
X-66040000Y13644790D01*
X-66040000Y18542000D01*
X-63677070Y18542000D01*
X-63627000Y17399000D01*
X-63627000Y17399000D01*
G37*
X-63627000Y17399000D02*
X-62484000Y17348930D01*
X-62484000Y9059333D01*
X-56472667Y9059333D01*
X-56472667Y7874000D01*
X-55287333Y7874000D01*
X-55287333Y5503333D01*
X-59160833Y5510018D01*
X-60211049Y5513902D01*
X-61115119Y5521618D01*
X-61869005Y5533072D01*
X-62468667Y5548168D01*
X-62910068Y5566811D01*
X-63189167Y5588905D01*
X-63288333Y5607241D01*
X-63711581Y5818714D01*
X-64107442Y6122589D01*
X-64408801Y6466372D01*
X-64431333Y6501210D01*
X-64547966Y6646333D01*
X-64286733Y6646333D01*
X-64060713Y6377750D01*
X-63851510Y6184101D01*
X-63566346Y5985580D01*
X-63396723Y5890917D01*
X-62958753Y5672667D01*
X-55451293Y5672667D01*
X-55475147Y6667500D01*
X-55499000Y7662333D01*
X-55985833Y7687725D01*
X-56472667Y7713117D01*
X-56472667Y6690358D01*
X-60379700Y6668346D01*
X-64286733Y6646333D01*
X-64547966Y6646333D01*
X-64642731Y6764246D01*
X-64911354Y7005770D01*
X-64991923Y7061747D01*
X-65263644Y7275790D01*
X-65512965Y7537851D01*
X-65569231Y7612637D01*
X-65664558Y7752870D01*
X-65746062Y7886715D01*
X-65814825Y8028047D01*
X-65871930Y8190739D01*
X-65918459Y8388665D01*
X-65955497Y8635701D01*
X-65984124Y8945719D01*
X-65990379Y9059333D01*
X-63670976Y9059333D01*
X-62653333Y9059333D01*
X-62653333Y17195784D01*
X-63140167Y17170392D01*
X-63627000Y17145000D01*
X-63648988Y13102167D01*
X-63670976Y9059333D01*
X-65990379Y9059333D01*
X-66005425Y9332595D01*
X-66020481Y9810203D01*
X-66030377Y10392416D01*
X-66036193Y11093109D01*
X-66039015Y11926157D01*
X-66039923Y12905432D01*
X-66040000Y13644790D01*
X-66040000Y18542000D01*
X-63677070Y18542000D01*
X-63627000Y17399000D01*
G36*
X-37507333Y7874000D02*
X-36322000Y7874000D01*
X-36322000Y5503333D01*
X-43434000Y5503333D01*
X-43434000Y5672667D01*
X-43273117Y5672667D01*
X-36491333Y5672667D01*
X-36491333Y7713117D01*
X-36978167Y7687725D01*
X-37465000Y7662333D01*
X-37490359Y7176621D01*
X-37515717Y6690909D01*
X-43222333Y6646333D01*
X-43273117Y5672667D01*
X-43434000Y5672667D01*
X-43434000Y6688667D01*
X-44619333Y6688667D01*
X-44619333Y9059333D01*
X-37507333Y9059333D01*
X-37507333Y7874000D01*
X-37507333Y7874000D01*
G37*
X-37507333Y7874000D02*
X-36322000Y7874000D01*
X-36322000Y5503333D01*
X-43434000Y5503333D01*
X-43434000Y5672667D01*
X-43273117Y5672667D01*
X-36491333Y5672667D01*
X-36491333Y7713117D01*
X-36978167Y7687725D01*
X-37465000Y7662333D01*
X-37490359Y7176621D01*
X-37515717Y6690909D01*
X-43222333Y6646333D01*
X-43273117Y5672667D01*
X-43434000Y5672667D01*
X-43434000Y6688667D01*
X-44619333Y6688667D01*
X-44619333Y9059333D01*
X-37507333Y9059333D01*
X-37507333Y7874000D01*
G36*
X-44577000Y17399000D02*
X-43434000Y17348930D01*
X-43434000Y14947916D01*
X-44003229Y14374292D01*
X-44572459Y13800667D01*
X-37507333Y13800667D01*
X-37507333Y12615333D01*
X-36322000Y12615333D01*
X-36322000Y10244667D01*
X-43434000Y10244667D01*
X-43434000Y10414000D01*
X-43273117Y10414000D01*
X-36491333Y10414000D01*
X-36491333Y12454451D01*
X-36978167Y12429059D01*
X-37465000Y12403667D01*
X-37490359Y11917955D01*
X-37515717Y11432242D01*
X-40369025Y11409955D01*
X-43222333Y11387667D01*
X-43247725Y10900833D01*
X-43273117Y10414000D01*
X-43434000Y10414000D01*
X-43434000Y11430000D01*
X-44619333Y11430000D01*
X-44619333Y13756821D01*
X-46397333Y11980333D01*
X-48175333Y10203846D01*
X-48175333Y12568459D01*
X-48768000Y11980333D01*
X-49360667Y11392208D01*
X-49360667Y12743921D01*
X-48006000Y12743921D01*
X-48006000Y10711555D01*
X-45804667Y12911667D01*
X-43603333Y15111779D01*
X-43603333Y17195784D01*
X-44090167Y17170392D01*
X-44577000Y17145000D01*
X-44601772Y16632605D01*
X-44626543Y16120210D01*
X-46316272Y14432065D01*
X-48006000Y12743921D01*
X-49360667Y12743921D01*
X-49360667Y14776602D01*
X-48175333Y15959667D01*
X-46990000Y17142732D01*
X-46990000Y18542000D01*
X-44627070Y18542000D01*
X-44577000Y17399000D01*
X-44577000Y17399000D01*
G37*
X-44577000Y17399000D02*
X-43434000Y17348930D01*
X-43434000Y14947916D01*
X-44003229Y14374292D01*
X-44572459Y13800667D01*
X-37507333Y13800667D01*
X-37507333Y12615333D01*
X-36322000Y12615333D01*
X-36322000Y10244667D01*
X-43434000Y10244667D01*
X-43434000Y10414000D01*
X-43273117Y10414000D01*
X-36491333Y10414000D01*
X-36491333Y12454451D01*
X-36978167Y12429059D01*
X-37465000Y12403667D01*
X-37490359Y11917955D01*
X-37515717Y11432242D01*
X-40369025Y11409955D01*
X-43222333Y11387667D01*
X-43247725Y10900833D01*
X-43273117Y10414000D01*
X-43434000Y10414000D01*
X-43434000Y11430000D01*
X-44619333Y11430000D01*
X-44619333Y13756821D01*
X-46397333Y11980333D01*
X-48175333Y10203846D01*
X-48175333Y12568459D01*
X-48768000Y11980333D01*
X-49360667Y11392208D01*
X-49360667Y12743921D01*
X-48006000Y12743921D01*
X-48006000Y10711555D01*
X-45804667Y12911667D01*
X-43603333Y15111779D01*
X-43603333Y17195784D01*
X-44090167Y17170392D01*
X-44577000Y17145000D01*
X-44601772Y16632605D01*
X-44626543Y16120210D01*
X-46316272Y14432065D01*
X-48006000Y12743921D01*
X-49360667Y12743921D01*
X-49360667Y14776602D01*
X-48175333Y15959667D01*
X-46990000Y17142732D01*
X-46990000Y18542000D01*
X-44627070Y18542000D01*
X-44577000Y17399000D01*
G36*
X-57232743Y19577826D02*
X-56779198Y19397460D01*
X-56407436Y19122802D01*
X-56151753Y18775085D01*
X-56091361Y18625704D01*
X-55984367Y18479260D01*
X-55786192Y18328501D01*
X-55725677Y18294820D01*
X-55294158Y17986087D01*
X-54987601Y17582042D01*
X-54814342Y17110144D01*
X-54782719Y16597852D01*
X-54901071Y16072626D01*
X-54989555Y15870457D01*
X-55294113Y15439422D01*
X-55698557Y15128891D01*
X-56172985Y14950609D01*
X-56687496Y14916319D01*
X-57159731Y15018141D01*
X-57644193Y15260704D01*
X-57997923Y15590620D01*
X-58136511Y15815903D01*
X-58268280Y15991093D01*
X-57996667Y15991093D01*
X-57941211Y15894705D01*
X-57798559Y15725270D01*
X-57669016Y15589683D01*
X-57252384Y15278546D01*
X-56795123Y15129396D01*
X-56311640Y15144082D01*
X-55816345Y15324450D01*
X-55775331Y15346826D01*
X-55379309Y15654152D01*
X-55116987Y16040066D01*
X-54990641Y16476375D01*
X-55002549Y16934886D01*
X-55154987Y17387407D01*
X-55450232Y17805746D01*
X-55567447Y17920778D01*
X-55922333Y18241655D01*
X-55972646Y17775903D01*
X-56048216Y17345295D01*
X-56187369Y17008997D01*
X-56421367Y16695100D01*
X-56461845Y16650608D01*
X-56768309Y16382360D01*
X-57119737Y16215345D01*
X-57560093Y16122765D01*
X-57805510Y16077365D01*
X-57963884Y16023409D01*
X-57996667Y15991093D01*
X-58268280Y15991093D01*
X-58383129Y16143787D01*
X-58709426Y16386191D01*
X-59101837Y16710768D01*
X-59370588Y17122572D01*
X-59512960Y17590309D01*
X-59526235Y18082685D01*
X-59407695Y18568408D01*
X-59154620Y19016182D01*
X-58956921Y19235114D01*
X-58663916Y19458102D01*
X-58333534Y19586983D01*
X-57913302Y19639242D01*
X-57733782Y19642667D01*
X-57232743Y19577826D01*
X-57232743Y19577826D01*
G37*
X-57232743Y19577826D02*
X-56779198Y19397460D01*
X-56407436Y19122802D01*
X-56151753Y18775085D01*
X-56091361Y18625704D01*
X-55984367Y18479260D01*
X-55786192Y18328501D01*
X-55725677Y18294820D01*
X-55294158Y17986087D01*
X-54987601Y17582042D01*
X-54814342Y17110144D01*
X-54782719Y16597852D01*
X-54901071Y16072626D01*
X-54989555Y15870457D01*
X-55294113Y15439422D01*
X-55698557Y15128891D01*
X-56172985Y14950609D01*
X-56687496Y14916319D01*
X-57159731Y15018141D01*
X-57644193Y15260704D01*
X-57997923Y15590620D01*
X-58136511Y15815903D01*
X-58268280Y15991093D01*
X-57996667Y15991093D01*
X-57941211Y15894705D01*
X-57798559Y15725270D01*
X-57669016Y15589683D01*
X-57252384Y15278546D01*
X-56795123Y15129396D01*
X-56311640Y15144082D01*
X-55816345Y15324450D01*
X-55775331Y15346826D01*
X-55379309Y15654152D01*
X-55116987Y16040066D01*
X-54990641Y16476375D01*
X-55002549Y16934886D01*
X-55154987Y17387407D01*
X-55450232Y17805746D01*
X-55567447Y17920778D01*
X-55922333Y18241655D01*
X-55972646Y17775903D01*
X-56048216Y17345295D01*
X-56187369Y17008997D01*
X-56421367Y16695100D01*
X-56461845Y16650608D01*
X-56768309Y16382360D01*
X-57119737Y16215345D01*
X-57560093Y16122765D01*
X-57805510Y16077365D01*
X-57963884Y16023409D01*
X-57996667Y15991093D01*
X-58268280Y15991093D01*
X-58383129Y16143787D01*
X-58709426Y16386191D01*
X-59101837Y16710768D01*
X-59370588Y17122572D01*
X-59512960Y17590309D01*
X-59526235Y18082685D01*
X-59407695Y18568408D01*
X-59154620Y19016182D01*
X-58956921Y19235114D01*
X-58663916Y19458102D01*
X-58333534Y19586983D01*
X-57913302Y19639242D01*
X-57733782Y19642667D01*
X-57232743Y19577826D01*
G36*
X-68899946Y18010556D02*
X-69135211Y17766693D01*
X-69316276Y17566663D01*
X-69415775Y17441257D01*
X-69426667Y17417889D01*
X-69347199Y17395304D01*
X-69129562Y17376477D01*
X-68804910Y17363110D01*
X-68404395Y17356903D01*
X-68305968Y17356667D01*
X-67185269Y17356667D01*
X-68368333Y16171333D01*
X-69551398Y14986000D01*
X-81449333Y14986000D01*
X-81449333Y16171333D01*
X-81280000Y16171333D01*
X-81280000Y15155333D01*
X-69640983Y15155333D01*
X-68687158Y16106452D01*
X-68363096Y16433473D01*
X-68086235Y16720261D01*
X-67876928Y16945135D01*
X-67755529Y17086417D01*
X-67733333Y17122452D01*
X-67812488Y17147713D01*
X-68027939Y17168378D01*
X-68346668Y17182301D01*
X-68730817Y17187333D01*
X-69728301Y17187333D01*
X-70231000Y16679334D01*
X-70733699Y16171334D01*
X-76006850Y16171333D01*
X-81280000Y16171333D01*
X-81449333Y16171333D01*
X-82634667Y16171333D01*
X-82634667Y18542000D01*
X-68373225Y18542000D01*
X-68899946Y18010556D01*
X-68899946Y18010556D01*
G37*
X-68899946Y18010556D02*
X-69135211Y17766693D01*
X-69316276Y17566663D01*
X-69415775Y17441257D01*
X-69426667Y17417889D01*
X-69347199Y17395304D01*
X-69129562Y17376477D01*
X-68804910Y17363110D01*
X-68404395Y17356903D01*
X-68305968Y17356667D01*
X-67185269Y17356667D01*
X-68368333Y16171333D01*
X-69551398Y14986000D01*
X-81449333Y14986000D01*
X-81449333Y16171333D01*
X-81280000Y16171333D01*
X-81280000Y15155333D01*
X-69640983Y15155333D01*
X-68687158Y16106452D01*
X-68363096Y16433473D01*
X-68086235Y16720261D01*
X-67876928Y16945135D01*
X-67755529Y17086417D01*
X-67733333Y17122452D01*
X-67812488Y17147713D01*
X-68027939Y17168378D01*
X-68346668Y17182301D01*
X-68730817Y17187333D01*
X-69728301Y17187333D01*
X-70231000Y16679334D01*
X-70733699Y16171334D01*
X-76006850Y16171333D01*
X-81280000Y16171333D01*
X-81449333Y16171333D01*
X-82634667Y16171333D01*
X-82634667Y18542000D01*
X-68373225Y18542000D01*
X-68899946Y18010556D01*
D15*
X-15620159Y5433054D02*
X-16620159Y5433054D01*
X-16620159Y5671149D01*
X-16572540Y5814007D01*
X-16477302Y5909245D01*
X-16382064Y5956864D01*
X-16191588Y6004483D01*
X-16048730Y6004483D01*
X-15858254Y5956864D01*
X-15763016Y5909245D01*
X-15667778Y5814007D01*
X-15620159Y5671149D01*
X-15620159Y5433054D01*
X-16524921Y6385435D02*
X-16572540Y6433054D01*
X-16620159Y6528292D01*
X-16620159Y6766388D01*
X-16572540Y6861626D01*
X-16524921Y6909245D01*
X-16429683Y6956864D01*
X-16334445Y6956864D01*
X-16191588Y6909245D01*
X-15620159Y6337816D01*
X-15620159Y6956864D01*
X-16620159Y7575911D02*
X-16620159Y7671150D01*
X-16572540Y7766388D01*
X-16524921Y7814007D01*
X-16429683Y7861626D01*
X-16239207Y7909245D01*
X-16001111Y7909245D01*
X-15810635Y7861626D01*
X-15715397Y7814007D01*
X-15667778Y7766388D01*
X-15620159Y7671150D01*
X-15620159Y7575911D01*
X-15667778Y7480673D01*
X-15715397Y7433054D01*
X-15810635Y7385435D01*
X-16001111Y7337816D01*
X-16239207Y7337816D01*
X-16429683Y7385435D01*
X-16524921Y7433054D01*
X-16572540Y7480673D01*
X-16620159Y7575911D01*
X-72770159Y7009245D02*
X-73770159Y7009245D01*
X-73770159Y7247340D01*
X-73722540Y7390198D01*
X-73627302Y7485436D01*
X-73532064Y7533055D01*
X-73341588Y7580674D01*
X-73198730Y7580674D01*
X-73008254Y7533055D01*
X-72913016Y7485436D01*
X-72817778Y7390198D01*
X-72770159Y7247340D01*
X-72770159Y7009245D01*
X-73341588Y8152102D02*
X-73389207Y8056864D01*
X-73436826Y8009245D01*
X-73532064Y7961626D01*
X-73579683Y7961626D01*
X-73674921Y8009245D01*
X-73722540Y8056864D01*
X-73770159Y8152102D01*
X-73770159Y8342579D01*
X-73722540Y8437817D01*
X-73674921Y8485436D01*
X-73579683Y8533055D01*
X-73532064Y8533055D01*
X-73436826Y8485436D01*
X-73389207Y8437817D01*
X-73341588Y8342579D01*
X-73341588Y8152102D01*
X-73293969Y8056864D01*
X-73246350Y8009245D01*
X-73151111Y7961626D01*
X-72960635Y7961626D01*
X-72865397Y8009245D01*
X-72817778Y8056864D01*
X-72770159Y8152102D01*
X-72770159Y8342579D01*
X-72817778Y8437817D01*
X-72865397Y8485436D01*
X-72960635Y8533055D01*
X-73151111Y8533055D01*
X-73246350Y8485436D01*
X-73293969Y8437817D01*
X-73341588Y8342579D01*
X-53720159Y6833054D02*
X-54720159Y6833054D01*
X-54720159Y7071149D01*
X-54672540Y7214007D01*
X-54577302Y7309245D01*
X-54482064Y7356864D01*
X-54291588Y7404483D01*
X-54148730Y7404483D01*
X-53958254Y7356864D01*
X-53863016Y7309245D01*
X-53767778Y7214007D01*
X-53720159Y7071149D01*
X-53720159Y6833054D01*
X-53720159Y8356864D02*
X-53720159Y7785435D01*
X-53720159Y8071149D02*
X-54720159Y8071149D01*
X-54577302Y7975911D01*
X-54482064Y7880673D01*
X-54434445Y7785435D01*
X-54624921Y8737816D02*
X-54672540Y8785435D01*
X-54720159Y8880673D01*
X-54720159Y9118769D01*
X-54672540Y9214007D01*
X-54624921Y9261626D01*
X-54529683Y9309245D01*
X-54434445Y9309245D01*
X-54291588Y9261626D01*
X-53720159Y8690197D01*
X-53720159Y9309245D01*
X-34720159Y6733054D02*
X-35720159Y6733054D01*
X-35720159Y6971149D01*
X-35672540Y7114007D01*
X-35577302Y7209245D01*
X-35482064Y7256864D01*
X-35291588Y7304483D01*
X-35148730Y7304483D01*
X-34958254Y7256864D01*
X-34863016Y7209245D01*
X-34767778Y7114007D01*
X-34720159Y6971149D01*
X-34720159Y6733054D01*
X-34720159Y8256864D02*
X-34720159Y7685435D01*
X-34720159Y7971149D02*
X-35720159Y7971149D01*
X-35577302Y7875911D01*
X-35482064Y7780673D01*
X-35434445Y7685435D01*
X-35720159Y9114007D02*
X-35720159Y8923530D01*
X-35672540Y8828292D01*
X-35624921Y8780673D01*
X-35482064Y8685435D01*
X-35291588Y8637816D01*
X-34910635Y8637816D01*
X-34815397Y8685435D01*
X-34767778Y8733054D01*
X-34720159Y8828292D01*
X-34720159Y9018769D01*
X-34767778Y9114007D01*
X-34815397Y9161626D01*
X-34910635Y9209245D01*
X-35148730Y9209245D01*
X-35243969Y9161626D01*
X-35291588Y9114007D01*
X-35339207Y9018769D01*
X-35339207Y8828292D01*
X-35291588Y8733054D01*
X-35243969Y8685435D01*
X-35148730Y8637816D01*
X-30436946Y14270159D02*
X-30436946Y15270159D01*
X-30198851Y15270159D01*
X-30055993Y15222540D01*
X-29960755Y15127302D01*
X-29913136Y15032064D01*
X-29865517Y14841588D01*
X-29865517Y14698730D01*
X-29913136Y14508254D01*
X-29960755Y14413016D01*
X-30055993Y14317778D01*
X-30198851Y14270159D01*
X-30436946Y14270159D01*
X-29484565Y15174921D02*
X-29436946Y15222540D01*
X-29341708Y15270159D01*
X-29103612Y15270159D01*
X-29008374Y15222540D01*
X-28960755Y15174921D01*
X-28913136Y15079683D01*
X-28913136Y14984445D01*
X-28960755Y14841588D01*
X-29532184Y14270159D01*
X-28913136Y14270159D01*
X-28055993Y14936826D02*
X-28055993Y14270159D01*
X-28294089Y15317778D02*
X-28532184Y14603492D01*
X-27913136Y14603492D01*
X-10086946Y33420159D02*
X-10086946Y34420159D01*
X-9848851Y34420159D01*
X-9705993Y34372540D01*
X-9610755Y34277302D01*
X-9563136Y34182064D01*
X-9515517Y33991588D01*
X-9515517Y33848730D01*
X-9563136Y33658254D01*
X-9610755Y33563016D01*
X-9705993Y33467778D01*
X-9848851Y33420159D01*
X-10086946Y33420159D01*
X-9134565Y34324921D02*
X-9086946Y34372540D01*
X-8991708Y34420159D01*
X-8753612Y34420159D01*
X-8658374Y34372540D01*
X-8610755Y34324921D01*
X-8563136Y34229683D01*
X-8563136Y34134445D01*
X-8610755Y33991588D01*
X-9182184Y33420159D01*
X-8563136Y33420159D01*
X-8182184Y34324921D02*
X-8134565Y34372540D01*
X-8039327Y34420159D01*
X-7801231Y34420159D01*
X-7705993Y34372540D01*
X-7658374Y34324921D01*
X-7610755Y34229683D01*
X-7610755Y34134445D01*
X-7658374Y33991588D01*
X-8229803Y33420159D01*
X-7610755Y33420159D01*
X-8686946Y14270159D02*
X-8686946Y15270159D01*
X-8448851Y15270159D01*
X-8305993Y15222540D01*
X-8210755Y15127302D01*
X-8163136Y15032064D01*
X-8115517Y14841588D01*
X-8115517Y14698730D01*
X-8163136Y14508254D01*
X-8210755Y14413016D01*
X-8305993Y14317778D01*
X-8448851Y14270159D01*
X-8686946Y14270159D01*
X-7734565Y15174921D02*
X-7686946Y15222540D01*
X-7591708Y15270159D01*
X-7353612Y15270159D01*
X-7258374Y15222540D01*
X-7210755Y15174921D01*
X-7163136Y15079683D01*
X-7163136Y14984445D01*
X-7210755Y14841588D01*
X-7782184Y14270159D01*
X-7163136Y14270159D01*
X-6829803Y15270159D02*
X-6210755Y15270159D01*
X-6544089Y14889207D01*
X-6401231Y14889207D01*
X-6305993Y14841588D01*
X-6258374Y14793969D01*
X-6210755Y14698730D01*
X-6210755Y14460635D01*
X-6258374Y14365397D01*
X-6305993Y14317778D01*
X-6401231Y14270159D01*
X-6686946Y14270159D01*
X-6782184Y14317778D01*
X-6829803Y14365397D01*
X-34570159Y25533054D02*
X-35570159Y25533054D01*
X-35570159Y25771149D01*
X-35522540Y25914007D01*
X-35427302Y26009245D01*
X-35332064Y26056864D01*
X-35141588Y26104483D01*
X-34998730Y26104483D01*
X-34808254Y26056864D01*
X-34713016Y26009245D01*
X-34617778Y25914007D01*
X-34570159Y25771149D01*
X-34570159Y25533054D01*
X-34570159Y27056864D02*
X-34570159Y26485435D01*
X-34570159Y26771149D02*
X-35570159Y26771149D01*
X-35427302Y26675911D01*
X-35332064Y26580673D01*
X-35284445Y26485435D01*
X-35570159Y27961626D02*
X-35570159Y27485435D01*
X-35093969Y27437816D01*
X-35141588Y27485435D01*
X-35189207Y27580673D01*
X-35189207Y27818769D01*
X-35141588Y27914007D01*
X-35093969Y27961626D01*
X-34998730Y28009245D01*
X-34760635Y28009245D01*
X-34665397Y27961626D01*
X-34617778Y27914007D01*
X-34570159Y27818769D01*
X-34570159Y27580673D01*
X-34617778Y27485435D01*
X-34665397Y27437816D01*
X-53620159Y25533054D02*
X-54620159Y25533054D01*
X-54620159Y25771149D01*
X-54572540Y25914007D01*
X-54477302Y26009245D01*
X-54382064Y26056864D01*
X-54191588Y26104483D01*
X-54048730Y26104483D01*
X-53858254Y26056864D01*
X-53763016Y26009245D01*
X-53667778Y25914007D01*
X-53620159Y25771149D01*
X-53620159Y25533054D01*
X-53620159Y27056864D02*
X-53620159Y26485435D01*
X-53620159Y26771149D02*
X-54620159Y26771149D01*
X-54477302Y26675911D01*
X-54382064Y26580673D01*
X-54334445Y26485435D01*
X-53620159Y28009245D02*
X-53620159Y27437816D01*
X-53620159Y27723530D02*
X-54620159Y27723530D01*
X-54477302Y27628292D01*
X-54382064Y27533054D01*
X-54334445Y27437816D01*
X-72820159Y26459245D02*
X-73820159Y26459245D01*
X-73820159Y26697340D01*
X-73772540Y26840198D01*
X-73677302Y26935436D01*
X-73582064Y26983055D01*
X-73391588Y27030674D01*
X-73248730Y27030674D01*
X-73058254Y26983055D01*
X-72963016Y26935436D01*
X-72867778Y26840198D01*
X-72820159Y26697340D01*
X-72820159Y26459245D01*
X-73820159Y27364007D02*
X-73820159Y28030674D01*
X-72820159Y27602102D01*
X-105935435Y38445079D02*
X-105935435Y39445079D01*
X-105697340Y39445079D01*
X-105554482Y39397460D01*
X-105459244Y39302222D01*
X-105411625Y39206984D01*
X-105364006Y39016508D01*
X-105364006Y38873650D01*
X-105411625Y38683174D01*
X-105459244Y38587936D01*
X-105554482Y38492698D01*
X-105697340Y38445079D01*
X-105935435Y38445079D01*
X-104983054Y39349841D02*
X-104935435Y39397460D01*
X-104840197Y39445079D01*
X-104602101Y39445079D01*
X-104506863Y39397460D01*
X-104459244Y39349841D01*
X-104411625Y39254603D01*
X-104411625Y39159365D01*
X-104459244Y39016508D01*
X-105030673Y38445079D01*
X-104411625Y38445079D01*
X-91870159Y6159245D02*
X-92870159Y6159245D01*
X-92870159Y6397340D01*
X-92822540Y6540198D01*
X-92727302Y6635436D01*
X-92632064Y6683055D01*
X-92441588Y6730674D01*
X-92298730Y6730674D01*
X-92108254Y6683055D01*
X-92013016Y6635436D01*
X-91917778Y6540198D01*
X-91870159Y6397340D01*
X-91870159Y6159245D01*
X-92536826Y7587817D02*
X-91870159Y7587817D01*
X-92917778Y7349721D02*
X-92203492Y7111626D01*
X-92203492Y7730674D01*
X-85510755Y33320159D02*
X-85510755Y34320159D01*
X-85272660Y34320159D01*
X-85129802Y34272540D01*
X-85034564Y34177302D01*
X-84986945Y34082064D01*
X-84939326Y33891588D01*
X-84939326Y33748730D01*
X-84986945Y33558254D01*
X-85034564Y33463016D01*
X-85129802Y33367778D01*
X-85272660Y33320159D01*
X-85510755Y33320159D01*
X-84082183Y34320159D02*
X-84272660Y34320159D01*
X-84367898Y34272540D01*
X-84415517Y34224921D01*
X-84510755Y34082064D01*
X-84558374Y33891588D01*
X-84558374Y33510635D01*
X-84510755Y33415397D01*
X-84463136Y33367778D01*
X-84367898Y33320159D01*
X-84177421Y33320159D01*
X-84082183Y33367778D01*
X-84034564Y33415397D01*
X-83986945Y33510635D01*
X-83986945Y33748730D01*
X-84034564Y33843969D01*
X-84082183Y33891588D01*
X-84177421Y33939207D01*
X-84367898Y33939207D01*
X-84463136Y33891588D01*
X-84510755Y33843969D01*
X-84558374Y33748730D01*
X-53820159Y44783054D02*
X-54820159Y44783054D01*
X-54820159Y45021149D01*
X-54772540Y45164007D01*
X-54677302Y45259245D01*
X-54582064Y45306864D01*
X-54391588Y45354483D01*
X-54248730Y45354483D01*
X-54058254Y45306864D01*
X-53963016Y45259245D01*
X-53867778Y45164007D01*
X-53820159Y45021149D01*
X-53820159Y44783054D01*
X-53820159Y46306864D02*
X-53820159Y45735435D01*
X-53820159Y46021149D02*
X-54820159Y46021149D01*
X-54677302Y45925911D01*
X-54582064Y45830673D01*
X-54534445Y45735435D01*
X-54820159Y46925911D02*
X-54820159Y47021150D01*
X-54772540Y47116388D01*
X-54724921Y47164007D01*
X-54629683Y47211626D01*
X-54439207Y47259245D01*
X-54201111Y47259245D01*
X-54010635Y47211626D01*
X-53915397Y47164007D01*
X-53867778Y47116388D01*
X-53820159Y47021150D01*
X-53820159Y46925911D01*
X-53867778Y46830673D01*
X-53915397Y46783054D01*
X-54010635Y46735435D01*
X-54201111Y46687816D01*
X-54439207Y46687816D01*
X-54629683Y46735435D01*
X-54724921Y46783054D01*
X-54772540Y46830673D01*
X-54820159Y46925911D01*
X-34620159Y44633054D02*
X-35620159Y44633054D01*
X-35620159Y44871149D01*
X-35572540Y45014007D01*
X-35477302Y45109245D01*
X-35382064Y45156864D01*
X-35191588Y45204483D01*
X-35048730Y45204483D01*
X-34858254Y45156864D01*
X-34763016Y45109245D01*
X-34667778Y45014007D01*
X-34620159Y44871149D01*
X-34620159Y44633054D01*
X-34620159Y46156864D02*
X-34620159Y45585435D01*
X-34620159Y45871149D02*
X-35620159Y45871149D01*
X-35477302Y45775911D01*
X-35382064Y45680673D01*
X-35334445Y45585435D01*
X-35286826Y47014007D02*
X-34620159Y47014007D01*
X-35667778Y46775911D02*
X-34953492Y46537816D01*
X-34953492Y47156864D01*
X-15570159Y44383054D02*
X-16570159Y44383054D01*
X-16570159Y44621149D01*
X-16522540Y44764007D01*
X-16427302Y44859245D01*
X-16332064Y44906864D01*
X-16141588Y44954483D01*
X-15998730Y44954483D01*
X-15808254Y44906864D01*
X-15713016Y44859245D01*
X-15617778Y44764007D01*
X-15570159Y44621149D01*
X-15570159Y44383054D01*
X-15570159Y45906864D02*
X-15570159Y45335435D01*
X-15570159Y45621149D02*
X-16570159Y45621149D01*
X-16427302Y45525911D01*
X-16332064Y45430673D01*
X-16284445Y45335435D01*
X-16141588Y46478292D02*
X-16189207Y46383054D01*
X-16236826Y46335435D01*
X-16332064Y46287816D01*
X-16379683Y46287816D01*
X-16474921Y46335435D01*
X-16522540Y46383054D01*
X-16570159Y46478292D01*
X-16570159Y46668769D01*
X-16522540Y46764007D01*
X-16474921Y46811626D01*
X-16379683Y46859245D01*
X-16332064Y46859245D01*
X-16236826Y46811626D01*
X-16189207Y46764007D01*
X-16141588Y46668769D01*
X-16141588Y46478292D01*
X-16093969Y46383054D01*
X-16046350Y46335435D01*
X-15951111Y46287816D01*
X-15760635Y46287816D01*
X-15665397Y46335435D01*
X-15617778Y46383054D01*
X-15570159Y46478292D01*
X-15570159Y46668769D01*
X-15617778Y46764007D01*
X-15665397Y46811626D01*
X-15760635Y46859245D01*
X-15951111Y46859245D01*
X-16046350Y46811626D01*
X-16093969Y46764007D01*
X-16141588Y46668769D01*
X-9786946Y52520159D02*
X-9786946Y53520159D01*
X-9548851Y53520159D01*
X-9405993Y53472540D01*
X-9310755Y53377302D01*
X-9263136Y53282064D01*
X-9215517Y53091588D01*
X-9215517Y52948730D01*
X-9263136Y52758254D01*
X-9310755Y52663016D01*
X-9405993Y52567778D01*
X-9548851Y52520159D01*
X-9786946Y52520159D01*
X-8834565Y53424921D02*
X-8786946Y53472540D01*
X-8691708Y53520159D01*
X-8453612Y53520159D01*
X-8358374Y53472540D01*
X-8310755Y53424921D01*
X-8263136Y53329683D01*
X-8263136Y53234445D01*
X-8310755Y53091588D01*
X-8882184Y52520159D01*
X-8263136Y52520159D01*
X-7310755Y52520159D02*
X-7882184Y52520159D01*
X-7596470Y52520159D02*
X-7596470Y53520159D01*
X-7691708Y53377302D01*
X-7786946Y53282064D01*
X-7882184Y53234445D01*
X-29824286Y57307619D02*
X-29824286Y58307619D01*
X-29586191Y58307619D01*
X-29443333Y58260000D01*
X-29348095Y58164762D01*
X-29300476Y58069524D01*
X-29252857Y57879048D01*
X-29252857Y57736190D01*
X-29300476Y57545714D01*
X-29348095Y57450476D01*
X-29443333Y57355238D01*
X-29586191Y57307619D01*
X-29824286Y57307619D01*
X-28300476Y57307619D02*
X-28871905Y57307619D01*
X-28586191Y57307619D02*
X-28586191Y58307619D01*
X-28681429Y58164762D01*
X-28776667Y58069524D01*
X-28871905Y58021905D01*
X-27967143Y58307619D02*
X-27300476Y58307619D01*
X-27729048Y57307619D01*
X-34670159Y63683054D02*
X-35670159Y63683054D01*
X-35670159Y63921149D01*
X-35622540Y64064007D01*
X-35527302Y64159245D01*
X-35432064Y64206864D01*
X-35241588Y64254483D01*
X-35098730Y64254483D01*
X-34908254Y64206864D01*
X-34813016Y64159245D01*
X-34717778Y64064007D01*
X-34670159Y63921149D01*
X-34670159Y63683054D01*
X-34670159Y65206864D02*
X-34670159Y64635435D01*
X-34670159Y64921149D02*
X-35670159Y64921149D01*
X-35527302Y64825911D01*
X-35432064Y64730673D01*
X-35384445Y64635435D01*
X-35670159Y65540197D02*
X-35670159Y66159245D01*
X-35289207Y65825911D01*
X-35289207Y65968769D01*
X-35241588Y66064007D01*
X-35193969Y66111626D01*
X-35098730Y66159245D01*
X-34860635Y66159245D01*
X-34765397Y66111626D01*
X-34717778Y66064007D01*
X-34670159Y65968769D01*
X-34670159Y65683054D01*
X-34717778Y65587816D01*
X-34765397Y65540197D01*
X-53620159Y64159245D02*
X-54620159Y64159245D01*
X-54620159Y64397340D01*
X-54572540Y64540198D01*
X-54477302Y64635436D01*
X-54382064Y64683055D01*
X-54191588Y64730674D01*
X-54048730Y64730674D01*
X-53858254Y64683055D01*
X-53763016Y64635436D01*
X-53667778Y64540198D01*
X-53620159Y64397340D01*
X-53620159Y64159245D01*
X-53620159Y65206864D02*
X-53620159Y65397340D01*
X-53667778Y65492579D01*
X-53715397Y65540198D01*
X-53858254Y65635436D01*
X-54048730Y65683055D01*
X-54429683Y65683055D01*
X-54524921Y65635436D01*
X-54572540Y65587817D01*
X-54620159Y65492579D01*
X-54620159Y65302102D01*
X-54572540Y65206864D01*
X-54524921Y65159245D01*
X-54429683Y65111626D01*
X-54191588Y65111626D01*
X-54096350Y65159245D01*
X-54048730Y65206864D01*
X-54001111Y65302102D01*
X-54001111Y65492579D01*
X-54048730Y65587817D01*
X-54096350Y65635436D01*
X-54191588Y65683055D01*
X-67435435Y57495079D02*
X-67435435Y58495079D01*
X-67197340Y58495079D01*
X-67054482Y58447460D01*
X-66959244Y58352222D01*
X-66911625Y58256984D01*
X-66864006Y58066508D01*
X-66864006Y57923650D01*
X-66911625Y57733174D01*
X-66959244Y57637936D01*
X-67054482Y57542698D01*
X-67197340Y57495079D01*
X-67435435Y57495079D01*
X-65959244Y58495079D02*
X-66435435Y58495079D01*
X-66483054Y58018889D01*
X-66435435Y58066508D01*
X-66340197Y58114127D01*
X-66102101Y58114127D01*
X-66006863Y58066508D01*
X-65959244Y58018889D01*
X-65911625Y57923650D01*
X-65911625Y57685555D01*
X-65959244Y57590317D01*
X-66006863Y57542698D01*
X-66102101Y57495079D01*
X-66340197Y57495079D01*
X-66435435Y57542698D01*
X-66483054Y57590317D01*
X-105035435Y57495079D02*
X-105035435Y58495079D01*
X-104797340Y58495079D01*
X-104654482Y58447460D01*
X-104559244Y58352222D01*
X-104511625Y58256984D01*
X-104464006Y58066508D01*
X-104464006Y57923650D01*
X-104511625Y57733174D01*
X-104559244Y57637936D01*
X-104654482Y57542698D01*
X-104797340Y57495079D01*
X-105035435Y57495079D01*
X-103511625Y57495079D02*
X-104083054Y57495079D01*
X-103797340Y57495079D02*
X-103797340Y58495079D01*
X-103892578Y58352222D01*
X-103987816Y58256984D01*
X-104083054Y58209365D01*
X-91857619Y27711905D02*
X-92857619Y27711905D01*
X-92857619Y27950000D01*
X-92810000Y28092858D01*
X-92714762Y28188096D01*
X-92619524Y28235715D01*
X-92429048Y28283334D01*
X-92286190Y28283334D01*
X-92095714Y28235715D01*
X-92000476Y28188096D01*
X-91905238Y28092858D01*
X-91857619Y27950000D01*
X-91857619Y27711905D01*
X-92857619Y28616667D02*
X-92857619Y29235715D01*
X-92476667Y28902381D01*
X-92476667Y29045239D01*
X-92429048Y29140477D01*
X-92381429Y29188096D01*
X-92286190Y29235715D01*
X-92048095Y29235715D01*
X-91952857Y29188096D01*
X-91905238Y29140477D01*
X-91857619Y29045239D01*
X-91857619Y28759524D01*
X-91905238Y28664286D01*
X-91952857Y28616667D01*
X-15620159Y27933054D02*
X-16620159Y27933054D01*
X-16620159Y28171149D01*
X-16572540Y28314007D01*
X-16477302Y28409245D01*
X-16382064Y28456864D01*
X-16191588Y28504483D01*
X-16048730Y28504483D01*
X-15858254Y28456864D01*
X-15763016Y28409245D01*
X-15667778Y28314007D01*
X-15620159Y28171149D01*
X-15620159Y27933054D01*
X-15620159Y29456864D02*
X-15620159Y28885435D01*
X-15620159Y29171149D02*
X-16620159Y29171149D01*
X-16477302Y29075911D01*
X-16382064Y28980673D01*
X-16334445Y28885435D01*
X-15620159Y29933054D02*
X-15620159Y30123530D01*
X-15667778Y30218769D01*
X-15715397Y30266388D01*
X-15858254Y30361626D01*
X-16048730Y30409245D01*
X-16429683Y30409245D01*
X-16524921Y30361626D01*
X-16572540Y30314007D01*
X-16620159Y30218769D01*
X-16620159Y30028292D01*
X-16572540Y29933054D01*
X-16524921Y29885435D01*
X-16429683Y29837816D01*
X-16191588Y29837816D01*
X-16096350Y29885435D01*
X-16048730Y29933054D01*
X-16001111Y30028292D01*
X-16001111Y30218769D01*
X-16048730Y30314007D01*
X-16096350Y30361626D01*
X-16191588Y30409245D01*
D17*
X-20115000Y74029571D02*
X-20453666Y74029571D01*
X-20623000Y73957000D01*
X-20707666Y73884429D01*
X-20877000Y73666714D01*
X-20961666Y73376429D01*
X-20961666Y72795857D01*
X-20877000Y72650714D01*
X-20792333Y72578143D01*
X-20623000Y72505571D01*
X-20284333Y72505571D01*
X-20115000Y72578143D01*
X-20030333Y72650714D01*
X-19945666Y72795857D01*
X-19945666Y73158714D01*
X-20030333Y73303857D01*
X-20115000Y73376429D01*
X-20284333Y73449000D01*
X-20623000Y73449000D01*
X-20792333Y73376429D01*
X-20877000Y73303857D01*
X-20961666Y73158714D01*
X-19183667Y72505571D02*
X-19183667Y74029571D01*
X-18506333Y74029571D01*
X-18337000Y73957000D01*
X-18252333Y73884429D01*
X-18167667Y73739286D01*
X-18167667Y73521571D01*
X-18252333Y73376429D01*
X-18337000Y73303857D01*
X-18506333Y73231286D01*
X-19183667Y73231286D01*
X-17405667Y72505571D02*
X-17405667Y74029571D01*
X-16559000Y72505571D02*
X-16559000Y74029571D01*
X-15543000Y72505571D01*
X-15543000Y74029571D01*
D15*
X-19764762Y68117619D02*
X-19526667Y67117619D01*
X-19336190Y67831905D01*
X-19145714Y67117619D01*
X-18907619Y68117619D01*
X-18574286Y68022381D02*
X-18526667Y68070000D01*
X-18431429Y68117619D01*
X-18193333Y68117619D01*
X-18098095Y68070000D01*
X-18050476Y68022381D01*
X-18002857Y67927143D01*
X-18002857Y67831905D01*
X-18050476Y67689048D01*
X-18621905Y67117619D01*
X-18002857Y67117619D01*
X-10507619Y60326667D02*
X-9793333Y60326667D01*
X-9650476Y60279047D01*
X-9555238Y60183809D01*
X-9507619Y60040952D01*
X-9507619Y59945714D01*
X-9507619Y61326667D02*
X-9507619Y60755238D01*
X-9507619Y61040952D02*
X-10507619Y61040952D01*
X-10364762Y60945714D01*
X-10269524Y60850476D01*
X-10221905Y60755238D01*
X-22257619Y60426667D02*
X-21543333Y60426667D01*
X-21400476Y60379047D01*
X-21305238Y60283809D01*
X-21257619Y60140952D01*
X-21257619Y60045714D01*
X-22257619Y60807619D02*
X-22257619Y61426667D01*
X-21876667Y61093333D01*
X-21876667Y61236191D01*
X-21829048Y61331429D01*
X-21781429Y61379048D01*
X-21686190Y61426667D01*
X-21448095Y61426667D01*
X-21352857Y61379048D01*
X-21305238Y61331429D01*
X-21257619Y61236191D01*
X-21257619Y60950476D01*
X-21305238Y60855238D01*
X-21352857Y60807619D01*
D10*
X-28312380Y55028410D02*
X-28193333Y54528410D01*
X-28098095Y54885552D01*
X-28002857Y54528410D01*
X-27883809Y55028410D01*
X-27431428Y54528410D02*
X-27717142Y54528410D01*
X-27574285Y54528410D02*
X-27574285Y55028410D01*
X-27621904Y54956981D01*
X-27669523Y54909362D01*
X-27717142Y54885552D01*
D15*
X-95371905Y21497619D02*
X-95371905Y20688095D01*
X-95324286Y20592857D01*
X-95276667Y20545238D01*
X-95181429Y20497619D01*
X-94990952Y20497619D01*
X-94895714Y20545238D01*
X-94848095Y20592857D01*
X-94800476Y20688095D01*
X-94800476Y21497619D01*
X-94371905Y21402381D02*
X-94324286Y21450000D01*
X-94229048Y21497619D01*
X-93990952Y21497619D01*
X-93895714Y21450000D01*
X-93848095Y21402381D01*
X-93800476Y21307143D01*
X-93800476Y21211905D01*
X-93848095Y21069048D01*
X-94419524Y20497619D01*
X-93800476Y20497619D01*
X-19021905Y21447619D02*
X-19021905Y20638095D01*
X-18974286Y20542857D01*
X-18926667Y20495238D01*
X-18831429Y20447619D01*
X-18640952Y20447619D01*
X-18545714Y20495238D01*
X-18498095Y20542857D01*
X-18450476Y20638095D01*
X-18450476Y21447619D01*
X-18069524Y21447619D02*
X-17450476Y21447619D01*
X-17783810Y21066667D01*
X-17640952Y21066667D01*
X-17545714Y21019048D01*
X-17498095Y20971429D01*
X-17450476Y20876190D01*
X-17450476Y20638095D01*
X-17498095Y20542857D01*
X-17545714Y20495238D01*
X-17640952Y20447619D01*
X-17926667Y20447619D01*
X-18021905Y20495238D01*
X-18069524Y20542857D01*
X-19171905Y59547619D02*
X-19171905Y58738095D01*
X-19124286Y58642857D01*
X-19076667Y58595238D01*
X-18981429Y58547619D01*
X-18790952Y58547619D01*
X-18695714Y58595238D01*
X-18648095Y58642857D01*
X-18600476Y58738095D01*
X-18600476Y59547619D01*
X-17695714Y59214286D02*
X-17695714Y58547619D01*
X-17933810Y59595238D02*
X-18171905Y58880952D01*
X-17552857Y58880952D01*
X-98521905Y78697619D02*
X-98521905Y77888095D01*
X-98474286Y77792857D01*
X-98426667Y77745238D01*
X-98331429Y77697619D01*
X-98140952Y77697619D01*
X-98045714Y77745238D01*
X-97998095Y77792857D01*
X-97950476Y77888095D01*
X-97950476Y78697619D01*
X-96998095Y78697619D02*
X-97474286Y78697619D01*
X-97521905Y78221429D01*
X-97474286Y78269048D01*
X-97379048Y78316667D01*
X-97140952Y78316667D01*
X-97045714Y78269048D01*
X-96998095Y78221429D01*
X-96950476Y78126190D01*
X-96950476Y77888095D01*
X-96998095Y77792857D01*
X-97045714Y77745238D01*
X-97140952Y77697619D01*
X-97379048Y77697619D01*
X-97474286Y77745238D01*
X-97521905Y77792857D01*
%LPC*%
D18*
X-30659724Y50939328D02*
X-30620276Y50360672D01*
X-24969816Y49860307D02*
X-24160184Y48399693D01*
D19*
X-28160000Y45860000D03*
D20*
X-33240000Y45860000D03*
X-23080000Y45860000D03*
D18*
X-31159547Y49859954D02*
X-31970453Y48400046D01*
X-25620276Y50939328D02*
X-25659724Y50360672D01*
D21*
X-18612540Y11420000D03*
D22*
X-18612540Y1260000D03*
D21*
X-75762540Y12520000D03*
D22*
X-75762540Y2360000D03*
D21*
X-56712540Y12820000D03*
D22*
X-56712540Y2660000D03*
D21*
X-37712540Y12720000D03*
D22*
X-37712540Y2560000D03*
D21*
X-24450000Y17262540D03*
D22*
X-34610000Y17262540D03*
D21*
X-4100000Y36412540D03*
D22*
X-14260000Y36412540D03*
D21*
X-2700000Y17262540D03*
D22*
X-12860000Y17262540D03*
D21*
X-37562540Y31520000D03*
D22*
X-37562540Y21360000D03*
D21*
X-56612540Y31520000D03*
D22*
X-56612540Y21360000D03*
D21*
X-75812540Y31970000D03*
D22*
X-75812540Y21810000D03*
D21*
X-109970000Y36357460D03*
D22*
X-99810000Y36357460D03*
D21*
X-94862540Y11670000D03*
D22*
X-94862540Y1510000D03*
D21*
X-80000000Y36312540D03*
D22*
X-90160000Y36312540D03*
D21*
X-56812540Y50770000D03*
D22*
X-56812540Y40610000D03*
D21*
X-37612540Y50620000D03*
D22*
X-37612540Y40460000D03*
D21*
X-18610000Y48760000D03*
D22*
X-18562540Y40210000D03*
D21*
X-3800000Y55512540D03*
D22*
X-12360000Y55510000D03*
D21*
X-24860000Y55510000D03*
D22*
X-33110000Y55462540D03*
D21*
X-37662540Y69670000D03*
D22*
X-37662540Y59510000D03*
D21*
X-56612540Y69670000D03*
D22*
X-56612540Y59510000D03*
D21*
X-71470000Y55407460D03*
D22*
X-61310000Y55407460D03*
D21*
X-109070000Y55407460D03*
D22*
X-98910000Y55407460D03*
D21*
X-94862540Y33170000D03*
D22*
X-94862540Y23010000D03*
D21*
X-18612540Y33920000D03*
D22*
X-18612540Y23760000D03*
D23*
X-13561800Y76014400D03*
D24*
X-21816800Y71010600D03*
X-16609800Y67911800D03*
D23*
X-22858200Y76014400D03*
D24*
X-19810200Y67911800D03*
X-14603200Y71010600D03*
D25*
X-18210000Y76014400D03*
X-18210000Y71010600D03*
D26*
X-48380000Y55460000D03*
X-58540000Y55460000D03*
X-45890000Y55460000D03*
X-35730000Y55460000D03*
D18*
X-106859724Y69989328D02*
X-106820276Y69410672D01*
X-101169816Y68910307D02*
X-100360184Y67449693D01*
D19*
X-104360000Y64910000D03*
D20*
X-109440000Y64910000D03*
X-99280000Y64910000D03*
D18*
X-107359547Y68909954D02*
X-108170453Y67450046D01*
X-101820276Y69989328D02*
X-101859724Y69410672D01*
X-106809724Y50889328D02*
X-106770276Y50310672D01*
X-101119816Y49810307D02*
X-100310184Y48349693D01*
D19*
X-104310000Y45810000D03*
D20*
X-109390000Y45810000D03*
X-99230000Y45810000D03*
D18*
X-107309547Y49809954D02*
X-108120453Y48350046D01*
X-101770276Y50889328D02*
X-101809724Y50310672D01*
X-106859724Y31839328D02*
X-106820276Y31260672D01*
X-101169816Y30760307D02*
X-100360184Y29299693D01*
D19*
X-104360000Y26760000D03*
D20*
X-109440000Y26760000D03*
X-99280000Y26760000D03*
D18*
X-107359547Y30759954D02*
X-108170453Y29300046D01*
X-101820276Y31839328D02*
X-101859724Y31260672D01*
X-106859724Y12689328D02*
X-106820276Y12110672D01*
X-101169816Y11610307D02*
X-100360184Y10149693D01*
D19*
X-104360000Y7610000D03*
D20*
X-109440000Y7610000D03*
X-99280000Y7610000D03*
D18*
X-107359547Y11609954D02*
X-108170453Y10150046D01*
X-101820276Y12689328D02*
X-101859724Y12110672D01*
X-87809724Y69989328D02*
X-87770276Y69410672D01*
X-82119816Y68910307D02*
X-81310184Y67449693D01*
D19*
X-85310000Y64910000D03*
D20*
X-90390000Y64910000D03*
X-80230000Y64910000D03*
D18*
X-88309547Y68909954D02*
X-89120453Y67450046D01*
X-82770276Y69989328D02*
X-82809724Y69410672D01*
X-87809724Y50939328D02*
X-87770276Y50360672D01*
X-82119816Y49860307D02*
X-81310184Y48399693D01*
D19*
X-85310000Y45860000D03*
D20*
X-90390000Y45860000D03*
X-80230000Y45860000D03*
D18*
X-88309547Y49859954D02*
X-89120453Y48400046D01*
X-82770276Y50939328D02*
X-82809724Y50360672D01*
X-87809724Y31889328D02*
X-87770276Y31310672D01*
X-82119816Y30810307D02*
X-81310184Y29349693D01*
D19*
X-85310000Y26810000D03*
D20*
X-90390000Y26810000D03*
X-80230000Y26810000D03*
D18*
X-88309547Y30809954D02*
X-89120453Y29350046D01*
X-82770276Y31889328D02*
X-82809724Y31310672D01*
X-87809724Y12839328D02*
X-87770276Y12260672D01*
X-82119816Y11760307D02*
X-81310184Y10299693D01*
D19*
X-85310000Y7760000D03*
D20*
X-90390000Y7760000D03*
X-80230000Y7760000D03*
D18*
X-88309547Y11759954D02*
X-89120453Y10300046D01*
X-82770276Y12839328D02*
X-82809724Y12260672D01*
X-68759724Y69989328D02*
X-68720276Y69410672D01*
X-63069816Y68910307D02*
X-62260184Y67449693D01*
D19*
X-66260000Y64910000D03*
D20*
X-71340000Y64910000D03*
X-61180000Y64910000D03*
D18*
X-69259547Y68909954D02*
X-70070453Y67450046D01*
X-63720276Y69989328D02*
X-63759724Y69410672D01*
X-68759724Y50939328D02*
X-68720276Y50360672D01*
X-63069816Y49860307D02*
X-62260184Y48399693D01*
D19*
X-66260000Y45860000D03*
D20*
X-71340000Y45860000D03*
X-61180000Y45860000D03*
D18*
X-69259547Y49859954D02*
X-70070453Y48400046D01*
X-63720276Y50939328D02*
X-63759724Y50360672D01*
X-68759724Y31889328D02*
X-68720276Y31310672D01*
X-63069816Y30810307D02*
X-62260184Y29349693D01*
D19*
X-66260000Y26810000D03*
D20*
X-71340000Y26810000D03*
X-61180000Y26810000D03*
D18*
X-69259547Y30809954D02*
X-70070453Y29350046D01*
X-63720276Y31889328D02*
X-63759724Y31310672D01*
X-68759724Y12839328D02*
X-68720276Y12260672D01*
X-63069816Y11760307D02*
X-62260184Y10299693D01*
D19*
X-66260000Y7760000D03*
D20*
X-71340000Y7760000D03*
X-61180000Y7760000D03*
D18*
X-69259547Y11759954D02*
X-70070453Y10300046D01*
X-63720276Y12839328D02*
X-63759724Y12260672D01*
X-49709724Y69989328D02*
X-49670276Y69410672D01*
X-44019816Y68910307D02*
X-43210184Y67449693D01*
D19*
X-47210000Y64910000D03*
D20*
X-52290000Y64910000D03*
X-42130000Y64910000D03*
D18*
X-50209547Y68909954D02*
X-51020453Y67450046D01*
X-44670276Y69989328D02*
X-44709724Y69410672D01*
X-49709724Y50939328D02*
X-49670276Y50360672D01*
X-44019816Y49860307D02*
X-43210184Y48399693D01*
D19*
X-47210000Y45860000D03*
D20*
X-52290000Y45860000D03*
X-42130000Y45860000D03*
D18*
X-50209547Y49859954D02*
X-51020453Y48400046D01*
X-44670276Y50939328D02*
X-44709724Y50360672D01*
X-49709724Y31889328D02*
X-49670276Y31310672D01*
X-44019816Y30810307D02*
X-43210184Y29349693D01*
D19*
X-47210000Y26810000D03*
D20*
X-52290000Y26810000D03*
X-42130000Y26810000D03*
D18*
X-50209547Y30809954D02*
X-51020453Y29350046D01*
X-44670276Y31889328D02*
X-44709724Y31310672D01*
X-49709724Y12839328D02*
X-49670276Y12260672D01*
X-44019816Y11760307D02*
X-43210184Y10299693D01*
D19*
X-47210000Y7760000D03*
D20*
X-52290000Y7760000D03*
X-42130000Y7760000D03*
D18*
X-50209547Y11759954D02*
X-51020453Y10300046D01*
X-44670276Y12839328D02*
X-44709724Y12260672D01*
X-30659724Y69989328D02*
X-30620276Y69410672D01*
X-24969816Y68910307D02*
X-24160184Y67449693D01*
D19*
X-28160000Y64910000D03*
D20*
X-33240000Y64910000D03*
X-23080000Y64910000D03*
D18*
X-31159547Y68909954D02*
X-31970453Y67450046D01*
X-25620276Y69989328D02*
X-25659724Y69410672D01*
X-30659724Y31889328D02*
X-30620276Y31310672D01*
X-24969816Y30810307D02*
X-24160184Y29349693D01*
D19*
X-28160000Y26810000D03*
D20*
X-33240000Y26810000D03*
X-23080000Y26810000D03*
D18*
X-31159547Y30809954D02*
X-31970453Y29350046D01*
X-25620276Y31889328D02*
X-25659724Y31310672D01*
X-30659724Y12839328D02*
X-30620276Y12260672D01*
X-24969816Y11760307D02*
X-24160184Y10299693D01*
D19*
X-28160000Y7760000D03*
D20*
X-33240000Y7760000D03*
X-23080000Y7760000D03*
D18*
X-31159547Y11759954D02*
X-31970453Y10300046D01*
X-25620276Y12839328D02*
X-25659724Y12260672D01*
X-11609724Y69989328D02*
X-11570276Y69410672D01*
X-5919816Y68910307D02*
X-5110184Y67449693D01*
D19*
X-9110000Y64910000D03*
D20*
X-14190000Y64910000D03*
X-4030000Y64910000D03*
D18*
X-12109547Y68909954D02*
X-12920453Y67450046D01*
X-6570276Y69989328D02*
X-6609724Y69410672D01*
X-11609724Y50939328D02*
X-11570276Y50360672D01*
X-5919816Y49860307D02*
X-5110184Y48399693D01*
D19*
X-9110000Y45860000D03*
D20*
X-14190000Y45860000D03*
X-4030000Y45860000D03*
D18*
X-12109547Y49859954D02*
X-12920453Y48400046D01*
X-6570276Y50939328D02*
X-6609724Y50360672D01*
X-11609724Y31889328D02*
X-11570276Y31310672D01*
X-5919816Y30810307D02*
X-5110184Y29349693D01*
D19*
X-9110000Y26810000D03*
D20*
X-14190000Y26810000D03*
X-4030000Y26810000D03*
D18*
X-12109547Y30809954D02*
X-12920453Y29350046D01*
X-6570276Y31889328D02*
X-6609724Y31310672D01*
X-11609724Y12839328D02*
X-11570276Y12260672D01*
X-5919816Y11760307D02*
X-5110184Y10299693D01*
D19*
X-9110000Y7760000D03*
D20*
X-14190000Y7760000D03*
X-4030000Y7760000D03*
D18*
X-12109547Y11759954D02*
X-12920453Y10300046D01*
X-6570276Y12839328D02*
X-6609724Y12260672D01*
D27*
X-77690000Y75980000D03*
D24*
X-77690000Y73440000D03*
X-77690000Y70900000D03*
X-77690000Y68360000D03*
X-77690000Y65820000D03*
X-77690000Y63280000D03*
X-77690000Y60740000D03*
X-77690000Y58200000D03*
X-77690000Y55660000D03*
X-77690000Y53120000D03*
X-77690000Y50580000D03*
X-77690000Y48040000D03*
X-92930000Y48040000D03*
X-92930000Y50580000D03*
X-92930000Y53120000D03*
X-92930000Y55660000D03*
X-92930000Y58200000D03*
X-92930000Y60740000D03*
X-92930000Y63280000D03*
X-92930000Y70900000D03*
X-92930000Y73440000D03*
X-92930000Y75980000D03*
X-92930000Y65820000D03*
X-92930000Y68360000D03*
D28*
X-18860000Y63760000D03*
D29*
X-12460000Y58660000D03*
X-12460000Y60660000D03*
X-12460000Y62660000D03*
X-12460000Y58660000D03*
X-12460000Y60660000D03*
X-12460000Y62660000D03*
D30*
X-12450000Y60650000D03*
X-12470000Y62660000D03*
X-12450000Y58650000D03*
D29*
X-24210000Y58760000D03*
X-24210000Y60760000D03*
X-24210000Y62760000D03*
X-24210000Y58760000D03*
X-24210000Y60760000D03*
X-24210000Y62760000D03*
D30*
X-24200000Y60750000D03*
X-24220000Y62760000D03*
X-24200000Y58750000D03*
D10*
G36*
X-27801200Y52843254D02*
X-28442546Y53484600D01*
X-27801200Y54125946D01*
X-27159854Y53484600D01*
X-27801200Y52843254D01*
X-27801200Y52843254D01*
G37*
G36*
X-29041250Y52884600D02*
X-28541250Y53584600D01*
X-28341150Y53584600D01*
X-27841150Y52884600D01*
X-29041250Y52884600D01*
X-29041250Y52884600D01*
G37*
G36*
X-27841150Y54084600D02*
X-28341150Y53384600D01*
X-28541250Y53384600D01*
X-29041250Y54084600D01*
X-27841150Y54084600D01*
X-27841150Y54084600D01*
G37*
D31*
X-28691200Y53484600D03*
D10*
G36*
X-29041250Y52884600D02*
X-28541250Y53584600D01*
X-28341150Y53584600D01*
X-27841150Y52884600D01*
X-29041250Y52884600D01*
X-29041250Y52884600D01*
G37*
D32*
X-27300000Y53500000D03*
D10*
G36*
X-27801200Y52843254D02*
X-28442546Y53484600D01*
X-27801200Y54125946D01*
X-27159854Y53484600D01*
X-27801200Y52843254D01*
X-27801200Y52843254D01*
G37*
G36*
X-27841150Y54084600D02*
X-28341150Y53384600D01*
X-28541250Y53384600D01*
X-29041250Y54084600D01*
X-27841150Y54084600D01*
X-27841150Y54084600D01*
G37*
D31*
X-28691200Y53484600D03*
D32*
X-27300000Y53490000D03*
D33*
X-27340000Y53490000D03*
D34*
X-28680000Y53470000D03*
D35*
X-94860000Y17260000D03*
X-18510000Y17210000D03*
X-18660000Y55310000D03*
X-98010000Y74460000D03*
M02*
